<?xml version="1.0" encoding="UTF-8"?>
<svg version="1.1" viewBox="0 0 64 64" xmlns="http://www.w3.org/2000/svg">
 <g transform="matrix(1.3375 0 0 1.3401 -13.142 -11.721)" fill="#ff8080">
  <path d="m17.628 19.626 28.23 30.793 4.61-4.543-28.441-30.761z" fill-rule="evenodd" stroke="#000" stroke-width=".795"/>
  <path d="m17.793 17.163a22.2 22.245 84.26 0 0-6.178 17.686 22.2 22.245 84.26 0 0 24.355 19.866 22.2 22.245 84.26 0 0 19.914-24.316 22.2 22.245 84.26 0 0-24.354-19.864 22.2 22.245 84.26 0 0-13.736 6.628zm3.396 2.558a17.992 18.028 84.26 0 1 10.76-4.998 17.992 18.028 84.26 0 1 19.736 16.097 17.992 18.028 84.26 0 1-16.135 19.706 17.992 18.028 84.26 0 1-19.739-16.1 17.992 18.028 84.26 0 1 5.38-14.706z" stroke="#000" stroke-linejoin="round" stroke-width=".774"/>
  <path d="m18.597 20.122 26.827 29.252 4.068-3.988-27.024-29.226z" fill-rule="evenodd"/>
 </g>
</svg>
