<?xml version="1.0" encoding="UTF-8"?>
<svg version="1.1" viewBox="0 0 64 64" xmlns="http://www.w3.org/2000/svg">
 <path d="m44.859 53.341 2.2944 0.0479c3.8777 0.0089 6.4761-2.754 6.4395-7.1191l-0.27148-32.338-12.881-12.271h-22.441l1e-5 -7.5e-4c-3.9401-1e-6 -7.6125 2.046-7.5918 7.5254l0.13477 35.932c0.0165 4.3734 3.2805 8.1948 6.916 8.2031l1.7547 0.0036 0.06625-5.0842-1.3462-0.0042c-1.113-0.01328-2.5055-0.83117-2.5098-3.1191l-0.0664-35.729c-3e-3 -1.5718 1.5006-2.7129 3.1855-2.7129l-3e-5 8.84e-4h19.457l-0.06641 4.6797c-0.05599 3.8629 3.2383 5.3812 5.9648 5.4238l4.3398 0.06641 0.33984 28.814c0.01628 1.384-0.07075 2.9399-2.2383 2.9141l-1.4803 0.03836z" fill="#ff8080" stroke="#000" stroke-linecap="round" stroke-linejoin="round" stroke-width=".75"/>
 <path d="m20.982 16.71c-3.3604-0.0083-3.4888 4.8307 0 4.8136l13.797-0.0678c3.2257-0.01585 2.9528-4.7046-3e-6 -4.7119z" fill="#faa" stroke="#000" stroke-linecap="round" stroke-linejoin="round" stroke-width=".75"/>
 <path d="m21.311 36.778c-3.3604 0.0033-3.4888 4.8189 0 4.8136l3.8339-0.0059 4.26e-4 -4.8115z" fill="#faa" stroke="#000" stroke-linecap="round" stroke-linejoin="round" stroke-width=".75"/>
 <path d="m38.419 41.565 4.9262-0.0076c3.2257-5e-3 2.9528-4.7028-3e-6 -4.7119l-4.9885-0.01573z" fill="#faa" stroke="#000" stroke-linecap="round" stroke-linejoin="round" stroke-width=".75"/>
 <path d="m21.233 26.664c-3.3604 0.0033-3.4888 4.8189 0 4.8136l3.8339-0.0059-0.01515-4.8115z" fill="#faa" stroke="#000" stroke-linecap="round" stroke-linejoin="round" stroke-width=".75"/>
 <path d="m38.341 31.452 4.9262-0.0076c3.2257-5e-3 2.9528-4.7028-4e-6 -4.7119l-4.9885-0.01573z" fill="#faa" stroke="#000" stroke-linecap="round" stroke-linejoin="round" stroke-width=".75"/>
 <path d="m27.297 27.543c-0.03285-5.6832 9.1693-5.8361 9.0847 0l-0.33898 23.39 4.7458-0.0678c2.629-0.03756 2.8686 2.5874 1.6271 3.5932l-9.2881 7.5254c-1.0198 0.82625-2.2528 1.0916-3.4576 0l-7.9322-7.1864c-1.2656-1.1466-1.5178-3.6744 1.6949-3.7288l4-0.0678z" fill="#ffd5d5" stroke="#000" stroke-linecap="round" stroke-linejoin="round" stroke-width=".75"/>
</svg>
