<?xml version="1.0" encoding="UTF-8"?>
<svg cursor="default" version="1.1" viewBox="0 0 256 256" xml:space="preserve" xmlns="http://www.w3.org/2000/svg" xmlns:xlink="http://www.w3.org/1999/xlink"><defs><linearGradient id="linearGradient1165" x1="144.18" x2="139.6" y1="246.76" y2="140.66" gradientTransform="matrix(.025761 .41825 -.99066 .14186 254.63 61.793)" gradientUnits="userSpaceOnUse"><stop stop-color="#f55" offset="0"/><stop stop-color="#ff8080" offset="1"/></linearGradient><linearGradient id="linearGradient2340" x1="209.5" x2="130.64" y1="129.74" y2="142.42" gradientTransform="matrix(-.027539 .41814 .99005 .14607 .47591 44.121)" gradientUnits="userSpaceOnUse" xlink:href="#linearGradient1165"/><linearGradient id="linearGradient2344" x1="156.49" x2="108.76" y1="152.47" y2="80.476" gradientTransform="matrix(.025761 .41825 -.99066 .14186 255.86 47.052)" gradientUnits="userSpaceOnUse" xlink:href="#linearGradient1165"/></defs><path d="m21.188 132.2c63.229-22.249 136.62-33.947 210.59-43.199l-2.8862 2.8866 3.2937 2.1023-2.2336 3.9754 2.8194 3.1974-2.5693 2.6035 3.5018 3.1523-2.6004 3.5836 3.0848 3.0551-2.543 3.0985 2.7094 3.1623-2.001 3.5194 2.4642 2.8816c-73.35 7.3059-143.74 22.17-211.57 43.549l1.3846-3.5504-1.6648-1.5469 0.89469-4.4419-1.3125-3.1587 1.6006-4.5426-2.0812-2.6771 1.4665-3.7427-1.8923-2.369 1.6656-3.3625-1.8177-2.5656 2.0853-3.6079z" fill="url(#linearGradient2344)" stroke="#000" stroke-width=".64654"/><path d="m234.79 130.26c-63.133-22.517-136.47-34.528-210.41-44.094l2.8739 2.8988-3.3026 2.0883 2.2167 3.9849-2.833 3.1854 2.5582 2.6144-3.5151 3.1374 2.5852 3.5946-3.0978 3.042 2.5298 3.1093-2.7228 3.1508 1.9861 3.5279-2.4764 2.8711c73.318 7.6176 143.64 22.781 211.38 44.448l-1.3695-3.5562 1.6714-1.5398-0.8758-4.4457 1.3259-3.1531-1.5812-4.5494 2.0926-2.6682-1.4505-3.7489 1.9024-2.3609-1.6512-3.3695 1.8285-2.5579-2.0699-3.6167z" fill="url(#linearGradient2340)" stroke="#000" stroke-width=".64654"/><path d="m81.494 97.999c6.9331 1.1589 17.773 3.1558 31.032 5.8847 13.44 2.7662 26.95 5.7844 39.429 8.7819 14.134 3.395 23.223 5.8595 29.117 7.4382 0.0376 0.0104 0.076 0.0201 0.11453 0.0309 2.5753 0.68249 7.4412 1.7545 11.5 2.7212 4.2367 1.0089 7.2451 1.8078 8.6672 2.3475-1.3569-0.51504-4.2827-1.8271-8.1913-3.2914-3.9687-1.4868-8.4927-2.994-11.244-3.7398-0.0391-0.011-0.078-0.0206-0.11607-0.0312-5.6566-1.515-15.565-3.9198-29.514-6.9076-12.618-2.7027-26.194-5.3807-39.7-7.8521-13.724-2.5112-23.753-4.1547-31.096-5.382z" fill="#fff" stroke-width=".74092"/><path d="m164.75 100.92c0.26841-0.0428 0.70239-0.0923 1.4098-0.16298 0.54251-0.0542 1.2492-0.12105 2.131-0.20338 4.3901-0.40988 1.6354-0.15207 6.0255-0.56195 5.0707-0.47718 11.288-1.0793 16.352-1.6155 2.2426-0.23749 4.1522-0.45101 5.5604-0.62562 2.4614-0.3052 7.0461-1.0057 11.236-1.7114 2.5567-0.43064 4.771-0.82964 6.6102-1.1858 1.0166-0.19686 1.836-0.36453 2.5206-0.50953 0.89267-0.18909 1.4893-0.32626 1.8721-0.40339-0.38387 0.07735-0.98493 0.16479-1.8936 0.27404-0.68487 0.08234-1.533 0.17566-2.5523 0.28224-1.838 0.19219-4.1187 0.41566-6.6737 0.66509-4.2141 0.41139-8.846 0.86068-11.296 1.1645-1.3935 0.17278-3.3245 0.43265-5.5438 0.73945-4.7809 0.66092-11.486 1.6199-16.264 2.3347-2.4878 0.37224-4.4326 0.67428-5.9826 0.92548-0.88484 0.1434-1.5648 0.25788-2.1126 0.35216-0.69899 0.1203-1.1308 0.19907-1.399 0.24186z" fill="#fff"/></svg>
