<?xml version="1.0" encoding="UTF-8"?>
<svg cursor="default" version="1.1" viewBox="0 0 256 256" xml:space="preserve" xmlns="http://www.w3.org/2000/svg"><defs><linearGradient id="linearGradient1328" x1="152.47" x2="148.41" y1="96.414" y2="148.94" gradientTransform="translate(-.065202 -1.5109)" gradientUnits="userSpaceOnUse"><stop stop-color="#f95" offset="0"/><stop stop-color="#ffb380" offset="1"/></linearGradient><linearGradient id="linearGradient1423" x1="51.115" x2="74.382" y1="206.22" y2="120.74" gradientTransform="translate(-.065202 -1.5109)" gradientUnits="userSpaceOnUse"><stop stop-color="#f55" offset="0"/><stop stop-color="#ff8080" offset=".81858"/><stop stop-color="#f55" offset="1"/></linearGradient><linearGradient id="linearGradient1704" x1="90.485" x2="131.61" y1="67.303" y2="9.4722" gradientTransform="translate(-.065202 -1.5109)" gradientUnits="userSpaceOnUse"><stop stop-color="#ff8080" offset="0"/><stop stop-color="#faa" offset="1"/></linearGradient></defs><g stroke="#000"><g stroke-width=".65"><path d="m125.57 241.28c-18.98-3.1144-46.375-11.633-59.575-20.191-20.145-20.041-34.326-48.827-28.666-101.95 7.0468-8.342 54.906-26.586 60.327 17.2-3.633 38.992 7.4439 78.105 27.914 104.94z" fill="url(#linearGradient1423)"/><path d="m37.325 119.14c4.5489-41.996 39.134-102.01 84.752-104.44 19.622-1.2173 35.089 4.2147 51.599 7.9766-48.657 25.639-71.489 68.865-75.901 112.41-0.08651 0.1741-21.5-4.46-21.5-4.46l-2.8801-2.7784-4.4175 0.9219-2.5487-2.8225-4.0749 0.84647-3.6925-2.652-4.7935 0.74476-2.8185-2.3241-3.0005 0.98381-3.5181-2.5549-4.5693 0.6572z" fill="url(#linearGradient1704)"/><path d="m162.56 21.356c-41.725-0.4322-80.832 52.514-86.783 110.29-5.9297 57.569 14.637 113.66 60.006 109.63 40.45-3.593 74.037-52.533 82.145-103.9 8.3511-52.914-9.9224-108.34-46.996-115.21-2.7959-0.51766-5.5894-0.78369-8.3711-0.8125zm-4.2232 64.606c16.443 3.0444 21.727 24.455 18.024 47.923-3.5956 22.782-15.319 40.785-33.259 42.379-20.122 1.7873-28.362-19.035-25.732-44.567 6.6012-21.614 19.136-49.703 40.967-45.735z" fill="#ff8080"/></g><path d="m154.1 82.604c-18.505-0.19168-35.849 23.292-38.488 48.916-2.6299 25.532 6.4918 50.408 26.613 48.621 17.94-1.5935 32.836-23.298 36.432-46.08 3.7038-23.468-4.4011-48.051-20.844-51.096-1.24-0.22959-2.4792-0.34855-3.7129-0.36133zm-0.88867 6.4375c1.071 0.01109 2.1462 0.11319 3.2227 0.3125 14.274 2.6429 21.311 23.986 18.096 44.359-3.1214 19.778-16.055 38.621-31.629 40.004-17.468 1.5516-25.387-20.046-23.104-42.211 2.2913-22.245 17.349-42.631 33.414-42.465z" fill="#fca"/><path d="m153.21 89.042c-5.9499-0.06163-11.76 2.7012-16.836 7.3281 4.7799 13.485 4.3884 43.965-14.316 60.463 3.514 10.614 10.506 17.803 20.842 16.885 15.574-1.3834 28.507-20.226 31.629-40.004 3.2154-20.373-3.8215-41.716-18.096-44.359-1.0765-0.19931-2.1516-0.30141-3.2227-0.3125z" fill="url(#linearGradient1328)" stroke-width=".86813"/><g fill="none"><path d="m138.65 109.89c5.5084-7.6959 7.1422-13.777 8.3654-19.688"/><path d="m128.42 168.09c22.231-3.3011 47.555-26.782 44.249-61.551"/><g stroke-width=".25"><path d="m136.24 236.93c-43.572 3.8703-63.326-50.001-57.631-105.29 6.0965-59.188 48.423-113.1 91.386-105.14 35.606 6.5924 53.156 59.828 45.135 110.65-7.7861 49.334-40.043 96.335-78.891 99.785z"/><path d="m136.9 230.72c-41.01 3.6427-59.602-47.06-54.242-99.098 5.738-55.707 45.575-106.45 86.012-98.959 33.512 6.2047 50.03 56.309 42.481 104.14-7.3282 46.433-37.688 90.669-74.251 93.917z"/><path d="m137.51 224.88c-38.598 3.4285-56.097-44.293-51.052-93.27 5.4005-52.431 42.895-100.19 80.954-93.139 31.541 5.8399 47.088 52.998 39.983 98.015-6.8973 43.702-35.472 85.337-69.885 88.394z"/><path d="m138.09 219.39c-36.328 3.2269-52.798-41.688-48.05-87.785 5.0829-49.348 40.373-94.294 76.193-87.662 29.686 5.4964 44.319 49.881 37.632 92.251-6.4916 41.132-33.386 80.319-65.775 83.196z"/><path d="m138.64 214.21c-34.192 3.0371-49.693-39.236-45.224-82.622 4.784-46.446 37.998-88.749 71.712-82.507 27.94 5.1732 41.712 46.948 35.419 86.826-6.1099 38.713-31.422 75.595-61.907 78.303z"/><path d="m139.15 209.34c-32.181 2.8585-46.77-36.929-42.564-77.764 4.5027-43.714 35.764-83.53 67.495-77.655 26.297 4.869 39.259 44.187 33.336 81.72-5.7506 36.436-29.574 71.15-58.266 73.698z"/><path d="m139.63 204.76c-30.289 2.6904-44.02-34.757-40.061-73.19 4.2379-41.144 33.661-78.617 63.526-73.088 24.751 4.5826 36.95 41.588 31.375 76.914-5.4124 34.294-27.835 66.966-54.84 69.364z"/><path d="m140.09 200.45c-28.507 2.5322-41.431-32.713-37.705-68.886 3.9887-38.724 31.681-73.994 59.79-68.79 23.295 4.3131 34.777 39.143 29.53 72.391-5.0941 32.277-26.198 63.027-51.615 65.285z"/><path d="m140.51 196.39c-26.831 2.3833-38.995-30.789-35.488-64.835 3.7541-36.447 29.818-69.643 56.274-64.744 21.925 4.0595 32.732 36.841 27.793 68.134-4.7945 30.379-24.658 59.321-48.579 61.446z"/><path d="m140.92 192.57c-25.253 2.2431-36.701-28.979-33.401-61.022 3.5333-34.303 28.064-65.547 52.964-60.937 20.636 3.8208 30.807 34.674 26.159 64.127-4.5126 28.592-23.207 55.832-45.722 57.832z"/><path d="m141.29 188.97c-23.768 2.1112-34.543-27.275-31.437-57.434 3.3255-32.286 26.414-61.692 49.85-57.353 19.422 3.5961 28.996 32.635 24.621 60.356-4.2472 26.911-21.843 52.549-43.034 54.431z"/><path d="m141.65 185.59c-22.37 1.987-32.512-25.671-29.588-54.056 3.13-30.387 24.861-58.064 46.918-53.98 18.28 3.3846 27.29 30.716 23.173 56.806-3.9975 25.328-20.558 49.459-40.503 51.23z"/></g></g></g><path d="m100.52 21.422c0.84964-0.27511 2.3488-0.56881 4.5294-0.84302 1.6483-0.20727 3.6384-0.39768 5.9087-0.55456 5.3494-0.36966 9.9459-0.42164 14.69-0.47034 1.1009-0.0113 2.0861-0.0235 2.8859-0.04842 2.7298-0.08503 8.1104-0.5694 13.829-0.60719 7.2453-0.04787 13.273 0.59252 16.86 1.5265-4.271-1.1121-8.6715-2.5237-16.701-3.7298-5.8743-0.88238-11.234-1.2139-14.111-1.1243-0.82541 0.02571-1.8269 0.08883-2.9555 0.19064-4.4941 0.40541-9.8294 1.3013-14.772 2.5173-2.2571 0.55531-4.1736 1.1119-5.7835 1.6287-2.1121 0.67805-3.5308 1.2394-4.3804 1.5145z" fill="#fff"/></svg>
