<?xml version="1.0" encoding="UTF-8"?>
<svg cursor="default" version="1.1" viewBox="0 0 256 256" xml:space="preserve" xmlns="http://www.w3.org/2000/svg" xmlns:xlink="http://www.w3.org/1999/xlink"><defs><linearGradient id="linearGradient1165" x1="144.18" x2="139.6" y1="246.76" y2="140.66" gradientTransform="matrix(.76091 0 0 1.0007 12.96 -5.1907)" gradientUnits="userSpaceOnUse"><stop stop-color="#f55" offset="0"/><stop stop-color="#ff8080" offset="1"/></linearGradient></defs><path d="m105.9 235.04c-23.794-64.683-25.938-138.89-23.519-213.53l4.4601 3.068 4.6418-3.1683 6.5922 2.4817 6.4942-2.6259 4.0316 2.7332 6.589-3.3119 5.791 2.8248 6.306-2.9004 4.931 2.7374 6.4024-2.5179 5.83 2.2207 5.8328-2.2897c-5.767 73.896 2.8621 145.29 23.898 214.53l-6.045-1.6054-3.2195 1.5716-7.7793-1.1698-6.0352 1.1194-7.7786-1.8828-5.3652 1.9188-6.3707-1.6992-4.7608 1.7487-5.6336-1.8751-5.0961 1.6618-5.9678-2.3105z" fill="url(#linearGradient1165)" stroke="#000" stroke-width=".87262"/><path d="m146.98 151.7c-1.149-6.9494-2.6194-17.876-3.9134-31.336-1.3116-13.644-2.2111-27.437-2.6725-40.247-0.52267-14.509-0.3627-23.932-0.29375-30.037 4.4e-4 -0.039 7.9e-4 -0.07855 1e-3 -0.11864 0.0174-2.6648-0.33312-7.6278-0.4979-11.792-0.17199-4.3462-0.14893-7.4597 0.14774-8.9851-0.28309 1.4555-1.2489 4.6606-2.0305 8.8468-0.79359 4.2506-1.3675 9.0338-1.4156 11.886-6.9e-4 0.04065-1e-3 0.08075-2e-3 0.12029-0.0662 5.8584 0.25638 16.038 1.4116 30.237 1.045 12.844 2.5744 26.587 4.4361 40.196 1.8916 13.828 3.6119 23.87 4.8289 31.23z" fill="#fff"/></svg>
