<?xml version="1.0" encoding="UTF-8"?>
<svg cursor="default" version="1.1" viewBox="0 0 256 256" xml:space="preserve" xmlns="http://www.w3.org/2000/svg"><defs><linearGradient id="linearGradient1165" x1="144.18" x2="139.6" y1="246.76" y2="140.66" gradientTransform="matrix(-.065036 -.94005 -1.0535 .11292 278.4 252.37)" gradientUnits="userSpaceOnUse"><stop stop-color="#f55" offset="0"/><stop stop-color="#ff8080" offset="1"/></linearGradient></defs><path d="m17.547 164.66c70.825 16.585 149.06 11.429 226.81 4.9611l-3.6111-5.164 2.9388-6.0922-3.1761-7.8642 2.2094-8.3195-3.222-4.6724 2.9235-8.514-3.4688-6.8356 2.5145-8.1179-3.3033-5.783 2.1036-8.1939-2.8362-6.952 1.912-7.4644c-76.066 8.8445-152.05 6.7194-227.89-5.3165l2.2068 7.287-1.3794 4.1548 1.8964 9.4788-0.66264 7.5824 2.647 9.3975-1.5615 6.8449 2.3334 7.6788-1.4341 6.079 2.4556 6.7483-1.3139 6.4834 2.9425 7.1121z" fill="url(#linearGradient1165)" stroke="#000" stroke-width=".99886"/></svg>
