<?xml version="1.0" encoding="UTF-8"?>
<svg cursor="default" version="1.1" viewBox="0 0 256 256" xml:space="preserve" xmlns="http://www.w3.org/2000/svg" xmlns:xlink="http://www.w3.org/1999/xlink"><g stroke="#000" stroke-width=".25"><path d="m244.41 82.119c-4.4681-6.2492-8.042-11.503-25.555 0.57805-22.946 15.829-41.354 24.989-68.933 56.339-3.7186-6.4409-11.991-10.582-9.9208-21.003 21.989-19.158 45.824-40.153 73.64-58.651 6.3979-3.3942 14.791-8.8982 18.653-1.3556z" fill="url(#linearGradient3109)"/><path d="m240.21 82.794c-4.4681-6.2492-6.5743-15.254-24.087-3.1728-22.946 15.829-40.81 29.993-68.39 61.343-3.7185-6.4409-8.9635 1.0287-6.8935-9.3924 24.39-19.764 37.967-36.831 73.17-59.292 5.8418-3.7272 16.723-5.3411 23.006-1.9185z" fill="url(#linearGradient3107)"/><path d="m237.16 70.359c-4.4681-6.2492-9.0892-10.054-26.602 2.0266-22.946 15.829-52.501 44.8-63.834 63.733-3.7185-6.4409-9.3909 2.9252-7.3209-7.496 14.577-16.129 35.994-40.362 71.197-62.823 5.8418-3.7272 19.098-14.351 23.52-3.2516z" fill="url(#linearGradient3105)"/></g><g><path d="m243.53 83c-1.2637-1.7675-3.3044-0.22448-3.3044-0.22448-1.8754-3.2594-3.6452-5.3566-5.405-7.3446-1.7893-0.09417-8.6882 2.0969-15.964 7.2658-22.725 16.145-41.354 24.989-68.933 56.339-3.7186-6.4409-11.991-10.582-9.9208-21.003 21.989-19.158 45.824-40.153 73.64-58.651 6.3979-3.3942 14.791-8.8982 18.653-1.3556z" opacity=".175"/><path d="m136.8 121.07 27.656-23.779 15.245 12.822c-7.3434 4.1091-23.803 22.319-26.316 25.722-5.6307-3.1941-12.795-8.7355-16.585-14.765z" fill="url(#linearGradient3510)"/><g stroke="#000" stroke-width=".25"><path d="m232.95 57.672c4.096 7.7488 10.815 20.724 14.088 28.438 7.8119 23.07-2.1902 45.723-13.298 55.179-27.926 23.773-41.023 1.4754-82.033 6.8144l-13.742-21.493c39.275 2.9587 70.336 8.6452 90.347-12.599 17.124-18.179 12.381-38.982 4.6393-56.34z" fill="url(#linearGradient3103)"/><path d="m140.88 134.89c10.43 0.11826 35.471-2.8726 51.945-0.73658 14.52 1.8826 28.546-0.37878 38.796-10.239 13.877-13.349 12.973-27.401 8.0394-53.568l7.723 16.208c3.5886 18.81 6.089 33.544-8.4164 46.142-11.455 19.894-33.594 7.2448-51.279 8.1644l-41.188-0.0664z" fill="url(#linearGradient3101)"/><path d="m144.8 139.35c49.092-6.224 53.905 2.491 78.441-2.144 18.88-3.5667 29.087-30.955 18.478-62.985 1.8914 2.1472 4.192 11.031 6.2606 12.208 4.295 13.11 7.7554 30.737-6.7144 46.721-12.584 13.9-18.891 19.024-36.247 14.704-18.049-4.4925-38.239-4.9815-55-3.9525z" fill="url(#linearGradient3099)"/></g><path d="m149.22 128.17 21.131 1.5817 3.6628 17.926c-8.3697-0.87122-18.397-0.94758-22.411 0.38669-2.7627-5.8544-2.7573-12.782-2.3822-19.894z" fill="url(#linearGradient3412)"/></g><g stroke="#000" stroke-width=".25"><path d="m233.09 57.736c-3.9386-7.1091-10.341-3.9279-19.182 1.3847-24.013 14.429-66.019 51.297-72.125 56.564l-1.2281 2.0696c35.534-30.735 51.907-43.993 74.169-57.983 7.9493-4.9953 13.905-6.9625 17.242-0.84302 7.0817 12.989 13.768 37.296-3.9654 55.284-9.9056 10.048-20.499 13.243-31.761 14.259-18.97 1.7103-41.069-2.3522-59.84-1.817l-0.21025 1.1512c19.002 0.12518 40.199 3.4876 59.579 1.8841 11.373-0.941 21.363-2.538 33.274-14.975 7.2077-7.526 20.545-27.204 4.049-56.979z" fill="#faa"/><path d="m7.7767 160.01c0.67985-7.8277 1.0958-14.292 22.11-15.878 27.535-2.0792 47.848-6.5614 87.126 0.74365-0.0563-7.501 4.9296-16.084-2.0663-23.05-28.387-1.1811-59.274-2.6432-92.305 0.42604-7.1659 1.3905-17.094 2.3781-16.607 10.847z" fill="url(#linearGradient3021)"/><path d="m11.7 157.87c0.67985-7.8277-2.0393-16.337 18.975-17.924 27.535-2.0792 49.895-2.2336 89.173 5.0715-0.0563-7.501 8.1698-4.9125 1.1739-11.879-30.742-0.12797-50.897-5.0243-92.225-0.38389-6.8581 0.77004-16.959 6.4435-20.607 13.183z" fill="url(#linearGradient2960)"/><path d="m8.0688 146.02c0.67985-7.8277 2.7167-13.809 23.731-15.396 27.535-2.0792 67.306 2.0703 86.482 9.8859-0.0563-7.501 9.4862-3.6772 2.4903-10.643-20.54-3.5104-50.984-9.0943-92.312-4.4539-6.8581 0.77004-23.507 0.79421-21.714 12.451z" fill="url(#linearGradient2968)"/></g><path d="m11.478 161.51c0.21573-4.1823 0.68648-13.035 1.2999-13.035 0.21864-0.3644 7.4512-3.8172 17.109-4.3415 27.573-1.4969 47.848-6.5614 87.126 0.74365-0.0563-7.501 4.9296-16.084-2.0663-23.05-28.387-1.1811-59.274-2.6432-92.305 0.42604-7.1659 1.3905-17.094 2.3781-16.607 10.847z" opacity=".17544"/><defs><linearGradient id="linearGradient5194"><stop stop-color="#ff2a2a" offset="0"/><stop stop-color="#f55" offset=".22279"/><stop stop-color="#f55" offset=".83853"/><stop stop-color="#ff2a2a" offset="1"/></linearGradient><linearGradient id="linearGradient3406"><stop offset="0"/><stop stop-opacity="0" offset="1"/></linearGradient><linearGradient id="linearGradient2958"><stop stop-color="#f55" offset="0"/><stop stop-color="#ff8080" offset="1"/></linearGradient><linearGradient id="linearGradient2885" x1="128.45" x2="120.69" y1="130.39" y2="130.87" gradientTransform="matrix(.99308 -.13921 .064606 .99791 -9.1076 21.988)" gradientUnits="userSpaceOnUse"><stop stop-color="#f55" offset="0"/><stop stop-color="#ff8080" offset="1"/></linearGradient><linearGradient id="linearGradient2893" x1="134" x2="152.6" y1="135.9" y2="127.74" gradientTransform="matrix(.99308 -.13921 .064606 .99791 -9.1076 21.988)" gradientUnits="userSpaceOnUse"><stop stop-color="#f55" offset="0"/><stop stop-color="#ff8080" offset="1"/></linearGradient><linearGradient id="linearGradient2901" x1="132.59" x2="140.61" y1="131.05" y2="129.51" gradientTransform="matrix(.99308 -.13921 .064606 .99791 -9.1076 21.988)" gradientUnits="userSpaceOnUse"><stop stop-color="#f55" offset="0"/><stop stop-color="#ff8080" offset="1"/></linearGradient><linearGradient id="linearGradient2942" x1="29.04" x2="48.358" y1="195.8" y2="159.41" gradientTransform="matrix(.99308 -.13921 .064606 .99791 -9.1076 21.988)" gradientUnits="userSpaceOnUse" xlink:href="#linearGradient2958"/><linearGradient id="linearGradient2950" x1="38.388" x2="49.231" y1="185.33" y2="159.53" gradientTransform="matrix(.99308 -.13921 .064606 .99791 -9.1076 21.988)" gradientUnits="userSpaceOnUse" xlink:href="#linearGradient2958"/><linearGradient id="linearGradient2952" x1="36.269" x2="45.242" y1="175.61" y2="149.44" gradientTransform="matrix(.99308 -.13921 .064606 .99791 -9.1076 21.988)" gradientUnits="userSpaceOnUse" xlink:href="#linearGradient2958"/><linearGradient id="linearGradient2960" x1="108.68" x2="4.6115" y1="131.49" y2="129.62" gradientTransform="matrix(.99308 -.13921 .064606 .99791 -9.1076 21.988)" gradientUnits="userSpaceOnUse" xlink:href="#linearGradient5194"/><linearGradient id="linearGradient2968" x1="118.53" x2="7.6027" y1="124.39" y2="117.66" gradientTransform="matrix(.99308 -.13921 .064606 .99791 -9.1076 21.988)" gradientUnits="userSpaceOnUse" xlink:href="#linearGradient5194"/><linearGradient id="linearGradient3021" x1="-4.113" x2="127.5" y1="134.36" y2="122.52" gradientTransform="matrix(.99308 -.13921 .064606 .99791 -9.1076 21.988)" gradientUnits="userSpaceOnUse" xlink:href="#linearGradient5194"/><linearGradient id="linearGradient3099" x1="29.04" x2="48.358" y1="195.8" y2="159.41" gradientTransform="matrix(-.85981 .51606 .44927 .89339 188.59 -46.533)" gradientUnits="userSpaceOnUse" xlink:href="#linearGradient2958"/><linearGradient id="linearGradient3101" x1="38.388" x2="49.231" y1="185.33" y2="159.53" gradientTransform="matrix(-.85981 .51606 .44927 .89339 188.59 -46.533)" gradientUnits="userSpaceOnUse" xlink:href="#linearGradient2958"/><linearGradient id="linearGradient3103" x1="36.269" x2="45.242" y1="175.61" y2="149.44" gradientTransform="matrix(-.85981 .51606 .44927 .89339 188.59 -46.533)" gradientUnits="userSpaceOnUse" xlink:href="#linearGradient2958"/><linearGradient id="linearGradient3105" x1="118.53" x2="7.6027" y1="124.39" y2="117.66" gradientTransform="matrix(-.85981 .51606 .44927 .89339 188.59 -46.533)" gradientUnits="userSpaceOnUse" xlink:href="#linearGradient5194"/><linearGradient id="linearGradient3107" x1="108.68" x2="4.6115" y1="131.49" y2="129.62" gradientTransform="matrix(-.85981 .51606 .44927 .89339 188.59 -46.533)" gradientUnits="userSpaceOnUse" xlink:href="#linearGradient5194"/><linearGradient id="linearGradient3109" x1="-4.113" x2="127.5" y1="134.36" y2="122.52" gradientTransform="matrix(-.85981 .51606 .44927 .89339 188.59 -46.533)" gradientUnits="userSpaceOnUse" xlink:href="#linearGradient5194"/><linearGradient id="linearGradient3408" x1="139.53" x2="111.11" y1="128.62" y2="129.12" gradientTransform="translate(1.4578 13.063)" gradientUnits="userSpaceOnUse" xlink:href="#linearGradient3406"/><linearGradient id="linearGradient3412" x1="137.93" x2="114.54" y1="113.06" y2="131.09" gradientTransform="matrix(-.79706 .6039 .6039 .79706 171.92 -35.983)" gradientUnits="userSpaceOnUse" xlink:href="#linearGradient3406"/><linearGradient id="linearGradient3510" x1="137.93" x2="112.59" y1="113.06" y2="129.25" gradientTransform="matrix(-.30366 .95278 .95278 .30366 66.036 -28.001)" gradientUnits="userSpaceOnUse" xlink:href="#linearGradient3406"/><linearGradient id="linearGradient3610" x1="139.53" x2="111.11" y1="128.62" y2="129.12" gradientTransform="translate(-3.6522 3.6529)" gradientUnits="userSpaceOnUse" xlink:href="#linearGradient3406"/></defs><g><g stroke="#000" stroke-width=".25"><path d="m5.2962 133.24c0.39022 8.7827 1.6925 17.739-0.26743 26.074 2.5543 22.23 12.009 36.814 28.698 38.146 39.599 3.1615 60.785-36.846 86.312-44.228l0.95081-25.883c-32.052 27.464-55.72 51.846-83.466 47.741-23.742-3.513-30.129-23.094-32.228-41.85z" fill="url(#linearGradient2952)"/><path d="m122.66 135.8c-8.8461 6.7622-31.729 20.393-44.724 32.625-11.454 10.781-24.564 17.949-38.264 16.659-18.547-1.7471-24.516-13.012-33.431-36.981l-0.62922 14.396c6.3729 17.257 13.487 33.521 32.194 34.268 19.762 8.5018 32.32-15.715 47.882-26.29l35.136-26.386z" fill="url(#linearGradient2950)"/><path d="m121.55 141.85c-45.041 26.436-44.779 36.446-68.054 48.446-17.911 9.2338-40.367-6.027-47.379-38.289-0.53775 2.9173-0.64459 6.2794-1.8202 8.5384 2.9102 13.175 7.5706 30.995 26.185 38.875 15.383 6.5126 31.263 2.2275 43.916-12.306 13.158-15.114 30.152-28.411 44.98-38.308z" fill="url(#linearGradient2942)"/></g><path d="m118.8 130.34-15.829 13.274v18.82c5.1833-3.6129 10.267-6.8616 14.956-8.6621 6.3475-10.747 5.4664-17.989 0.87244-23.431z" fill="url(#linearGradient3408)"/><path d="m115.06 121.93-28.354-0.74781-2.9912 19.817c9.4832-0.0609 13.819 3.3584 18.508 1.5579 5.1074-4.6347 18.146-14.762 18.146-14.762s-4.5696-4.2767-5.3088-5.8647z" fill="url(#linearGradient3610)"/></g><path d="m5.2121 133.38c-0.20363-8.1732 6.8591-9.736 17.074-11.163 27.743-3.875 82.108-1.4041 89.964-1.1184l2.087 0.86114c-45.762-1.7306-66.394-1.809-92.421 1.2961-9.2938 1.1088-15.366 3.3518-15.145 10.353 0.46977 14.86 6.9561 38.471 31.123 41.442 13.499 1.6597 24.148-2.5712 34.273-8.9637 17.056-10.768 33.888-28.129 50.184-39.704l0.75711 0.78131c-16.163 12.248-32.575 28.475-49.927 39.59-10.183 6.5227-19.515 11.64-35.925 9.3617-9.9304-1.3785-31.192-8.5041-32.044-42.736z" fill="#faa" stroke="#000" stroke-width=".25"/><g stroke="#000" stroke-width=".25"><path d="m135.31 146.48c4.3736-0.22874 9.3531 1.2937 16.753 1.924 0.30583-8.9173 1.9605-14.195 0.29434-22.327-2.2346-5.6447-5.9147-9.1789-10.295-11.691-2.9995 2.6934-6.5873 4.9468-11.492 6.2152 6.9578 7.6582 4.7814 22.304 4.7405 25.879z" fill="url(#linearGradient2893)"/><path d="m111.58 120.97c2.2265 0.81186 3.6118 2.6846 6.6005 9.1916 4.0933 8.9121-0.98912 16.521-1.9294 24.764 5.6538-1.1034 9.6957-2.8497 17.25-6.0962-0.2772-9.0758-1.1715-18.416-3.6695-28.043-4.7052 1.0921-10.591 1.3014-18.251 0.18374z" fill="url(#linearGradient2885)"/><path d="m134.11 149.55c4.2649-0.38826 8.5844-2.2255 12.329-1.6574-0.23962-15.389 2.9548-12.325-0.18774-21.932-1.5858-4.8484-9.0571-8.4409-9.0571-8.4409-2.5974 1.6313-5.8169 2.5757-9.1675 3.3755 0 0 5.0197 1.9372 6.1704 6.0021 2.162 7.7649 0.4728 14.815-0.0871 22.653z" fill="url(#linearGradient2901)"/></g><path d="m122.35 153.71c4.288-1.5057 8.1434-3.8489 14.521-4.367 0 0 1.5152-14.203-0.94706-22.686-1.4252-4.9098-7.1972-5.8644-7.1972-5.8644-4.2212 0.5778-8.5694 0.68723-13.1 0.12594 0 0 6.941 4.1374 8.0916 8.2024 2.328 8.224-1.369 24.589-1.369 24.589z" fill="#ff8080" stroke="#000" stroke-width=".25"/><g fill="#fff"><path d="m128.56 121.66c0.87077 0.33236 2.0551 0.82755 3.2755 1.7787 1.1285 0.87947 1.8879 1.8478 2.3335 2.5636 0.0424 0.0681 0.0806 0.13187 0.11449 0.19056 0.37905 0.65595 0.83362 1.7206 1.1538 3.1014 0.3185 1.3735 0.39229 2.5344 0.4563 3.2678-0.0615-0.70487-0.26939-1.9117-0.70382-3.1975-0.45835-1.3566-0.972-2.2568-1.3518-2.9142-0.0324-0.056-0.0681-0.11792-0.10665-0.18398-0.4083-0.69962-1.0309-1.683-2.0562-2.6395-1.0908-1.0175-2.2595-1.6403-3.1151-1.9668z"/><path d="m140.38 121.34c0.80752 0.49291 1.8914 1.0932 2.973 2.0347 0.98886 0.86084 1.5943 1.7019 1.8745 2.2705 0.0216 0.0439 0.044 0.0918 0.0668 0.14321 0.30244 0.68305 0.55167 1.6747 0.59769 2.9202 0.0479 1.2969-0.12658 2.4169-0.20066 3.1834 0.071-0.73412 0.0455-1.9416-0.2111-3.1326-0.25724-1.1941-0.64897-1.9919-0.958-2.6078-0.0228-0.0454-0.0441-0.088-0.0636-0.1276-0.26025-0.52826-0.61373-1.3467-1.4234-2.3407-0.83916-1.0302-1.8892-1.8758-2.6552-2.3433z"/><path d="m146.43 120.34c0.80752 0.49291 1.8914 1.0932 2.973 2.0347 0.98886 0.86084 1.5943 1.7019 1.8745 2.2705 0.0216 0.0439 0.044 0.0917 0.0668 0.14321 0.30244 0.68305 0.55167 1.6747 0.59769 2.9202 0.0479 1.2969-0.12658 2.4169-0.20066 3.1834 0.0709-0.73412 0.0455-1.9416-0.2111-3.1326-0.25724-1.1941-0.64897-1.9919-0.958-2.6078-0.0228-0.0454-0.0441-0.0879-0.0636-0.1276-0.26025-0.52826-0.61373-1.3467-1.4234-2.3407-0.83916-1.0302-1.8892-1.8758-2.6552-2.3433z"/><path d="m115.95 123.83c0.66802 0.53148 1.5824 1.3074 2.4883 2.6108 0.82088 1.1811 1.3414 2.3871 1.629 3.2757 0.039 0.12065 0.0723 0.23117 0.0998 0.32922 0.21377 0.76283 0.4215 1.998 0.45882 3.472 0.0379 1.4961-0.10312 2.6155-0.17478 3.3569 0.0673-0.69588 0.0715-1.9195-0.11491-3.3344-0.19743-1.4981-0.50756-2.5486-0.72871-3.3378-0.0265-0.0946-0.0562-0.20174-0.0894-0.31944-0.24705-0.87454-0.62078-2.0623-1.3124-3.2966-0.74603-1.3315-1.6035-2.2376-2.2557-2.7565z"/><path d="m228.76 54.506c0.30129 0.12815 0.69465 0.33144 1.1663 0.68209 0.36096 0.26834 0.75634 0.61442 1.1835 1.0624 0.75074 0.78731 1.5376 1.8246 2.3413 3.1306 1.8603 3.0229 3.2778 6.6083 4.1257 9.1702 0.0807 0.24388 0.15399 0.4716 0.21953 0.68029 0.67782 2.1585 1.6692 5.9236 2.2192 10.245 0.60634 4.7639 0.40299 7.9643 0.132 9.9913 0.26586-1.9886 0.34269-5.2762-0.39732-9.9534-0.68414-4.3241-1.7601-7.9477-2.4448-10.128-0.065-0.20698-0.13662-0.43338-0.21456-0.67594-0.82593-2.5703-2.1056-6.1223-3.8525-9.2029-0.74936-1.3214-1.4883-2.3811-2.2001-3.1908-0.40526-0.46107-0.78387-0.8209-1.1329-1.1009-0.45625-0.36605-0.8438-0.58092-1.1454-0.7092z"/><path d="m244.02 80.225c0.70056 1.7757 1.5838 4.1628 2.3372 7.2872 0.70907 2.9408 1.0311 5.4524 1.1503 6.8343 0.086 0.99684 0.1606 2.3119 0.1723 3.8564 0.0187 2.4644-0.12598 4.7787-0.34425 6.9225-0.1048 1.0293-0.21891 1.9449-0.31052 2.6599-0.13253 1.0344-0.20471 1.564-0.24954 2.0278 0.0168-0.17384 0.11924-1.2862 0.18457-2.0348 0.0622-0.71306 0.13939-1.6414 0.20473-2.667 0.13753-2.1588 0.20352-4.441 0.12568-6.9008-0.049-1.548-0.14392-2.8225-0.23046-3.8254-0.12091-1.4012-0.32328-3.8409-0.92214-6.8244-0.61777-3.0778-1.439-5.6149-2.1179-7.3357z"/><path d="m240.94 75.069c0.55051 2.2043 1.2401 5.0035 1.8537 8.4648 0.57251 3.2294 0.84685 5.7848 0.94549 7.1679 0.0711 0.9968 0.13287 2.3026 0.14453 3.7826 0.0186 2.3638-0.0937 4.5014-0.27256 6.4569-0.20246 2.2141-0.42072 3.6752-0.48853 4.3768 0.0387-0.40048 0.22066-2.4422 0.31761-4.3889 0.0981-1.9691 0.13193-4.0751 0.0542-6.4369-0.0491-1.4896-0.13124-2.7493-0.20322-3.7586-0.10178-1.4273-0.25528-3.8721-0.71927-7.1646-0.47335-3.3589-1.1091-6.4066-1.6319-8.5001z"/><path d="m89.28 156.34c1.2158-1.0255 3.6113-3.1175 5.768-5.008 2.1302-1.8673 4.2332-3.7204 5.138-4.4877 0.72541-0.61511 1.746-1.4664 2.876-2.4085 1.8039-1.504 3.5769-2.9823 5.1618-4.3354 1.8968-1.6193 3.0409-2.6496 3.6632-3.2589-0.70741 0.69264-1.6264 1.6135-3.5495 3.387-1.5184 1.4003-3.2704 2.9674-5.0224 4.5032-1.0986 0.96308-2.1214 1.847-2.8386 2.4551-0.99222 0.84135-2.9943 2.4617-5.2838 4.3169-2.2748 1.8433-4.6511 3.7722-5.9127 4.8363z"/><path d="m75.882 175.91c1.8613-1.8059 4.6188-4.3269 8.2348-7.3036 3.4466-2.8373 6.4802-5.1084 8.1222-6.3408 0.62173-0.46661 1.3706-1.027 2.2648-1.6875 2.6273-1.9405 5.0193-3.6442 7.6187-5.466 1.1528-0.80792 1.7337-1.2117 2.8865-2.0196 1.1151-0.78253 1.624-1.1491 2.0799-1.4795-0.41267 0.29911-1.0168 0.71605-2.1012 1.4487-1.6279 1.0999-1.2923 0.87086-2.9202 1.9707-2.5676 1.74-5.1035 3.4963-7.6891 5.3745-0.89218 0.64808-1.6606 1.2168-2.275 1.6779-1.6161 1.2128-4.674 3.5729-8.0589 6.4347-3.6333 3.0718-6.2503 5.5352-8.1624 7.3904z"/></g></svg>
