<?xml version="1.0" encoding="UTF-8"?>
<svg version="1.1" viewBox="0 0 64 64" xmlns="http://www.w3.org/2000/svg">
 <path d="m22.531 61.249c4.0007 1.0647 15.043 0.92268 18.468-0.07176 0.64143-11.404 0.33578-35.749 0.18654-47.784-0.01434-1.1308-0.58403-2.0678-1.313-2.1453-5.4471 0.28699-10.415 0.18224-15.407 0.09615-0.46636 0-1.1767 0.81793-1.3776 1.953-1.0002 15.917-1.0016 31.916-0.55677 47.952z" fill="#e0f8ff" fill-opacity=".25"/>
 <path d="m22.531 61.249c4.0007 1.0647 15.043 0.92268 18.468-0.07176 0.64143-11.404 0.33578-35.749 0.18654-47.784-0.01434-1.1308-0.58403-2.0678-1.313-2.1453-5.4471 0.28699-10.415 0.18224-15.407 0.09615-0.46636 0-1.1767 0.81793-1.3776 1.953-1.0002 15.917-1.0016 31.916-0.55677 47.952z" fill="#e0f8ff" fill-opacity=".25"/>
 <path d="m24.638 13.437 14.835-0.13632 0.90546-12.14c-5.0166-0.43479-11.521-0.44484-16.872 0.091838z" fill="#795741" fill-rule="evenodd" stroke="#000" stroke-width=".25"/>
 <g transform="matrix(-.85234 0 0 -1.5088 55.469 31.818)">
  <g fill="#502d16">
   <path d="m28.305 13.085-0.45116 0.21554c0.1056 0.22103 0.88191 0.5872 0.99353 0.76752-0.11163-0.18032 0.0021-1.0032-0.09121-1.1986z"/>
   <path d="m31.005 15.582-0.45116 0.21554c0.1056 0.22103 0.88191 0.5872 0.99353 0.76752-0.11163-0.18032 0.0021-1.0032-0.09121-1.1986z"/>
   <path d="m34.192 13.176-0.45116 0.21554c0.1056 0.22103 0.88191 0.5872 0.99353 0.76752-0.11163-0.18032 0.0021-1.0032-0.09121-1.1986z"/>
   <path d="m35.005 17.616-0.45116 0.21554c0.1056 0.22103 0.88191 0.5872 0.99353 0.76752-0.11163-0.18032 0.0021-1.0032-0.09121-1.1986z"/>
   <path d="m28.361 18.362-0.45116 0.21554c0.1056 0.22103 0.88191 0.5872 0.99353 0.76752-0.11163-0.18032 0.0021-1.0032-0.09121-1.1986z"/>
  </g>
  <g fill="#c39678">
   <path d="m33.062 19.974s0.4946-0.07328 0.4946-0.07328c-0.0359-0.24232-0.67016-0.82064-0.72381-1.0258 0.05364 0.20518-0.29713 0.95817-0.26539 1.1724 0 0 0.4946-0.07328 0.4946-0.07328z"/>
   <path d="m33.623 17.064s0.4946-0.07328 0.4946-0.07328c-0.0359-0.24232-0.67016-0.82064-0.72381-1.0258 0.05365 0.20518-0.29713 0.95817-0.26539 1.1724 0 0 0.4946-0.07328 0.4946-0.07328z"/>
   <path d="m28.307 17.166s0.4946-0.07328 0.4946-0.07328c-0.0359-0.24232-0.67016-0.82064-0.72381-1.0258 0.05364 0.20518-0.29713 0.95817-0.26539 1.1724 0 0 0.4946-0.07328 0.4946-0.07328z"/>
   <path d="m30.936 14.038s0.4946-0.07328 0.4946-0.07328c-0.0359-0.24232-0.67016-0.82064-0.72381-1.0258 0.05364 0.20518-0.29713 0.95817-0.26539 1.1724 0 0 0.4946-0.07328 0.4946-0.07328z"/>
   <path d="m36.086 15.151s0.4946-0.07328 0.4946-0.07328c-0.0359-0.24232-0.67016-0.82064-0.72381-1.0258 0.05364 0.20518-0.29713 0.95817-0.26539 1.1724 0 0 0.4946-0.07328 0.4946-0.07328z"/>
  </g>
 </g>
 <g transform="matrix(.83458 0 0 1.5088 9.1188 -18.034)">
  <g fill="#502d16">
   <path d="m28.305 13.085-0.45116 0.21554c0.1056 0.22103 0.88191 0.5872 0.99353 0.76752-0.11163-0.18032 0.0021-1.0032-0.09121-1.1986z"/>
   <path d="m31.005 15.582-0.45116 0.21554c0.1056 0.22103 0.88191 0.5872 0.99353 0.76752-0.11163-0.18032 0.0021-1.0032-0.09121-1.1986z"/>
   <path d="m34.192 13.176-0.45116 0.21554c0.1056 0.22103 0.88191 0.5872 0.99353 0.76752-0.11163-0.18032 0.0021-1.0032-0.09121-1.1986z"/>
   <path d="m35.005 17.616-0.45116 0.21554c0.1056 0.22103 0.88191 0.5872 0.99353 0.76752-0.11163-0.18032 0.0021-1.0032-0.09121-1.1986z"/>
   <path d="m28.361 18.362-0.45116 0.21554c0.1056 0.22103 0.88191 0.5872 0.99353 0.76752-0.11163-0.18032 0.0021-1.0032-0.09121-1.1986z"/>
  </g>
  <g fill="#c39678">
   <path d="m33.062 19.974s0.4946-0.07328 0.4946-0.07328c-0.0359-0.24232-0.67016-0.82064-0.72381-1.0258 0.05364 0.20518-0.29713 0.95817-0.26539 1.1724 0 0 0.4946-0.07328 0.4946-0.07328z"/>
   <path d="m33.623 17.064s0.4946-0.07328 0.4946-0.07328c-0.0359-0.24232-0.67016-0.82064-0.72381-1.0258 0.05365 0.20518-0.29713 0.95817-0.26539 1.1724 0 0 0.4946-0.07328 0.4946-0.07328z"/>
   <path d="m28.307 17.166s0.4946-0.07328 0.4946-0.07328c-0.0359-0.24232-0.67016-0.82064-0.72381-1.0258 0.05364 0.20518-0.29713 0.95817-0.26539 1.1724 0 0 0.4946-0.07328 0.4946-0.07328z"/>
   <path d="m30.936 14.038s0.4946-0.07328 0.4946-0.07328c-0.0359-0.24232-0.67016-0.82064-0.72381-1.0258 0.05364 0.20518-0.29713 0.95817-0.26539 1.1724 0 0 0.4946-0.07328 0.4946-0.07328z"/>
   <path d="m36.086 15.151s0.4946-0.07328 0.4946-0.07328c-0.0359-0.24232-0.67016-0.82064-0.72381-1.0258 0.05364 0.20518-0.29713 0.95817-0.26539 1.1724 0 0 0.4946-0.07328 0.4946-0.07328z"/>
  </g>
 </g>
 <path d="m22.962 5.1714c-1.323 0.054529-1.379 2.7659 0.17937 2.898v1.9955c0.0072 1.3202-0.71309 1.5-1.1995 2.6709-0.69883 1.6832-1.3558 49.032-0.24944 49.419 4.4154 1.5412 15.03 1.7934 20.022-0.22702 1.0088-0.40896 0.88517-46.701 0.72589-48.604-0.16933-2.0018-1.4855-2.2785-1.5415-3.0577v-2.1973c1.3991-0.081796 1.4084-2.8836-0.08969-2.898zm16.911 6.0762c0.72896 0.07749 1.2973 1.0133 1.3116 2.144 0.14924 12.035 0.45645 36.382-0.18497 47.785-3.4253 0.99443-14.469 1.1376-18.47 0.07288-0.44484-16.036-0.44244-32.037 0.55773-47.954 0.2009-1.1351 0.90975-1.9535 1.3761-1.9535 4.9922 0.0861 9.9619 0.1917 15.409-0.09531z" fill="#e0f8ff" fill-opacity=".85" stroke="#000" stroke-width=".25"/>
 <path d="m23.142 8.0689h17.756" fill="#1a1a1a" stroke="#000" stroke-linecap="square" stroke-linejoin="round" stroke-width=".25"/>
 <g fill="#faa">
  <g fill-rule="evenodd">
   <path d="m38.957 43.123c1.6646-11.075-0.27982-21.061-3.3951-24.8-3.9462-4.7339-8.9857 0.34439-10.656 11.18-2.1352 13.86 0.87102 25.887 4.7612 29.965-3.6305-4.6034-5.1759-18.313-3.6276-28.688 1.3833-9.2756 5.9637-10.867 8.7676-7.5006 4.128 5.3053 3.0428 26.51 4.1499 19.844z" stroke-width=".25"/>
   <path d="m36.884 47.076c-0.89615 1.9486-1.4843 4.4374-4.9895 3.3027-3.2145-1.0406-6.107-9.8632-2.4441-20.85-4.6333 8.3666-2.0807 24.696 2.7806 25.386 2.5559 0.36265 4.6989-2.5973 4.653-7.8384z" stroke-width=".27543"/>
   <path d="m30.003 31.809c0.59636-1.4135 0.98779-3.2188 3.3204-2.3957 2.1392 0.75485 4.0641 7.1546 1.6265 15.124 3.0834-6.069 1.3847-17.914-1.8504-18.414-1.7009-0.26306-3.127 1.884-3.0964 5.6859z" stroke-width=".19136"/>
  </g>
  <ellipse cx="32.41" cy="40.033" rx="2.5778" ry="5.5742"/>
 </g>
 <g>
  <path d="m28.822 21.655c0.41961-0.88192 1.0358-1.9665 1.7934-2.7236 0.28607-0.28591 0.5775-0.51062 0.87219-0.66822 0.28216-0.1509 0.5577-0.23515 0.82514-0.26027 0.26916-0.02528 0.52582 0.0097 0.77009 0.09128 0.26052 0.087 0.50467 0.22622 0.73165 0.39753 0.2641 0.19932 0.49972 0.43815 0.7035 0.67592 0.16916 0.19737 0.31544 0.39298 0.43385 0.5587 0.07359 0.10299 0.15657 0.22295 0.24713 0.36146 0.3602 0.55092 0.80103 1.3362 1.2622 2.4536 0.37255 0.90262 0.72017 1.9306 1.0231 3.0562 0.7558 2.8084 0.99265 5.2932 1.0281 6.7449-0.0361-1.4778-0.18186-3.914-0.85208-6.7891-0.26602-1.1412-0.5801-2.1918-0.92565-3.1193-0.42727-1.1468-0.85301-1.973-1.2164-2.551-0.09162-0.14574-0.17694-0.27199-0.2541-0.37999-0.12404-0.17359-0.28252-0.37702-0.46945-0.58104-0.2248-0.24534-0.49137-0.4923-0.79338-0.69413-0.26014-0.17385-0.54282-0.3117-0.84421-0.38859-0.28336-0.07229-0.5748-0.08851-0.87137-0.0381-0.29359 0.0499-0.58318 0.16352-0.86855 0.33989-0.29756 0.1839-0.58409 0.43201-0.86036 0.73428-0.73112 0.79993-1.3153 1.8977-1.7348 2.7796z" fill="#ffd5d5"/>
  <path d="m36.397 49.959c-0.34999 0.83487-0.87349 1.8762-1.5347 2.643-0.24986 0.28976-0.50676 0.52596-0.76888 0.7026-0.25108 0.16921-0.49814 0.27786-0.73923 0.33229-0.24256 0.05477-0.47432 0.05364-0.69493 0.0097-0.23516-0.04683-0.45652-0.14207-0.66325-0.26795-0.24074-0.14659-0.45736-0.33215-0.64622-0.52157-0.15678-0.15725-0.29314-0.31591-0.40416-0.45154-0.06893-0.0842-0.14692-0.18281-0.23232-0.29748-0.33909-0.45536-0.76109-1.1194-1.2103-2.093-0.36327-0.78729-0.70829-1.6999-1.0153-2.7188-0.7668-2.5453-1.0504-4.9116-1.1201-6.3502 0.07101 1.4643 0.26226 3.7845 0.94539 6.3993 0.27066 1.036 0.58307 1.9732 0.92086 2.7875 0.41735 1.0062 0.82686 1.7134 1.1728 2.1985 0.08735 0.12247 0.16852 0.22778 0.24182 0.31734 0.11784 0.14396 0.26806 0.31093 0.44451 0.47478 0.21221 0.19706 0.46279 0.3901 0.74468 0.537 0.2429 0.12658 0.50481 0.21667 0.78119 0.24844 0.25972 0.02985 0.52347 0.0072 0.7885-0.07572 0.26223-0.08203 0.51839-0.2207 0.76862-0.41456 0.26101-0.2022 0.51031-0.46035 0.74884-0.76529 0.63137-0.80714 1.1219-1.8589 1.4721-2.6944z" fill="#ff8080"/>
  <path d="m30.408 30.147c0.2332-0.6112 0.58464-1.3879 1.0199-2.0054 0.16473-0.23369 0.33357-0.43364 0.50527-0.5956 0.1646-0.15525 0.32583-0.26993 0.48208-0.34788 0.1573-0.07846 0.30453-0.11723 0.44095-0.12696 0.14477-0.01033 0.27747 0.01201 0.39868 0.05384 0.14141 0.04881 0.26843 0.12464 0.37983 0.20742 0.09264 0.06884 0.17377 0.142 0.24068 0.20571 0.04148 0.03949 0.08877 0.08629 0.14087 0.14179 0.20744 0.221 0.46951 0.55748 0.75578 1.0883 0.23128 0.42888 0.45351 0.93917 0.65576 1.5217 0.5011 1.4434 0.72493 2.8727 0.79288 3.7143-0.06967-0.86293-0.20719-2.2566-0.63291-3.7646-0.16927-0.59959-0.36264-1.1352-0.57277-1.5925-0.25991-0.56564-0.51614-0.94805-0.7389-1.2025-0.0561-0.06407-0.10851-0.11822-0.15614-0.16356-0.07644-0.07278-0.17494-0.15507-0.29127-0.23027-0.14001-0.0905-0.30655-0.1712-0.49385-0.21372-0.16171-0.03671-0.33371-0.04376-0.51244-9e-3 -0.16742 0.03257-0.33436 0.10057-0.50033 0.20663-0.16424 0.10496-0.32472 0.24535-0.48208 0.42026-0.16428 0.18259-0.32224 0.39954-0.47451 0.64518-0.4037 0.65128-0.7232 1.4327-0.95745 2.0466z" fill="#ffd5d5"/>
  <path d="m30.98 36.757c0.07661-0.18558 0.18252-0.40512 0.31336-0.61059 0.09967-0.15652 0.2094-0.29805 0.32808-0.41366 0.10608-0.10333 0.21419-0.18094 0.32268-0.23214 0.10371-0.04894 0.20342-0.07173 0.29832-0.07381 0.09532-0.0021 0.18566 0.0167 0.27137 0.05028 0.09158 0.03589 0.17844 0.08892 0.26014 0.15208 0.0952 0.0736 0.1815 0.15949 0.25751 0.24388 0.06302 0.06997 0.11857 0.13849 0.16445 0.19557 0.02854 0.0355 0.06113 0.07652 0.09711 0.12365 0.14373 0.18829 0.32347 0.45116 0.51597 0.82187 0.15488 0.29827 0.30013 0.63259 0.42432 0.98756 0.12603 0.36021 0.21878 0.70858 0.2785 1.0231 0.07993 0.42089 0.09157 0.73158 0.07757 0.92858 0.01423-0.2003 0.02913-0.50301-0.01252-0.93784-0.03091-0.32268-0.08995-0.68241-0.18278-1.0614-0.09116-0.37223-0.20693-0.73019-0.33859-1.0536-0.16297-0.40027-0.33162-0.70217-0.47902-0.91431-0.03722-0.05357-0.07217-0.1001-0.10411-0.13983-0.05129-0.06381-0.11799-0.13831-0.19712-0.21296-0.09501-0.08964-0.20888-0.18039-0.33721-0.25381-0.1106-0.06328-0.23091-0.11307-0.35782-0.13861-0.11952-0.02405-0.2407-0.02573-0.36113-7.03e-4 -0.11916 0.02477-0.23243 0.07458-0.34002 0.1476-0.11196 0.07598-0.21576 0.1757-0.31282 0.29434-0.10875 0.13293-0.20681 0.28691-0.29588 0.4506-0.1174 0.21577-0.21357 0.43815-0.29036 0.62414z" fill="#ffd5d5"/>
  <path d="m33.952 43.421c-0.09251 0.17818-0.21718 0.38764-0.36546 0.58091-0.11295 0.14722-0.23461 0.27864-0.36293 0.38345-0.1147 0.09368-0.22916 0.16156-0.34171 0.20309-0.10758 0.0397-0.2089 0.05371-0.30362 0.04749-0.09514-0.0062-0.1835-0.03284-0.26594-0.07378-0.0881-0.04374-0.17-0.10415-0.24587-0.1742-0.08841-0.08163-0.16688-0.17472-0.23524-0.26543-0.05667-0.0752-0.10603-0.14831-0.14675-0.20917-0.02533-0.03786-0.05422-0.08157-0.08595-0.13166-0.12675-0.20011-0.28286-0.47767-0.44227-0.86377-0.12826-0.31065-0.24377-0.65637-0.33651-1.0208-0.09411-0.36983-0.1561-0.72497-0.18815-1.0435-0.04289-0.42626-0.02737-0.73678 0.0038-0.9318-0.03166 0.19829-0.07292 0.49855-0.06938 0.93535 0.0026 0.32415 0.03005 0.68765 0.08944 1.0733 0.05833 0.37876 0.14241 0.74547 0.24535 1.0791 0.12742 0.41296 0.26907 0.72843 0.39739 0.95263 0.0324 0.05661 0.06316 0.10601 0.09151 0.14838 0.04553 0.06805 0.10547 0.14808 0.17778 0.22935 0.08682 0.09759 0.19234 0.19793 0.31377 0.28227 0.10466 0.07269 0.22016 0.13279 0.34435 0.16931 0.11697 0.03439 0.23754 0.04664 0.35969 0.03222 0.12087-0.01427 0.23806-0.05401 0.35161-0.11736 0.11817-0.06592 0.23027-0.1562 0.33732-0.26592 0.11994-0.12293 0.23107-0.26776 0.33408-0.42306 0.13578-0.2047 0.251-0.41783 0.34372-0.59642z" fill="#ff8080"/>
 </g>
</svg>
