<?xml version="1.0" encoding="UTF-8"?>
<svg cursor="default" version="1.1" viewBox="0 0 256 256" xmlns="http://www.w3.org/2000/svg" xmlns:xlink="http://www.w3.org/1999/xlink">
 <path d="m121.79 98.457c-2.6838 1.0562-4.3864 2.971-4.572 6.2129-5.7577-6.4344 0.25083-13.605 3.9859-20.632-3.9714 4.5923-8.4234 8.4981-10.316 16.06 1.6803 4.098 3.3605 8.9212 5.0408 13.95-36.494-22.612-36.932-74.143-28.838-102.22-10.676 14.983-11.421 47.954-1.7584 81.238 4.5395-0.61793 14.575 16.138 21.57 24.383l7.2682 4.2203c-37-5.51-59.046-56.636-59.902-87.333-1.9082 7.4319-2.7559 34.482 23.797 77.37 2.0952-2.2185 20.625 12.534 27.431 15.826l7.9714 0.46892c0.9719 0.057 1.477 2.3681-0.11721 2.3445l-7.9714-0.11721c-9.222 4.8845-21.661 16.684-27.666 14.654-17.605 23.548-28.642 49.138-26.376 74.088 8.6372-51.256 31.206-70.591 48.884-77.956-6.0957 7.5807-14.855 23.435-18.287 22.742-8.5102 35.028-7.0744 59.617 2.9307 80.417-7.6003-23.176-7.3354-69.755 21.218-100.7-18.266 26.733-5.655 63.805 22.06 67.876 27.715-4.0691 40.05-41.141 21.783-67.876 28.553 30.945 28.818 77.522 21.218 100.7 10.005-20.803 11.441-45.391 2.9307-80.417-3.4326 0.69253-12.192-15.161-18.287-22.742 17.678 7.3666 40.246 26.702 48.884 77.956 2.2657-24.952-8.7712-50.541-26.376-74.088-6.005 2.0305-18.444-9.769-27.666-14.654l-7.9714 0.11721c-1.5942 0.0234-1.0891-2.2874-0.11721-2.3445l7.9714-0.46892c6.806-3.2915 25.336-18.044 27.431-15.826 26.553-42.887 25.706-69.939 23.797-77.37-0.85728 30.698-22.904 81.824-59.902 87.333l7.2682-4.2203c6.9947-8.2449 17.03-25.001 21.57-24.383 9.6624-33.283 8.9173-66.255-1.7584-81.238 8.0933 28.08 7.6561 79.609-28.838 102.22 1.6803-5.0291 3.3605-9.8518 5.0408-13.95-1.8925-7.5624-6.3446-11.468-10.316-16.06 3.735 7.0279 9.7436 14.198 3.9859 20.632-0.18545-3.2421-1.8881-5.1568-4.572-6.2129 2.1053 9.3416-14.593 8.47-12.426 0z" fill="#ff8080" stroke="#000" stroke-linecap="round" stroke-linejoin="round"/>
</svg>
