<?xml version="1.0" encoding="UTF-8"?>
<svg cursor="default" version="1.1" viewBox="0 0 256 256" xml:space="preserve" xmlns="http://www.w3.org/2000/svg" xmlns:xlink="http://www.w3.org/1999/xlink"><defs><linearGradient id="linearGradient13651"><stop stop-color="#ff2a2a" offset="0"/><stop stop-color="#f55" offset="1"/></linearGradient><linearGradient id="linearGradient6682" x1="50.103" x2="134.97" y1="252.51" y2="67.521" gradientTransform="matrix(1.1576 0 0 1.1576 -30.392 -25.706)" gradientUnits="userSpaceOnUse" xlink:href="#linearGradient13651"/><linearGradient id="linearGradient6777" x1="84.83" x2="113.16" y1="153.24" y2="82.14" gradientTransform="matrix(1.1576 0 0 1.1576 -30.392 -25.706)" gradientUnits="userSpaceOnUse" xlink:href="#linearGradient13651"/><linearGradient id="linearGradient6785" x1="185.71" x2="157.79" y1="116.53" y2="65.683" gradientTransform="matrix(1.1576 0 0 1.1576 -30.392 -25.706)" gradientUnits="userSpaceOnUse" xlink:href="#linearGradient13651"/><linearGradient id="linearGradient13675" x1="130.17" x2="130.92" y1="122.24" y2="127.92" gradientUnits="userSpaceOnUse"><stop offset="0"/><stop stop-opacity="0" offset="1"/></linearGradient></defs><path d="m132.72 14.188c-10.043 5.2393-17.824 7.2568-15.294-5.4105-0.0664-1.6522 15.781 1.8422 15.294 5.4105z" fill="#ff2a2a" stroke="#000" stroke-linecap="square" stroke-linejoin="round" stroke-width=".57881"/><path d="m157.79 78.464c-1.0196 1.6206 3.9078 6.919 7.6829 4.6891 4.1429-5.0437-1.3102-9.2241-7.6829-4.6891z" fill="#ff2a2a" stroke="#000" stroke-linecap="square" stroke-linejoin="round" stroke-width=".57881"/><path d="m68.569 244.8c0.39167 2.4142 11.262 4.0269 12.192 1.7344 4.71-12.838 10.632-22.948 15.66-36.983 1.6069-4.4851 2.8426-9.6939 4.2015-14.613 1.0686-3.8686 3.6891-7.6937 5.3113-11.93 7.3205-19.119 15.28-35.517 22.624-54.462 1.0784 0.10584 2.7914-0.58159 4.3869-1.1222 2.88 15.681 3.2381 28.932 4.0809 45.553 0.26102 5.1474 1.1734 7.5693 1.3474 10.902 0.1636 3.1333-0.40408 10.255-0.51886 15.104-0.33816 14.289 0.13829 29.373 1.0079 44.235 2.5914 1.8525 5.5147 1.6303 9.0676 0.98308 6.6894-22.26 8.2364-33.687 8.9392-48.219 0.19857-4.1052-0.26318-9.5177-0.25504-13.467 0.0134-6.5342 0.0665-12.73 0.59463-19.24 0.71804-8.8499 6.4098-30.072 5.6586-46.437-0.71786-15.64-6.3002-23.172-10.359-34.874-3.8474-11.093-5.2571-14.824-5.0763-23.558 3.9697-6.4727 4.0579-13.885 4.0809-15.66 3.1482-5.2452 4.0086-17.758 1.9384-20.302-5.412-2.3805-10.55-2.5676-15.609-2.7546-1.579-0.05835-2.408-0.24468-2.8331-0.83187-1.1109-0.57042-1.4634-2.7636-2.217-4.5753-6.1832 1.2972-14.303-2.4567-15.252-5.5092-1.5303 2.5165-3.0096 6.6361-4.591 7.5496-1.5248 0.8564-6.8517 3.0412-8.9742 3.2772-3.0308 0.33687-4.1922 0.40316-5.6149 1.0077-11.136 10.441 1.8602 18.108 4.846 16.834l0.86718 25.862c1.718 4.5183 4.0829 11.409 4.0809 16.068-5e-3 12.442-2.6017 22.622-6.5294 32.851-7.4077 19.292-11.067 37.609-12.447 56.52-1.5421 3.7525-1.7904 6.2114-2.4485 9.0799-6.4231 16.334-13.043 29.489-18.16 66.977z" fill="url(#linearGradient6682)" stroke="#000" stroke-linecap="square" stroke-linejoin="round" stroke-width=".57881"/><path d="m81.015 208.74c5.6668-8.5278 12.722-16.677 14.997-26.118 0 0 4.6792-22.949 7.3672-34.017 3.5574-14.648 10.919-39.097 10.21-40.712-1.066-2.4278-3.4291-5.1825-5.1941-1.01-4.788 11.319-7.5694 19.239-11.336 30.923-3.4986 10.852-6.3696 23.371-7.6983 34.873-1.4915 12.911-7.4026 23.279-11.11 34.916-0.41869 2.1405 0.11557 3.0301 2.7645 1.1443z" fill="#fff" fill-opacity=".1"/><path d="m98.308 117.89c0.30267 0.96889 9.8503-0.9124 9.5135-2.117-2.6298-1.8982-8.8382-2.069-9.5135 2.117z" fill="#ff2a2a" stroke="#000" stroke-linecap="square" stroke-linejoin="round" stroke-width=".57881"/><path d="m100.28 20.048c-4.1779 0.38572-11.52 8.6868-12.011 25.945-0.49818 17.481 3.7377 24.041 4.1159 30.786 0.46042 8.2127 3.669 27.123 5.8699 41.06-0.20123-0.31865 4.5389-2.8224 9.59-2.0404-0.2089-8.406-0.13061-14.899-0.82703-21.587-0.54674-5.2511-1.9453-11.193-2.2759-14.384-1.0178-9.8259 1.1996-20.111-1.3387-42.286" fill="url(#linearGradient6777)" stroke="#000" stroke-linecap="square" stroke-linejoin="round" stroke-width=".57881"/><path d="m152.75 22.156c4.5389 1.7482 10.296 9.1799 15.239 13.457 4.0137 3.4726 13.798 11.893 15.871 13.707 2.5408 2.2235 3.9607 5.9154 3.4627 7.5026-3.6351 11.587-12.682 18.992-21.931 26.259-0.0506-3.4692-7.1213-5.9743-7.5747-4.617 6.2091-5.6884 11.226-12.354 15.943-19.261 0.57353-0.83993 0.22615-1.3535-0.43284-1.8035-5.8694-4.0077-14.774-12.115-19.388-14.534-1.1134-0.58367-3.1072 0.0047-2.8391 0.06013" fill="url(#linearGradient6785)" stroke="#000" stroke-linecap="square" stroke-linejoin="round" stroke-width=".57881"/><path d="m157.51 143.15c-0.93983 4.3595-5.9069 4.6975-6.978 0.38332-1.7201-6.9281 2.1171-20.871-0.15153-28.693-1.5958-5.5021-8.8169-0.36326-10.632-3.505-2.898-5.0174-2.635-9.2991-1.4808-11.663 2.7999-5.7347 13.343-10.507 16.715-4.4872 6.4184 11.46 6.3789 30.098 2.527 47.965z" fill="#fff" fill-opacity=".1"/><path d="m112.64 97.842c0.049 5.6158 2.9298 4.6448 4.8779 1.0432 5.0295-9.298 4.6486-25.6 0.46411-40.503-1.2717-4.5289 0.33458-10.255 1.5854-13.749 2.591-7.2384-7.4795-17.781-12.033-14.673-2.6194 1.7878-3.1879 3.2663-3.0559 5.5461 0.59035 10.197-0.92006 23.279 4.1647 32.796 6.6088 12.37 3.9048 18.994 3.9971 29.539z" fill="#fff" fill-opacity=".1"/><path d="m99.277 116.61 3.2647-1.2243c-0.0769-0.15368-0.25359-22.248-1.1222-32.749-0.60193-7.2768-1.7757-20.449-3.4687-21.629-3.0446-2.1206-6.2471-4.6229-6.1213 0.91819 0.04677 2.0627 1.9285 14.843 3.0607 22.241 1.6873 11.025 4.4201 32.476 4.3869 32.443z" fill="#fff" fill-opacity=".1"/><path d="m98.594 40.519c0.54994 0.16882 5.651-15.488 5.122-15.871-1.3776-0.99629-3.0202-2.8392-5.2662-1.1542-3.8223 2.8674-4.6974 7.216-4.617 11.254 0.05163 2.5906 1.446 4.7535 4.7612 5.7712z" fill="#fff" fill-opacity=".1"/><path d="m144.88 86.849c0.67936 1.866 5.6387 0.30007 5.2693-2.2887-1.018-7.1331-3.0696-10.007-3.0343-19.568 0.0115-3.1447-8.3582-1.5504-8.1319 1.7076 0.52186 7.513 3.5319 13.653 5.897 20.149z" fill="#fff" fill-opacity=".1"/><path d="m146.5 51.484c1.5522-0.14216 3.6443-5.5558 3.1742-8.0076-0.65197-3.4003-1.1794-4.1576-4.1841-3.8956-2.7143 0.23668-5.6267 3.2399-5.4827 5.6991 0.15205 2.5951 4.6093 6.3766 6.4926 6.2041z" fill="#fff" fill-opacity=".1"/><path d="m155.86 28.546c-1.535 1.6297-1.9078 3.7706-0.58547 5.2415 6.3248 7.0352 14.636 12.575 22.783 18.774 0.68381 0.52038 4.9998-1.3103 5.3161-2.0115 0.35768-0.79301-26.99-22.56-27.513-22.004z" fill="#fff" fill-opacity=".1"/><path d="m148.66 228.08c0.76146-12.272 1.622-24.445 2.0199-37.08 1.4428-1.272 2.8856-0.75945 4.3284-0.14428 0.68407 13.504-2.6875 25.421-6.3483 37.224z" fill="#fff" fill-opacity=".1"/><g transform="matrix(1.1576 0 0 1.1576 -30.392 -25.706)" fill="#fff" fill-opacity=".2"><g fill="#fff" fill-opacity=".2"><path d="m152.37 96.748c0.24985 0.30559 3.033-0.80946 2.9557-1.1777-1.9226-5.3369-3.0808-10.834-3.108-16.569-1.9356-0.09721-3.4646 0.31829-4.5584 1.2822 0.82082 5.5816 2.4427 11.063 4.7108 16.465z"/><path d="m105.69 174.05s0.94118-9.6608 1.9765-14.391c2.8203-12.885 11.485-37.866 11.485-37.866l1.9389 1.322s-7.3496 24.299-11.023 36.449c-1.4597 4.8284-4.3778 14.486-4.3778 14.486z"/><path d="m119.34 121.33c0.12463 0 1.9007 1.0594 1.9007 1.0594l2.4615-6.5433-1.0282-0.68549z"/><path d="m95.657 198.92c1.7768-4.9482 2.4421-10.408 6.2941-14.707 0.49796-0.55574 1.8462 1.3594 0.62318 3.4275-2.5692 4.3443-2.8365 3.824-6.9172 11.279z"/><path d="m103.02 181.02c-0.85629-0.6917 0.67262-4.4351 1.4542-3.8337 1.136 0.87422-0.0778 4.9454-1.4542 3.8337z"/><path d="m124 141.67c1.5272-3.685 2.8265-7.3985 5.2437-10.972 0.8906-0.13146 1.4007 0.30787 1.5863 1.2338-2.9764 3.3336-4.7243 6.5136-6.8301 9.7384z"/><path d="m158.68 137.66c-0.1736 0.77702 1.4573 0.39828 2.0711-0.8813 4.6249-9.6415 1.4255-28.854-2.1592-30.934-1.0091-0.58553-7.7707 1.3522-9.1655 2.2914-0.57746 0.38881-1.033 5.4047-0.64402 5.784 2.4744-1.4361 7.0026-2.1317 8.1155-1.7657 0.7178 0.23604 4.0749 15.243 1.7822 25.505z"/><path d="m125.63 105.94c0.20047-5.8301 1.3502-12.403-0.24927-19.131-0.76155-3.2038-3.1594-5.9388-3.739-8.9114-1.2929-6.6298 2.4585-6.1739 3.926-4.4245 2.3907 2.8499 1.8313 6.9272 2.3681 10.22 1.0052 6.1665 1.3341 11.771 0.81013 17.387-0.22587 2.4207-3.1796 6.7129-3.1159 4.8608z"/><path d="m152.39 63.151c-0.77136 0.17515-2.027-0.8813-2.027-1.2338s-1.0968-2.9249-0.22032-3.8777c0.74608-0.81106 2.3934-0.70756 3.3049-0.08813 0.67257 0.45708 0.92939 1.4834 0.83724 2.2914-0.13111 1.1496-0.76649 2.6521-1.8948 2.9083z"/><path d="m124.75 70.504s-2.573-1.2114-3.2168-2.3795c-0.67537-1.2254-1.4222-3.3392-0.30845-4.1862 0.83207-0.63279 2.766-0.77895 2.9524 1.0576 0.18585 1.831 2.0334 6.5886 0.57284 5.5081z"/><path d="m127.26 61.691c-1.5436 1.1585-3.5962-4.2552-2.9524-4.5828 1.9912-1.0131 4.0461 3.7619 2.9524 4.5828z"/><path d="m118.36 49.529c0.82575-0.30881 2.3826 1.7525 0.66097 2.3795-1.0783 0.39274-1.7541-1.9707-0.66097-2.3795z"/><path d="m110.87 45.343c0.25179-0.77623 1.9319 0.87694 1.8067 1.1457-1.0518 2.2569-1.7616 4.6861-1.8948 7.4029-0.94542-2.8495-0.81625-5.7606 0.0881-8.5486z"/><path d="m111.66 94.96c-1.057-4.5487-4.2033-12.202-3.9633-17.183 0.77488-1.176 1.7203-1.3857 2.9925 0.25683 0.47814 4.8669 0.38798 12.373 0.97073 16.926z"/><path d="m110.16 101.48 0.70504 1.5423c0.5603 6.4307 1.423 12.811 2.688 19.124l-0.7491 0.30846c-1.3183-6.9917-2.0206-13.983-2.6439-20.975z"/><path d="m161.45 47.506-0.31714 2.2318 4.9952 4.1116c5.1395 4.2304 10.418 7.9285 14.499 12.348l1.4079-1.3242-4.5087-4.1251c-4.4989-4.1162-10.678-9.3916-16.077-13.242z"/><path d="m155.97 211.57c0.34957-5.6338 1.2431-16.519 1.4258-22.32 0.66236-0.58393 1.3247-0.34864 1.9871-0.0661 0.31404 6.1993-1.7323 16.967-3.4129 22.386z"/></g></g><path d="m128.32 128.64c-1.1283-1.1987-1.8173-2.6609-1.9838-4.4366-0.28433-3.0313 10.754-4.8444 8.4043-0.90176-0.74084 1.243-1.4417 2.526-1.8035 4.1481-1.4892 0.5627-3.0305 1.0111-4.617 1.1903z" fill="#ff2a2a" stroke="#000" stroke-linecap="square" stroke-linejoin="round" stroke-width=".25"/><path d="m87.701 188.41c1.359 1.5004-2.0773 5.5127-4.5448 9.0175 1.5149-3.0334 3.0299-8.1077 4.5448-9.0175z" fill="#fff"/><path d="m93.768 166.5 1.7344-9.6921 12.651-40.605 0.61213 0.51011z" fill="#fff"/><path d="m108.56 114.88 0.4591 0.30607 3.2137-6.8865-0.30607-0.10195z" fill="#fff"/><path d="m97.296 92.965 3.102 22.219z" fill="#fff"/><path d="m100.4 115.65-1.4283-11.477-1.2243-11.273c0.29998 7.4243 0.87062 14.922 2.6526 22.751z" fill="#fff"/><path d="m95.42 65.119 1.01-0.07215 1.6592 14.789z" fill="#fff"/><path d="m98.594 27.534 0.64927 0.28856c-0.92246 2.1204-0.96151 4.0976-1.3707 6.1319 0.04476-2.1731-0.4565-4.3372 0.72139-6.4205z" fill="#fff"/><path d="m152.53 194.25h0.81619c0.11662 6.9256-1.1979 13.533-2.2445 20.2 0.69136-6.7334 1.6354-13.467 1.4283-20.2z" fill="#fff"/><path d="m155.22 131.92c1.2579-9.4685 4.138-17.845-4.1841-33.762l1.7314-0.21643c5.5495 9.5515 6.136 20.964 2.4528 33.978z" fill="#fff"/><path d="m144.69 66.706-1.2985 0.21642c-1.0478 6.18 2.024 12.36 4.4727 18.54-2.1913-7.1155-4.8724-14.604-3.1742-18.756z" fill="#fff"/><path d="m112.66 65.046c5.3581 7.4088 3.9457 18.626 3.3906 29.361 0.86483-10.292 3.0166-20.701-2.1642-30.443z" fill="#fff"/><path d="m157.46 30.703c8.8327 6.5954 15.277 12.745 21.748 18.899-6.6748-6.0894-13.519-12.178-21.94-18.263z" fill="#fff"/><path d="m128.32 128.64c-1.1283-1.1987-1.8173-2.6609-1.9838-4.4366-0.28433-3.0313 10.754-4.8444 8.4043-0.90176-0.74084 1.243-1.4417 2.526-1.8035 4.1481-1.4892 0.5627-3.0305 1.0111-4.617 1.1903z" fill="url(#linearGradient13675)" opacity=".25"/></svg>
