<?xml version="1.0" encoding="UTF-8"?>
<svg cursor="default" version="1.1" viewBox="0 0 256 256" xml:space="preserve" xmlns="http://www.w3.org/2000/svg" xmlns:xlink="http://www.w3.org/1999/xlink"><defs><linearGradient id="linearGradient23151"><stop stop-color="#ff7f2a" offset="0"/><stop stop-color="#f95" offset="1"/></linearGradient><linearGradient id="linearGradient21529" x1="145.07" x2="108.18" y1="208.39" y2="149.06" gradientTransform="translate(5.2463 -3.3212)" gradientUnits="userSpaceOnUse"><stop stop-color="#ff2a2a" offset="0"/><stop stop-color="#f55" offset="1"/></linearGradient><linearGradient id="linearGradient21641" x1="73.535" x2="57.606" y1="167.63" y2="170.24" gradientUnits="userSpaceOnUse"><stop offset="0"/><stop stop-opacity="0" offset="1"/></linearGradient><linearGradient id="linearGradient21961" x1="106.46" x2="58.342" y1="102.76" y2="107.52" gradientTransform="translate(310.92 31.022)" gradientUnits="userSpaceOnUse"><stop offset="0"/><stop stop-opacity="0" offset="1"/></linearGradient><linearGradient id="linearGradient23153" x1="48.857" x2="79.019" y1="142.08" y2="95.72" gradientUnits="userSpaceOnUse" xlink:href="#linearGradient23151"/><linearGradient id="linearGradient23155" x1="51.474" x2="70.419" y1="180.85" y2="157.29" gradientUnits="userSpaceOnUse" xlink:href="#linearGradient23151"/></defs><path d="m112.06 236.73c-2.1541-12.547-4.1135-25.093-7.852-37.64-0.60037-2.0148-2.2621-3.0284-3.8637-2.742-8.2514 1.4759-18.326 5.0163-24.678 3.739-7.2199-1.4517-11.803-9.6868-11.466-18.82 0.4459-12.096-3.401-25.246-8.1013-33.651-2.9016-1.0106-5.878-1.9614-7.9766-3.6144-4.9227-3.8775-6.9354-11.249-2.499-15.895 6.1019-6.3906 13.513-11.666 13.935-17.777 0.50436-7.2956-2.3883-11.427-1.9391-17.933 0.27939-4.0465 1.3145-8.4874 1.9024-13.612 0.89066-7.7651 1.8041-16.455 5.8116-22.612 15.346-23.576 53.662-36.625 78.882-37.303 28.028-0.75378 50.102 14.707 59.575 30.909 16.719 28.593 7.2527 62.88-4.2376 79.143-9.4298 13.347-14.45 24.738-13.461 38.512 0.78108 10.876 2.9406 19.255 4.6115 29.538-13.366 26.303-55.091 43.165-78.645 39.759z" fill="url(#linearGradient21529)" stroke="#000" stroke-linecap="square" stroke-linejoin="round" stroke-width=".5"/><path d="m147.94 57.282c-7.4974 0.19307-8.5129 3.069-9.4375 4.668-2.9029-1.1248-5.9419-1.2031-6.127 2.7852-3.8477-4.9629-8.9566-0.63288-7.1055 2.6113 2.9982 9.3363 7.9487 18.617 9.3476 28.168 1.1836 8.0804-6.3602 6.5469-7.6035 10.967-3.1311 11.131 7.1891 11.23-3.4883 40.631 6.1753-1.429 6.7209 4.3816 5.9824 11.842 3.4971-1.7682 6.2349-2.2969 6.1055 1.8691 7.0752-8.0009 11.616-17.089 16.453-26.049l14.332-2.7422c18.272-10.948 11.455-31.445 10.719-33.402-1.8252-0.66233-3.4323-1.2741-4.9316-1.8652 1.089 0.58972 1.9865 1.3412 2.5645 2.3633 1.6115 3.9664 3.2547 9.3869 2.2422 13.025-3.9353-2.6726-7.9176-5.354-11.217-8.4141-0.83072-0.77052-6.1929-7.5841 0.375-8.9102 1.1896 0.27219 2.3701 0.55226 3.4746 0.89648-15.597-6.5951-9.318-9.0938 6.1211-17.66 8.7627-4.862-1.9919-19.952-24.178-20.689-1.3543-0.09344-2.5579-0.12133-3.6289-0.09375zm15.277 50.945c2.699-0.0362 5.1246 0.47291 6.4844 3.1152 1.4839 4.3499 1.1947 8.4045-1.3086 12.09-4.3028 1.1473-7.759 1.8e-4 -10.904-1.9941-2.05-4.7282-0.91981-8.1035 0.74804-12.9 1.6441-0.0711 3.361-0.28884 4.9805-0.31055z" fill="#fff" fill-opacity=".2"/><path d="m75.927 199.82c41.567-18.339 53.132-38.292 64.511-58.254 17.795-27.873 8.794-56.353-10.183-79.702-6.0645-7.4617-32.88-25.772-54.839-10.719-11.457 7.8542-13.366 15.677-15.642 25.55 2.1273-13.737 0.85934-13.925 10.656-25.675 9.5066-11.402 40.601-16.11 64.062 7.1042 27.655 27.363 26.788 65.871 10.594 88.865 14.003 14.044 18.163 44.841 26.672 71.042l-4.8608 3.6144c-7.9315-23.677-12.27-52.943-25.55-68.3-15.81 20.192-30.688 40.074-58.173 46.645-2.7971 0.34815-5.7331 0.84401-7.2476-0.17061z" fill="none" stroke="#000" stroke-linecap="square" stroke-linejoin="round" stroke-width=".5"/><path d="m81.024 44.414c4.9774 0.7837 8.6351 4.7346 11.965 9.4722-3.9022 7.6378-4.9932 14.857-7.4157 24.045-3.3692 12.779 0.62834 41.355 4.5649 48.746-0.41203 7.8333-2.0463 23.926-5.8737 23.926-1.4494 3.0862-3.9576 0.98846-4.6115-0.12463-4.3026-7.3239-4.7869-18.679-13.834-21.562-10.15-3.2336-12.519 5.7173-16.826 9.7215-3.2126 2.9873-2.5557-0.12189-2.2434-0.87244 1.8666-4.4868 4.9841-8.2568 7.6027-13.461 0.63386-1.2596-4.8729 0.95508-4.113-0.49854 2.4679-4.7203 8.651-6.5743 10.594-11.965 0.42234-1.1718 0.8104-2.3486 1.1678-3.5287 1.1451-5.5453 3.6005-9.7193 4.3809-21.461 0.78897-11.871 1.6686-36.513 14.642-42.438z" fill="#fff" fill-opacity=".2"/><ellipse cx="57.094" cy="142.07" rx="2.8666" ry="2.4304" fill="#ff2a2a" stroke="#000" stroke-linecap="square" stroke-linejoin="round" stroke-width=".5"/><path d="m127.5 55.372c-0.0365 6.84e-4 -0.0706 2e-3 -0.10351 0.0059-1.0539 0.12339-0.2869 1.8606 1.5859 4.5781-6.3272 0.12961-6.3269 4.4773-6.873 8.4609 2.7561 8.2198 5.6563 14.992 8.1074 26.262-9.0056 0.43494-9.0515 6.5291-12.338 10.576 6.0764 11.543-4.3155 26.746-9.166 40.717 15.576-13.438 10.048-4.6534 4.1816 4.4883 6.8598 1.8714 14.827 2.6544 12.562 13.49l-2.4668 2.9961c2.8644-1.1725 8.5879-5.7942 1.5859 4.9355l16.393-17.273 5.9922-10.928c4.714-3.6393 6.1657-8.0959 16.922-10.225 6.2139-2.3675 10.159-7.5697 13.748-13.219 1.6048-7.088 2.1857-14.261-0.17578-21.68l-9.3418-3.5254c-3.4591-2.9546-6.0957-7.5836-0.88281-10.928l9.3418-5.9941c6.8944-4.4228 1.6105-13.816-7.0488-17.801-8.685-3.9967-17.722-4.8594-26.615-4.584-3.918 0.12132-5.7224 2.6908-6.1699 4.7598-5.2434-3.623-8.1063-5.1345-9.2383-5.1133zm39.4 40.391c8.6672 0.20172 7.8555 8.1595 9.2227 14.334-2.9072-2.5761-5.8722-5.1335-9.4727-7.4785-1.8373-3.2452-0.62965-4.9688 0.25-6.8555zm-5.3086 14.252c2.7951 0.0378 6.6502 0.81451 6.6973 1.7617 0.15062 3.0299 0.0923 6.0366-1.2344 8.9023-0.50056 1.0813-4.8785 0.5487-7.0508 0-4.5141-1.1402-3.7047-10.736 1.5879-10.664z" fill="#fff" fill-opacity=".1"/><path d="m159.79 225.13c-2.742-13.128-8.0379-26.256-8.2259-39.385 9.4265-8.3975 12.384-16.795 18.274-25.192 1.7648-2.5159 2.4815-2.9724 2.0413 2.5089-2.0927 26.056-1.0386 36.518-0.99707 55.712-3.1996 2.4176-6.2831 4.9048-11.092 6.3564z" fill="#fff" fill-opacity=".2"/><path d="m132.59 235.25c-6.83-10.526-11.689-21.232-15.952-31.991 3.2782-0.51955 6.3856-2.5756 9.4299-5.1997 3.5206 9.1331 6.6807 18.026 10.84 27.585-0.18567 3.2804 2.7859 6.7582-4.3184 9.6062z" fill="#fff" fill-opacity=".2"/><path d="m76.103 45.15c26.869-15.747 67.201-29.031 99.94-14.806 26.788 11.639 28.445 43.77 23.37 69.568-5.6398 2.8799-15.096-2.3723-23.971-5.4641 8.1584 4.5739 8.9338 30.048-12.618 43.944-6.2354 4.0204-5.5042 9.0854-3.349 9.518 6.7957 1.3642 23.12-11.11 20.446-1.9389-4.7248 16.208-4.8674 32.578-4.2302 48.648 2.9892-14.979 3.3536-28.159 7.369-44.448 1.6829-6.8269 6.3699-13.566 10.924-19.702 4.9052-6.6086 11.235-13.707 13.962-22.57 5.6438-18.342 6.4769-37.117-4.759-55.698-6.9227-11.449-17.438-23.859-36.395-29.478-26.544-7.8681-62.504-0.06953-90.689 22.428z" fill="#fff" fill-opacity=".1"/><ellipse cx="57.094" cy="142.07" rx="2.8666" ry="2.4304" fill-opacity=".25"/><path d="m166.15 131.41c5.4339-4.653 10.427-9.3061 10.469-13.959l0.87244 0.74781c-1.9077 6.6072-6.69 9.8324-11.342 13.211z" fill="#fff"/><path d="m176.92 115.65 0.96943 0.26439c1.1668-6.003-0.19146-11.501-0.61691-17.185 0.20871 6.5374 1.1736 15.154-0.35252 16.921z" fill="#fff"/><path d="m145.09 20.359c49.44-2.0679 72.375 45.471 64.935 76.401 2.557-41.913-20.381-75.239-64.935-76.401z" fill="#fff"/><path d="m136.74 62.6c26.345 32.758 24.826 67.299-7.5792 103.82 24.592-30.96 36.675-63.987 7.5792-103.82z" fill="#fff"/><path d="m154.98 58.282c7.3899-0.5654 22.448 3.7867 23.002 15.952 0.15284 3.3563-3.912 4.3899-4.054 2.9083-1.0016-10.451-13.08-18.391-18.948-18.86z" fill="#fff"/><path d="m198.78 106.31c-3.3427 1.5036-10.245 1.1763-11.877 0.58041 2.3461 8.7561-5.8335 25.841-16.501 30.97 7.7212 3.0524 9.3503-2.5427 12.514 0.17626 1.0842 0.93167 0.70504 4.2302 0.70504 4.2302 3.827-8.9305 9.5948-18.276 16.568-26.792 13.987-17.08 6.8406-27.738 9.5181-41.421-2.6404 11.238 1.8576 26.504-10.928 32.256z" fill="#fff" fill-opacity=".2"/><path d="m84.016 125.8c-4.4773-22.434 0.82468-65.932 4.4869-72.039-2.8049-2.6541-4.6241-4.569-6.1071-6.2317l-7.9766 4.7361c-0.63983 9.2357-8.0749 39.307 9.5969 73.535z" fill="#fff" fill-opacity=".2"/><path d="m84.514 52.391c-4.9851 3.3277-4.9641 11.206-6.6056 17.574 0.35527-7.0682 0.08723-14.323 3.6144-20.44 1.8853 0.06731 2.766 1.1392 2.9912 2.8666z" fill="#fff"/><path d="m51.112 133.53c5.2494-8.3822 8.9865-13.191 17.698-15.579-3.2632-5.39-4.0521-8.9165-6.6056-5.8578-2.0506 2.4562-3.2094 5.8483-8.8491 10.033 1.2879-0.38616 2.5758-2.0447 3.8637-0.81013z" fill="#fff" fill-opacity=".2"/><path d="m52.22 130.46c2.9437-5.4111 5.7591-10.854 9.6062-16.04 1.7055-0.0381 2.6409 0.59753 2.4676 2.2032-4.8818 3.2406-8.2918 8.8362-12.074 13.836z" fill="#fff"/><path d="m157.05 186.12c5.3292 5.3114 3.9825-1.2983 5.11-3.4898l10.22 35.396-5.6086 3.3651z" fill="#fff" fill-opacity=".2"/><path d="m168.77 213.79-6.2317-23.057 5.6086 23.556z" fill="#fff"/><path d="m204.66 107.48c-14.209 11.415-15.883 19.322-18.82 28.292 4.102-11.819 11.477-20.038 18.82-28.292z" fill="#fff"/><path d="m128.45 66.654c14.778 23.456 16.301 51.631 3.3489 84.957 14.265-27.425 22.349-55.209-3.3489-84.957z" fill="#fff"/><g transform="translate(5.2463 -3.3212)"><path d="m50.212 156.01c-0.43553-0.49501 5.5972-2.0807 12.156 0.12914 6.5996 2.2235 18.141 4.4378 18.675 8.8689 0.45917 3.8088-16.556 25.935-22.04 14.908-0.56931-7.8972-1.3005-15.074-8.7909-23.906z" fill="#ff2a2a" fill-opacity=".99722" stroke="#000" stroke-linecap="square" stroke-linejoin="round" stroke-width=".5"/><path d="m50.212 156.01c-0.43553-0.49501 5.5972-2.0807 12.156 0.12914 6.5996 2.2235 18.141 4.4378 18.675 8.8689 0.45917 3.8088-16.556 25.935-22.04 14.908-0.56931-7.8972-1.3005-15.074-8.7909-23.906z" fill="url(#linearGradient21641)" opacity=".25"/><path d="m51.407 152.13c-1.0859 1.465-1.1821 2.7248-1.2416 3.8476 0.6173-0.0627 1.0658 0.60607 1.5107 1.2904 0.22401-0.56704 0.32043-1.5843 1.6675-1.3527 5.5483 0.95365 14.727 5.0296 21.936 8.2882 2.4663 1.1148 1.3543 2.511 0.87244 3.4898-6.371 12.942-11.913 12.719-17.2 12.214l-0.24927 4.3622c3.1197 0.74413 6.1942 0.20437 9.036-0.99708 6.784-2.8681 10.026-8.1477 12.9-14.769 1.4155-3.2621 2.9564-4.8812 4.2999-6.9796-2.4529-0.15611-3.6156-0.0724-6.2941-0.99708-8.7166-3.0092-13.601-5.8886-22.497-8.5375-1.5938-0.47457-2.7981-0.78583-3.5666-0.39593-0.61285 0.31094-0.81106 0.9068-0.97283 1.4854z" fill="url(#linearGradient23155)" stroke="#000" stroke-linecap="square" stroke-linejoin="round" stroke-width=".5"/><path d="m80.265 162.15c-6.9327-2.0025-16.406-6.2277-24.615-9.3476l18.944 8.3505z" fill="#fff"/></g><g transform="translate(5.2463 -3.3212)"><path d="m56.139 114.22c-0.22538-2.3138 0.51458-2.9213 0.26842-5.0183-1.4757-12.572 1.9348-25.976 13.568-29.705 7.2839-2.3351 17.691 1.1129 26.764 5.7329 7.4399 3.7885 13.839 8.5692 18.094 9.8662-1.0843 2.7881-1.9152 5.4556-2.2914 7.4029-5.568 28.825-31.686 37.05-45.49 22.639-3.5473-3.7033-7.0431-8.3386-10.913-10.917z" fill="url(#linearGradient23153)" stroke="#000" stroke-linecap="square" stroke-linejoin="round" stroke-width=".5"/><path d="m58.765 110.18c-3.452-12.877 0.74427-26.475 14.582-26.859 15.168-0.42102 27.23 7.4827 34.586 14.582 0.7671 11.727-7.2737 27.774-22.434 29.663-11.489 1.4314-19.102-8.1787-26.734-17.387z" fill="#ff2a2a" stroke="#000" stroke-linecap="square" stroke-linejoin="round" stroke-width=".5"/><path d="m58.765 110.18c-3.452-12.877 0.74427-26.475 14.582-26.859 15.168-0.42102 27.23 7.4827 34.586 14.582 0.7671 11.727-7.2737 27.774-22.434 29.663-11.489 1.4314-19.102-8.1787-26.734-17.387z" fill="url(#linearGradient21961)" opacity=".25"/><path d="m70.68 81.52c6.808-1.1073 21.228-1.9202 41.597 14.806-1.2663 1.9307-1.587 4.0979-1.9389 6.2572l0.17626-5.5522c-7.1149-6.706-23.71-17.981-39.835-15.511z" fill="#fff"/></g></svg>
