<?xml version="1.0" encoding="UTF-8"?>
<svg cursor="default" version="1.1" viewBox="0 0 256 256" xml:space="preserve" xmlns="http://www.w3.org/2000/svg" xmlns:xlink="http://www.w3.org/1999/xlink"><defs><linearGradient id="linearGradient1655"><stop stop-color="#f95" offset="0"/><stop stop-color="#ffb380" offset=".67481"/><stop stop-color="#f95" offset="1"/></linearGradient><linearGradient id="linearGradient971"><stop stop-color="#ffe680" offset="0"/><stop stop-color="#fea" offset=".39436"/><stop stop-color="#fff6d5" offset=".77278"/><stop stop-color="#fea" offset="1"/></linearGradient><linearGradient id="linearGradient2416" x1="118.9" x2="136.6" y1="30.162" y2="30.162" gradientTransform="matrix(-.80012 -.8366 -.8366 .80012 337.99 130.52)" gradientUnits="userSpaceOnUse" xlink:href="#linearGradient971"/><linearGradient id="linearGradient2768" x1="118.09" x2="139.25" y1="99.235" y2="99.411" gradientTransform="matrix(-.80012 -.8366 -.8366 .80012 337.99 130.52)" gradientUnits="userSpaceOnUse" xlink:href="#linearGradient1655"/><linearGradient id="linearGradient2832" x1="120.15" x2="137.35" y1="187.58" y2="188.2" gradientTransform="matrix(-.80012 -.8366 -.8366 .80012 337.99 130.52)" gradientUnits="userSpaceOnUse"><stop stop-color="#ffb380" offset="0"/><stop stop-color="#fca" offset=".66179"/><stop stop-color="#ffb380" offset="1"/></linearGradient><linearGradient id="linearGradient3177" x1="123.01" x2="133.3" y1="234.44" y2="234.44" gradientTransform="matrix(-.80012 -.8366 -.8366 .80012 337.99 130.52)" gradientUnits="userSpaceOnUse"><stop stop-color="#ac9393" offset="0"/><stop stop-color="#c8b7b7" offset=".26061"/><stop stop-color="#e3dbdb" offset=".68485"/><stop stop-color="#c8b7b7" offset="1"/></linearGradient><linearGradient id="linearGradient6672" x1="32.256" x2="56.932" y1="199.35" y2="199.35" gradientUnits="userSpaceOnUse" xlink:href="#linearGradient1655"/><linearGradient id="linearGradient6718" x1="37.048" x2="53.344" y1="125.35" y2="125.1" gradientUnits="userSpaceOnUse" xlink:href="#linearGradient971"/><linearGradient id="linearGradient6855" x1="35.583" x2="56.023" y1="236.62" y2="236.74" gradientUnits="userSpaceOnUse" xlink:href="#linearGradient971"/><linearGradient id="linearGradient6978" x1="44.241" x2="44.241" y1="130.08" y2="133.61" gradientUnits="userSpaceOnUse"><stop stop-color="#ffe680" offset="0"/><stop stop-color="#fea" offset="1"/></linearGradient><linearGradient id="linearGradient7345" x1="36.798" x2="55.868" y1="230.01" y2="230.42" gradientUnits="userSpaceOnUse" xlink:href="#linearGradient971"/><linearGradient id="linearGradient7353" x1="35.77" x2="54.995" y1="243.19" y2="243.35" gradientUnits="userSpaceOnUse" xlink:href="#linearGradient971"/></defs><path d="m187.14 53.375 1.1217-1.0282c5.7884 0.17667 18.541 13.373 17.075 17.574l-1.5891 1.5268c-13.245-3.4479-18.393-14.861-16.608-18.072z" fill="#ff7f2a" stroke="#000"/><g transform="matrix(-.30592 -1.1165 1.1165 -.30592 -31.906 317.48)"><path d="m36.376 119.29c0.23184-2.3192 3.257-6.1004 8.0701-6.1071 5.0652-7e-3 8.0335 3.6011 8.1636 5.889z" fill="#f95" stroke="#000" stroke-width=".5"/><path d="m33.79 133.04c0.51172-4.6011 1.3242-9.2022 2.3992-13.803 1.398-0.93469 14.429-0.91019 16.576-0.21811 1.5091 4.6426 1.6732 9.2853 2.2123 13.928 0.03897 1.7294-21.172 3.6509-21.188 0.0935z" fill="url(#linearGradient6718)" stroke="#000" stroke-width=".5"/><g stroke="#000"><path d="m33.634 133.48c-1.0546 38.561-3.8692 76.874-2.8531 115.73 0.0209 0.79757 0.30195 1.3499 0.99382 1.366 8.4403 0.0646 16.88 0.0294 25.321 0 0.69187-0.0161 0.97296-0.56845 0.99382-1.366 1.0161-38.855-1.7985-77.168-2.8531-115.73-2e-3 -1.0074-21.592-0.77854-21.602 0z" fill="url(#linearGradient6672)" stroke-width=".49512"/><g stroke-width=".5"><path d="m30.689 242.87 0.0155 1.5891c7.1767-0.36497 20.588-0.37501 27.474 0.039l8e-3 -1.4021c-6.6653-0.64611-20.445-0.75036-27.497-0.22594z" fill="url(#linearGradient7353)"/><path d="m30.589 229.85 0.0155 1.5891c7.1767-0.36497 20.783-0.37501 27.669 0.039l8e-3 -1.4021c-6.6653-0.64611-20.64-0.75036-27.692-0.22594z" fill="url(#linearGradient7345)"/><path d="m30.534 234.02 0.0596 6.0837c7.1767-0.36497 20.783-0.37501 27.669 0.039l-0.0361-5.8968c-6.6653-0.64611-20.64-0.75036-27.692-0.22594z" fill="url(#linearGradient6855)"/></g></g><g stroke="#000"><path d="m30.675 239.3c4.192-0.47062 23.841-0.32925 27.607 0.11016" fill="none" stroke-width=".25"/><path d="m30.664 235.01c4.192-0.47062 23.841-0.32925 27.607 0.11016" fill="none" stroke-width=".25"/><path d="m38.937 211.54c-0.0941 6.0131 9.0903 5.1911 9.0774 0.0881l-0.14225-81.999c-1e-3 -0.59916-0.25403-1.2477-0.85641-1.2435l-5.8465 0.0403c-0.74195 5e-3 -0.94247 0.67338-0.95113 1.2268z" fill="url(#linearGradient6978)" stroke-width=".5"/><ellipse transform="rotate(29.052)" cx="139.41" cy="161.65" rx="3.4675" ry="3.3573" fill="#fff6d5" stroke-linecap="round" stroke-linejoin="round" stroke-width=".105" paint-order="stroke fill markers"/></g><path d="m41.06 208.19 4.5763 1e-3 -3.8071 2.6495 1.5622-4.3764 1.7057 4.3965z" fill="none" stroke="#f55" stroke-linecap="round" stroke-width=".46084"/><path class="UnoptimicedTransforms" transform="translate(-2.3513 -113.48)" d="m51.6 232.88c1.3e-5 3e-5 3.1e-5 8e-5 5.4e-5 1.3e-4 0.0017 4e-3 0.0025 7e-3 0.0035 0.01 0.0018 6e-3 0.0042 0.0144 0.0071 0.027 5e-3 0.0217 0.01144 0.0541 0.01906 0.10235 0.01336 0.0845 0.02905 0.20851 0.04632 0.38296 0.03593 0.36299 0.07325 0.89833 0.0918 1.357 0.0057 0.13993 0.0093 0.26707 0.01006 0.36994 0.0054 0.70144-0.0023 2.077-0.01452 3.7338-0.01244 1.6886-0.02826 3.3642-0.04464 4.5088-0.01659 1.1596-0.03065 1.4497-0.03065 1.4497s-0.01762-0.28986-0.04916-1.4492c-0.03115-1.1448-0.06882-2.8191-0.10436-4.5078-0.03486-1.6564-0.06268-3.0316-0.06809-3.7329-7.93e-4 -0.10285 8.33e-4 -0.23001 0.0043-0.36998 0.01127-0.45807 0.03972-0.99523 0.06827-1.3579 0.01376-0.17475 0.02655-0.29879 0.0375-0.38357 0.0062-0.0484 0.0115-0.0809 0.01556-0.1027 0.0024-0.0127 0.0042-0.0213 0.0056-0.0272 7.65e-4 -3e-3 0.0014-6e-3 0.0017-7e-3z" fill="#fff"/><path d="m34.164 129.48c2.7971-1.7088 18.786-1.5209 20.409 0.12463" fill="none" stroke="#000" stroke-width=".418"/><path d="m51.612 135.46c0.08037 3.8943 0.51965 15.573 0.60002 19.467 0.29457 14.273 0.98012 57.095 1.2747 71.367-0.29457-14.273-1.3764-57.086-1.671-71.359-0.08037-3.8943-0.12334-15.581-0.20371-19.476z" fill="#fff"/><path d="m45.925 135.3c0.01692 3.1589 0.51181 12.633 0.52873 15.792 0.0589 10.995-0.20854 43.981-0.14964 54.976-0.0589-10.995-0.67971-43.977-0.7386-54.971-0.01692-3.1589 0.37644-12.638 0.35951-15.797z" fill="#fff"/><path class="UnoptimicedTransforms" d="m52.019 235.22c0.0132 0.0128-0.1322 3.3269-0.1322 3.3269z" fill="#fca"/><path class="UnoptimicedTransforms" d="m52.019 235.22c1.3e-5 1e-5 2.1e-5 3e-5 2.2e-5 6e-5 -0.0052 5e-3 -8e-3 7e-3 -0.01145 0.0108-6e-3 6e-3 -0.01396 0.0149-0.02373 0.0281-0.01694 0.0229-0.03764 0.0565-0.06157 0.10485-0.04596 0.0929-0.09647 0.22658-0.13787 0.37313-0.03356 0.11877-0.05817 0.23635-0.06128 0.31478-0.0068 0.1719 0.0039 0.4705 0.02124 0.82759 0.02178 0.4477 0.05229 0.92948 0.08311 1.2518 0.03179 0.33246 0.05934 0.41578 0.05934 0.41578s0.03484-0.0806 0.09524-0.40909c0.05867-0.31908 0.13015-0.79542 0.18931-1.2406 0.04712-0.35465 0.08194-0.65186 0.08877-0.82416 0.0031-0.0786-0.01218-0.1981-0.03669-0.31952-0.03024-0.14983-0.0711-0.2875-0.11148-0.38407-0.02099-0.0502-0.04013-0.0855-0.05641-0.10947-0.0094-0.0139-0.01734-0.0233-0.02355-0.0295-0.0036-4e-3 -0.0065-6e-3 -0.0087-8e-3z" fill="#fff"/></g><g stroke="#000"><path d="m187.47 52.554c14.205-12.791 26.608-22.538 34.559-28.667 5.8837-4.5355 11.628-3.7725 14.546-0.72119 2.9183 3.0513 3.4246 8.8239-1.3686 14.5-6.4778 7.6707-16.768 19.627-30.178 33.248 1.0378-1.294-16.416-19.255-17.559-18.359z" fill="url(#linearGradient2416)" stroke-width=".57482"/><g stroke-width=".57881"><path d="m204.5 71.38-92.734 90.204c-0.90068 0.87582-1.6549 0.78095-2.2761 0.1344l-17.636-18.355c-0.79655-0.82952-0.40473-1.8574 0.29024-2.5011l94.89-87.866c1.1386-0.53879 18.409 17.16 17.461 18.388z" fill="url(#linearGradient2768)"/><path d="m110.58 161.53-50.83 43.383-13.444-13.796 45.599-48.819z" fill="url(#linearGradient2832)"/><path d="m55.824 203.39c-4.7579 4.8046-9.4729 9.6894-13.334 15.505-0.96386 1.4519-1.2757 2.0899-2.01 2.7694-0.86577 0.80111-5.0542 1.6865-7.1771 2.3114-4.01 1.1804-7.4446 1.9702-10.448 4.2049l-0.65224-0.68203-0.65229-0.68198c2.3662-2.9013 3.3082-6.2972 4.6663-10.251 0.71888-2.0929 1.79-6.2378 2.6289-7.067 0.71154-0.70326 1.3628-0.98639 2.8562-1.8846 5.9819-3.5978 11.072-8.0908 16.084-12.63" fill="url(#linearGradient3177)"/><path d="m22.824 227.41 13.741-13.04c1.0619 0.96124 3.2043-0.79442 1.9242-2.1579-1.3879-1.4784-3.2067 0.65976-2.3465 1.6794l-13.85 13.11z" fill="#333"/><path d="m207.23 68.628c-0.20241-2.2071-15.472-18.042-17.375-18.171" fill="none"/></g></g><g transform="matrix(-.80012 -.8366 -.8366 .80012 337.99 130.52)" fill="#fff"><path d="m129.06 2.1516c0.1953 0.0348 0.44223 0.12511 0.6935 0.30697 0.1897 0.13729 0.37396 0.32056 0.548 0.56192 0.31443 0.43607 0.57114 1.0274 0.78753 1.793 0.2411 0.85299 0.40325 1.8185 0.53883 2.7371 0.0641 0.43439 0.1193 0.83697 0.16927 1.1621 0.0939 0.6113 0.22207 1.418 0.3704 2.5558 0.33859 2.5973 0.63636 5.809 0.9399 10.518 0.30521 4.7346 0.63922 11.514 0.75209 14.622-0.14679-4.0427-0.18863-8.9599-0.27719-14.641-0.073-4.6811-0.16496-7.9979-0.36428-10.607-0.0877-1.1475-0.18594-2.0062-0.28069-2.6227-0.0514-0.33461-0.13028-0.7481-0.23425-1.1925-0.21846-0.93379-0.53014-1.9342-0.94378-2.7887-0.37587-0.77646-0.79316-1.3466-1.2429-1.7348-0.24678-0.21301-0.48606-0.35645-0.71005-0.4555-0.29366-0.12987-0.55472-0.18021-0.7464-0.21436z"/><path d="m133.96 50.587c0.0358 7.0444 0.42914 28.176 0.4649 35.221 0.07 13.79-6e-3 55.16 0.0639 68.949-0.07-13.79-0.5661-55.157-0.6361-68.946-0.0358-7.0444 0.14308-28.179 0.10732-35.223z"/><path class="UnoptimicedTransforms" d="m130.61 212.57 3.1727-49.794z"/><path class="UnoptimicedTransforms" d="m130.61 212.57c0.49006-7.6912 2.2629-30.746 2.753-38.437 0.14448-2.2675 0.27523-9.0893 0.41971-11.357-0.14448 2.2675-0.88058 9.0507-1.0251 11.318-0.49006 7.6912-1.6576 30.784-2.1476 38.475z" opacity=".4693"/></g><path d="m99.233 171.15c0.30539 0.31866-0.8743 1.4457-1.1621 1.1467l-17.384-18.066c-0.29373-0.30544 0.88743-1.5069 1.2166-1.1635z" fill="#fea" stroke="#000" stroke-width=".57881"/><path d="m60.568 204.33-1.1022 1.9525c-0.37628 0.66658-1.176 1.2479-1.8739 0.51947l-13.027-13.595c-0.46632-0.48664-0.40028-1.2603 0.16214-1.5526l2.4395-1.285z" fill="#ff7f2a" stroke="#000" stroke-width=".57881"/><path d="m27.138 218.3c0.17483-0.71182 0.39136-1.6804 0.95935-2.9169 0.44912-0.97777 1.0137-1.886 1.6416-2.7099 0.50009-0.6563 0.99317-1.1952 1.3387-1.5217 0.83882-0.79263 2.0186-1.7392 3.7801-2.9706 1.8188-1.2714 4.0309-2.6812 6.0377-4.1067 2.6862-1.9081 4.4125-3.4443 5.5961-4.7828-1.2491 1.4126-2.7202 2.92-5.3656 5.0848-1.9147 1.5669-4.0244 3.1403-5.7366 4.5141-1.7182 1.3787-2.6861 2.2611-3.5448 3.0725-0.33087 0.31324-0.85608 0.76845-1.4194 1.3162-0.70596 0.68639-1.3932 1.4408-1.9832 2.2989-0.72849 1.0594-1.1357 2.0382-1.3036 2.7219z" fill="#fff" stroke-width="1.1576"/><path d="m23.802 227.62-1.3233 1.2737c-0.31689 0.22362-1.8577-1.3443-1.5573-1.6582l1.277-1.3333z" fill="#ffd5d5" stroke="#000" stroke-width=".45102"/></svg>
