<?xml version="1.0" encoding="UTF-8" standalone="no"?>
<svg
   cursor="default"
   viewBox="0 0 256 256"
   version="1.1"
   id="svg1426"
   sodipodi:docname="g_fem.svg"
   inkscape:version="1.2.1 (9c6d41e410, 2022-07-14)"
   xmlns:inkscape="http://www.inkscape.org/namespaces/inkscape"
   xmlns:sodipodi="http://sodipodi.sourceforge.net/DTD/sodipodi-0.dtd"
   xmlns="http://www.w3.org/2000/svg"
   xmlns:svg="http://www.w3.org/2000/svg">
  <defs
     id="defs1430" />
  <sodipodi:namedview
     id="namedview1428"
     pagecolor="#ffffff"
     bordercolor="#000000"
     borderopacity="0.25"
     inkscape:showpageshadow="2"
     inkscape:pageopacity="0.0"
     inkscape:pagecheckerboard="0"
     inkscape:deskcolor="#d1d1d1"
     showgrid="false"
     inkscape:zoom="2.8367135"
     inkscape:cx="98.176991"
     inkscape:cy="116.3318"
     inkscape:window-width="2560"
     inkscape:window-height="1369"
     inkscape:window-x="-8"
     inkscape:window-y="-8"
     inkscape:window-maximized="1"
     inkscape:current-layer="g1015" />
  <g
     id="g1015"
     transform="matrix(4.862025,0,0,4.862025,-29.454327,-33.453942)"
     style="stroke-width:0.20567562;stroke-dasharray:none">
    <g
       id="g2690"
       transform="translate(0.38451612,-0.55915493)">
      <path
         id="path1007"
         style="fill:#ffaaaa;stroke:#000000;stroke-width:0.205676;stroke-linecap:round;stroke-linejoin:round;stroke-dasharray:none"
         d="M 32,10.347656 A 15.352814,15.352814 0 0 0 16.646484,25.701172 15.352814,15.352814 0 0 0 32,41.054688 15.352814,15.352814 0 0 0 47.353516,25.701172 15.352814,15.352814 0 0 0 32,10.347656 Z m 0,4.632813 A 10.721442,10.721442 0 0 1 42.720703,25.701172 10.721442,10.721442 0 0 1 32,36.421875 10.721442,10.721442 0 0 1 21.279297,25.701172 10.721442,10.721442 0 0 1 32,14.980469 Z" />
      <g
         fill="#ff8080"
         stroke="#000000"
         stroke-width="0.65"
         id="g6"
         style="fill:#ffaaaa;fill-rule:evenodd;stroke-width:0.205676;stroke-dasharray:none"
         transform="translate(0.86104504,-5.0410673)">
        <path
           d="m 28.511,45.746 0.014,4.8 -6.637,0.027 v 4.558 h 6.516 l 0.03,7.095 h 5.39 l -0.057,-7.041 6.622,-0.054 -0.013,-4.612 h -6.61 l 0.017,-4.766"
           id="path4"
           style="fill:#ffaaaa;stroke-width:0.205676;stroke-dasharray:none" />
      </g>
    </g>
  </g>
</svg>
