<?xml version="1.0" encoding="UTF-8"?>
<svg cursor="default" version="1.1" viewBox="0 0 256 256" xmlns="http://www.w3.org/2000/svg">
 <g transform="matrix(4.862 0 0 4.862 -29.454 -33.454)" stroke-width=".20568">
  <g transform="translate(.38452 -.55915)">
   <g transform="translate(-5.732 5.6267)" fill="#faa" stroke="#000" stroke-linejoin="round" stroke-width=".20568">
    <path d="m32.576 17.98a15.353 15.353 0 0 0-15.354 15.354 15.353 15.353 0 0 0 15.354 15.354 15.353 15.353 0 0 0 15.354-15.354 15.353 15.353 0 0 0-15.354-15.354zm0 4.6328a10.721 10.721 0 0 1 10.721 10.721 10.721 10.721 0 0 1-10.721 10.721 10.721 10.721 0 0 1-10.721-10.721 10.721 10.721 0 0 1 10.721-10.721z" stroke-linecap="round"/>
    <path d="m45.116 24.624 9.3565-9.3565-0.05593 5.5961 3.7729 3.7605 0.05127-16.97-17.114-0.06189 3.717 3.702 6.1165-1e-6 -9.5616 9.6129"/>
   </g>
  </g>
 </g>
</svg>
