<?xml version="1.0" encoding="UTF-8"?>
<svg cursor="default" version="1.1" viewBox="0 0 256 256" xmlns="http://www.w3.org/2000/svg">
 <g fill="none" stroke="#000" stroke-linecap="round" stroke-linejoin="round" stroke-width="3">
  <path d="m74.142 58.379c-22.724 7.7079-0.38162-22.42 0.05111 0.28602l-2.5543-19.714"/>
  <path d="m73.244 227.67c-2.3534-9.0858-15.971-14.349-9.2827 1.4552l-5.8827-20.9"/>
  <path d="m34.995 235.11-7.215-24.028c18.154-9.0212 15.509 19.83 3.6302 11.724"/>
  <path d="m46.601 222.41c-13.24-1.7664-2.3592 14.984 2.3747 8.3963l-2.8261-10.078c2.2511 6.6719 2.582 12.241 4.839 9.9878"/>
  <path d="m49.557 209.09c1.6689 6.8868 1.7412 13.631 6.3265 20.778 2.2478 3.5036 3.8719-0.53086 4.1953-3.5377"/>
  <path d="m54.949 214.99-7.2783 2.7004"/>
  <path d="m71.203 221.9c4.531-0.95759 7.9902-4.52 5.7567-5.3095-13.419-4.7431 2.5308 17.322 4.1385 5.4786"/>
  <path d="m89.947 213.03c0.14422 1.1371 3.5026 9.7786 3.5026 9.7786"/>
  <path d="m100.48 211.61c-13.062-3.3432-0.93497 16.614 3.1399 7.8575"/>
  <path d="m78.455 202.23c1.6689 6.8868 1.7412 13.631 6.3265 20.778 2.2478 3.5036 3.8719-0.53085 4.1953-3.5377"/>
  <path d="m83.847 208.13-7.2784 2.7004"/>
  <path d="m88.988 209.16 0.24381-2.061"/>
  <path d="m177.62 183.73c-6.2779 1.1176-4.6257 12.416 0.37391 11.466 5.6373-1.0703 6.1793-12.633-0.37391-11.466z"/>
  <path d="m89.655 164.73 1.7449 0.3739"/>
  <path d="m94.422 164.75h1.6202"/>
  <path d="m99.459 164.75h1.371"/>
  <path d="m159.91 179.11v17.574c8.4462 1.0822 18.075-13.653 0.12464-9.4722 7.9437-0.56903 12.903-7.5631-0.12464-8.1013z"/>
  <path d="m186.33 194.19 0.12464-9.9708c-0.91567 3.9826 2.8259-1.8587 7.6027 1.6203"/>
  <path d="m197.67 184.44c-0.24274 1.2225 0.18646 11.219 0.18646 11.219"/>
  <path d="m198.03 180.13 0.94779-2.0581"/>
  <path d="m211.7 196.68c0.31815-10.164-11.96-19.371-9.8751-0.98851l0.1162-10.717"/>
  <path d="m222.53 188.06c-7.7219-6.7449-11.644 12.542 0.72949 8.6652 0.45894-2.5368 0.71833-6.8819-0.20401-10.715 1.0313 8.6448 2.6353 30.364-10.76 15.731"/>
  <path d="m39.272 150.04 1.6223 21.595-0.83492-12.05 9.0342-0.26492 0.72613 11.015-1.3435-20.995"/>
  <path d="m55.498 168.93-0.86932-10.2 0.32803 3.7224c0.2-5.2571 7.6828-3.9634 7.0662 5.624-1.8037-13.9 7.8879-10.722 6.9067-0.6823"/>
  <path d="m71.217 167.53-0.86932-10.2 0.32803 3.7224c0.2-5.257 7.6828-3.9634 7.0662 5.624-1.8037-13.9 7.8879-10.722 6.9067-0.6823"/>
  <path d="m14.577 99.183 1.5831 25.886-0.80174-14.444 10.494-0.19534 0.68982 13.203-1.2677-25.164"/>
  <path d="m37.14 112.12c-13.204-4.7574-6.0773 15.41 0.40132 9.4391l-0.45678-11.324c0.69386 7.5798-0.32135 13.57 2.5515 11.666"/>
  <path d="m42.735 122.46 0.13735-11.323c-1.0091 4.5228 3.1141-2.1107 8.3782 1.84"/>
  <path d="m60.414 122.08c-22.504 4.6628 2.5958-23.088 0.0106 0.30117l0.18457-20.619"/>
  <path d="m64.146 116.63c4.7948 1.0056 9.7658-1.0214 7.9861-2.7624-10.692-10.459-5.5867 18.188 1.4389 7.1896"/>
  <path d="m75.99 122.98 0.12464-9.9708c-0.91567 3.9826 2.8259-1.8587 7.6027 1.6203"/>
  <path d="m87.222 119.43c6.6543-10.769 13.924 7.1478 18.298-0.44667"/>
  <path d="m169.44 85.342c-3.6663-7.7021-14.734-5.8179-14.403 6.429 0.34024 12.576 12.233 11.556 14.775 3.6505"/>
  <path d="m172.2 89.549c2.1171 18.264 11.284 7.036 9.732-1.0843 0.13074 3.7674-0.98312 7.9577 0.85352 11.145"/>
  <path d="m185.57 99.445-0.0589-10.572 0.0322 3.8588c0.61583-5.3993 7.9746-3.4987 6.6003 6.329-0.69758-14.453 8.7143-10.444 6.9408-0.17824"/>
  <path d="m201.35 99.191-0.0589-10.572 0.0322 3.8588c0.61582-5.3993 7.9746-3.4987 6.6003 6.329-0.69758-14.453 8.7143-10.444 6.9408-0.17823"/>
  <path d="m218.25 89.988c-0.18301 1.0592 0.39894 9.6675 0.39894 9.6675"/>
  <path d="m218.47 86.263 0.77223-1.7952"/>
  <path d="m230.59 100.22c0.0579-8.7695-10.709-16.435-8.5226-0.63385l-0.12772-9.2419"/>
  <path d="m239.73 92.561c-6.7912-5.6439-9.7577 11.069 0.81218 7.4539 0.34123-2.197 0.47216-5.9486-0.40333-9.2325 1.0715 7.4296 2.914 26.118-8.9291 13.799"/>
  <path d="m246.88 85.8-0.96766 15.112"/>
  <path d="m245.44 103.99 1.3354 0.33428"/>
  <path d="m158.75 149.5c12.012 3.6447 16.101-24.778-1.1869-20.706l1.1715 20.437"/>
  <path d="m169.91 141.56c5.5497 1.1589 11.368-0.73126 9.337-2.5389-12.203-10.86-6.874 18.148 1.5205 7.285"/>
  <path d="m180.77 140.46c5.5497 1.1589 11.368-0.73126 9.3369-2.5389-12.203-10.86-6.8739 18.148 1.5205 7.285"/>
  <path d="m192.55 136.87c21.962-7.3093-0.34094 24.756-0.0399-0.31825l1.8208 21.885"/>
  <path d="m202.91 138.98c5.5497 1.1589 11.368-0.73126 9.3369-2.5389-12.203-10.86-6.8739 18.148 1.5205 7.285"/>
  <path d="m216.22 146-0.55796-12.268c-0.7824 4.9671 3.1498-2.5034 8.9408 1.4046"/>
  <path d="m226.52 141.92c3.8527-9.8149 12.25 3.8336 14.71-3.0413"/>
  <path d="m14.208 47.748 2.8838 20.677c11.217-0.26629 21.383-19.36-1.3915-11.168 10.289-2.1176 15.623-11.251-1.4923-9.5093z"/>
  <path d="m32.57 65.944-1.5939-11.818c-0.3452 4.8778 2.8809-2.712 8.903 0.53604"/>
  <path d="m40.285 57.198c5.5127 0.86442 11.174-1.2435 9.1037-2.9029-12.438-9.9694-6.0822 17.94 1.7757 7.0004"/>
  <path d="m50.949 55.615c5.5127 0.86443 11.174-1.2435 9.1037-2.9029-12.438-9.9694-6.0822 17.94 1.7757 7.0004"/>
  <path d="m69.971 76.375-2.4506-10.944 0.90558 3.9924c-0.5872-5.7348 7.4124-5.4192 8.2206 5.0762-3.9851-14.823 6.6032-12.784 7.0997-1.7451"/>
  <path d="m84.384 67.289c5.8651-0.26503 11.374-3.0489 8.9424-4.0685-14.609-6.1255-3.2283 16.133 3.0429 5.5506"/>
  <path d="m99.399 55.708 0.93034 12.782"/>
  <path d="m100.27 71.127 1.1929 0.11923"/>
  <path d="m154.28 230.88-0.78462 16.033 0.51688-8.9362 10.187 1.1575-0.51415 8.163 1.0256-15.553"/>
  <path d="m174.51 239.7c-11.58-5.5919-7.5301 12.457-0.80997 8.1078l0.99451-9.7243c-0.3078 6.5538-1.9928 11.552 0.89414 10.259"/>
  <path d="m179.66 233.16 1.5482 15.986-0.78403-8.9196 10.262-0.12063 0.67457 8.153-1.2397-15.54"/>
  <path d="m201 239.38c-12.286-4.1002-5.6549 13.281 0.37343 8.1351l-0.42503-9.7599c0.64563 6.5326-0.29901 11.696 2.3741 10.055"/>
  <path d="m207.27 233.23 2.5027 15.942-1.3168-8.8977 10.228-0.47237 1.1617 8.1345-2.1683-15.506"/>
  <path d="m228.91 238.72c-12.5-3.6814-4.8437 13.483 0.86026 8.1268l-1.0092-9.7508c1.0357 6.5142 0.40308 11.712 2.9708 9.979"/>
  <path d="m107.35 219.82 1.7449 0.3739"/>
  <path d="m234.89 229.09 0.44364 15.137"/>
  <path d="m235.15 247.34 1.3608 0.20848"/>
  <path d="m240.01 229.27 0.44364 15.137"/>
  <path d="m240.26 247.51 1.3608 0.20848"/>
  <path d="m245.12 229.44 0.44364 15.137"/>
  <path d="m245.37 247.69 1.3608 0.20848"/>
  <path d="m87.905 30.08-4.3982-10.683"/>
  <path d="m72.804 15.183 10.554 4.4317 3.0655-9.6402"/>
  <path d="m102.13 23.176-7.2386 2.4829-4.5176-15.341 5.6532-0.98632"/>
  <path d="m93.043 18.408 4.7357-1.678"/>
  <path d="m108.48 7.4317c-5.7522-3.4462-12.798 3.1148-1.8992 5.2787 16.434 3.2627 0.6812 12.66-2.9828 7.399"/>
  <path d="m113.68 2.7644 4.7355 13.893"/>
  <path d="m119 19.615 1.937-0.30243"/>
  <path d="m131.16 24.928 1.8226-8.2223"/>
  <path d="m128.34 9.7243 4.4647 7.0499 5.8518-4.4876"/>
  <path d="m142.55 26.729-5.3642-1.5324 3.6931-11.058 3.7921 1.7666"/>
  <path d="m139.1 20.09 3.5317 0.97046"/>
  <path d="m152.91 19.962c-2.0036-4.4589-8.9527-3.4721-3.3363 2.3653 8.4685 8.8017-4.8698 7.8554-4.8682 3.1817"/>
  <path d="m157.97 19.336-2.9592 10.283"/>
  <path d="m154.12 31.631 1.2845 0.62657"/>
  <path d="m168.43 26.427-2.0501-11.369"/>
  <path d="m156.81 8.6847 9.3843 6.5547 5.0267-8.7785"/>
  <path d="m183.79 22.674-7.5992 0.90302-1.1859-15.949 5.7342 0.22619"/>
  <path d="m175.91 16.1 4.9828-0.64323"/>
  <path d="m193.32 8.6207c-4.8976-4.5802-13.167 0.34996-2.9682 4.7604 15.378 6.6501-1.9999 12.519-4.474 6.605"/>
  <path d="m199.38 5.1519 1.7038 14.579"/>
  <path d="m201.03 22.745 1.9573 0.11224"/>
 </g>
 <g fill="none" stroke="#ff8080" stroke-linecap="round" stroke-linejoin="round" stroke-width="2">
  <path d="m73.244 227.67c-2.3534-9.0858-15.971-14.349-9.2827 1.4552l-5.8827-20.9"/>
  <path d="m34.995 235.11-7.215-24.028c18.154-9.0212 15.509 19.83 3.6302 11.724"/>
  <path d="m46.601 222.41c-13.24-1.7664-2.3592 14.984 2.3747 8.3963l-2.8261-10.078c2.2511 6.6719 2.582 12.241 4.839 9.9878"/>
  <path d="m49.557 209.09c1.6689 6.8868 1.7412 13.631 6.3265 20.778 2.2478 3.5036 3.8719-0.53086 4.1953-3.5377"/>
  <path d="m54.949 214.99-7.2783 2.7004"/>
  <path d="m71.203 221.9c4.531-0.95759 7.9902-4.52 5.7567-5.3095-13.419-4.7431 2.5308 17.322 4.1385 5.4786"/>
  <path d="m89.947 213.03c0.14422 1.1371 3.5026 9.7786 3.5026 9.7786"/>
  <path d="m100.48 211.61c-13.062-3.3432-0.93497 16.614 3.1399 7.8575"/>
  <path d="m78.455 202.23c1.6689 6.8868 1.7412 13.631 6.3265 20.778 2.2478 3.5036 3.8719-0.53085 4.1953-3.5377"/>
  <path d="m83.847 208.13-7.2784 2.7004"/>
  <path d="m88.988 209.16 0.24381-2.061"/>
  <path d="m177.62 183.73c-6.2779 1.1176-4.6257 12.416 0.37391 11.466 5.6373-1.0703 6.1793-12.633-0.37391-11.466z"/>
  <path d="m89.655 164.73 1.7449 0.3739"/>
  <path d="m94.422 164.75h1.6202"/>
  <path d="m99.459 164.75h1.371"/>
  <path d="m159.91 179.11v17.574c8.4462 1.0822 18.075-13.653 0.12464-9.4722 7.9437-0.56903 12.903-7.5631-0.12464-8.1013z"/>
  <path d="m186.33 194.19 0.12464-9.9708c-0.91567 3.9826 2.8259-1.8587 7.6027 1.6203"/>
  <path d="m197.67 184.44c-0.24274 1.2225 0.18646 11.219 0.18646 11.219"/>
  <path d="m198.03 180.13 0.94779-2.0581"/>
  <path d="m211.7 196.68c0.31815-10.164-11.96-19.371-9.8751-0.98851l0.1162-10.717"/>
  <path d="m222.53 188.06c-7.7219-6.7449-11.644 12.542 0.72949 8.6652 0.45894-2.5368 0.71833-6.8819-0.20401-10.715 1.0313 8.6448 2.6353 30.364-10.76 15.731"/>
  <path d="m39.272 150.04 1.6223 21.595-0.83492-12.05 9.0342-0.26492 0.72613 11.015-1.3435-20.995"/>
  <path d="m55.498 168.93-0.86932-10.2 0.32803 3.7224c0.2-5.2571 7.6828-3.9634 7.0662 5.624-1.8037-13.9 7.8879-10.722 6.9067-0.6823"/>
  <path d="m71.217 167.53-0.86932-10.2 0.32803 3.7224c0.2-5.257 7.6828-3.9634 7.0662 5.624-1.8037-13.9 7.8879-10.722 6.9067-0.6823"/>
  <path d="m14.577 99.183 1.5831 25.886-0.80174-14.444 10.494-0.19534 0.68982 13.203-1.2677-25.164"/>
  <path d="m37.14 112.12c-13.204-4.7574-6.0773 15.41 0.40132 9.4391l-0.45678-11.324c0.69386 7.5798-0.32135 13.57 2.5515 11.666"/>
  <path d="m42.735 122.46 0.13735-11.323c-1.0091 4.5228 3.1141-2.1107 8.3782 1.84"/>
  <path d="m60.414 122.08c-22.504 4.6628 2.5958-23.088 0.0106 0.30117l0.18457-20.619"/>
  <path d="m64.146 116.63c4.7948 1.0056 9.7658-1.0214 7.9861-2.7624-10.692-10.459-5.5867 18.188 1.4389 7.1896"/>
  <path d="m75.99 122.98 0.12464-9.9708c-0.91567 3.9826 2.8259-1.8587 7.6027 1.6203"/>
  <path d="m87.222 119.43c6.6543-10.769 13.924 7.1478 18.298-0.44667"/>
  <path d="m169.44 85.342c-3.6663-7.7021-14.734-5.8179-14.403 6.429 0.34024 12.576 12.233 11.556 14.775 3.6505"/>
  <path d="m172.2 89.549c2.1171 18.264 11.284 7.036 9.732-1.0843 0.13074 3.7674-0.98312 7.9577 0.85352 11.145"/>
  <path d="m185.57 99.445-0.0589-10.572 0.0322 3.8588c0.61583-5.3993 7.9746-3.4987 6.6003 6.329-0.69758-14.453 8.7143-10.444 6.9408-0.17824"/>
  <path d="m201.35 99.191-0.0589-10.572 0.0322 3.8588c0.61582-5.3993 7.9746-3.4987 6.6003 6.329-0.69758-14.453 8.7143-10.444 6.9408-0.17823"/>
  <path d="m218.25 89.988c-0.18301 1.0592 0.39894 9.6675 0.39894 9.6675"/>
  <path d="m218.47 86.263 0.77223-1.7952"/>
  <path d="m230.59 100.22c0.0579-8.7695-10.709-16.435-8.5226-0.63385l-0.12772-9.2419"/>
  <path d="m239.73 92.561c-6.7912-5.6439-9.7577 11.069 0.81218 7.4539 0.34123-2.197 0.47216-5.9486-0.40333-9.2325 1.0715 7.4296 2.914 26.118-8.9291 13.799"/>
  <path d="m246.88 85.8-0.96766 15.112"/>
  <path d="m245.44 103.99 1.3354 0.33428"/>
  <path d="m158.75 149.5c12.012 3.6447 16.101-24.778-1.1869-20.706l1.1715 20.437"/>
  <path d="m169.91 141.56c5.5497 1.1589 11.368-0.73126 9.337-2.5389-12.203-10.86-6.874 18.148 1.5205 7.285"/>
  <path d="m180.77 140.46c5.5497 1.1589 11.368-0.73126 9.3369-2.5389-12.203-10.86-6.8739 18.148 1.5205 7.285"/>
  <path d="m192.55 136.87c21.962-7.3093-0.34094 24.756-0.0399-0.31825l1.8208 21.885"/>
  <path d="m202.91 138.98c5.5497 1.1589 11.368-0.73126 9.3369-2.5389-12.203-10.86-6.8739 18.148 1.5205 7.285"/>
  <path d="m216.22 146-0.55796-12.268c-0.7824 4.9671 3.1498-2.5034 8.9408 1.4046"/>
  <path d="m226.52 141.92c3.8527-9.8149 12.25 3.8336 14.71-3.0413"/>
  <path d="m14.208 47.748 2.8838 20.677c11.217-0.26629 21.383-19.36-1.3915-11.168 10.289-2.1176 15.623-11.251-1.4923-9.5093z"/>
  <path d="m32.57 65.944-1.5939-11.818c-0.3452 4.8778 2.8809-2.712 8.903 0.53604"/>
  <path d="m40.285 57.198c5.5127 0.86442 11.174-1.2435 9.1037-2.9029-12.438-9.9694-6.0822 17.94 1.7757 7.0004"/>
  <path d="m50.949 55.615c5.5127 0.86443 11.174-1.2435 9.1037-2.9029-12.438-9.9694-6.0822 17.94 1.7757 7.0004"/>
  <path d="m69.971 76.375-2.4506-10.944 0.90558 3.9924c-0.5872-5.7348 7.4124-5.4192 8.2206 5.0762-3.9851-14.823 6.6032-12.784 7.0997-1.7451"/>
  <path d="m84.384 67.289c5.8651-0.26503 11.374-3.0489 8.9424-4.0685-14.609-6.1255-3.2283 16.133 3.0429 5.5506"/>
  <path d="m99.399 55.708 0.93034 12.782"/>
  <path d="m100.27 71.127 1.1929 0.11923"/>
  <path d="m154.28 230.88-0.78462 16.033 0.51688-8.9362 10.187 1.1575-0.51415 8.163 1.0256-15.553"/>
  <path d="m174.51 239.7c-11.58-5.5919-7.5301 12.457-0.80997 8.1078l0.99451-9.7243c-0.3078 6.5538-1.9928 11.552 0.89414 10.259"/>
  <path d="m179.66 233.16 1.5482 15.986-0.78403-8.9196 10.262-0.12063 0.67457 8.153-1.2397-15.54"/>
  <path d="m201 239.38c-12.286-4.1002-5.6549 13.281 0.37343 8.1351l-0.42503-9.7599c0.64563 6.5326-0.29901 11.696 2.3741 10.055"/>
  <path d="m207.27 233.23 2.5027 15.942-1.3168-8.8977 10.228-0.47237 1.1617 8.1345-2.1683-15.506"/>
  <path d="m228.91 238.72c-12.5-3.6814-4.8437 13.483 0.86026 8.1268l-1.0092-9.7508c1.0357 6.5142 0.40308 11.712 2.9708 9.979"/>
  <path d="m107.35 219.82 1.7449 0.3739"/>
  <path d="m234.89 229.09 0.44364 15.137"/>
  <path d="m235.15 247.34 1.3608 0.20848"/>
  <path d="m240.01 229.27 0.44364 15.137"/>
  <path d="m240.26 247.51 1.3608 0.20848"/>
  <path d="m245.12 229.44 0.44364 15.137"/>
  <path d="m245.37 247.69 1.3608 0.20848"/>
  <path d="m87.905 30.08-4.3982-10.683"/>
  <path d="m72.804 15.183 10.554 4.4317 3.0655-9.6402"/>
  <path d="m102.13 23.176-7.2386 2.4829-4.5176-15.341 5.6532-0.98632"/>
  <path d="m93.043 18.408 4.7357-1.678"/>
  <path d="m108.48 7.4317c-5.7522-3.4462-12.798 3.1148-1.8992 5.2787 16.434 3.2627 0.6812 12.66-2.9828 7.399"/>
  <path d="m113.68 2.7644 4.7355 13.893"/>
  <path d="m119 19.615 1.937-0.30243"/>
  <path d="m131.16 24.928 1.8226-8.2223"/>
  <path d="m128.34 9.7243 4.4647 7.0499 5.8518-4.4876"/>
  <path d="m142.55 26.729-5.3642-1.5324 3.6931-11.058 3.7921 1.7666"/>
  <path d="m139.1 20.09 3.5317 0.97046"/>
  <path d="m152.91 19.962c-2.0036-4.4589-8.9527-3.4721-3.3363 2.3653 8.4685 8.8017-4.8698 7.8554-4.8682 3.1817"/>
  <path d="m157.97 19.336-2.9592 10.283"/>
  <path d="m154.12 31.631 1.2845 0.62657"/>
  <path d="m168.43 26.427-2.0501-11.369"/>
  <path d="m156.81 8.6847 9.3843 6.5547 5.0267-8.7785"/>
  <path d="m183.79 22.674-7.5992 0.90302-1.1859-15.949 5.7342 0.22619"/>
  <path d="m175.91 16.1 4.9828-0.64323"/>
  <path d="m193.32 8.6207c-4.8976-4.5802-13.167 0.34996-2.9682 4.7604 15.378 6.6501-1.9999 12.519-4.474 6.605"/>
  <path d="m199.38 5.1519 1.7038 14.579"/>
  <path d="m201.03 22.745 1.9573 0.11224"/>
 </g>
 <path d="m111.39 77.717c-1.9695-0.61904-4.0537 0.18558-4.8931 2.7754-1.1578 3.5728 4.1701 10.675 3.8697 14.043 1.7326-2.9409 10.003-4.8795 11.136-8.3117 1.5779-4.7794-3.0453-7.6507-6.6662-5.3517-0.80533-1.6415-2.099-2.7317-3.4465-3.1553z" fill="#ffb380" fill-rule="evenodd" stroke="#000"/>
 <path d="m147.07 38.019c-2.9684-0.37769-5.7352 1.305-6.268 5.215-0.7348 5.3939 8.6884 14.159 9.1242 19.041 1.717-4.6401 13.018-9.5279 13.753-14.715 1.0245-7.2231-6.3077-10.133-10.883-5.9238-1.5701-2.1351-3.6953-3.3583-5.7264-3.6168z" fill="#ffb380" fill-rule="evenodd" stroke="#000"/>
 <path d="m141.66 109.99c-1.7725-0.55713-3.6483 0.16703-4.4038 2.4979-1.042 3.2155 3.7531 9.6078 3.4827 12.639 1.5594-2.6468 9.0026-4.3916 10.022-7.4806 1.4202-4.3015-2.7408-6.8857-5.9996-4.8165-0.72481-1.4774-1.8891-2.4585-3.1019-2.8398z" fill="#ffe6d5" fill-rule="evenodd" stroke="#000"/>
 <path d="m159.48 61.482c-1.7725-0.55714-3.6483 0.16702-4.4038 2.4979-1.042 3.2155 3.7531 9.6077 3.4827 12.639 1.5594-2.6469 9.0026-4.3915 10.022-7.4805 1.4202-4.3015-2.7408-6.8857-5.9996-4.8165-0.7248-1.4774-1.8891-2.4585-3.1019-2.8398z" fill="#fca" fill-rule="evenodd" stroke="#000"/>
 <path d="m135.57 67.16c-1.2649 0.48447-2.0085 1.7476-1.3845 3.4213 0.86096 2.3088 6.4951 3.7889 7.7134 5.6429-0.30787-2.2183 3.154-6.5858 2.3377-8.8123-1.1368-3.1004-4.6841-2.6923-5.6086-0.03443-1.0831-0.51574-2.1926-0.54894-3.0581-0.2175z" fill="#ffe6d5" fill-rule="evenodd" stroke="#000"/>
 <path d="m96.793 90.729c-1.4054 0.5383-2.2317 1.9418-1.5383 3.8015 0.95664 2.5654 7.2168 4.2099 8.5705 6.2699-0.34207-2.4647 3.5045-7.3176 2.5975-9.7915-1.2631-3.4449-5.2045-2.9914-6.2318-0.03826-1.2035-0.57304-2.4362-0.60993-3.3979-0.24166z" fill="#fca" fill-rule="evenodd" stroke="#000"/>
 <path d="m126.63 240.7v-201.99h4.2302l-0.0441 202.04z" fill="#ff8080" stroke="#000" stroke-linejoin="round"/>
 <path d="m135.5 235.59h13.313v4.9525l-13.316-0.0516z" fill="#ff8080" stroke="#000" stroke-linejoin="round"/>
 <path d="m111.12 30.5h33.774v4.4437l-33.782-0.0463z" fill="#ff8080" stroke="#000" stroke-linejoin="round"/>
 <path d="m135.5 137.25h13.313v4.9525l-13.316-0.0516z" fill="#ff8080" stroke="#000" stroke-linejoin="round"/>
 <path d="m135.5 186.42h13.313v4.9525l-13.316-0.0516z" fill="#ff8080" stroke="#000" stroke-linejoin="round"/>
 <path d="m135.5 88.079h13.313v4.9525l-13.316-0.0516z" fill="#ff8080" stroke="#000" stroke-linejoin="round"/>
 <path d="m109.06 211h13.313v4.9525l-13.316-0.0516z" fill="#ff8080" stroke="#000" stroke-linejoin="round"/>
 <path d="m109.06 112.66h13.313v4.9525l-13.316-0.0516z" fill="#ff8080" stroke="#000" stroke-linejoin="round"/>
 <path d="m109.06 161.83h13.313v4.9525l-13.316-0.0516z" fill="#ff8080" stroke="#000" stroke-linejoin="round"/>
 <path d="m109.06 63.494h13.313v4.9525l-13.316-0.0516z" fill="#ff8080" stroke="#000" stroke-linejoin="round"/>
 <path d="m216.37 3.4757c-1.9476-0.2478-3.7628 0.85621-4.1124 3.4216-0.48211 3.539 5.7004 9.2896 5.9864 12.493 1.1266-3.0444 8.5408-6.2512 9.0236-9.6545 0.67221-4.739-4.1384-6.6481-7.1404-3.8866-1.0302-1.4008-2.4245-2.2034-3.7571-2.373z" fill="#ffe680" fill-rule="evenodd" stroke="#000" stroke-width=".6561"/>
 <path d="m228.49 17.997c-1.163-0.36554-2.3937 0.10958-2.8893 1.6389-0.68367 2.1097 2.4624 6.3036 2.285 8.2924 1.0231-1.7366 5.9066-2.8813 6.5758-4.908 0.93177-2.8222-1.7982-4.5177-3.9363-3.1601-0.47554-0.96932-1.2394-1.613-2.0351-1.8632z" fill="#fea" fill-rule="evenodd" stroke="#000" stroke-width=".6561"/>
 <path d="m207.2 19.728c-0.82989 0.31786-1.3178 1.1466-0.90834 2.2447 0.56487 1.5148 4.2614 2.4859 5.0608 3.7023-0.20199-1.4554 2.0694-4.321 1.5338-5.7818-0.74582-2.0342-3.0732-1.7664-3.6798-0.02259-0.71065-0.33837-1.4385-0.36016-2.0064-0.1427z" fill="#fff6d5" fill-rule="evenodd" stroke="#000" stroke-width=".6561"/>
 <path d="m61.604 11.484c1.8442-0.67344 3.859 6.35e-4 4.7687 2.4246 1.2547 3.344-3.4989 10.322-3.0676 13.509-1.7735-2.7188-9.7142-4.202-10.94-7.4136-1.7062-4.4721 2.5615-7.4002 6.101-5.373 0.69393-1.5944 1.8757-2.6861 3.1375-3.1469z" fill="#ffe680" fill-rule="evenodd" stroke="#000" stroke-width=".6561"/>
 <path d="m53.001 28.332c1.053-0.61428 2.3584-0.42385 3.1808 0.95748 1.1344 1.9056-1.0035 6.6927-0.38962 8.5926-1.3827-1.4665-6.3984-1.5-7.5003-3.3279-1.5343-2.5454 0.75184-4.8039 3.1377-3.9542 0.2488-1.0506 0.85095-1.8477 1.5714-2.268z" fill="#fea" fill-rule="evenodd" stroke="#000" stroke-width=".6561"/>
 <path d="m74.146 25.3c0.87971 0.12595 1.5392 0.82593 1.3834 1.9875-0.21496 1.6024-3.6042 3.3688-4.114 4.7322-0.12572-1.464-2.9759-3.7546-2.7775-5.2978 0.27625-2.1489 2.6051-2.4038 3.5832-0.83789 0.61794-0.48751 1.3229-0.67013 1.9248-0.58399z" fill="#fff6d5" fill-rule="evenodd" stroke="#000" stroke-width=".6561"/>
 <path d="m150.17 3.8627c0.87971 0.12595 1.5392 0.82593 1.3834 1.9875-0.21496 1.6024-3.6042 3.3688-4.114 4.7322-0.12572-1.464-2.9759-3.7546-2.7775-5.2978 0.27625-2.1489 2.6051-2.4038 3.5832-0.83789 0.61794-0.48751 1.3229-0.67013 1.9248-0.58399z" fill="#fff6d5" fill-rule="evenodd" stroke="#000" stroke-width=".6561"/>
 <path d="m101.57 27.917c-0.87971 0.12595-1.5392 0.82593-1.3834 1.9875 0.21496 1.6024 3.6042 3.3688 4.114 4.7322 0.12572-1.464 2.9759-3.7546 2.7775-5.2978-0.27625-2.1489-2.6051-2.4038-3.5832-0.83789-0.61794-0.48751-1.3229-0.67013-1.9248-0.58399z" fill="#fff6d5" fill-rule="evenodd" stroke="#000" stroke-width=".6561"/>
 <g fill="none" stroke="#ff8080" stroke-linecap="round" stroke-linejoin="round" stroke-width="2">
  <path d="m74.142 58.379c-22.724 7.7079-0.38162-22.42 0.05111 0.28602l-2.5543-19.714"/>
  <path d="m73.244 227.67c-2.3534-9.0858-15.971-14.349-9.2827 1.4552l-5.8827-20.9"/>
  <path d="m34.995 235.11-7.215-24.028c18.154-9.0212 15.509 19.83 3.6302 11.724"/>
  <path d="m46.601 222.41c-13.24-1.7664-2.3592 14.984 2.3747 8.3963l-2.8261-10.078c2.2511 6.6719 2.582 12.241 4.839 9.9878"/>
  <path d="m49.557 209.09c1.6689 6.8868 1.7412 13.631 6.3265 20.778 2.2478 3.5036 3.8719-0.53086 4.1953-3.5377"/>
  <path d="m54.949 214.99-7.2783 2.7004"/>
  <path d="m71.203 221.9c4.531-0.95759 7.9902-4.52 5.7567-5.3095-13.419-4.7431 2.5308 17.322 4.1385 5.4786"/>
  <path d="m89.947 213.03c0.14422 1.1371 3.5026 9.7786 3.5026 9.7786"/>
  <path d="m100.48 211.61c-13.062-3.3432-0.93497 16.614 3.1399 7.8575"/>
  <path d="m78.455 202.23c1.6689 6.8868 1.7412 13.631 6.3265 20.778 2.2478 3.5036 3.8719-0.53085 4.1953-3.5377"/>
  <path d="m83.847 208.13-7.2784 2.7004"/>
  <path d="m88.988 209.16 0.24381-2.061"/>
  <path d="m177.62 183.73c-6.2779 1.1176-4.6257 12.416 0.37391 11.466 5.6373-1.0703 6.1793-12.633-0.37391-11.466z"/>
  <path d="m89.655 164.73 1.7449 0.3739"/>
  <path d="m94.422 164.75h1.6202"/>
  <path d="m99.459 164.75h1.371"/>
  <path d="m159.91 179.11v17.574c8.4462 1.0822 18.075-13.653 0.12464-9.4722 7.9437-0.56903 12.903-7.5631-0.12464-8.1013z"/>
  <path d="m186.33 194.19 0.12464-9.9708c-0.91567 3.9826 2.8259-1.8587 7.6027 1.6203"/>
  <path d="m197.67 184.44c-0.24274 1.2225 0.18646 11.219 0.18646 11.219"/>
  <path d="m198.03 180.13 0.94779-2.0581"/>
  <path d="m211.7 196.68c0.31815-10.164-11.96-19.371-9.8751-0.98851l0.1162-10.717"/>
  <path d="m222.53 188.06c-7.7219-6.7449-11.644 12.542 0.72949 8.6652 0.45894-2.5368 0.71833-6.8819-0.20401-10.715 1.0313 8.6448 2.6353 30.364-10.76 15.731"/>
  <path d="m39.272 150.04 1.6223 21.595-0.83492-12.05 9.0342-0.26492 0.72613 11.015-1.3435-20.995"/>
  <path d="m55.498 168.93-0.86932-10.2 0.32803 3.7224c0.2-5.2571 7.6828-3.9634 7.0662 5.624-1.8037-13.9 7.8879-10.722 6.9067-0.6823"/>
  <path d="m71.217 167.53-0.86932-10.2 0.32803 3.7224c0.2-5.257 7.6828-3.9634 7.0662 5.624-1.8037-13.9 7.8879-10.722 6.9067-0.6823"/>
  <path d="m14.577 99.183 1.5831 25.886-0.80174-14.444 10.494-0.19534 0.68982 13.203-1.2677-25.164"/>
  <path d="m37.14 112.12c-13.204-4.7574-6.0773 15.41 0.40132 9.4391l-0.45678-11.324c0.69386 7.5798-0.32135 13.57 2.5515 11.666"/>
  <path d="m42.735 122.46 0.13735-11.323c-1.0091 4.5228 3.1141-2.1107 8.3782 1.84"/>
  <path d="m60.414 122.08c-22.504 4.6628 2.5958-23.088 0.0106 0.30117l0.18457-20.619"/>
  <path d="m64.146 116.63c4.7948 1.0056 9.7658-1.0214 7.9861-2.7624-10.692-10.459-5.5867 18.188 1.4389 7.1896"/>
  <path d="m75.99 122.98 0.12464-9.9708c-0.91567 3.9826 2.8259-1.8587 7.6027 1.6203"/>
  <path d="m87.222 119.43c6.6543-10.769 13.924 7.1478 18.298-0.44667"/>
  <path d="m169.44 85.342c-3.6663-7.7021-14.734-5.8179-14.403 6.429 0.34024 12.576 12.233 11.556 14.775 3.6505"/>
  <path d="m172.2 89.549c2.1171 18.264 11.284 7.036 9.732-1.0843 0.13074 3.7674-0.98312 7.9577 0.85352 11.145"/>
  <path d="m185.57 99.445-0.0589-10.572 0.0322 3.8588c0.61583-5.3993 7.9746-3.4987 6.6003 6.329-0.69758-14.453 8.7143-10.444 6.9408-0.17824"/>
  <path d="m201.35 99.191-0.0589-10.572 0.0322 3.8588c0.61582-5.3993 7.9746-3.4987 6.6003 6.329-0.69758-14.453 8.7143-10.444 6.9408-0.17823"/>
  <path d="m218.25 89.988c-0.18301 1.0592 0.39894 9.6675 0.39894 9.6675"/>
  <path d="m218.47 86.263 0.77223-1.7952"/>
  <path d="m230.59 100.22c0.0579-8.7695-10.709-16.435-8.5226-0.63385l-0.12772-9.2419"/>
  <path d="m239.73 92.561c-6.7912-5.6439-9.7577 11.069 0.81218 7.4539 0.34123-2.197 0.47216-5.9486-0.40333-9.2325 1.0715 7.4296 2.914 26.118-8.9291 13.799"/>
  <path d="m246.88 85.8-0.96766 15.112"/>
  <path d="m245.44 103.99 1.3354 0.33428"/>
  <path d="m158.75 149.5c12.012 3.6447 16.101-24.778-1.1869-20.706l1.1715 20.437"/>
  <path d="m169.91 141.56c5.5497 1.1589 11.368-0.73126 9.337-2.5389-12.203-10.86-6.874 18.148 1.5205 7.285"/>
  <path d="m180.77 140.46c5.5497 1.1589 11.368-0.73126 9.3369-2.5389-12.203-10.86-6.8739 18.148 1.5205 7.285"/>
  <path d="m192.55 136.87c21.962-7.3093-0.34094 24.756-0.0399-0.31825l1.8208 21.885"/>
  <path d="m202.91 138.98c5.5497 1.1589 11.368-0.73126 9.3369-2.5389-12.203-10.86-6.8739 18.148 1.5205 7.285"/>
  <path d="m216.22 146-0.55796-12.268c-0.7824 4.9671 3.1498-2.5034 8.9408 1.4046"/>
  <path d="m226.52 141.92c3.8527-9.8149 12.25 3.8336 14.71-3.0413"/>
  <path d="m14.208 47.748 2.8838 20.677c11.217-0.26629 21.383-19.36-1.3915-11.168 10.289-2.1176 15.623-11.251-1.4923-9.5093z"/>
  <path d="m32.57 65.944-1.5939-11.818c-0.3452 4.8778 2.8809-2.712 8.903 0.53604"/>
  <path d="m40.285 57.198c5.5127 0.86442 11.174-1.2435 9.1037-2.9029-12.438-9.9694-6.0822 17.94 1.7757 7.0004"/>
  <path d="m50.949 55.615c5.5127 0.86443 11.174-1.2435 9.1037-2.9029-12.438-9.9694-6.0822 17.94 1.7757 7.0004"/>
  <path d="m69.971 76.375-2.4506-10.944 0.90558 3.9924c-0.5872-5.7348 7.4124-5.4192 8.2206 5.0762-3.9851-14.823 6.6032-12.784 7.0997-1.7451"/>
  <path d="m84.384 67.289c5.8651-0.26503 11.374-3.0489 8.9424-4.0685-14.609-6.1255-3.2283 16.133 3.0429 5.5506"/>
  <path d="m99.399 55.708 0.93034 12.782"/>
  <path d="m100.27 71.127 1.1929 0.11923"/>
  <path d="m154.28 230.88-0.78462 16.033 0.51688-8.9362 10.187 1.1575-0.51415 8.163 1.0256-15.553"/>
  <path d="m174.51 239.7c-11.58-5.5919-7.5301 12.457-0.80997 8.1078l0.99451-9.7243c-0.3078 6.5538-1.9928 11.552 0.89414 10.259"/>
  <path d="m179.66 233.16 1.5482 15.986-0.78403-8.9196 10.262-0.12063 0.67457 8.153-1.2397-15.54"/>
  <path d="m201 239.38c-12.286-4.1002-5.6549 13.281 0.37343 8.1351l-0.42503-9.7599c0.64563 6.5326-0.29901 11.696 2.3741 10.055"/>
  <path d="m207.27 233.23 2.5027 15.942-1.3168-8.8977 10.228-0.47237 1.1617 8.1345-2.1683-15.506"/>
  <path d="m228.91 238.72c-12.5-3.6814-4.8437 13.483 0.86026 8.1268l-1.0092-9.7508c1.0357 6.5142 0.40308 11.712 2.9708 9.979"/>
  <path d="m107.35 219.82 1.7449 0.3739"/>
  <path d="m234.89 229.09 0.44364 15.137"/>
  <path d="m235.15 247.34 1.3608 0.20848"/>
  <path d="m240.01 229.27 0.44364 15.137"/>
  <path d="m240.26 247.51 1.3608 0.20848"/>
  <path d="m245.12 229.44 0.44364 15.137"/>
  <path d="m245.37 247.69 1.3608 0.20848"/>
  <path d="m87.905 30.08-4.3982-10.683"/>
  <path d="m72.804 15.183 10.554 4.4317 3.0655-9.6402"/>
  <path d="m102.13 23.176-7.2386 2.4829-4.5176-15.341 5.6532-0.98632"/>
  <path d="m93.043 18.408 4.7357-1.678"/>
  <path d="m108.48 7.4317c-5.7522-3.4462-12.798 3.1148-1.8992 5.2787 16.434 3.2627 0.6812 12.66-2.9828 7.399"/>
  <path d="m113.68 2.7644 4.7355 13.893"/>
  <path d="m119 19.615 1.937-0.30243"/>
  <path d="m131.16 24.928 1.8226-8.2223"/>
  <path d="m128.34 9.7243 4.4647 7.0499 5.8518-4.4876"/>
  <path d="m142.55 26.729-5.3642-1.5324 3.6931-11.058 3.7921 1.7666"/>
  <path d="m139.1 20.09 3.5317 0.97046"/>
  <path d="m152.91 19.962c-2.0036-4.4589-8.9527-3.4721-3.3363 2.3653 8.4685 8.8017-4.8698 7.8554-4.8682 3.1817"/>
  <path d="m157.97 19.336-2.9592 10.283"/>
  <path d="m154.12 31.631 1.2845 0.62657"/>
  <path d="m168.43 26.427-2.0501-11.369"/>
  <path d="m156.81 8.6847 9.3843 6.5547 5.0267-8.7785"/>
  <path d="m183.79 22.674-7.5992 0.90302-1.1859-15.949 5.7342 0.22619"/>
  <path d="m175.91 16.1 4.9828-0.64323"/>
  <path d="m193.32 8.6207c-4.8976-4.5802-13.167 0.34996-2.9682 4.7604 15.378 6.6501-1.9999 12.519-4.474 6.605"/>
  <path d="m199.38 5.1519 1.7038 14.579"/>
  <path d="m201.03 22.745 1.9573 0.11224"/>
 </g>
</svg>
