<?xml version="1.0" encoding="UTF-8"?>
<svg cursor="default" version="1.1" viewBox="0 0 256 256" xml:space="preserve" xmlns="http://www.w3.org/2000/svg" xmlns:xlink="http://www.w3.org/1999/xlink"><defs><linearGradient id="linearGradient1570" x1="112.92" x2="-33.402" y1="227.08" y2="119.4" gradientTransform="translate(-3.3088 -12.814)" gradientUnits="userSpaceOnUse"><stop stop-color="#ff8080" offset="0"/><stop stop-color="#faa" offset="1"/></linearGradient><linearGradient id="linearGradient1578" x1="134.36" x2="13.959" y1="133.86" y2="45.118" gradientTransform="translate(-3.3088 -12.814)" gradientUnits="userSpaceOnUse"><stop stop-color="#ff8080" offset="0"/><stop stop-color="#faa" offset="1"/></linearGradient></defs><path d="m13.083 140c8.0027-51.04 44.286-102.42 114.25-102.43 73.864-0.01027 106.06 66.867 110.13 108.07z" fill="url(#linearGradient1578)" stroke="#000" stroke-linecap="round" stroke-linejoin="bevel"/><g transform="translate(241.48 13.043)" fill="none" stroke="#f55" stroke-linecap="round" stroke-linejoin="bevel" stroke-width="6"><path d="m-58.693 124.85c2.6116-10.902-0.57699-35.305-3.3578-51.423" opacity=".508"/><path d="m-70.326 124.32c2.6116-10.902-2.8595-61.26-8.4605-76.849" opacity=".508"/><path d="m-82.664 123.61c2.6116-10.902-3.9171-70.073-9.5181-85.663" opacity=".508"/><path d="m-92.711 123.61c2.6116-10.902-4.9746-77.476-10.576-93.065" opacity=".508"/><path d="m-118.76 122.91c-0.54921-10.714 3.105-78.432 5.6403-94.299" opacity=".508"/><path d="m-104.42 123.08c0.54921-10.714-3.105-78.432-5.6403-94.299" opacity=".508"/><path d="m-168.99 125.2c-2.6116-10.902 0.45235-36.926 3.2332-53.043" opacity=".508"/><path d="m-157.36 124.67c-2.6116-10.902 2.8595-61.26 8.4605-76.849" opacity=".508"/><path d="m-145.02 123.96c-2.6116-10.902 3.9171-70.073 9.518-85.663" opacity=".508"/><path d="m-132.33 122.38c-2.6116-10.902 3.7408-74.832 9.3418-90.422" opacity=".508"/><path d="m-25.243 141.62c9.4774-67.313-43.915-101.55-79.398-113.53" opacity=".508"/><path d="m-38.083 142.97c9.4774-67.313-32.271-103.25-67.755-115.23" opacity=".508"/><path d="m-51.99 141.85c9.4774-67.313-21.703-102.43-57.187-114.41" opacity=".508"/><path d="m-12.874 138.6c4.0963-68.637-51.655-103.23-87.057-109.83" opacity=".508"/><path d="m-219.76 123.26c5.7684-68.517 65.896-94.773 101.88-96.238" opacity=".508"/><path d="m-207.95 128.02c0.25317-67.976 57.995-94.218 94.828-101" opacity=".508"/><path d="m-195.43 131.19c0.25317-67.976 46.714-97.566 83.547-104.35" opacity=".508"/><path d="m-181.51 132.07c0.25317-67.976 36.139-98.272 72.972-105.05" opacity=".508"/></g><path d="m63.141 131.19c0.38304-51.878 38.873-85.336 66.45-90.245 42.131 13.718 61.781 56.059 59.223 94.299" fill="none" stroke="#f55" stroke-linejoin="bevel"/><path d="m182.43 137.54c2.6116-10.902-0.57699-35.305-3.3578-51.423" fill="none" stroke="#ff2a2a" stroke-dasharray="3, 3" stroke-linejoin="bevel" stroke-width="3"/><path d="m170.8 137.01c2.6116-10.902-2.8595-61.26-8.4605-76.849" fill="none" stroke="#ff2a2a" stroke-dasharray="3, 3" stroke-linejoin="bevel" stroke-width="3"/><path d="m158.46 136.3c2.6116-10.902-3.9171-70.073-9.5181-85.663" fill="none" stroke="#ff2a2a" stroke-dasharray="3, 3" stroke-linejoin="bevel" stroke-width="3"/><path d="m148.41 136.3c2.6116-10.902-4.9746-77.476-10.576-93.065" fill="none" stroke="#ff2a2a" stroke-dasharray="3, 3" stroke-linejoin="bevel" stroke-width="3"/><path d="m122.36 135.6c-0.54921-10.714 3.105-78.432 5.6403-94.299" fill="none" stroke="#ff2a2a" stroke-dasharray="3, 3" stroke-linejoin="bevel" stroke-width="3"/><path d="m136.7 135.77c0.54921-10.714-3.105-78.432-5.6403-94.299" fill="none" stroke="#ff2a2a" stroke-dasharray="3, 3" stroke-linejoin="bevel" stroke-width="3"/><path d="m72.131 137.89c-2.6116-10.902 0.45236-36.926 3.2332-53.043" fill="none" stroke="#ff2a2a" stroke-dasharray="3, 3" stroke-linejoin="bevel" stroke-width="3"/><path d="m83.764 137.36c-2.6116-10.902 2.8595-61.26 8.4605-76.849" fill="none" stroke="#ff2a2a" stroke-dasharray="3, 3" stroke-linejoin="bevel" stroke-width="3"/><path d="m96.102 136.65c-2.6116-10.902 3.9171-70.073 9.5181-85.663" fill="none" stroke="#ff2a2a" stroke-dasharray="3, 3" stroke-linejoin="bevel" stroke-width="3"/><path d="m108.79 135.07c-2.6116-10.902 3.7408-74.832 9.3418-90.422" fill="none" stroke="#ff2a2a" stroke-dasharray="3, 3" stroke-linejoin="bevel" stroke-width="3"/><path d="m215.88 154.31c9.4774-67.313-43.915-101.55-79.398-113.53" fill="none" stroke="#ff2a2a" stroke-dasharray="3, 3" stroke-linejoin="bevel" stroke-width="3"/><path d="m203.04 155.66c9.4774-67.313-32.271-103.25-67.755-115.23" fill="none" stroke="#ff2a2a" stroke-dasharray="3, 3" stroke-linejoin="bevel" stroke-width="3"/><path d="m189.13 154.54c9.4774-67.313-21.703-102.43-57.187-114.41" fill="none" stroke="#ff2a2a" stroke-dasharray="3, 3" stroke-linejoin="bevel" stroke-width="3"/><path d="m228.25 151.29c4.0963-68.637-51.655-103.23-87.057-109.83" fill="none" stroke="#ff2a2a" stroke-dasharray="3, 3" stroke-linejoin="bevel" stroke-width="3"/><path d="m21.368 135.95c5.7684-68.517 65.896-94.773 101.88-96.238" fill="none" stroke="#ff2a2a" stroke-dasharray="3, 3" stroke-linejoin="bevel" stroke-width="3"/><path d="m33.177 140.71c0.25317-67.976 57.995-94.218 94.828-101" fill="none" stroke="#ff2a2a" stroke-dasharray="3, 3" stroke-linejoin="bevel" stroke-width="3"/><path d="m45.692 143.88c0.25317-67.976 46.715-97.566 83.547-104.35" fill="none" stroke="#ff2a2a" stroke-dasharray="3, 3" stroke-linejoin="bevel" stroke-width="3"/><path d="m59.616 144.76c0.25317-67.976 36.139-98.272 72.972-105.05" fill="none" stroke="#ff2a2a" stroke-dasharray="3, 3" stroke-linejoin="bevel" stroke-width="3"/><path d="m24.188 217.73c72.208 1.2198 144.42 0.83649 216.62-1.2338 33.545-5.6814-62.962-19.138-106.64-29.435-94.523 16.652-129.68 26.707-109.99 30.669z" fill="#ff2a2a" stroke="#000" stroke-linecap="round" stroke-linejoin="bevel"/><path d="m25.422 218.09c-1.248-0.40763-3.4049-0.71532-3.5252-1.2338-1.2329-5.3137 223.25-5.6293 222.79-1.7626-0.10562 0.90147-3.0167 1.0576-5.6403 1.5863 4.9562 0.23823 12.502-2.6072 12.304-7.8044-0.65733-17.268 0.46239-57.787-0.65443-64.284-0.60258-3.5053-1.6373-5.2394-5.3598-5.839-1.8872-0.30398-3.5227-1.8869-5.9795-2.2189-3.929-0.53097-3.8629 0.76662-5.9324 0.49634-2.3277-0.304-3.27-1.9577-7.5812-2.2636-3.0783-0.21837-3.4704 0.92793-5.4512 0.71256-2.0375-0.22153-2.3865-1.9984-6.3543-2.2714-4.106-0.28252-4.5773 2.1413-6.4376 1.9664-2.163-0.20342-2.313-2.0523-6.2117-2.0915-4.2741-0.043-3.7886 1.2027-5.5204 1.0607-2.0927-0.17168-1.7751-2.1269-5.8463-2.2469-3.2339-0.0953-2.988 2.2745-4.8248 2.1336-1.9117-0.14667 0.28419-2.3162-6.6316-2.0692-4.2265 0.15098-6.2671 2.5725-8.0298 2.462-2.5504-0.15982-2.0067-1.906-7.2232-2.0804-2.6948-0.0901-3.5566 1.4282-5.2804 1.3367-2.0551-0.10919-1.1143-1.8061-5.8098-1.8104-4.0341-4e-3 -3.7943 1.3322-5.5083 1.2549-2.1522-0.097-1.3634-2.0068-5.7165-2.0214-2.7755-9e-3 -4.1627 1.6097-5.87 1.5468-2.7042-0.0997-2.8149-0.82591-7.077-0.91089-3.2111-0.064-4.5733 1.7476-6.6038 1.6937-2.3314-0.0619-2.5039-2.8764-6.8458-2.9088-3.359-0.0251-4.5417 2.6536-6.7342 2.6184-2.089-0.0336-2.0159-2.1567-6.1088-2.0784-4.0885 0.0781-3.7106 1.9591-5.4877 1.948-2.3888-0.015-1.6157-1.8217-6.6041-1.7663-3.7617 0.0418-5.1764 1.7544-7.4762 1.7714-2.0593 0.0152-1.7795-1.8564-5.1127-1.6794-4.5823 0.24327-4.6809 1.803-6.4898 1.8407-1.9756 0.0412-2.1185-1.5181-5.0952-1.4759-2.999 0.0425-5.2924 1.7622-7.4965 1.8485-1.9046 0.0746-2.04-1.4984-5.1074-1.3732-3.9038 0.15942-4.1949 1.7845-5.229 1.8758-2.4002 0.21199-3.018-1.2466-6.8584-0.89966-3.7489 0.33867-4.4027 1.7193-6.4188 1.9154-2.4367 0.237-2.5039-0.70372-5.9322-0.71931-3.2949-0.015-3.988 1.9005-5.38 2.1195-1.8672 0.29383-3.2339-0.76327-4.8381-0.42878-1.2551 0.26172-2.8007 1.907-3.8841 2.1942-1.1114 0.29462-2.13 0.60278-3.0507 0.92477-4.9633 1.7358-6.6808 4.2434-6.6568 6.7522 0.11071 11.565 2.3261 51.485 6.7695 60.896 2.5432 5.3868 6.9047 10.692 14.009 11.283z" fill="url(#linearGradient1570)" stroke="#000" stroke-linecap="round" stroke-linejoin="bevel"/><path d="m21.727 212.84c-16.548-11.139-11.758-64.632-11.897-69.399" fill="none" opacity=".50765" stroke="#f55" stroke-linecap="round" stroke-linejoin="bevel" stroke-width="6"/><path d="m30.916 211.56c-8.709-20.424-12.92-44.19-12.229-72.134" fill="none" opacity=".50765" stroke="#f55" stroke-linecap="round" stroke-linejoin="bevel" stroke-width="6"/><path d="m39.282 210.54c-5.857-23.743-10.285-48.57-10.972-72.783" fill="none" opacity=".50765" stroke="#f55" stroke-linecap="round" stroke-linejoin="bevel" stroke-width="6"/><path d="m51.433 210.29c-5.857-23.743-9.6494-49.422-10.337-73.635" fill="none" opacity=".50765" stroke="#f55" stroke-linecap="round" stroke-linejoin="bevel" stroke-width="6"/><path d="m62.299 209.4c-5.857-23.743-8.9853-49.583-9.6729-73.796" fill="none" opacity=".50765" stroke="#f55" stroke-linecap="round" stroke-linejoin="bevel" stroke-width="6"/><path d="m75.364 209.33c-5.857-23.743-9.3378-49.914-10.025-74.127" fill="none" opacity=".50765" stroke="#f55" stroke-linecap="round" stroke-linejoin="bevel" stroke-width="6"/><path d="m87.348 209.3c-5.857-23.743-9.5248-50.475-10.212-74.688" fill="none" opacity=".50765" stroke="#f55" stroke-linecap="round" stroke-linejoin="bevel" stroke-width="6"/><path d="m97.809 208.67c-4.2707-23.743-7.0981-49.686-7.7857-73.899" fill="none" opacity=".50765" stroke="#f55" stroke-linecap="round" stroke-linejoin="bevel" stroke-width="6"/><path d="m110.01 208.54c-4.6232-23.743-7.2334-49.851-7.921-74.065" fill="none" opacity=".50765" stroke="#f55" stroke-linecap="round" stroke-linejoin="bevel" stroke-width="6"/><path d="m121.06 208.65c-4.0944-23.567-5.4191-50.111-6.1068-74.325" fill="none" opacity=".50765" stroke="#f55" stroke-linecap="round" stroke-linejoin="bevel" stroke-width="6"/><path d="m133.94 208.45c-3.2131-23.743-4.4648-48.764-5.1525-72.977" fill="none" opacity=".50765" stroke="#f55" stroke-linecap="round" stroke-linejoin="bevel" stroke-width="6"/><path d="m146.11 208.87c-2.8606-23.92-3.491-49.73-4.1786-73.944" fill="none" opacity=".50765" stroke="#f55" stroke-linecap="round" stroke-linejoin="bevel" stroke-width="6"/><path d="m157.15 208.57c-2.8606-24.096-3.0245-48.514-3.7122-72.728" fill="none" opacity=".50765" stroke="#f55" stroke-linecap="round" stroke-linejoin="bevel" stroke-width="6"/><path d="m169.48 208.57c-1.0455-23.294-3.0926-47.855-4.9353-72.261" fill="none" opacity=".50765" stroke="#f55" stroke-linecap="round" stroke-linejoin="bevel" stroke-width="6"/><path d="m180.41 208.55c-2.6843-23.743-0.68592-48.826-1.3736-73.039" fill="none" opacity=".50765" stroke="#f55" stroke-linecap="round" stroke-linejoin="bevel" stroke-width="6"/><path d="m193.23 208.86c-2.0265-22.07-0.39279-48.367-2.6848-73.222" fill="none" opacity=".50765" stroke="#f55" stroke-linecap="round" stroke-linejoin="bevel" stroke-width="6"/><path d="m205.34 209.27c-2.0722-19.701 0.14535-44.92-3.7789-72.512" fill="none" opacity=".50765" stroke="#f55" stroke-linecap="round" stroke-linejoin="bevel" stroke-width="6"/><path d="m215.55 209.29c-0.63713-23.743 1.9251-48.317-1.2854-72.53" fill="none" opacity=".50765" stroke="#f55" stroke-linecap="round" stroke-linejoin="bevel" stroke-width="6"/><path d="m226.6 209.27c-0.0138-22.556 2.2872-45.947 0.11395-70.821" fill="none" opacity=".50765" stroke="#f55" stroke-linecap="round" stroke-linejoin="bevel" stroke-width="6"/><path d="m235.67 210.22c3.661-20.923 3.5853-45.795 2.8976-70.008" fill="none" opacity=".50765" stroke="#f55" stroke-linecap="round" stroke-linejoin="bevel" stroke-width="6"/><path d="m244.88 211.07c2.6843-22.333 1.2556-43.486 1.9433-67.7" fill="none" opacity=".50765" stroke="#f55" stroke-linecap="round" stroke-linejoin="bevel" stroke-width="6"/><path d="m23.659 214.21c-16.548-11.139-13.962-68.029-14.101-72.796" fill="none" stroke="#ff2a2a" stroke-dasharray="3, 3" stroke-linejoin="bevel" stroke-width="3"/><path d="m31.414 212.62c-8.709-20.424-13.382-47.848-12.691-75.792" fill="none" stroke="#ff2a2a" stroke-dasharray="3, 3" stroke-linejoin="bevel" stroke-width="3"/><path d="m39.407 211.04c-5.857-23.743-10.417-50.874-11.104-75.087" fill="none" stroke="#ff2a2a" stroke-dasharray="3, 3" stroke-linejoin="bevel" stroke-width="3"/><path d="m51.62 211.04c-5.857-23.743-9.888-52.284-10.576-76.497" fill="none" stroke="#ff2a2a" stroke-dasharray="3, 3" stroke-linejoin="bevel" stroke-width="3"/><path d="m62.673 210.46c-5.857-23.743-9.3592-52.636-10.047-76.849" fill="none" stroke="#ff2a2a" stroke-dasharray="3, 3" stroke-linejoin="bevel" stroke-width="3"/><path d="m75.488 210.2c-5.857-23.743-9.7117-53.341-10.399-77.555" fill="none" stroke="#ff2a2a" stroke-dasharray="3, 3" stroke-linejoin="bevel" stroke-width="3"/><path d="m87.535 209.93c-5.857-23.743-9.7117-53.341-10.399-77.555" fill="none" stroke="#ff2a2a" stroke-dasharray="3, 3" stroke-linejoin="bevel" stroke-width="3"/><path d="m97.933 209.54c-4.2707-23.743-7.5966-52.989-8.2842-77.202" fill="none" stroke="#ff2a2a" stroke-dasharray="3, 3" stroke-linejoin="bevel" stroke-width="3"/><path d="m110.32 209.54c-4.6232-23.743-7.4203-53.341-8.108-77.555" fill="none" stroke="#ff2a2a" stroke-dasharray="3, 3" stroke-linejoin="bevel" stroke-width="3"/><path d="m121.38 208.96c-4.0944-23.567-5.4814-53.165-6.1691-77.378" fill="none" stroke="#ff2a2a" stroke-dasharray="3, 3" stroke-linejoin="bevel" stroke-width="3"/><path d="m134.19 208.7c-3.2131-23.743-4.7764-51.755-5.4641-75.968" fill="none" stroke="#ff2a2a" stroke-dasharray="3, 3" stroke-linejoin="bevel" stroke-width="3"/><path d="m146.24 208.43c-2.8606-23.92-3.3663-51.226-4.054-75.439" fill="none" stroke="#ff2a2a" stroke-dasharray="3, 3" stroke-linejoin="bevel" stroke-width="3"/><path d="m157.33 210.07c-2.8606-24.096-2.8376-51.755-3.5252-75.968" fill="none" stroke="#ff2a2a" stroke-dasharray="3, 3" stroke-linejoin="bevel" stroke-width="3"/><path d="m169.55 210.07c-1.0455-23.294-3.0926-51.034-4.9353-75.439" fill="none" stroke="#ff2a2a" stroke-dasharray="3, 3" stroke-linejoin="bevel" stroke-width="3"/><path d="m180.6 209.49c-2.6843-23.743-0.81056-51.755-1.4982-75.968" fill="none" stroke="#ff2a2a" stroke-dasharray="3, 3" stroke-linejoin="bevel" stroke-width="3"/><path d="m193.41 209.23c-2.0265-22.07-0.70438-50.672-2.9964-75.528" fill="none" stroke="#ff2a2a" stroke-dasharray="3, 3" stroke-linejoin="bevel" stroke-width="3"/><path d="m205.46 208.96c-2.0722-19.701-0.0416-46.79-3.9658-74.382" fill="none" stroke="#ff2a2a" stroke-dasharray="3, 3" stroke-linejoin="bevel" stroke-width="3"/><path d="m215.55 210.6c-0.63713-23.743 1.8005-51.931-1.4101-76.144" fill="none" stroke="#ff2a2a" stroke-dasharray="3, 3" stroke-linejoin="bevel" stroke-width="3"/><path d="m226.6 210.02c-0.0138-22.556 2.3495-48.627 0.17626-73.501" fill="none" stroke="#ff2a2a" stroke-dasharray="3, 3" stroke-linejoin="bevel" stroke-width="3"/><path d="m235.54 210.47c3.661-20.923 3.7722-47.789 3.0846-72.002" fill="none" stroke="#ff2a2a" stroke-dasharray="3, 3" stroke-linejoin="bevel" stroke-width="3"/><path d="m244.88 211.88c2.6843-22.333 1.6919-46.291 2.3795-70.504" fill="none" stroke="#ff2a2a" stroke-dasharray="3, 3" stroke-linejoin="bevel" stroke-width="3"/></svg>
