<?xml version="1.0" encoding="UTF-8"?>
<svg version="1.1" viewBox="0 0 256 256" xml:space="preserve" xmlns="http://www.w3.org/2000/svg" xmlns:xlink="http://www.w3.org/1999/xlink"><defs><linearGradient id="linearGradient6152" x1="85.839" x2="153.17" y1="121.62" y2="101.88" gradientTransform="matrix(.9 0 0 .9 -5.2659 -35.533)" gradientUnits="userSpaceOnUse"><stop stop-color="#f55" offset="0"/><stop stop-color="#faa" offset="1"/></linearGradient></defs><g transform="matrix(2.1222 0 0 2.1222 -96.896 20.245)"><path d="m78.895 65.985c-0.39858-16.431 18.724-35.742 27.08-57.371 8.3558 21.629 27.479 40.94 27.08 57.371-0.42739 17.618-13.069 26.953-27.08 26.953-14.011 0-26.653-9.3349-27.08-26.953z" fill="url(#linearGradient6152)" stroke="#000" stroke-linecap="square" stroke-linejoin="round" stroke-width=".47122"/><path class="UnoptimicedTransforms" transform="matrix(.9 0 0 .9 -5.8049 -35.612)" d="m133.96 137.84c2.0152-0.79423 4.7546-2.0428 7.5469-4.3246 2.0847-1.7036 3.9674-3.7988 5.5065-6.2821 3.7245-6.0095 4.187-12.164 3.688-15.976-0.0155-0.1179-0.0312-0.23207-0.047-0.34249-0.31773-2.2244-0.9635-5.0242-2.1228-8.1128-0.9065-2.4149-1.988-4.6657-3.2859-7.152-1.2634-2.4201-2.654-4.9326-3.9727-7.5281-1.8349-3.6115-3.2732-6.8636-4.3166-9.6812 1.2525 3.3822 2.0506 5.589 3.7928 9.9191 1.0319 2.5648 2.263 5.5229 3.1705 7.8888 0.99677 2.5985 1.7668 4.8782 2.3913 7.262 0.80908 3.0886 1.1858 5.645 1.4952 7.8111-8e-3 -0.0594 0.0548 0.38446 0.0463 0.32509 0.47777 3.3349 0.7889 8.8712-2.0866 14.903-1.1874 2.4907-2.7639 4.6973-4.6339 6.5487-2.5026 2.4776-5.1576 3.9479-7.172 4.7418z" fill="#fff"/></g><path d="m185.84 58.233 6.5344-40.448 5.9326 40.861 33.79 7.4292-33.962 7.0165-6.3624 40.964-5.8466-41.067-34.133-7.6356z" fill="#fca" stroke="#000" stroke-linecap="square" stroke-linejoin="round"/><path d="m41.136 191.07 4.335-26.834 3.9358 27.108 22.417 4.9287-22.531 4.6549-4.221 27.176-3.8787-27.245-22.645-5.0656z" fill="#ffb380" stroke="#000" stroke-linecap="square" stroke-linejoin="round"/><path d="m74.172 225.88 2.3038-14.261 2.0916 14.406 11.913 2.6193-11.974 2.4738-2.2432 14.443-2.0613-14.479-12.034-2.6921z" fill="#ffe6d5" stroke="#000" stroke-linecap="square" stroke-linejoin="round"/></svg>
