<?xml version="1.0" encoding="UTF-8"?>
<svg cursor="default" version="1.1" viewBox="0 0 256 256" xmlns="http://www.w3.org/2000/svg" xmlns:xlink="http://www.w3.org/1999/xlink">
 <defs>
  <linearGradient id="linearGradient673" x1="33.402" x2="212.13" y1="226.34" y2="41.877" gradientUnits="userSpaceOnUse">
   <stop stop-color="#ff8080" offset="0"/>
   <stop stop-color="#faa" offset="1"/>
  </linearGradient>
  <linearGradient id="linearGradient778" x1="100.95" x2="191.69" y1="165.52" y2="55.587" gradientUnits="userSpaceOnUse">
   <stop stop-color="#ff8080" offset="0"/>
   <stop stop-color="#faa" offset="1"/>
  </linearGradient>
 </defs>
 <g fill="url(#linearGradient778)" fill-rule="evenodd" stroke="#000" stroke-width="1.089">
  <path d="m165.6 125.17 8.2286-9.4754c5.4042-0.6568 10.83-1.3287 10.473 3.0484 0 0-5.8774 4.9238-4.9473 5.3095 0.93436 0.3839 6.2467 0.68778 6.2467 0.68778l7.8848-7.5093c4.4644-2.2709 15.679-2.8843 13.428 0.79846l-4.6015 6.5852 9.119-0.34397c5.8029 3.7742 4.8421 6.9199 0.29638 9.7306l-11.818-0.64722 6.5529 6.2783c2.5158 5.1913-4.9943 3.6163-10.777 3.2072l-9.1917-7.383-7.6925-0.38267 5.2341 6.9355c0.33523 1.87 1.3172 4.0055-9.8109 1.126l-8.0115-7.6713-23.185-0.83878 0.11701-9.2096zm-75.605 10.109-8.0974 9.5722c-5.3951 0.7194-10.81 1.4559-10.512-2.9266 0 0 5.8091-4.9918 4.8703-5.366-0.93672-0.37421-6.2549-0.61586-6.2549-0.61586l-7.779 7.6035c-4.4317 2.3204-15.637 3.0627-13.436-0.64467l4.5095-6.6382-9.1132 0.45134c-5.8533-3.7072-4.9368-6.8638-0.43012-9.7262l11.823 0.50897-6.6375-6.2024c-2.5865-5.1619 4.9427-3.6742 10.731-3.3331l9.2919 7.2763 7.6968 0.29311-5.3289-6.8774c-0.36086-1.8628-1.3706-3.9874 9.7946-1.2375l8.1157 7.5765 23.194 0.56979 0.0102 9.2108z"/>
  <path d="m115.59 163.21 5.1295 11.197c-1.9466 4.6828-3.8869 9.3889-7.8968 7.0018 0 0-1.9021-7.1128-2.7143-6.5438-0.81004 0.56902-3.6303 4.7159-3.6303 4.7159l3.4162 9.9755c0.0424 4.6964-4.7118 14.054-7.1568 10.469l-4.0947-6.877-4.0141 7.5357c-6.3658 2.8783-8.9104 0.59241-9.43-4.4294l6.2428-9.2389-9.114 2.2839c-6.1537-0.45795-1.073-5.7721 2.0696-10.25l11.425-3.8858 4.029-6.0332-9.1161 0.9003c-1.9424-0.62359-4.451-0.85743 3.5964-8.4691l11.139-2.7925 11.839-18.337 8.7365 4.5132zm25.66-65.9-4.6694-11.365c2.1354-4.6126 4.2665-9.2506 8.1767-6.725 0 0 1.6116 7.1732 2.445 6.6334 0.83336-0.54174 3.8191-4.5892 3.8191-4.5892l-3.0069-10.085c0.15056-4.6964 5.2843-13.885 7.5787-10.217l3.8127 7.0154 4.3174-7.3915c6.4803-2.6581 8.9274-0.28646 9.2434 4.749l-6.616 9.0187 9.2009-1.9682c6.1304 0.66841 0.83761 5.8052-2.4874 10.172l-11.576 3.4882-4.2686 5.891 9.1437-0.58656c1.917 0.6918 4.4128 1.0094-3.9399 8.3386l-11.243 2.4067-12.581 17.917-8.5457-4.8094z"/>
  <path d="m151.75 158.96 13.065 1.921c3.3253 3.996 6.6758 7.9988 2.3652 9.8635 0 0-7.5914-2.2797-7.4885-1.345 0.10286 0.93469 2.4776 5.3276 2.4776 5.3276l11.035 2.6118c4.3793 2.4527 10.571 11.114 5.9692 11.121l-8.5198-0.44241 4.8898 7.1162c-0.65926 6.4867-4.109 7.2641-9.038 5.0126l-5.305-9.757-2.6464 8.3165c-3.6408 4.5591-5.9132-2.2149-8.4227-7.0367l2.3674-10.967-3.4901-6.3337-3.9273 7.5858c-1.5992 1.1849-3.1239 3.0185-5.9757-7.2848l3.2336-10.166-10.817-18.936 8.7523-4.4278zm-47.552-57.745-12.917-2.6598c-3.0503-4.1755-6.13-8.3601-1.6983-9.9758 0 0 7.427 2.7058 7.3858 1.7678-0.04118-0.93794-2.1136-5.4546-2.1136-5.4546l-10.845-3.2338c-4.2057-2.6931-9.8082-11.686-5.2111-11.434l8.476 0.92818-4.4012-7.3785c1.0922-6.4354 4.5888-7.0138 9.3576-4.4882l4.6438 10.037 3.2017-8.1468c3.9414-4.3397 5.7571 2.5438 7.9363 7.498l-3.1014 10.808 3.0579 6.5164 4.4329-7.3441c1.6738-1.092 3.322-2.8346 5.4761 7.607l-3.9104 9.9582 9.5257 19.507-9.0365 3.9185z"/>
 </g>
 <path d="m133.59 114.6-0.45518-54.932 25.514-15.914c1.3722-4.7227-0.50426-8.5508-8.202-6.9183l-18.073 11.901-0.14949-5.8144 12.756-6.9163c2.9631-0.67089 1.9479-7.9104-6.0756-6.2271l-4.8596 3.0434v-11.484c0-6.3023-13.363-6.6926-13.363 0v12.454l-7.1377-3.5984c-8.057-2.7506-7.662 2.8869-6.2251 4.9809l13.363 7.1968-0.15173 6.3633-18.68-10.238c-6.4929-0.15044-8.945 2.0432-6.5286 7.0565l25.512 14.392 1.8229 55.487zm-15.674 3.4907-54.259-23.957-0.1071-27.197c-4.0385-3.2121-8.6349-3.3748-10.44 3.635l-0.54442 19.342-5.7878-2.4498 0.51318-13.623c0.65152-2.7181-6.9213-5.0947-8.8178 2.2038l-0.82556 5.4566-7.961-3.8403c-6.832-3.2975-10.815 8.5732-5.9195 10.917l8.9138 4.2693-4.8797 2.9926c-6.2742 5.3651-0.55111 7.5404 2.1442 7.2924l11.178-6.4853 6.1939 2.9438-19.412 9.4799c-3.0211 5.237-1.9501 8.2113 4.0542 8.4593l26.523-13.223 55.406 23.085zm-9.3823 16.496-46.713 34.73-27.114-11.377c-4.8998 1.9842-7.0016 5.7127-0.78093 10.159l19.017 8.6037-4.8775 3.7489-13.343-6.1661c-2.4298-1.6833-7.9878 3.57-1.5217 8.2133l5.0827 2.9844-7.1801 4.9585c-5.7811 3.9928 3.6034 12.806 8.3716 9.4941l8.0057-5.5664 0.9215 5.2919c2.6931 7.4469 7.2716 3.635 8.1619 1.3011l-1.7404-11.966 5.5379-3.879 1.2517 20.033c3.9381 4.7064 7.3497 5.0744 10.13 0.21955l-1.9813-27.488 46.329-36.049zm14.322 10.779 0.40386 54.936-26.726 12.111c-1.3767 4.7227 0.49311 8.5528 8.1931 6.9264l19.282-8.1056 0.14503 5.8124-13.637 5.603c-2.9631 0.67088-1.9546 7.9084 6.069 6.2332l5.7388-1.7382-0.2633 8.2052c-0.18074 5.6842 13.209 5.5033 13.365 0.0203l0.26105-9.1729 5.1028 2.6632c8.0548 2.7588 7.6665-2.8808 6.2318-4.9748l-11.326-6.2677 0.15618-6.3633 17.917 11.671c6.4929 0.15451 8.9472-2.033 6.5353-7.0504l-24.744-15.831-1.7694-55.489zm16.806-3.1877 52.63 26.801-1.6355 27.157c3.8266 3.4216 8.4051 3.8302 10.654-3.0739l1.785-19.281 5.6182 2.7547-1.3834 13.572c-0.82556 2.6795 6.5821 5.4546 8.9428-1.7321l1.1759-5.4037 7.7 4.2571c6.6535 3.6797 11.346-7.9816 6.6089-10.584l-8.626-4.7369 5.0627-2.7263c6.6089-5.0215 1.0353-7.4977-1.6734-7.394l-11.573 5.8794-5.9975-3.267 19.985-8.4309c3.3536-5.0683 2.4767-8.0954-3.503-8.6606l-27.324 11.791-53.833-25.992zm3.6659-15.054 53.634-25.091 23.914 16.278c5.2456-1.0104 8.1529-4.2571 3.0903-9.7869l-16.632-12.029 5.6272-2.7385 11.638 8.565c1.9903 2.1082 8.6304-1.974 3.3692-7.7457l-4.2884-3.881 8.1552-3.4846c6.5241-2.7872-0.69169-13.166-6.0132-10.875l-9.1034 3.9237 0.30791-5.3529c-0.9282-7.7945-6.2765-4.9361-7.6821-2.8259l-1.0353 12.037-6.3055 2.7405 3.3602-19.832c-2.7756-5.3509-6.0266-6.3592-9.8554-2.1367l-4.3531 27.261-53.563 26.453z" fill="url(#linearGradient673)" fill-rule="evenodd" stroke="#000" stroke-width="1.141"/>
 <path d="m111.05 145.89 10.376 5.9289 12.025 0.072 10.448-5.8082 6.0748-10.132 0.0741-11.739-5.9484-10.202-10.378-5.9289-12.025-0.072-10.448 5.8082-6.0748 10.132-0.0741 11.739z" fill="#faa" stroke="#000" stroke-linecap="round" stroke-linejoin="round" stroke-width=".5"/>
 <path d="m123.73 109.81c2.9491-0.0113 6.8472 0.95406 10.185 3.5395 2.6857 2.0805 4.401 4.6984 5.5934 7.1591 0.78726 1.6247 1.3226 3.135 1.7229 4.0858 0.37276 0.88522 1.2839 2.3169 2.1782 4.0424 1.6989 3.278 2.9249 6.8216 2.8822 8.6698 0.0382-1.6498 0.95076-5.7521 0.80663-9.5956-0.0825-2.2013-0.4299-4.1106-0.89325-5.211-0.4901-1.1639-1.4299-2.8161-2.8222-4.5224-2.1177-2.5952-4.942-4.9131-8.4578-6.3873-4.3317-1.8164-8.2604-1.7916-11.195-1.7803z" fill="#fff"/>
</svg>
