<?xml version="1.0" encoding="UTF-8"?>
<svg cursor="default" version="1.1" viewBox="0 0 256 256" xmlns="http://www.w3.org/2000/svg" xmlns:xlink="http://www.w3.org/1999/xlink">
 <defs>
  <linearGradient id="linearGradient6361" x1="129.14" x2="187.46" y1="127.3" y2="70.749" gradientUnits="userSpaceOnUse">
   <stop stop-color="#fca" offset="0"/>
   <stop stop-color="#ffe6d5" offset="1"/>
  </linearGradient>
  <linearGradient id="linearGradient6392" x1="105.05" x2="138.19" y1="151.76" y2="117.21" gradientUnits="userSpaceOnUse">
   <stop stop-color="#fca" offset="0"/>
   <stop stop-color="#ffe6d5" offset="1"/>
  </linearGradient>
  <radialGradient id="radialGradient6619" cx="128" cy="128" r="121.45" gradientTransform="matrix(1 0 0 1.0002 0 -.031035)" gradientUnits="userSpaceOnUse">
   <stop stop-color="#ff8080" offset="0"/>
   <stop stop-color="#ff8080" offset=".47912"/>
   <stop stop-color="#faa" offset="1"/>
  </radialGradient>
 </defs>
 <path d="m145.79 74.094c-8.0552-4.3738 2.2158 1.5753-10.112-33.804-8.0814-23.195 9.5428-33.272 9.5428-33.272-14.207 0.6308-29.632 16.47-33.639 33.24-2.6982 11.297-3.4206 21.755 1.7093 35.743-9.9395-21.3-22.632-21.809-25.438-34.547-16.999 16.551 3.6039 27.643 10.744 40.551-21.354 2.7215-31.785-35.345-59.321-26.746 17.201 13.253 4.0745 31.525 41.706 45.313-14.397-2.2221-29.424-10.966-42.096 1.4091 21.218 8.7649 33.296 12.221 34.704 21.85 0 0-9.1225 5.7124-28.483-2.7357-12.081-5.1636-33.893 1.2818-38.056 11.513 9.4365-2.9172 30.182 0.87878 39.176 11.465 6.3581 7.783 30.49 0.1037 30.49 0.1037-12.525 7.0978-29.394 7.9718-32.147 28.452 21.645-14.518 31.093-9.984 41.777-7.1536 0 0-4.4733 9.4536-25.973 17.763-20.108 7.693-14.658 28.357-14.658 28.357s11.126-11.294 29.691-15.577c20.732-4.7415 22.566-19.171 22.566-19.171-1.2161 13.811-8.0068 25.896 4.0946 44.098 3.0709-15.357 8.4667-28.688 17.893-38.125 0 0 5.7462 12.282-0.4167 29.802-8.3206 23.256 10.428 36.359 10.428 36.359s-0.95865-18.786 8.6152-32.568c9.8827-14.247 2.5786-32.899 2.5786-32.899 11.779 10.13 22.784 20.567 26.364 32.843 9.4308-6.4875 7.7062-20.309-5.0187-41.308-5e-4 -0.31045 8.9761-0.43515 16.592 19.77 8.0815 20.828 37.49 22.015 35.937 18.905-3.4234-11.498-14.566-10.76-19.4-33.129-2.34-11.495-17.68-22.258-17.68-22.258 14.699-2.8993 26.62-0.37514 38.696 1.8391-2.1785-7.3031-1.1072-14.906-32.843-19.515-1.0971-8.5412 18.254-5.6813 29.717 0.56675 10.379 5.4682 25.54 1.7944 35.423-12.298 0 0-16.864 3.8233-22.909-1.9406-13.641-13.241-28.042-17.326-42.58-11.166 6.621-21.399 28.458-12.787 29.98-28.615-11.157-8.265-33.871 15.097-41.467 7.6203 2.0046-4.65 6.3232-14.104 20.869-15.917 13.308-1.8175 19.777-21.199 19.293-33.619-11.594 8.4981-12.049 14.395-29.224 17.597-12.223 2.2868-16.854 10.188-24.118 16.372-7.45-13.064-1.4316-24.22 2.4104-41.282-10.52 2.7583-16.695 12.982-15.42 36.115z" fill="url(#radialGradient6619)" fill-rule="evenodd" stroke="#000" stroke-linecap="round" stroke-linejoin="round"/>
 <path d="m68.496 127.8c0.0519 32.851 26.676 59.595 59.674 59.708 32.845 0.11298 59.385-26.448 59.333-59.299-0.0519-32.851-26.676-59.595-59.521-59.708-32.998-0.1135-59.538 26.448-59.486 59.298z" fill="#faa" stroke="#000" stroke-linecap="round" stroke-linejoin="round" stroke-width=".99264"/>
 <g>
  <g stroke="#000">
   <path d="m83.89 127.85c0.03943 24.681 19.882 44.773 44.182 44.856 24.454 0.0832 44.078-19.874 44.039-44.556-0.0394-24.681-19.728-44.773-44.182-44.856-24.299-0.08264-44.078 19.874-44.039 44.556z" fill="url(#linearGradient6361)" stroke-linecap="round" stroke-width=".5"/>
   <path d="m134.78 106.36-13.105-0.0516-15.009 16.135 0.35252 11.057 15.834 16.56 11.635-0.13975 15.204-15.694-0.45577-12.136z" fill="url(#linearGradient6392)"/>
   <path d="m152.68 85.883-17.653 22.487-6.7587 19.412 19.412-6.7587 22.488-17.653z" fill="#fca" stroke-width=".5"/>
   <path d="m170.61 152.79-22.487-17.653-19.413-6.7587 6.7587 19.413 17.653 22.488z" fill="#fca" stroke-width=".5"/>
  </g>
  <g fill="#ffb380" stroke="#000" stroke-width=".5">
   <path d="m103.26 170.36 17.653-22.487 6.7587-19.413-19.413 6.7587-22.488 17.653z"/>
   <path d="m85.769 103.14 22.487 17.653 19.413 6.7587-6.7587-19.412-17.653-22.488z"/>
   <rect x="120.77" y="80.701" width="14.894" height="27.046" rx=".83709" ry=".6823"/>
  </g>
  <g stroke="#000" stroke-width=".5">
   <rect transform="rotate(90)" x="120.8" y="-175.23" width="14.894" height="27.046" rx=".83709" ry=".6823" fill="#ffe6d5"/>
   <rect transform="scale(-1)" x="-135.86" y="-175.19" width="14.894" height="27.046" rx=".83709" ry=".6823" fill="#ffb380"/>
   <rect transform="rotate(-90)" x="-135.09" y="81.399" width="14.894" height="27.046" rx=".83709" ry=".6823" fill="#fca"/>
  </g>
  <g fill="#fff">
   <path class="UnoptimicedTransforms" d="m142.86 116.18 19.069-17.137z"/>
   <g>
    <path class="UnoptimicedTransforms" transform="translate(3.0163 -4.8999)" d="m139.84 121.08c1.09-0.97957 6.0988-1.9835 7.1888-2.963 2.7238-2.4479 9.1566-11.726 11.88-14.174-2.7238 2.4479-12.634 7.8568-15.358 10.305-1.09 0.97957-2.6212 5.8531-3.7112 6.8326z"/>
    <path class="UnoptimicedTransforms" transform="rotate(90 132.91 127.63)" d="m139.84 121.08c1.09-0.97957 6.0988-1.9835 7.1888-2.963 2.7238-2.4479 9.1566-11.726 11.88-14.174-2.7238 2.4479-12.634 7.8568-15.358 10.305-1.09 0.97957-2.6212 5.8531-3.7112 6.8326z"/>
    <path class="UnoptimicedTransforms" transform="matrix(-1 0 0 1 260.12 -4.8999)" d="m139.84 121.08c1.09-0.97957 6.0988-1.9835 7.1888-2.963 2.7238-2.4479 9.1566-11.726 11.88-14.174-2.7238 2.4479-12.634 7.8568-15.358 10.305-1.09 0.97957-2.6212 5.8531-3.7112 6.8326z"/>
    <path class="UnoptimicedTransforms" transform="matrix(0 1 1 0 2.5945 -8.0981)" d="m139.84 121.08c1.09-0.97957 6.0988-1.9835 7.1888-2.963 2.7238-2.4479 9.1566-11.726 11.88-14.174-2.7238 2.4479-12.634 7.8568-15.358 10.305-1.09 0.97957-2.6212 5.8531-3.7112 6.8326z"/>
    <path class="UnoptimicedTransforms" transform="matrix(.57276 .57276 -.57276 .57276 139.47 -25.637)" d="m139.84 121.08c1.09-0.97957 5.3867-2.7758 6.4767-3.7554 2.7238-2.4479 9.8686-10.934 12.592-13.382-2.7238 2.4479-11.922 8.6491-14.646 11.097-1.09 0.97957-3.3332 5.0608-4.4232 6.0403z"/>
    <path class="UnoptimicedTransforms" transform="matrix(-.57276 .57276 -.57276 -.57276 281.9 138.75)" d="m139.84 121.08c1.09-0.97957 5.3867-2.7758 6.4767-3.7554 2.7238-2.4479 9.8686-10.934 12.592-13.382-2.7238 2.4479-11.922 8.6491-14.646 11.097-1.09 0.97957-3.3332 5.0608-4.4232 6.0403z"/>
    <path class="UnoptimicedTransforms" transform="matrix(-.57276 -.57276 -.57276 .57276 281.8 115.81)" d="m139.84 121.08c1.09-0.97957 5.3867-2.7758 6.4767-3.7554 2.7238-2.4479 9.8686-10.934 12.592-13.382-2.7238 2.4479-11.922 8.6491-14.646 11.097-1.09 0.97957-3.3332 5.0608-4.4232 6.0403z"/>
    <path class="UnoptimicedTransforms" transform="matrix(-.57276 .57276 .57276 .57276 117.62 -18.545)" d="m139.84 121.08c1.09-0.97957 5.3867-2.7758 6.4767-3.7554 2.7238-2.4479 9.8686-10.934 12.592-13.382-2.7238 2.4479-11.922 8.6491-14.646 11.097-1.09 0.97957-3.3332 5.0608-4.4232 6.0403z"/>
   </g>
  </g>
  <path d="m127.92 78.482c-26.931-0.09159-48.872 22.031-48.828 49.352 0.04365 27.32 22.058 49.592 48.988 49.684 27.085 0.0921 48.872-22.031 48.828-49.352-0.0436-27.32-21.903-49.591-48.988-49.684zm8e-3 4.8125c24.454 0.08317 44.144 20.174 44.184 44.855 0.0394 24.681-19.585 44.638-44.039 44.555-24.3-0.08264-44.144-20.174-44.184-44.855-0.039432-24.681 19.74-44.637 44.039-44.555z" fill="#f95" stroke="#000" stroke-width=".75"/>
 </g>
</svg>
