<?xml version="1.0" encoding="UTF-8"?>
<svg cursor="default" version="1.1" viewBox="0 0 256 256" xmlns="http://www.w3.org/2000/svg" xmlns:xlink="http://www.w3.org/1999/xlink">
 <defs>
  <linearGradient id="innoGrad3">
   <stop stop-color="#fca" offset="0"/>
   <stop stop-color="#ffb380" offset="1"/>
  </linearGradient>
  <linearGradient id="innoGrad2">
   <stop stop-color="#ff8080" offset="0"/>
   <stop stop-color="#f55" offset="1"/>
  </linearGradient>
  <linearGradient id="linearGradient1194" x1="546.89" x2="587.16" y1="208.06" y2="244.88" gradientTransform="matrix(1.683 0 0 1.683 -864.76 -278.57)" gradientUnits="userSpaceOnUse" xlink:href="#innoGrad2"/>
  <linearGradient id="linearGradient1202" x1="541.72" x2="548.43" y1="277.86" y2="290.32" gradientTransform="matrix(1.683 0 0 1.683 -864.76 -278.57)" gradientUnits="userSpaceOnUse" xlink:href="#innoGrad2"/>
  <linearGradient id="linearGradient1267" x1="649.74" x2="677.57" y1="289.2" y2="295.91" gradientTransform="matrix(1.683 0 0 1.683 -914.46 -288.25)" gradientUnits="userSpaceOnUse" xlink:href="#innoGrad2"/>
  <linearGradient id="linearGradient1275" x1="653.91" x2="688.93" y1="209.35" y2="277.23" gradientTransform="matrix(1.683 0 0 1.683 -914.46 -288.25)" gradientUnits="userSpaceOnUse" xlink:href="#innoGrad2"/>
  <linearGradient id="linearGradient1328" x1="85.966" x2="99.525" y1="160.81" y2="182.24" gradientUnits="userSpaceOnUse" xlink:href="#innoGrad3"/>
  <linearGradient id="linearGradient1338" x1="201.76" x2="216.68" y1="175.73" y2="193.63" gradientUnits="userSpaceOnUse" xlink:href="#innoGrad3"/>
 </defs>
 <path d="m153.36 50.905c2.17 30.12 87.673 7.569 82.536-12.608-1.03-3.663-81.673 3.006-82.536 12.608z" fill="#ff2a2a" fill-rule="evenodd" stroke="#000" stroke-width="1.683"/>
 <path d="M9.179 208.754c-.67 1.225-.826 2.707.322 4.84 0 0 11.383 6.84 17.75 7.1 20.468.84 38.78-13.447 58.736-18.072 14.748-3.418 40.358-7.768 42.805-8.24 3.138-.607 3.043-7.912.551-7.46z" fill="#ff7f2a" fill-rule="evenodd" stroke="#000" stroke-width=".75"/>
 <path d="M9.16 208.529s11.612 7.615 17.827 8.352c20.707 2.453 31.696-11.37 51.739-16.195 13.302-3.203 49.78-12.667 49.78-12.667 4.216-8.52.885-10.859.726-18.88l-74.08-8.364c-5.566 13.813-21.191 23.18-39.747 31.253-3.808 1.656-7.781 12.516-6.246 16.501z" fill="url(#linearGradient1202)" fill-rule="evenodd" stroke="#000" stroke-width=".75"/>
 <path d="M63.561 32.357c.654 30.19 87.182 11.966 83.065-8.443-.843-3.71-81.72-1.103-83.065 8.443z" fill="#ff2a2a" fill-rule="evenodd" stroke="#000" stroke-width="1.683"/>
 <path d="M60.3 153.881c8.399-8.002 9.424-20.378 12.549-28.994-2.276-11.458-.91-24.603 2.643-33.544-3.673-9.496-8.229-18.56-5.964-25.627-6.73-13.004-7.64-25.383-5.809-33.815.198 13.817 81.377 4.297 82.94-8.391 1.132 10.8.405 25.568-5.163 35.822 2.362 11.632-1.014 24.316-7.521 35.178 1.959 12.65.13 28.303-4.975 43.084 6.824 7.853 5.75 22.034-.992 28.737-27.87 18.994-43.111 1.587-67.708-12.45z" fill="url(#linearGradient1194)" fill-rule="evenodd" stroke="#000" stroke-width=".75"/>
 <path d="m130.75 134.95 0.998 5.042c-32.917 11.056-50.046 13.667-71.743 15.996l-1.13-5.163c26.518-1.802 47.938-7.62 71.875-15.875z" fill="#fd5" fill-rule="evenodd" stroke="#000" stroke-width=".75"/>
 <path d="M55.407 149.392c-3.551 4.38-5.63 8.999-2.276 14.822 7.265-3.082 43.398 19.033 63.763 17.03 10.014-.985 16.612-7.827 20.16-12.843 4.194-5.932.495-15.862-2.901-18.645.172 2.219-.955 4.931-2.68 7.542-3.807 5.76-6.82 8.39-13.028 8.475-15.49.21-61.687-18.048-63.038-16.381z" fill="url(#linearGradient1328)" fill-rule="evenodd" stroke="#000" stroke-width=".75"/>
 <path d="M70.72 123.012c32.836-8.625 44.772-20.514 64.875-30.6 1.516-.217 4.489 2.91.322 5.647-17.636 9.088-35.852 23.577-63.744 28.019z" fill="#fd5" fill-rule="evenodd" stroke="#000" stroke-width=".75"/>
 <path d="m70.54 126.9c14.381 9.72 33.093 10.017 60.97 13.411 3.226-2.225 1.92-4 0.564-5.809-24.267-1.51-39.557-1.853-60.405-12.765-1.705-0.06-3.49 3.051-1.13 5.163z" fill="#ffe680" fill-rule="evenodd" stroke="#000" stroke-width=".75"/>
 <path d="m73.394 92.442v-2.905c26.706-8.972 45.846-18.89 69.755-32.595v5.325c-21.083 10.729-41.247 24.82-69.755 30.175z" fill="#fd5" fill-rule="evenodd" stroke="#000" stroke-width=".75"/>
 <path d="M135.534 97.948c3.98-.228 4.013-5.552-.799-5.976-23.288-.348-38.836 2.419-61.28-3.412-1.877 2.043-2.602 3.49-.606 5.103 4.378 5.264 37.334 4.189 62.685 4.285zM143.11 62.56c3.26-2.27 2.969-4.401.645-6.455-24.602 5.176-49.257 9.585-76.566 6.132-3.116 2.638-1.956 4.29.484 5.647 26.277 2.107 51.104-.523 75.437-5.325z" fill="#ffe680" fill-rule="evenodd" stroke="#000" stroke-width=".75"/>
 <path d="M62.306 32.357c3.796-10.014 80.206-12.69 85.233-8.785l.114 7.074c-3.374-4.56-61.855-5.503-84.662 6.732z" fill="#fd5" fill-rule="evenodd" stroke="#000" stroke-width=".75"/>
 <path d="M63.477 32.304c-2.104-1.78-4.037 7.784-1.049 8.149 18.602 9.985 62.584 4.705 84.635-7.18 4.576-1.796 1.86-11.37-.161-8.876-26.762 18.265-76.844 14.941-83.425 7.907z" fill="#fea" fill-rule="evenodd" stroke="#000" stroke-width=".75"/>
 <path d="m15.73 191.72c19.342 0.162 25.883 11.887 32.332 21.451 2.564-1.066 5.207-2.113 6.939-3.388-8.25-9.696-14.702-21.725-31.122-21.209-2.844-0.183-10.594 3.385-8.149 3.147zm22.742-12.588c19.343 0.162 27.07 13.975 33.518 23.54 2.563-1.382 5.045-1.418 6.777-2.502-8.25-9.695-17.824-25.426-34.244-24.91-2.843-0.184-8.6883 4.088-6.2423 3.85z" fill="#ffe680" fill-rule="evenodd" stroke="#000" stroke-width=".75"/>
 <path d="m160.6 234.9c-0.75 2.015-1.343 4.031 0 6.047 10.563 4.083 50.988 1.731 54.54 0.456 11.756-1.954 13.788-23.67 15.175-27.384-22.134-0.973-47.729 18.649-69.715 20.88z" fill="#ff7f2a" fill-rule="evenodd" stroke="#000" stroke-width=".75"/>
 <path d="m161.05 237.3c-5.692-23.181 20.99-33.375 19.397-54.084l58.42 5.705c-4.667 13.317-9.551 28.806-13.464 43.13 0 0-6.818 5.145-10.84 6.276-17.289 4.861-53.513-1.027-53.513-1.027z" fill="url(#linearGradient1267)" fill-rule="evenodd" stroke="#000" stroke-width=".75"/>
 <path d="m182.95 174.63 1.224-11c-2.312-7.987-6.149-16.741-2.995-24.728-3.262-9.356-6.755-17.754-4.61-27.11-8.334-10.801-12.124-21.603-12.551-32.404-9.25-10.917-10.639-19.905-13.464-30.237 2.326 13.21 84.947 9.505 85.461-12.78 1.39 12.39 2.775 24.38-4.221 36.17 2.72 10.108 2.68 19.94-0.685 29.438 6.44 9.28 5.538 19.711 3.486 28.991 6.393 6.686 4.42 23.145 3.12 28.894 3.254 8.699 5.164 20.786 1.61 28.832z" fill="url(#linearGradient1275)" fill-rule="evenodd" stroke="#000" stroke-width=".75"/>
 <path d="M163.432 219.972c24.539-1.63 44.548 1.772 63.669 6.161 2.056.472 3.315-6.799 2.053-7.074-20.922-4.567-41.864-6.192-62.527-6.161-1.249 0-5.059 7.198-3.195 7.074zM173.885 202.376c24.539-1.63 39.076 2.629 58.197 7.018 2.056.473 3.315-6.798 2.054-7.074-20.923-4.567-36.393-7.048-57.056-7.018-1.249.001-5.059 7.198-3.195 7.074z" fill="#ffe680" fill-rule="evenodd" stroke="#000" stroke-width=".75"/>
 <path d="m180.79 159.82 1.426 4.225c18.071-17.857 33.32-21.139 54.542-31.515l-0.81-4.84c-20.918 11.54-34.239 13.48-55.157 32.13zm-1.664-24.368 1.196 4.898c26.963-11.931 36.01-24.831 53.737-37.164l-1.33-4.803c-17.145 13.154-25.95 27.551-53.603 37.069zm-5.067-20.466c29.953-11.869 48.711-25.488 61.035-39.507 0.13-2.962-1.323-2.51-1.251-4.653-15.684 15.562-29.438 28.824-60.803 39.3z" fill="#fd5" fill-rule="evenodd" stroke="#000" stroke-width=".75"/>
 <path d="m180.67 159.4c-1.932 2.053-1.942 4.107 0 6.161 22.5 0.892 35.236-0.28 58.132-2.959 2.215-2.473 1.61-4.946 0.417-7.42-9.926 4.813-33.589 7.6094-58.114 4.0934zm55.395-33.034c5.01 2.738 2.952 4.399 1.416 6.727l-58.838 8.361c-2.958-1.837-2.839-3.894 0.228-6.161 23.23-1.11 39.116-2.664 57.194-8.927zm-2.765-22.291c5.824-3.395 1.4112-5.6-0.22778-6.125-21.903 9.181-40.608 15.38-60.381 11.784-1.974 2.173-1.053 4.751 1.369 6.39 19.55 0.89 37.97-2.183 59.24-12.049zm1.217-34.154c3.336 0.492 4.011 4.327-0.484 7.125-26.102 11.625-48.179 8.03-72.658 7.08-2.2-1.329-2.907-4.836-1.236-7.024 26.087 1.62 50.038 5.4722 73.629-7.0478z" fill="#ffe680" fill-rule="evenodd" stroke="#000" stroke-width=".75"/>
 <path d="m177.7 171.89c-1.066 5.135-4.637 10.634 0.165 15.882 0 0 19.493-2.085 29.516-0.45 8.452 1.38 15.906 7.043 24.418 7.988 6.379 0.708 10.155-1.94 10.155-1.94 4.208-2.956 0.67-10.044 0.798-15.175 0 0-3.787 3.31-8.9 2.51-10.363-1.623-19.29-8.952-29.666-10.497-8.472-1.262-26.393 1.4337-26.393 1.4337z" fill="url(#linearGradient1338)" fill-rule="evenodd" stroke="#000" stroke-width=".75"/>
 <path d="M149.98 49.877c3.877-10.263 81.109-16.654 86.243-13.094l.116 6.26c-3.446-4.325-61.912-1.4-85.203 12.374z" fill="#fd5" fill-rule="evenodd" stroke="#000" stroke-width=".75"/>
 <path d="m151.5 48.366c-2.126-1.64-4.08 7.708-1.06 7.941 18.797 8.926 63.24 2.03 85.523-10.381 4.624-1.925 1.88-11.095-0.163-8.596-27.043 18.786-77.65 17.589-84.3 11.036z" fill="#fea" fill-rule="evenodd" stroke="#000" stroke-width=".75"/>
 <path d="m130.06 176.59-0.318-0.386c-2.686 2.218-8.5302 6.7175-16.2 9.5965-7.932 2.978-14.03 3.12-17.952 2.406 3.95 0.719 9.975 0.825 18.12-1.935 7.797-2.642 13.936-7.0405 16.668-9.2965zm-57.249-54.959 0.385 0.318c0.656-0.795 2.569-3.382 4.218-5.045 2.02-2.037 3.868-3.075 5.43-3.544-1.6 0.48-3.466 1.256-5.768 3.175-1.949 1.625-3.92 3.89-4.651 4.778zm-0.92416 6.6456-0.283 0.413c0.84622 0.57504 1.691 2.2466 2.2782 3.0844 0.583 0.818 1.084 1.784 1.509 2.9 0.957 2.511 1.372 5.46 1.487 6.618-0.11-1.109-0.282-4.17-1.012-6.774-0.33-1.178-0.76-2.247-1.31-3.18-0.743-1.257-1.6892-2.9954-2.3862-3.4734zm58.121 6.2568 0.433-0.25c-0.474-0.821-2.5564-3.3684-3.4824-5.0494-1.019-1.85-1.402-3.323-1.402-4.484 0 1.211 0.129 2.608 0.95 4.696 0.649 1.652 2.5391 4.5041 2.8921 5.1161l0.60926-0.0297zm0.0639 5.8266-0.461-0.193c-0.37759 0.92177-0.72519 2.576-0.67826 3.571 0.037 0.897 0.236 1.788 0.564 2.686 0.69 1.884 2.138 4.027 2.569 4.766-0.478-0.82-1.623-2.947-2.09-4.911-0.213-0.892-0.293-1.73-0.24-2.534 0.068-1.075 0.53626-2.568 0.79826-3.192zm4.2751-41.132-0.29-0.408c-1.249 0.886-3.6264 2.9298-4.8694 5.1578-1.15 2.06-1.859 4.306-2.275 5.45 0.42-1.157 1.36-3.298 2.698-5.183 1.459-2.057 3.8354-3.7648 5.0254-4.6098l-0.29-0.407zm-0.24737-7.4272 0.241-0.438c-1.831-1.01-4.37-1.919-8.003-2.547-3.291-0.569-6.612-0.833-8.238-1.083 1.228 0.189 5.305 0.86 8.134 1.572 3.626 0.913 5.81 1.933 7.624 2.933zm1.491-0.543 0.494-0.08c-0.169-1.03-0.442-2.436-0.454-4.454-0.012-1.922 0.24-3.59 0.503-4.55-0.282 1.032-0.739 2.492-1.002 4.519-0.255 1.965-0.2 3.634-0.034 4.646l0.493-0.08zm-61.153-3.254 0.337 0.37c0.72-0.654 1.926-1.953 2.933-3.451 1.1-1.638 1.602-2.928 2.019-3.97-0.393 0.983-1.175 2.29-2.413 3.662-1.196 1.324-2.485 2.359-3.211 3.019l0.336 0.37zm0 7.593-0.213 0.452c0.731 0.346 1.671 0.836 2.663 2.02 0.918 1.096 1.522 2.392 1.754 3.088-0.23-0.69-0.594-2.072-1.343-3.373-0.802-1.392-1.79-2.234-2.647-2.639l-0.213 0.452zm-5.2227-27.429-0.284 0.412c0.882 0.608 2.1937 2.0746 3.2697 3.6446 0.887 1.295 1.787 3.138 2.102 3.847-0.366-0.823-0.9-2.526-1.67-4.098-0.846-1.727-2.1657-3.5496-3.1347-4.2166l-0.284 0.411zm-1.2833-6 0.118 0.486c1.381-0.335 3.4701-1.1503 5.5951-2.5153 1.927-1.239 3.759-2.605 4.726-3.186-0.616 0.37-3.303 1.921-4.972 2.75-2.329 1.158-4.2071 1.6453-5.5851 1.9793z"/>
 <path d="m67.661 61.695 0.375 0.331c0.533-0.603 1.375-1.792 2.02-3.168 0.703-1.496 0.929-2.628 1.13-3.536-0.189 0.853-0.685 2.033-1.562 3.286-0.86 1.23-1.8 2.148-2.338 2.756l0.375 0.33zm74.576-5.559-0.034-0.5c-1.441 0.1-3.11 0.086-5.665-0.588-1.994-0.525-4.743-1.57-5.555-1.895 1.08 0.431 3.181 1.525 5.402 2.371 2.453 0.935 4.37 1.214 5.886 1.11zm41.609 110.25 0.038 0.499c0.543-0.041 1.7909-2e-3 2.7059 0.29963 0.862 0.284 1.638 0.843 2.02 1.225-0.37-0.37-0.981-1.127-1.798-1.673-0.877-0.587-2.3349-0.89963-3.0039-0.84863zm54.825-3.3717-0.163-0.473c-1.395 0.48-4.575 1.8124-7.023 3.5444-2.595 1.836-4.059 3.586-5.044 4.9 0.957-1.276 2.673-2.938 5.314-4.48 2.574-1.5 5.692-2.5414 7.079-3.0184-0.0406-0.17142 0.0859-0.50988-0.163-0.473zm-0.19449-7.9119-0.087-0.492c-1.38 0.242-3.7356 0.72623-6.4756 0.60623-2.636-0.115-4.872-0.618-6.151-1.045 1.331 0.444 3.384 1.153 6.104 1.543 2.7 0.388 5.3046 0.12477 6.6956-0.11923z"/>
 <path d="m238.78 154.44 0.05-0.497c-0.2781-0.0252-0.54976-0.0983-0.803-0.216-0.27936-0.13332-0.5364-0.30906-0.762-0.521-0.47-0.433-0.907-1.057-1.267-1.837-0.34051-0.74869-0.58156-1.5387-0.717-2.35-0.169-1.007-0.121-1.746-0.027-2.172-0.158 0.71925-0.21522 1.457-0.17 2.192 0.04 0.775 0.176 1.653 0.448 2.51 0.272 0.858 0.658 1.622 1.15 2.208 0.281 0.334 0.583 0.594 0.899 0.786 0.416 0.253 0.817 0.362 1.149 0.395l0.05-0.497zm-56.239 3.1161 0.36 0.347c0.865-0.895 2.0639-3.1221 2.3339-5.0961 0.248-1.825-0.045-3.652-0.15-4.604 0.108 0.97 0.142 2.799-0.34 4.503-0.518 1.828-1.7979 3.7101-2.5639 4.5021zm52.75-31.319 0.106-0.488c-0.56828-0.10997-1.4043-0.37271-1.8345-0.76-0.427-0.38-0.803-0.892-1.169-1.544-0.35-0.625-0.67-1.344-0.95-1.961-0.445-0.979-0.641-1.36-0.936-1.89 0.247 0.443 0.466 1.033 0.75 1.96 0.196 0.635 0.42 1.416 0.683 2.103 0.275 0.717 0.6 1.361 1.042 1.887 0.604 0.718 1.6055 1.053 2.2025 1.182zm-55.359 8.543 0.248 0.434c0.925-0.53 1.906-1.52 2.768-3.12 0.783-1.45 1.283-2.987 1.594-3.687-0.279 0.628-1.085 2.193-2.015 3.418-1.085 1.429-2.032 2.057-2.843 2.52zm0.34856 6.8527-0.046 0.498c0.296 0.027 1.5424 0.13232 1.9464 0.33832 0.308 0.156 0.601 0.391 0.883 0.723 0.63 0.743 1.077 1.867 1.207 2.3-0.102-0.34-0.353-1.701-0.788-2.572-0.20277-0.42558-0.4915-0.80455-0.848-1.113-0.40632-0.34392-1.7798-0.61893-2.3094-0.67232zm51.658-43.347-0.052-0.497c-1.336 0.14-3.6569 0.41123-5.9259-0.10577-2.096-0.478-4.054-1.385-5.08-1.954 1.02 0.567 2.86 1.696 4.94 2.434 2.224 0.788 4.7649 0.76777 6.1699 0.62077l-0.052-0.497z"/>
 <path d="m232.2 97.981 0.192-0.462c-0.377-0.157-1.3124-0.61011-1.7134-1.0931-0.304-0.367-0.54-0.84-0.687-1.429-0.348-1.39-0.086-2.941 0.114-3.607-0.192 0.64-0.717 2.156-0.608 3.684 0.047 0.659 0.21 1.272 0.518 1.804 0.34726 0.60352 1.3504 1.2945 1.9924 1.5641zm0.29079 6.9387-0.424-0.265c-0.383 0.614-1.3232 2.0622-1.4302 3.3612-0.098 1.192 0.011 2.278 0.011 2.764 0-0.47 0.141-1.56 0.48-2.671 0.386-1.266 1.4382-2.3662 1.7872-2.9242zm-56.294 11.657-0.301 0.399c0.453 0.343 1.4787 1.1306 2.1577 1.9286 0.602 0.708 1.048 1.492 1.204 1.91-0.154-0.411-0.372-1.302-0.783-2.179-0.442-0.945-1.4847-2.0866-1.9767-2.4576zm-1.5493-7.9664 0.314 0.39c1.248-1.006 3.152-2.856 4.894-5.34 1.8-2.569 2.718-4.763 3.334-6.304-0.596 1.491-1.787 3.686-3.73 5.999-1.953 2.323-3.878 3.86-5.126 4.866l0.314 0.39zm-0.949-0.407 0.463 0.188c0.368-0.909 0.668-2.335 0.625-4.105-0.042-1.74-0.383-3.185-0.546-4.083 0.158 0.867 0.261 2.42 0.047 4.058-0.228 1.746-0.61387 2.4474-0.96487 3.3144zm-9.492-23.593 0.20752 0.479c0.395 0.12 0.54848 0.3 1.0955 0.72 0.412 0.318 0.79 0.728 1.156 1.244 0.714 1.006 1.552 2.82 1.745 3.252-0.29-0.652-0.658-2.137-1.313-3.505-0.286-0.598-0.623-1.133-1.046-1.582-0.571-0.606-1.19-0.931-1.7-1.086zm-1.763-7.593 0.241 0.438c0.859-0.471 1.724-1.383 2.395-2.88 0.61-1.36 0.931-2.834 1.161-3.524-0.213 0.639-0.823 2.134-1.598 3.282-0.889 1.317-1.73 1.857-2.439 2.246zm70.645-6.644 0.32-0.385c-0.51065-0.41686-0.9358-0.9286-1.252-1.507-0.326-0.582-0.586-1.253-0.822-2.038-0.533-1.774-0.953-3.649-1.23-4.477 0.445 1.332 0.355 2.16 0.743 4.588 0.131 0.823 0.306 1.582 0.584 2.271 0.377 0.933 0.87 1.545 1.337 1.933zm-0.38657 0.04406 0.053-0.497c-2.42-0.26-7.8954-0.61506-12.543-0.34706-5.039 0.29-8.647 1.135-11.394 1.885 2.668-0.728 6.495-1.372 11.41-1.386 4.64-0.013 9.9894 0.58106 12.42 0.84206zm-217.68 121.96-0.45874 0.33021c0.853 0.204 2.4896 0.68095 3.8566 1.662 0.941 0.675 2.575 2.106 2.874 2.378-0.544-0.495-1.48-1.68-2.549-2.758-1.184-1.195-2.249-1.832-3.233-2.068zm9.5142-4.2512-0.025 0.5c0.817 0.04 2.7897-0.27263 4.1257-0.78763 1.236-0.477 2.373-1.129 2.962-1.396-0.586 0.266-1.836 0.69-3.098 0.914-1.428 0.254-3.1587 0.30963-3.9397 0.27063zm14.172-8.2918-0.55806 0.41468c0.755 0.241 2.1555 0.56748 3.4915 1.3505 0.832 0.488 2.5 1.582 2.703 1.724-0.498-0.349-1.412-1.252-2.41-2.129-1.1-0.967-2.013-1.555-2.793-1.805zm32.997 22.649 0.147-0.479c-0.747-0.228-2.8596-0.78159-4.4226-0.77359-1.68 0.01-2.782 0.278-3.627 0.466 0.784-0.174 2.054-0.221 3.588 0.033 1.55 0.257 3.4096 0.99859 4.1686 1.2316l0.146-0.479zm7.0473-2.3144 0.499 0.031c0.094-1.481-0.0069-3.5322 1.2811-5.9702 1.224-2.314 2.912-4.101 3.948-5.008-1.042 0.912-2.884 2.494-4.377 4.753-1.554 2.348-1.7491 4.5682-1.8501 6.1612zm-23.195 9.9169 0.477-0.15c-0.21-0.674-0.62648-2.205-0.45948-3.282 0.169-1.09 0.807-1.958 1.38-2.449-0.556 0.477-1.401 1.169-1.861 2.313-0.465 1.154-0.25352 2.947-0.01452 3.716zm-7.5015 3.2777 0.288-0.409c-1.29-0.91-3.95-1.8077-6.857-2.3377-2.769-0.504-5.288-0.446-6.634-0.446 1.326 0 3.888 0.195 6.522 0.934 2.834 0.795 5.168 1.8027 6.392 2.6677l0.289-0.41zm114.66 7.1133-0.12 0.485c0.742 0.184 1.591 0.453 2.883 1.406 0.985 0.727 2.325 1.977 2.66 2.312-0.479-0.48-1.332-1.636-2.329-2.686-1.102-1.162-2.09-1.784-2.974-2.003zm4.4448-8.136-0.01 0.5c2.039 0.045 5.3162-0.225 8.9402-1.092 3.229-0.771 6.673-1.938 8.184-2.391-1.575 0.472-4.969 1.362-8.282 1.901-3.754 0.611-6.7462 0.628-8.8212 0.582l-0.01 0.5zm61.973 6.0283 0.108-0.488c-0.559-0.124-1.4543-0.29632-2.3393-0.81332-0.782-0.457-1.51-1.118-1.814-1.473 0.31 0.361 0.821 1.169 1.504 1.866 0.743 0.757 1.7793 1.2523 2.4343 1.3963zm-2.2833 7.8027-0.034-0.5c-0.92 0.064-2.939 0.345-4.641 1.126-0.69793 0.31178-1.3446 0.72749-1.918 1.233-0.56907 0.51535-1.045 1.1249-1.407 1.802 0.37737-0.65875 0.90079-1.2222 1.53-1.647 0.571-0.395 1.23-0.697 1.973-0.92 1.687-0.51 3.637-0.534 4.532-0.596l-0.035-0.499zm5.0236-16.459 3e-3 -0.5c-1.018-7e-3 -3.4306 0.40995-5.1566 0.87695-1.808 0.49-2.886 0.855-3.938 1.03 0.364-0.06 2.869-0.41 4.032-0.539 1.955-0.216 3.9206-0.37595 5.0556-0.36695l3e-3 -0.5zm2.6185-7.6988 0.2-0.458c-2.013-0.884-3.9361-1.5073-7.1961-3.1103-2.481-1.22-4.974-2.439-6.205-3.054 1.533 0.766 3.309 1.873 5.964 3.492 2.606 1.588 5.5191 2.9223 7.0361 3.5883l0.2-0.458zm-55.777-7.5723-0.106 0.49c1.369 0.296 3.035 0.183 5.342-0.482 2.061-0.594 4.06-1.315 5.069-1.499-1.01 0.184-3.1 0.67-5.18 1.011-2.398 0.394-3.765 0.264-5.02-8e-3l-0.105 0.49zm-4.9093 8.2937-0.11 0.488c0.75 0.168 2.2993 0.57927 3.5683 1.2273 0.772 0.394 2.452 1.38 2.671 1.517-0.519-0.324-1.429-1.158-2.399-1.937-1.07-0.858-2.8173-1.6023-3.6213-1.7833z"/>
</svg>
