<?xml version="1.0" encoding="UTF-8"?>
<svg cursor="default" version="1.1" viewBox="0 0 256 256" xmlns="http://www.w3.org/2000/svg" xmlns:xlink="http://www.w3.org/1999/xlink">
 <defs>
  <radialGradient id="radialGradient901" cx="548.02" cy="261.08" r="159.05" gradientTransform="matrix(-.0236 -.58504 .44467 -.01794 62.511 460.29)" gradientUnits="userSpaceOnUse">
   <stop stop-color="#ff2a2a" offset="0"/>
   <stop stop-color="#f55" offset="1"/>
  </radialGradient>
  <linearGradient id="linearGradient1002" x1="506.17" x2="527.1" y1="339.14" y2="128.69" gradientTransform="matrix(.72865 .022631 -.022631 .72865 -227.74 -66.191)" gradientUnits="userSpaceOnUse">
   <stop stop-color="#ff8080" offset="0"/>
   <stop stop-color="#faa" offset="1"/>
  </linearGradient>
 </defs>
 <path d="m14.463 63.097c1.655 22.27 2.954 44.53-1.08 66.622l4.36-0.26c3.505-22.842 1.244-44.43-1.514-65.911z" fill="#ff8080" fill-rule="evenodd" stroke="#000" stroke-width=".5"/>
 <path d="m13.227 61.763c-4.025 23.661-7.07 49.605-7.667 81.251l4.131 0.72201c-0.135-31.294 2.372-56.867 5.672-80.72z" fill="#faa" fill-rule="evenodd" stroke="#000" stroke-width=".5"/>
 <path d="m247.12 50.231c-3.803 13.61-6.567 28.552-6.738 46.82l4.253 0.475c-0.576-18.076 1.64-32.81 4.697-46.541z" fill="#f55" fill-rule="evenodd" stroke="#000" stroke-width=".5"/>
 <path d="m247.3 48.479c1.655 22.27 2.954 44.529-1.08 66.622l4.359-0.26c3.506-22.842 1.245-44.43-1.513-65.911z" fill="#ff8080" fill-rule="evenodd" stroke="#000" stroke-width=".5"/>
 <path d="m141.07 26.01c-19.544 14.597-41.614 9.4472-51.631 4.1395-2.2034-0.48616-14.699 2.6839-16.578 2.0734 0.296 1.562-23.186 13.259-41.674 11.23-9.25 4.111-15.07 8.8684-15.967 14.191l31.52 21.428s13.017 13.727 15.77 23.67c1.433 5.178 4.6924 18.928 6.5254 18.984 2.708-4.7 2.4663-6.6236 3.0293-9.3066 1.896 8.7 1.2858 18.383 5.7168 26.088 2.742-3.242 2.6546-8.0104 3.3496-12.357 4.522 28.49 2.1845 49.683 13.564 85.473 2.764-2.974 2.0939-6.631 2.8809-9.998 1.947 7.123 1.6862 16.668 5.8652 21.346 9.983-11.835 8.5299-19.91 12.795-29.865 3.134 6.17 4.6298 12.98 12.717 17.207 0 0 57.219-111.77 104.12-152.83 3.421-2.994 13.609-7.6797 13.609-7.6797-0.0341-7.0648-15.855-10.037-41.959-20.562-7.293 4.887-53.474 4.2196-63.65-3.2324zm-47.341 146.61-1.1222-0.99618 1.1213 14.332c-2.1074-11.101-4.3372-22.109-3.8619-35.147 1.6799 11.403 2.5084 15.958 3.8628 21.811z" fill="url(#radialGradient901)" stroke="#000" stroke-width=".5"/>
 <path d="m12.814 58.56c-4.4683-36.194 212.1-50.244 234.78-12.881l-0.24 7.706c-3.014-41.583-236.65-29.42-233.7 9.75z" fill="#ff8080" fill-rule="evenodd" stroke="#000" stroke-width=".5"/>
 <path d="m12.657 57.27c14.543 29.826 227.2 26.268 234.9-11.732l-0.012 8.248c-26.165 36.08-219.21 34.42-234.87 9.319z" fill="#faa" fill-rule="evenodd" stroke="#000" stroke-width=".5"/>
 <path d="m245.8 53.107c-5.643 4.326-10.305 6.8831-17.979 10.028-6.376 12.368-21.108 11.78-38.46 9.4271-8.0471 10.173-34.969 12.182-43.925 4.7612-12.562 1.0888-15.242 1.0333-21.062 1.1386-29.314 10.573-59.381 0.47216-69.499-3.3808-9.886-0.97071-16.04-2.4929-24.437-5.1186-0.69294 1.8007-0.91261 5.3753-1.0029 7.3478 0.8647-3.8188 1.1413-3.3281 1.8102-5.1028 9.9404 6.0524 29.619 17.898 39.17 23.152 8.337 4.585 9.9606 14.307 14.936 23.975 3.867 7.517 8.302 25.45 10.709 27.061 4.209-3.536 3.1894-6.5813 4.6934-9.8652 2.678 14.64-0.19379 30.113 8.0332 43.922l3.5273-8.8418c4.025 6.98 7.2152 13.231 12.703 30.9 3.338 10.748 5.7521 20.081 11.664 28.908 5.742-4.683 8.1088-11.185 8.6738-18.66 6.596 13.157 12.231 14.252 18.117 18.527 3.404-7.144 7.9484-12.898 8.0234-24.092 1.536 3.234 2.5316 6.63 5.5566 9.418 9.275-14.582 7.8069-39.168 11.711-58.752 0.539 4.222 0.0275 7.6955 1.9394 12.896 3.804-2.369 3.785-21.285 5.541-30.113 2.02-10.155 7.334-31.244 7.334-31.244 0.942 3.878 0.87711 8.4601 3.7871 10.955 3.19-1.693 3.5225-28.849 13.396-38.521 8.536-7.3296 25.038-25.739 25.038-28.725zm-167.47 42.011 8.3743 8.8334 3.0517 14.742c-2.4974-10.362-6.3435-18.149-11.426-23.576zm99.517 68.628 1.1465 13.133 1.498-7.1406c-0.53233 9.0762-1.8753 17.921-4.0527 26.527 1.632-9.8434 1.339-21.337 1.4082-32.52z" fill="url(#linearGradient1002)" stroke="#000" stroke-width=".5"/>
 <path d="m112.31 172.02 0.361 0.05c0.482-3.482 0.677-7.456 0.78-13.976 0.104-6.695 0.166-10.337 0.543-14.01-0.279 2.713-0.637 8.32-0.908 13.999-0.325 6.809-0.62 10.15-1.137 13.887zm33.094 40.982 0.335-0.143c-0.981-2.311-2.346-5.705-3.534-10.382-1.153-4.537-1.678-8.528-1.87-10.945 0.197 2.483 0.53 6.356 1.515 11.027 0.985 4.672 2.252 8.31 3.218 10.585l0.335-0.143zm26.155-5.494 0.357-0.075c-0.285-1.37-0.612-2.703-0.996-5.092-0.335-2.075-0.557-4.09-0.622-5.18 0.063 1.054 0.11 3.145 0.26 5.222 0.158 2.198 0.401 4.033 0.644 5.199zm17.219-48.884 0.364-0.015c-0.1-2.405-0.064-4.581 0.293-8.878 0.3-3.607 0.56-7.228 0.615-9.02-0.076 2.45-0.408 4.727-0.978 8.981-0.546 4.08-0.752 6.687-0.658 8.948zm14.713-48.647 0.361 0.045c0.361-2.888 0.534-6.118 0.747-11.235 0.21-5.089 0.383-8.193 0.74-10.905-0.278 2.11-0.737 6.432-1.104 10.883-0.367 4.45-0.828 8.943-1.106 11.167zm-102.8 26.885 0.356 0.076c0.76-3.56 1.053-7.781 0.784-14.342-0.307-7.512-0.63-9.845-0.49-14.377-0.087 2.832 0.071 8.605 0.126 14.386 0.063 6.661-0.366 10.59-1.133 14.181zm-3.096 64.946 0.365 0.015c0.103-2.565-0.09-7.603-0.063-12.422 0.03-5.386 0.556-8.892 1.427-11.735-0.893 2.918-1.554 6.234-1.791 11.726-0.21 4.832-0.2 9.859-0.302 12.401zm18.627-8.494 0.356-0.077c-0.242-1.126-0.41-2.604-0.234-5.248 0.131-1.968 0.514-4.9 0.59-5.44-0.135 0.95-0.616 3.106-0.953 5.402-0.375 2.561-0.365 4.28-0.116 5.44zm-35.107-66.924 0.365-6e-3a85.504 85.504 0 0 0-0.461-7.051 51.3 51.3 0 0 0-1.207-6.888c0.376 1.567 0.704 3.859 0.843 6.916 0.128 2.815 0.073 5.64 0.096 7.034l0.364-6e-3zm-9.023-13.583 0.364-0.027c-0.133-1.83-0.354-4.424-0.374-7.964-0.018-3.416 0.174-6.274 0.383-7.983-0.226 1.847-0.566 4.408-0.747 7.974-0.174 3.413-0.114 6.315 0.01 8.026z"/>
 <path transform="matrix(.99922 -.039482 0 1 0 0)" d="m144.31 28.616c-4.7164-0.13418-9.4631-0.20158-14.214-0.20183-65.123 3.3e-5 -117.92 12.345-117.92 27.573-0.0042 15.229 53.227 26.533 118.35 26.533 65.126-3.2e-5 117.48-11.304 117.48-26.533-2e-3 -13.943-44.513-25.691-103.7-27.372zm0.043 1.3572c58.276 1.6783 102.1 12.883 102.1 26.105-1e-3 14.441-51.542 25.03-115.66 24.937-64.115-0.09327-116.53-10.833-116.53-25.274 0.001206-14.441 51.977-26.072 116.09-25.979 4.6772 0.0067 9.3502 0.07706 13.993 0.21069z" fill="#ffd5d5" stroke="#000" stroke-linecap="square" stroke-linejoin="round" stroke-width=".5002"/>
 <path d="m16.241 68.364s2.505-3.913 2.209-6.06c-0.266-1.923-3.15-3.744-3.15-3.744-0.962 3.158-0.175 6.466 0.94 9.804z" fill="#ff8080" fill-rule="evenodd" stroke="#000" stroke-width=".5"/>
 <path d="m14.004 56.239s-2.287 4.045-1.873 6.173c0.371 1.905 3.35 3.565 3.35 3.565 0.788-3.206-0.18-6.467-1.477-9.738z" fill="#faa" fill-rule="evenodd" stroke="#000" stroke-width=".5"/>
 <path d="m247.91 54.374s-2.656-2.9-2.753-4.748c-0.086-1.654 1.976-3.625 1.976-3.625 1.28 2.503 1.16 5.4 0.777 8.372z" fill="#ff8080" fill-rule="evenodd" stroke="#000" stroke-width=".5"/>
 <path d="m247.7 45.259s2.5 3.043 2.497 4.892c-2e-3 1.656-2.167 3.507-2.167 3.507-1.146-2.57-0.872-5.455-0.33-8.4z" fill="#faa" fill-rule="evenodd" stroke="#000" stroke-width=".5"/>
 <path d="m71.65 31.198 3.8337 1.5863" fill="none" stroke="#000" stroke-linecap="square" stroke-linejoin="round" stroke-width=".5"/>
 <path d="m72.002 33.049 2.6439-2.2473" fill="none" stroke="#000" stroke-linecap="square" stroke-linejoin="round" stroke-width=".5"/>
 <path d="m85.949 28.973 3.8337 1.5863" fill="none" stroke="#000" stroke-linecap="square" stroke-linejoin="round" stroke-width=".5"/>
 <path d="m86.301 30.824 2.6439-2.2473" fill="none" stroke="#000" stroke-linecap="square" stroke-linejoin="round" stroke-width=".5"/>
 <path d="m79.163 30.074 3.8337 1.5863" fill="none" stroke="#000" stroke-linecap="square" stroke-linejoin="round" stroke-width=".5"/>
 <path d="m79.515 31.925 2.6439-2.2473" fill="none" stroke="#000" stroke-linecap="square" stroke-linejoin="round" stroke-width=".5"/>
 <path d="m139.33 25.197 3.8337 1.5863" fill="none" stroke="#000" stroke-linecap="square" stroke-linejoin="round" stroke-width=".5"/>
 <path d="m139.68 27.048 2.6439-2.2473" fill="none" stroke="#000" stroke-linecap="square" stroke-linejoin="round" stroke-width=".5"/>
 <path d="m207.61 28.929-3.8337 1.5863" fill="none" stroke="#000" stroke-linecap="square" stroke-linejoin="round" stroke-width=".5"/>
 <path d="m207.26 30.779-2.6439-2.2473" fill="none" stroke="#000" stroke-linecap="square" stroke-linejoin="round" stroke-width=".5"/>
 <path d="m213.39 29.854-3.8337 1.5863" fill="none" stroke="#000" stroke-linecap="square" stroke-linejoin="round" stroke-width=".5"/>
 <path d="m213.03 31.705-2.6439-2.2473" fill="none" stroke="#000" stroke-linecap="square" stroke-linejoin="round" stroke-width=".5"/>
 <path d="m15.849 51.798 4.0681-0.81508" fill="none" stroke="#000" stroke-linecap="square" stroke-linejoin="round" stroke-width=".5"/>
 <path d="m17.172 53.14 0.94633-3.3384" fill="none" stroke="#000" stroke-linecap="square" stroke-linejoin="round" stroke-width=".5"/>
 <path d="m21.37 47.234 4.138-0.30056" fill="none" stroke="#000" stroke-linecap="square" stroke-linejoin="round" stroke-width=".5"/>
 <path d="m22.515 48.73 1.3559-3.1941" fill="none" stroke="#000" stroke-linecap="square" stroke-linejoin="round" stroke-width=".5"/>
 <path d="m26.968 43.87 4.1392 0.28351" fill="none" stroke="#000" stroke-linecap="square" stroke-linejoin="round" stroke-width=".5"/>
 <path d="m27.892 45.513 1.791-2.972" fill="none" stroke="#000" stroke-linecap="square" stroke-linejoin="round" stroke-width=".5"/>
 <path d="m31.822 70.078 3.2381 3.4074" fill="none" stroke="#000" stroke-linecap="square" stroke-linejoin="round" stroke-width=".5"/>
 <path d="m32.053 72.903 3.2053-1.7535" fill="none" stroke="#000" stroke-linecap="square" stroke-linejoin="round" stroke-width=".5"/>
 <path d="m40.633 72.437 3.2381 2.6908" fill="none" stroke="#000" stroke-linecap="square" stroke-linejoin="round" stroke-width=".5"/>
 <path d="m40.524 74.941 3.0183-1.9404" fill="none" stroke="#000" stroke-linecap="square" stroke-linejoin="round" stroke-width=".5"/>
 <path d="m50.322 74.153 3.0823 2.9089" fill="none" stroke="#000" stroke-linecap="square" stroke-linejoin="round" stroke-width=".5"/>
 <path d="m50.057 76.439 3.2676-1.9404" fill="none" stroke="#000" stroke-linecap="square" stroke-linejoin="round" stroke-width=".5"/>
 <path d="m124.43 78.078 3.4678 2.0261" fill="none" stroke="#000" stroke-linecap="square" stroke-linejoin="round" stroke-width=".5"/>
 <path d="m124.4 80.017 2.8565-1.9701" fill="none" stroke="#000" stroke-linecap="square" stroke-linejoin="round" stroke-width=".5"/>
 <path d="m132.16 77.744 4.2779 1.9638" fill="none" stroke="#000" stroke-linecap="square" stroke-linejoin="round" stroke-width=".5"/>
 <path d="m132.64 79.839 3.1681-2.1882" fill="none" stroke="#000" stroke-linecap="square" stroke-linejoin="round" stroke-width=".5"/>
 <path d="m141.34 77.259 3.6547 1.9638" fill="none" stroke="#000" stroke-linecap="square" stroke-linejoin="round" stroke-width=".5"/>
 <path d="m141.44 79.323 2.9811-2.4375" fill="none" stroke="#000" stroke-linecap="square" stroke-linejoin="round" stroke-width=".5"/>
 <path d="m187.63 72.622 4.7188 2.4787" fill="none" stroke="#000" stroke-linecap="square" stroke-linejoin="round" stroke-width=".5"/>
 <path d="m188.26 75.43 4.0702-3.4308" fill="none" stroke="#000" stroke-linecap="square" stroke-linejoin="round" stroke-width=".5"/>
 <path d="m227.53 62.734 3.698 2.0007" fill="none" stroke="#000" stroke-linecap="square" stroke-linejoin="round" stroke-width=".5"/>
 <path d="m227.55 65.936 2.8661-4.0809" fill="none" stroke="#000" stroke-linecap="square" stroke-linejoin="round" stroke-width=".5"/>
 <path d="m235.5 59.298 3.9545 1.4281" fill="none" stroke="#000" stroke-linecap="square" stroke-linejoin="round" stroke-width=".5"/>
 <path d="m236 62.461 2.2269-4.462" fill="none" stroke="#000" stroke-linecap="square" stroke-linejoin="round" stroke-width=".5"/>
 <path d="m241.89 55.497 3.7364-0.06748" fill="none" stroke="#000" stroke-linecap="square" stroke-linejoin="round" stroke-width=".5"/>
 <path d="m242.73 57.631 1.9776-4.0258" fill="none" stroke="#000" stroke-linecap="square" stroke-linejoin="round" stroke-width=".5"/>
</svg>
