<?xml version="1.0" encoding="UTF-8"?>
<svg version="1.1" viewBox="0 0 64 64" xml:space="preserve" xmlns="http://www.w3.org/2000/svg"><path d="m12.556 49.841c-5.4572-3.0854-7.1327-9.0133-7.0463-14.669 0.10562-6.9141 3.8771-10.953 3.8736-12.563-0.0011-0.51693-2.383-1.9031-3.0037-4.4944-0.73404-3.0644 0.91678-8.3099 2.2987-8.3722 0.54822-0.02469 3.375 5.5809 7.3148 5.9924 3.2995 0.34457 7.1938-2.8114 16.007-3.1727 8.8128 0.36131 12.707 3.5173 16.007 3.1727 3.9398-0.41144 6.7666-6.0171 7.3148-5.9924 1.3819 0.06224 3.0327 5.3078 2.2987 8.3722-0.62069 2.5912-3.0027 3.9774-3.0037 4.4944-4e-3 1.6099 3.768 5.6487 3.8736 12.563 0.0864 5.6561-1.87 11.721-7.0463 14.669-9.8223 5.5939-27.964 6.1757-38.887 0z" fill="#ff8080" stroke="#000" stroke-linecap="square" stroke-linejoin="round" stroke-width=".4"/><path d="m13.523 41.485c-2.4149-3.1492-5.2833-10.135-1.6055-16.012 1.1956-1.9104 1.5219-3.111-0.35252-4.3624-1.9474-1.3002-1.8677-3.2301-2.2914-4.9794-0.21612-0.89229 0.49565-1.2252 1.1016-0.52878 1.2461 1.4321 3.3751 3.6047 4.0625 3.6627 6.502 0.54892 15.713 4.107 17.441 12.906 0.2689 1.3688 1.236 1.3107 1.4839 0.02429 1.697-8.8049 10.939-12.357 17.441-12.906 0.68739-0.05803 2.8164-2.2307 4.0625-3.6627 0.60598-0.69644 1.3178-0.36351 1.1016 0.52878-0.4237 1.7493-0.34397 3.6792-2.2914 4.9794-1.8744 1.2514-1.5481 2.4521-0.35252 4.3624 3.6778 5.8767 0.80937 12.862-1.6055 16.012-3.787 4.9385-16.316 11.107-19.098 11.094-2.7827-0.01215-15.311-6.1803-19.098-11.119z" fill="#ffd5d5" stroke="#000" stroke-linecap="square" stroke-linejoin="round" stroke-width=".4"/><path d="m27.032 33.317c2.0331 3.393 2.9647 6.7887 4.4506 10.179 0.62315 1.4218 1.5593 1.2693 2.1151 0 2.2688-5.1809 3.0846-7.2267 4.6268-10.84l0.50674-4.1642c-2.2556 4.0392-3.6976 8.1801-5.5302 12.272-0.18809 0.86531-1.0023 0.92497-1.322 0.04406l-4.6709-11.545z" fill="#ff8080" stroke="#000" stroke-linecap="square" stroke-linejoin="round" stroke-width=".4"/><circle cx="21.739" cy="31.461" r="5.9022" fill="#ff8080" stroke="#000" stroke-linecap="square" stroke-linejoin="round" stroke-width=".4"/><circle cx="21.739" cy="31.461" r="4.3027" fill="#faa" stroke="#000" stroke-linecap="square" stroke-linejoin="round" stroke-width=".4"/><circle cx="21.739" cy="31.461" r="3.4852" fill="#f55" stroke="#000" stroke-linecap="square" stroke-linejoin="round" stroke-width=".4"/><circle cx="43.684" cy="31.638" r="5.9022" fill="#ff8080" stroke="#000" stroke-linecap="square" stroke-linejoin="round" stroke-width=".4"/><circle cx="43.684" cy="31.638" r="4.3027" fill="#faa" stroke="#000" stroke-linecap="square" stroke-linejoin="round" stroke-width=".4"/><circle cx="43.684" cy="31.638" r="3.4852" fill="#f55" stroke="#000" stroke-linecap="square" stroke-linejoin="round" stroke-width=".4"/></svg>
