<?xml version="1.0" encoding="UTF-8"?>
<svg version="1.1" viewBox="0 0 64 64" xmlns="http://www.w3.org/2000/svg" xmlns:xlink="http://www.w3.org/1999/xlink">
 <g transform="matrix(.95099 0 0 .95099 1.5683 1.5671)" fill="#ff8080" stroke="#000" stroke-linecap="round" stroke-linejoin="round">
  <path transform="rotate(45.126)" d="m50.292 7.5853v11.29c0 0.3969-0.37863 0.71642-0.84894 0.71642h-8.3976c-0.47031 0-0.84894-0.31952-0.84894-0.71642v-11.455s10.018 0.34579 10.095 0.16498z"/>
  <path d="m9.1887 62.234 7.5647-7.7795-0.38897-7.1175-7.1146-0.31123-7.6015 7.5681a12.014 12.014 0 0 1 2.919-12.249 12.014 12.014 0 0 1 16.99 0.03744 12.014 12.014 0 0 1-0.03744 16.99 12.014 12.014 0 0 1-12.331 2.862z" stroke-width=".97163"/>
  <path d="m33.835 23.035 8.0005-7.9653c0.28126-0.28003 0.77484-0.23715 1.1067 0.09614l5.9249 5.951c0.33183 0.33329 0.37253 0.82705 0.09126 1.1071l-8.1174 8.0817c-0.0688-0.02029-7.0059-7.2707-7.0059-7.2707z"/>
  <path d="m62.334 9.3222-7.8127 7.5303-7.1157-0.42034-0.27987-7.1159 7.6015-7.5681a12.014 12.014 0 0 0-12.262 2.8649 12.014 12.014 0 0 0-0.03744 16.99 12.014 12.014 0 0 0 16.99 0.03744 12.014 12.014 0 0 0 2.9164-12.318z" stroke-width=".97163"/>
 </g>
 <g transform="matrix(0 .95099 -.95099 0 62.432 1.5671)" fill="#ff8080" stroke="#000" stroke-linecap="round" stroke-linejoin="round">
  <rect transform="rotate(45.126)" x="40.377" y="-17.704" width="9.9147" height="37.296" rx=".84894" ry=".71642"/>
  <path d="m9.1887 62.234 7.5647-7.7795-0.38897-7.1175-7.1146-0.31123-7.6015 7.5681a12.014 12.014 0 0 1 2.919-12.249 12.014 12.014 0 0 1 16.99 0.03744 12.014 12.014 0 0 1-0.03744 16.99 12.014 12.014 0 0 1-12.331 2.862z" stroke-width=".97163"/>
 </g>
 <path d="m53.329 38.968c-0.90699-0.27313-1.8617-0.43754-2.8519-0.47789-6.3372-0.25752-11.685 4.6705-11.943 11.008-0.25752 6.3372 4.6705 11.685 11.008 11.943 6.3372 0.25752 11.685-4.6705 11.943-11.008 0.21728-5.347-3.2581-9.9904-8.1558-11.465zm-4.9585 3.6092 7.2169 2.2757 1.6388 7.3884-5.5781 5.1127-7.2169-2.2757-1.6388-7.3884z" fill="#ff8080" stroke="#000" stroke-linecap="round" stroke-linejoin="round" stroke-width=".80489"/>
</svg>
