<?xml version="1.0" encoding="UTF-8"?>
<svg version="1.1" viewBox="0 0 64 64" xmlns="http://www.w3.org/2000/svg">
 <g transform="translate(-49.693 -.25696)" stroke="#000" stroke-width=".24172">
  <path d="m73.84 6.2365c6.1903 13.602 16.12 2.7754 15.627-0.27484z" fill="#f55" fill-rule="evenodd"/>
  <path d="m74.023 4.9009 0.39692-0.26711c4.7729 1.4155 10.668 1.7353 14.223-0.18298l1.2362 0.61035c0.43994 0.23593-0.39692 0.83878-1.0177 1.4313-2.6196 1.0774-10.251 1.5864-14.635-0.02538-0.43028-0.35945-0.10152-0.77594-0.20377-1.5661z" fill="#ff8080" fill-rule="evenodd"/>
  <path d="m97.265 60.077c-3.8467-0.03867-5.7444 0.05463-9.2484-0.08219-2.569-0.09983-5.9548-0.39232-9.09-0.48006-3.9843-0.11168-7.8638 0.01306-12.428 0.2572 0.54895-10.825 0.46797-21.636 0.36621-32.153-2.1537 1.138-3.1637 2.2988-5.5549 3.3392-3.0309-3.341-5.6188-5.5012-8.4241-8.2411 6.3598-6.923 7.9356-8.4241 11.903-12.636 3.5402-2.3137 5.8039-3.3039 8.5365-4.8109 3.425 11.072 13.474 9.1348 16.592-0.34494 4.2116 1.6065 6.0436 3.0367 8.9345 4.5453 4.28 4.7626 7.7814 8.5969 11.66 12.88-2.4213 3.0727-5.3309 5.6568-7.9967 8.4851-2.3036-0.73169-3.3447-2.41-4.9699-4.0475-0.40683 10.347-0.16582 23.014-0.28017 33.287z" fill="#ff8080"/>
  <path d="m72.889 5.5038c3.2188 11.637 15.775 9.064 17.324-0.48321l-1.2981-0.45034c-1.0648 9.5374-12.837 10.852-14.913 0.34131z" fill="#ff8080" fill-rule="evenodd"/>
  <path d="m66.852 27.77c0.06043-1.8758 0.08944-3.9272 0.15229-5.9286" fill="#ff8080"/>
  <path d="m97.537 26.999c0.07131-2.2637-0.16123-3.4849-0.24172-5.2274" fill="#ff8080"/>
 </g>
</svg>
