<?xml version="1.0" encoding="UTF-8"?>
<svg cursor="default" version="1.1" viewBox="0 0 256 256" xml:space="preserve" xmlns="http://www.w3.org/2000/svg"><g><path d="m126.1 67.06c0.19061-8.431-4.9556-16.616-8.0137-24.941-1.889-5.1422-1.3316-11.731-2.0034-17.663-0.11536-1.0186-0.79966-1.839-0.57242-2.9847 1.9888-10.027 10.979-10.778 20.034-11.407 4.1933-0.29122 6.8707 0.56922 9.6421 1.9895 0.30119 0.15435 0.27101 0.43741 0.56321 0.60283 0.29761 0.16849 0.91741 0.21953 1.2047 0.39735 3.4645 2.1441 6.1457 4.8881 7.1932 6.3324 5.1393-0.28368 5.3006 3.4259 3.1546 5.4218-1.7807 1.6561-2.2658 3.2577-3.3591 5.2905-0.37249 7.8196-2.1826 14.605-1.8159 22.479 1.0292 22.103 1.3969 48.519 4.8006 56.493 3.4777 0.95046 5.9951 4.8879 3.5571 9.9559-0.89541 14.982-3.465 28.636 0.22177 46.481 0.58926 0.87721 0.67135 2.363 0.49149 4.1632 0.27661 1.4727 0.22509 1.7888 0.42194 3.3155 1.2902 0.1112 2.1667 1.2854 0.93691 4.0279 0.08 1.5446 0.0855 2.0446 0.11565 2.8911 0.5488 0.33741 0.67192 0.75996 0.67983 1.2056-0.0271 3.0432-0.41237 5.7281-0.0479 9.1628 0.9009 8.4898 4.3435 16.568 7.6366 24.267 2.5003 5.8459 7.4791 11.039 5.4931 14.513h-4e-5c-3.8907 6.8056-15.853 8.6713-23.245 8.442-4.8816-0.15141-7.1643 0.59208-9.5985 1.619-18.868 7.9602-40.472 9.0204-50.768 3.1224-4.063 0.0498-8.3973-2.2293-10.581-5.2618-7.8315-10.874 1.0506-25.427 4.6836-29.085 5.1665-5.2008 15.772-6.7071 22.84-10.871 7.4562-4.3923 8.8431-19.221 8.3842-28.795-0.0391-0.81589 1.6078-2.4092 3.1761-3.9376 4e-3 -8.9123 2.4167-11.836 2.0332-21.678-0.23021-5.9069-0.79684-11.01-1.3002-17.34-2.0072-3.0142-0.28811-10.135 2.671-11.682 0.41568-15.455 1.0116-30.689 1.3697-46.529z" fill="none" stroke="#000" stroke-width=".6561"/><path d="m121.42 164.18c0.57909-0.5689 1.1379-1.1244 1.5822-1.6214 0.57096-0.63885 0.919-0.27129 1.1888 0.0986 7.5879 10.404 28.543 15.643 37.436 11.235 0.0952-0.24586 0.0584-0.45389-9e-3 -1.0159" fill="none" stroke="#000" stroke-width=".6561"/><g><path d="m154.23 19.284-0.18035-0.31891c-3.0947 1.7501-6.8749 3.6243-12.903 5.7897-4.4979 1.6157-11.692 3.8181-13.534 4.3828 2.7138-0.83224 8.2298-2.2833 13.652-4.0361 6.0051-1.9413 10.103-3.778 13.146-5.4986l-0.18035-0.31891z"/><path d="m157.46 24.497s-0.2424-0.27472-0.2424-0.27472c-2.4131 2.1292-5.9691 4.594-11.658 6.412-5.2538 1.6789-10.619 2.2255-13.326 2.408 2.7066-0.18247 8.0813-0.54388 13.432-2.0572 5.7668-1.631 9.5688-4.0352 12.037-6.2134 0 0-0.2424-0.27472-0.2424-0.27472z"/><path d="m120.37 37.417c-0.19926-0.91761-0.30129-2.2765-0.17735-3.5898 0.0702-0.74428 0.1851-1.2693 0.24725-1.6391 0.0572-0.34017 0.13456-0.80031 0.27812-1.3576 0.23126-0.8977 0.57934-1.8323 1.1153-2.875 0.6152-1.1968 1.4502-2.2513 1.9417-2.9066-0.48002 0.64003-1.4171 1.6436-2.1508 2.786-0.63952 0.99585-1.1077 1.9193-1.4305 2.8354-0.19975 0.5669-0.31617 1.0559-0.37621 1.4132-0.0625 0.37195-0.10168 0.98341-0.0588 1.7362 0.0833 1.4598 0.39289 2.5918 0.61122 3.5973z"/><path d="m145.79 12.659 0.15501-0.33197c-0.36766-0.17168-0.89366-0.34362-1.6242-0.45119-0.55462-0.08167-1.2087-0.12322-1.9535-0.10356-1.3059 0.03446-2.8127 0.25684-4.2846 0.70386-0.71132 0.21603-1.3896 0.47728-2.0113 0.77942-0.65294 0.31734-1.2234 0.66998-1.7034 1.0488-0.53973 0.42596-0.94069 0.86552-1.2285 1.3019-0.37797 0.57308-0.53523 1.1014-0.60165 1.533 0.0666-0.43307 0.24323-0.95512 0.64377-1.5037 0.30441-0.41694 0.72227-0.82743 1.2729-1.2152 0.48982-0.34493 1.0669-0.65915 1.7213-0.9346 0.62324-0.26234 1.2994-0.48218 2.0042-0.65638 1.4615-0.36122 2.9327-0.49963 4.1882-0.46899 0.71525 0.01745 1.329 0.08834 1.8386 0.18735 0.66968 0.13011 1.1244 0.30137 1.4282 0.44326l0.15501-0.33197z"/></g><path d="m125.23 24.913c-0.78237-4.666 3.4061-8.6337 7.4012-7.6904 2.6572 0.99756 0.55012 5.6025-7.4012 7.6904z" fill="none" stroke="#000" stroke-width=".6561"/><path d="m128.27 20.518c0.10481-0.22998 0.39664-0.51219 0.75125-0.72727 0.30446-0.18467 0.61307-0.29656 0.7467-0.39039 0.0245-0.01723 0.0517-0.03906 0.0813-0.06461 0.44177-0.38078 1.0611-1.0245 1.5432-1.2174-0.34866 0.13947-1.5262 0.26548-2.0091 0.52024-0.0408 0.02153-0.0763 0.04285-0.10566 0.06346-0.16651 0.11691-0.40519 0.41703-0.59577 0.78015-0.20619 0.39286-0.31983 0.83373-0.41191 1.0358z"/><path d="m156.83 109.04c1.2234 0.34968 1.4539 3.5372 0.0289 4.568-3.5364 2.5579-24.296 7.0181-32.323 3.4404-1.0826-0.48256-0.71956-2.6106 0.28915-3.6139" fill="none" stroke="#000" stroke-width=".6561"/><g><path d="m93.006 242.42 0.41733-0.0884c-0.68554-3.2346-1.4489-8.192-0.64235-13.387 0.61403-3.955 2.1033-7.8657 4.9392-11.408 0.60706-0.76007 1.3369-1.4884 2.1571-2.1903 0.82868-0.7092 1.7451-1.3876 2.7096-2.0392 1.9895-1.3441 4.2429-2.6108 6.2825-3.7435 2.4302-1.3497 4.3368-2.3933 6.1176-3.5311 0.99417-0.63517 1.8162-1.2183 2.5073-1.7762 0.84932-0.68557 1.447-1.2902 1.8831-1.829-0.43599 0.53872-1.0391 1.1392-1.895 1.8141-0.69644 0.54914-1.5258 1.1209-2.5272 1.7406-1.7893 1.1073-3.7196 2.1262-6.1664 3.4337-2.0551 1.0982-4.3396 2.3319-6.3644 3.6461-0.98263 0.63779-1.9227 1.3058-2.7785 2.0086-0.84671 0.69541-1.6112 1.4252-2.2561 2.1962-2.963 3.5504-4.5782 7.5166-5.2846 11.566-0.92632 5.3102-0.21315 10.389 0.48331 13.675l0.41733-0.0884z"/><path d="m146.43 237.88s0.28627 0.31628 0.28627 0.31628c1.774-1.6056 3.8995-4.0909 5.1758-7.5587 0.95083-2.5835 1.311-5.3997 0.98745-8.2937-0.32277-2.8872-1.2936-5.567-2.6535-7.8962-1.8191-3.1156-4.0864-5.202-5.7586-6.4966 1.674 1.296 3.8941 3.4368 5.6119 6.5794 1.2846 2.35 2.1515 5.0213 2.3755 7.8539 0.22437 2.8371-0.21836 5.5509-1.2021 8.0078-1.3202 3.2973-3.4024 5.6268-5.1091 7.1715 0 0 0.28627 0.31628 0.28627 0.31628z"/><path d="m150.59 185.57c-1.2336 0.18777-3.0923 0.35789-5.0591 0.30149-1.9963-0.0572-3.5638-0.32531-4.8174-0.62418-0.41383-0.0987-0.76007-0.19252-1.0226-0.2626-0.74738-0.19953-1.6726-0.48763-2.7005-0.93518-1.0411-0.45329-2.1107-1.0361-3.22-1.8062-2.0028-1.3905-3.7899-3.1504-5.6171-5.2004-2.2314-2.5036-4.3248-5.1091-5.6071-6.6223 1.2824 1.5132 3.3009 4.1707 5.4524 6.7556 1.7565 2.1103 3.4963 3.968 5.4884 5.4599 1.1066 0.82875 2.1889 1.4673 3.2542 1.9652 1.0509 0.49118 2.0076 0.80825 2.7811 1.0148 0.27256 0.0728 0.6337 0.15502 1.0665 0.23195 1.3033 0.23164 2.9396 0.36261 4.9438 0.27704 2.0255-0.0865 3.7818-0.36079 5.0573-0.55494z"/><path d="m156.08 181.29c-1.1911 0.11922-3.0262 0.14121-5.1959-0.0864-2.1781-0.22853-3.8949-0.61075-5.0273-0.82867-0.68466-0.13176-1.559-0.299-2.6802-0.55079-4.4246-0.99366-9.7649-2.7604-12.481-3.7381 2.9061 1.0462 7.7079 3.0821 12.331 4.3399 1.1035 0.30019 2.0195 0.50825 2.6969 0.63861 1.0851 0.20882 2.9928 0.44795 5.1383 0.48954 2.2912 0.0444 3.9419-0.13633 5.2176-0.26401z"/><path d="m136.19 175.97c0.96232 0.34479 3.8357 1.5637 4.8443 1.8326 1.6417 0.43779 4.4476 1.0627 7.7063 1.3454 5.594 0.48535 9.6856-0.25299 12.66-1.0964-2.9305 0.83102-7.1558 1.3738-12.619 0.70266-3.2282-0.3966-5.9561-1.0995-7.5918-1.5357-0.99801-0.26613-4.0377-0.9038-5-1.2486z"/><path d="m152.89 175.4s0.31573-0.0839 0.31573-0.0839c-0.84787-3.1923-1.6879-7.4676-1.8894-13.087-0.15017-4.1879 0.0717-8.4832 0.5556-13.09 0.53652-5.1071 1.4094-10.603 2.0765-15.05 0.75344-5.0226 1.1506-8.0504 1.4765-11.106-0.3146 2.9493-0.77488 6.1838-1.5773 11.09-0.724 4.4263-1.6846 9.9306-2.3003 15.029-0.55618 4.6063-0.84749 8.9224-0.75513 13.141 0.12386 5.6573 0.92519 10.014 1.782 13.24 0 0 0.31573-0.0839 0.31573-0.0839z"/><path d="m158.86 174.71 0.31819-0.074c-1.0916-4.6961-2.5076-11.943-2.8528-21.203-0.34217-9.1786 0.51729-16.689 1.308-21.368-0.79877 4.7261-1.8046 12.116-1.6346 21.377 0.16964 9.2399 1.4553 16.663 2.543 21.342l0.31819-0.074z"/><path d="m127.86 184.62c0.15318 1.1011 0.14802 2.5851-0.11993 4.1467-0.094 0.54767-0.19664 0.98214-0.26145 1.2758-0.13084 0.59285-0.33098 1.4045-0.69084 2.386-0.98586 2.6888-2.5921 4.9685-3.5847 6.2038 1.0085-1.255 2.7314-3.3761 3.8584-6.097 0.40462-0.97687 0.64136-1.8127 0.77408-2.414 0.0653-0.29603 0.14279-0.75707 0.19454-1.3164 0.15563-1.6822-8e-3 -3.0193-0.17001-4.1848z"/><path d="m147.24 196.09c-0.49567 0.50525-1.8649 1.7098-2.1871 2.1187-0.091 0.11555-0.19131 0.24805-0.29451 0.3927-0.23878 0.33469-0.49032 0.72977-0.70282 1.1621-0.17571 0.35746-0.31986 0.72985-0.42131 1.1241-0.0951 0.36952-0.14913 0.74416-0.1646 1.1351-0.0156 0.39491 9e-3 0.79402 0.0621 1.2031 0.13317 1.0176 0.46792 2.162 0.67509 2.8926-0.21014-0.74103-0.49203-1.8802-0.56253-2.9038-0.028-0.40683-0.0245-0.7973 0.0179-1.1774 0.0419-0.37565 0.12036-0.72895 0.235-1.0721 0.12222-0.36589 0.28192-0.70909 0.46771-1.0387 0.22506-0.39925 0.48217-0.76678 0.7212-1.085 0.10312-0.13729 0.20244-0.26476 0.29095-0.37709 0.31357-0.39792 1.3672-1.8689 1.8629-2.3742z"/><path d="m104.68 205.86c1.0847-0.89087 2.7154-2.3254 4.2691-4.0416 1.2058-1.3319 2.296-2.752 3.2384-4.3076 1.0039-1.657 1.7254-3.2783 2.2711-4.8468 0.4067-1.1689 0.68218-2.2134 0.87599-3.0082 0.12584-0.51605 0.76142-2.0779 0.85197-2.6459-0.0905 0.568-0.10758 2.2694-0.236 2.7961-0.19744 0.80968-0.5029 1.8744-0.95454 3.0544-0.60691 1.5858-1.4107 3.2095-2.4986 4.8472-1.0207 1.5366-2.1817 2.9211-3.4405 4.2122-1.6212 1.6629-3.3022 3.0574-4.377 3.9402z"/><path d="m160.76 165.5c-0.0124 9e-3 -0.205-0.1754-0.2171-0.16656-0.6319 0.46161-1.5253 1.0209-2.8326 1.505-0.99746 0.36941-2.0888 0.64162-3.2987 0.8452-2.2385 0.37668-6.1627 0.5959-6.9508 0.64964 1.3454-0.0917 4.1966-0.0524 6.9885-0.3876 1.2282-0.14747 2.3567-0.37079 3.3995-0.70602 1.3676-0.43966 2.3375-0.99477 3.0041-1.4817 0.0128-9e-3 -0.10541-0.24877-0.093-0.25797z"/><path d="m161.24 169.29c-0.0124 9e-3 -0.205-0.1754-0.2171-0.16656-0.6319 0.46161-1.5253 1.0209-2.8325 1.505-0.99746 0.36941-2.0888 0.64162-3.2987 0.8452-2.2385 0.37668-6.1627 0.59589-6.9508 0.64963 1.3454-0.0917 4.1966-0.0524 6.9885-0.38759 1.2282-0.14747 2.3567-0.37079 3.3995-0.70602 1.3676-0.43966 2.3375-0.99477 3.0041-1.4817 0.0128-9e-3 -0.10541-0.24877-0.093-0.25797z"/></g><g fill="#fff" fill-opacity=".5"><g><path d="m123.24 116.77c-0.0664 0.1961-0.11457 0.41604-0.11055 0.64954 3e-3 0.19075 0.0414 0.3902 0.13201 0.59382 0.0803 0.18051 0.20094 0.36198 0.37116 0.54133 0.15691 0.16535 0.35394 0.32673 0.59553 0.48227 0.44983 0.28962 1.0423 0.55132 1.7844 0.77826 0.70449 0.21544 1.5261 0.39408 2.4506 0.53484 1.8888 0.28755 4.0912 0.39957 6.3352 0.38061 2.8005-0.0237 5.4022-0.24719 7.3214-0.48534 0.38972-0.0484 0.74824-0.0969 1.0715-0.14385 1.4798-0.21489 3.7134-0.61706 6.1-1.2495 2.0923-0.5544 4.1804-1.254 5.9096-2.0911 0.82576-0.39974 1.5438-0.81839 2.1365-1.2527 0.61977-0.45412 1.0841-0.91182 1.3999-1.3681 0.16891-0.24408 0.29247-0.48365 0.37585-0.71778 0.0904-0.25368 0.13222-0.4972 0.13621-0.72966 5e-3 -0.26258-0.0393-0.50795-0.11273-0.73512-0.0906-0.28033-0.22566-0.53143-0.36641-0.74806 0.1411 0.21718 0.2686 0.47191 0.34435 0.75458 0.0614 0.22895 0.0876 0.47164 0.0636 0.72466-0.0212 0.22358-0.0813 0.45196-0.18743 0.68407-0.0979 0.21416-0.23431 0.42988-0.41319 0.64675-0.33419 0.40517-0.81015 0.8063-1.4362 1.2007-0.59927 0.37747-1.32 0.73855-2.1468 1.0813-1.734 0.71879-3.8095 1.3058-5.8935 1.7712-2.3812 0.53186-4.5798 0.86319-6.048 1.0764-0.31907 0.0463-0.67277 0.0969-1.0569 0.14964-1.905 0.26152-4.4407 0.55833-7.2182 0.68843-2.2167 0.10384-4.3879 0.0904-6.2575-0.0938-0.91418-0.0901-1.7268-0.21811-2.4249-0.38372-0.73523-0.1744-1.3242-0.38582-1.7756-0.62828-0.24245-0.13023-0.44265-0.26801-0.60478-0.41191-0.17577-0.15603-0.30565-0.31823-0.39665-0.48435-0.10286-0.18777-0.15486-0.37839-0.16878-0.56652-0.0171-0.23072 0.0236-0.45177 0.0902-0.64862z"/><path d="m162.04 175.28c-2.3624 0.90467-5.8173 1.6514-10.038 1.4436-2.3157-0.114-4.226-0.47642-5.4399-0.70895-1.1267-0.21581-2.666-0.5458-4.5472-1.1166-3.414-1.0358-6.9755-2.57-10.625-4.645-3.5098-1.9954-6.3249-4.0564-7.9168-5.3233 1.6043 1.2768 4.3166 3.4147 7.7763 5.5598 3.576 2.2173 7.1174 3.9261 10.546 5.0906 1.8879 0.64115 3.4642 1.0218 4.6119 1.2416 1.228 0.23522 3.2365 0.49633 5.5849 0.4628 4.3842-0.0626 7.6322-1.0796 10.048-2.0047z"/><path d="m154.55 182.7c-1.6535 0.2684-4.1556 0.4482-6.9996 0.19069-2.8547-0.25848-5.1774-0.86529-6.9603-1.4089-0.37842-0.11539-0.71641-0.22276-0.98887-0.30776-1.3972-0.43585-3.1378-0.92936-5.5143-1.9676-2.1977-0.96007-4.0462-2.0214-5.0365-2.7056 1.0708 0.73976 2.6089 1.906 4.8001 3.1728 2.1581 1.2476 4.1248 2.0902 5.4388 2.5001 0.28369 0.0885 0.6307 0.18682 1.029 0.28697 1.8498 0.46511 4.3233 0.85673 7.211 0.8721 2.9551 0.0157 5.3102-0.35526 7.0207-0.63291z"/><path d="m160.61 167.15c-0.0136 0.0115-0.0659-6e-3 -0.13623-0.0407-0.0531-0.026-0.11607-0.0604-0.18401-0.096-0.14558-0.0764-0.30767-0.15362-0.40988-0.16167-0.0228-2e-3 -0.0418 8e-5 -0.0558 6e-3 -0.15559 0.071-0.3984 0.19541-0.76851 0.36574-0.57861 0.26629-1.4497 0.63468-2.5763 1.0056-1.0492 0.34546-2.1885 0.64885-3.3197 0.85025-1.5078 0.26844-2.6749 0.29643-3.4526 0.21202 0.81625 0.0886 1.8957 0.18365 3.4883 0.0944 1.1677-0.0655 2.3507-0.21763 3.4702-0.41859 1.1794-0.2117 2.1659-0.45548 2.7997-0.64081 0.4164-0.12175 0.70523-0.22481 0.88821-0.30826 0.0166-8e-3 0.0337-0.0223 0.0506-0.0426 0.0766-0.0918 0.14092-0.27905 0.17147-0.45589 0.0144-0.0834 0.0206-0.15717 0.023-0.22103 3e-3 -0.0827-2e-3 -0.13742 0.0117-0.14891z"/><path d="m155.9 174.39c-0.30883-0.72697-0.64148-1.9831-0.88417-3.9111-0.18497-1.4694-0.29856-3.1652-0.3514-5.0554-0.0935-3.3449 0.0401-6.956 0.039-8.8916-5.1e-4 -0.85197-0.0149-1.9685-0.0224-3.2788-0.0214-3.7884 0.0303-8.1082 0.3281-12.762 0.13687-2.139 0.30962-4.0684 0.50521-5.7414 0.26075-2.2303 0.54232-3.8338 0.78497-4.833-0.25742 1.06-0.64111 2.5108-1.1161 4.779-0.3483 1.6632-0.70105 3.5605-1.0358 5.7004-0.70867 4.5295-1.1694 9.0868-1.3647 12.812-0.0697 1.3284-0.1002 2.4575-0.0997 3.3247 1e-3 2.0328 0.24647 5.5672 0.79133 9.0016 0.30227 1.9053 0.66358 3.5872 1.0673 5.0397 0.54009 1.943 1.0344 3.053 1.3584 3.8156z"/><path d="m154.66 111.42c-0.17139-0.40346-0.38341-1.0502-0.62389-2.1066-0.182-0.79955-0.37357-1.8038-0.5725-3.0584-0.35724-2.2531-0.70329-5.0934-1.031-8.439-0.6315-6.4468-1.0001-12.66-1.2698-16.755-0.0998-1.5157-0.22957-3.4557-0.36859-5.7416-0.4163-6.8457-0.81478-15.249-0.86344-23.018-0.0227-3.6211 0.0352-6.6566 0.16146-9.0969 0.0725-1.4008 0.16457-2.5487 0.26817-3.488 0.13463-1.2206 0.28383-2.0439 0.42014-2.6052-0.13663 0.56266-0.30498 1.3788-0.47448 2.5985-0.1304 0.93832-0.25697 2.0828-0.3706 3.4844-0.19815 2.4441-0.34083 5.4739-0.41017 9.1047-0.14717 7.706 0.0688 16.279 0.38547 23.068 0.10661 2.2856 0.21867 4.2431 0.31828 5.7556 0.25629 3.8913 0.83737 10.531 1.66 16.757 0.4419 3.3443 0.90003 6.17 1.3571 8.4159 0.25439 1.25 0.49297 2.2447 0.71258 3.0386 0.29035 1.0497 0.5292 1.682 0.70131 2.0871z"/><path d="m156.31 20.982c-0.41421 0.21643-1.1577 0.67653-2.2132 1.2735-0.8399 0.47502-1.7902 0.99087-2.8408 1.5291-1.5123 0.7748-3.018 1.4838-3.9254 1.8414-0.73555 0.28983-1.8125 0.67761-3.1018 1.1112-2.281 0.76706-4.9619 1.5897-7.5172 2.278-1.2775 0.34409-2.4031 0.62246-3.4013 0.85066-1.3828 0.31613-2.22 0.46944-2.8934 0.60794 0.61493-0.12647 1.5528-0.38059 2.8412-0.79772 0.96462-0.31232 2.0684-0.6973 3.2975-1.151 2.5188-0.92967 5.01-1.9406 7.2667-2.8739 1.2444-0.5147 2.3027-0.95766 3.0282-1.2435 0.85226-0.33582 2.5174-0.89394 4.0664-1.4221 1.105-0.37678 2.1322-0.73096 3.0303-1.0553 1.1485-0.41478 1.9468-0.7308 2.3627-0.94813z"/><path d="m131.62 16.323c-0.83787-0.23233-2.0345-0.18297-3.1121 0.28405-0.62102 0.26913-1.0322 0.58883-1.3118 0.76517-0.23525 0.1484-0.56324 0.35178-0.93231 0.65905-0.63387 0.52775-1.2568 1.2569-1.7317 2.2355-0.56525 1.1649-0.73545 2.3166-0.71812 3.0527-0.0176-0.74601-0.0508-1.8744 0.31988-3.2024 0.30738-1.1013 0.81742-2.0438 1.4544-2.7703 0.37066-0.4228 0.7377-0.71823 1.0246-0.8992 0.33665-0.21236 0.94589-0.45476 1.7084-0.55019 1.3843-0.17325 2.4379 0.18689 3.2988 0.42561z"/></g><path d="m98.025 236.37c0.26506-2.167 1.0137-4.8963 2.493-7.4682 1.1058-1.9225 2.4691-3.513 4.0363-4.8894 1.5379-1.3508 3.1887-2.4218 4.7357-3.3514 2.2281-1.3389 3.6283-2.0629 4.9609-3.0091 0.0398-0.0281 0.0789-0.0563 0.11721-0.0844 0.48337-0.35537 1.1364-0.92951 1.9976-1.7631 0.69405-0.67176 1.5314-1.5204 2.4738-2.5136 1.6338-1.7218 3.6087-3.9064 5.5136-6.1698 1.9468-2.3132 3.6584-4.5131 5.0229-6.4858 0.77129-1.115 1.372-2.0707 1.8453-2.8966 0.6256-1.0915 0.96017-1.8352 1.2028-2.3735-0.23748 0.52678-0.69854 1.237-1.4847 2.1774-0.59801 0.71539-1.3631 1.539-2.3053 2.4715-1.6576 1.6406-3.7393 3.495-6.0058 5.371-2.2799 1.8871-4.4881 3.5831-6.3812 4.9627-1.0848 0.79058-1.9962 1.4269-2.7595 1.9492-0.92327 0.6318-1.594 1.0716-1.9916 1.3638-0.0322 0.0237-0.0645 0.0477-0.0968 0.0721-0.90855 0.67815-2.7815 2.2362-4.4748 3.8763-1.4022 1.358-2.8716 2.9494-4.1705 4.8131-1.3238 1.8994-2.3427 3.8952-3.099 6.0889-1.0155 2.9458-1.362 5.667-1.6301 7.8588z"/><path d="m82.446 227.08c0.29572-1.5913 1.131-4.1732 2.5299-6.9155 1.4588-2.8595 2.9301-4.7901 4.063-6.2787 0.10162-0.13353 0.19501-0.25684 0.27906-0.36989 0.89699-1.2065 2.0953-3.0458 4.0563-4.9291 2.0578-1.9763 4.1185-3.1285 5.5572-3.5735-1.5137 0.46823-3.6094 1.0484-6.2216 2.7277-2.3277 1.4964-4.1368 3.3192-5.0474 4.5441-0.09027 0.12141-0.18658 0.25699-0.28769 0.4058-1.0791 1.5881-2.3142 4.0602-3.2837 7.1114-1.0012 3.1512-1.3241 5.5504-1.6451 7.2777z"/></g></g><g><path d="m143.74 104.97c0.93737-1.1686 1.8846-2.5781 2.4435-4.1897 0.418-1.2053 0.57423-2.3869 0.51598-3.6258-0.0532-1.1316-0.27813-2.202-0.53291-3.2799-0.26217-1.1091-0.51376-2.0706-0.64513-3.0807-0.0372-0.33379-0.0258-0.65822 0.0127-0.97242 0.0421-0.3436 0.11805-0.68419 0.20253-1.0073 0.16795-0.64234 0.36525-1.2398 0.49182-1.7093 0.0453-0.16818 0.0944-0.35704 0.14212-0.55668 0.15918-0.66561 0.35245-1.6328 0.32518-2.7375-0.0228-0.92243-0.19683-2.0169-0.72343-3.2823-0.25886-0.60143-0.60124-1.2296-1.0186-1.9374-0.39153-0.66389-0.84314-1.3869-1.3232-2.1895-0.94686-1.583-1.9752-3.4317-2.8414-5.7184-0.36994-0.96672-0.69788-2.0395-0.9835-3.1069-0.3043-1.1372-0.56386-2.2808-0.77631-3.2981-0.23803-1.1398-0.43173-2.1929-0.57028-2.9794-0.17207-0.97687-0.30444-1.8017-0.35935-2.1565 0.0657 0.4244 0.15964 1.1204 0.31355 2.1639 0.11687 0.79233 0.27885 1.8475 0.48282 2.9978 0.18182 1.0253 0.40614 2.1785 0.67437 3.3311 0.25142 1.0804 0.54467 2.1745 0.88214 3.1695 0.80359 2.3442 1.7727 4.2537 2.6596 5.8921 0.44841 0.82833 0.86628 1.5716 1.2188 2.2417 0.37795 0.71842 0.66925 1.3293 0.87803 1.8958 0.45123 1.1756 0.57372 2.1683 0.57001 2.9866-4e-3 0.98515-0.1992 1.8622-0.35814 2.4948-0.0473 0.18818-0.096 0.37104-0.13989 0.53396-0.10016 0.37151-0.31078 1.149-0.42764 1.7673-0.0668 0.35339-0.12252 0.74207-0.13668 1.143-0.013 0.36821 9e-3 0.75435 0.091 1.151 0.20398 1.0429 0.53475 2.0333 0.86184 3.0987 0.3218 1.0482 0.6082 2.0762 0.72627 3.1684 0.12921 1.1953 0.0424 2.3607-0.32019 3.5675-0.48587 1.617-1.3978 3.0555-2.3356 4.2246z"/><path d="m145.42 81.04c0.0289-0.0434 0.44924 0.03689 0.48037-0.01104 0.22083-0.34008 0.65824-1.0525 1.0008-1.8699 0.16044-0.38287 0.31232-0.81694 0.41104-1.2717 0.0909-0.41887 0.13882-0.86448 0.102-1.3099-0.0311-0.34635-0.14514-0.68233-0.30253-1.0079-0.15352-0.31755-0.35044-0.62959-0.55614-0.93427-0.20551-0.30442-0.42077-0.60327-0.61401-0.89476-0.19793-0.29855-0.36942-0.58399-0.49259-0.8638-0.36036-0.84841-0.52365-1.6761-0.63441-2.3457-0.0663-0.40078-0.11676-0.7608-0.16772-1.0748-0.0673-0.41481-0.12689-0.70688-0.19623-0.9748 0.068 0.26271 0.11972 0.56764 0.16663 0.97889 0.036 0.31556 0.0663 0.67724 0.10897 1.0826 0.0707 0.67196 0.18215 1.5279 0.49902 2.4207 0.10615 0.30984 0.26253 0.62375 0.44061 0.94425 0.17417 0.31348 0.36706 0.62966 0.54423 0.94176 0.17916 0.3156 0.33771 0.61913 0.45209 0.91597 0.11728 0.30435 0.1804 0.5824 0.1806 0.84134 6e-3 0.37581-0.0583 0.75684-0.16131 1.1249-0.11182 0.39964-0.27014 0.78574-0.4366 1.1334-0.35016 0.7314-0.79931 1.4124-1.0075 1.733-0.03 0.04622 0.21157 0.39821 0.1827 0.4416z"/><path d="m144.27 164.63c-0.66548-0.21665-1.3841-0.5026-2.0589-0.87637-0.53115-0.29419-1.0147-0.63127-1.4329-1.0196-0.36894-0.34259-0.67441-0.71328-0.92109-1.1156-0.22916-0.37378-0.4018-0.76531-0.53147-1.1765-0.24913-0.78993-0.32653-1.6068-0.37895-2.4558-0.0531-0.86012-0.079-1.6831-0.23804-2.4886-0.0589-0.31776-0.1715-0.60136-0.30989-0.85631-0.15035-0.277-0.33439-0.52573-0.51406-0.74238-0.31137-0.37547-0.76609-0.8278-0.97084-1.0331-0.0921-0.0924-0.19432-0.19573-0.29684-0.30323-0.34557-0.36232-0.79201-0.86664-1.1045-1.5197-0.13541-0.28301-0.25449-0.61017-0.33447-0.99251-0.0747-0.357-0.11686-0.76944-0.10353-1.2501 6e-3 -0.47459 0.072-1.0176 0.18229-1.6752 0.10271-0.61278 0.24105-1.305 0.37952-2.069 0.27388-1.5112 0.5344-3.2452 0.5036-5.2057-0.0159-0.83156-0.10425-1.7112-0.22598-2.5623-0.12988-0.90798-0.29976-1.797-0.46667-2.5793-0.18725-0.8776-0.38185-1.672-0.53222-2.2659-0.19811-0.78241-0.3382-1.3003-0.41654-1.6191 0.0644 0.26231 0.21538 0.89154 0.37723 1.6284 0.13111 0.59691 0.29923 1.399 0.45557 2.2793 0.13954 0.78564 0.27757 1.677 0.37317 2.5827 0.0897 0.8501 0.14294 1.7214 0.12396 2.5356-0.0374 1.9263-0.36269 3.6218-0.70089 5.1022-0.17148 0.75063-0.3432 1.435-0.48013 2.0546-0.14578 0.65964-0.2506 1.2369-0.28813 1.7624-0.0311 0.53352-5e-5 1.0041 0.0728 1.4233 0.0781 0.44933 0.20458 0.84019 0.35416 1.182 0.34496 0.78816 0.84761 1.3812 1.2107 1.7719 0.10924 0.11753 0.21588 0.22688 0.31189 0.32314 0.26818 0.26887 0.63778 0.5937 0.98809 0.95475 0.17654 0.18195 0.3481 0.37651 0.49018 0.58538 0.1295 0.19038 0.23831 0.39783 0.30833 0.6317 0.20408 0.74418 0.28492 1.5078 0.40496 2.3894 0.11632 0.85417 0.25763 1.6936 0.57524 2.5003 0.16512 0.41938 0.37178 0.81369 0.63237 1.1856 0.28021 0.39993 0.61416 0.76158 1.0046 1.0917 0.44225 0.37389 0.94232 0.69478 1.4827 0.9749 0.68709 0.35617 1.409 0.63045 2.0746 0.84714z"/><path d="m135 148.95c-0.0402-0.0174-0.0256-0.38678-0.0676-0.40555-0.1541-0.0688-0.37413-0.16698-0.60301-0.27841-0.25318-0.12326-0.55686-0.28164-0.85385-0.47071-0.25881-0.16477-0.51999-0.35748-0.74305-0.57729-0.20526-0.20227-0.3777-0.42687-0.48774-0.67446-0.038-0.081-0.0656-0.17421-0.0825-0.28117-0.0166-0.1052-0.0223-0.22101-0.0182-0.34749 8e-3 -0.25132 0.0536-0.52789 0.11439-0.82383 0.0601-0.29213 0.13316-0.59443 0.19029-0.88719 0.0584-0.29906 0.0995-0.58554 0.0962-0.84813-6.3e-4 -0.75602-0.17593-1.3961-0.32805-1.8886-0.0919-0.29745-0.18077-0.55904-0.24986-0.79131-0.0901-0.30283-0.14173-0.53415-0.16554-0.74343 0.0242 0.21279 0.0657 0.43846 0.14042 0.75017 0.0566 0.2362 0.12885 0.50356 0.20009 0.80497 0.11919 0.50426 0.24182 1.1348 0.19404 1.8616-0.0193 0.2395-0.0799 0.50389-0.16055 0.78985-0.0786 0.27891-0.17484 0.57262-0.2606 0.86662-0.0856 0.2936-0.16177 0.59105-0.19648 0.87517-0.0177 0.14474-0.0249 0.28822-0.0167 0.42811 8e-3 0.14258 0.0328 0.28254 0.0793 0.41674 0.1179 0.33301 0.31497 0.62698 0.54022 0.88067 0.24444 0.2753 0.52965 0.51165 0.80334 0.70737 0.31511 0.22536 0.63551 0.41138 0.89893 0.55175 0.24299 0.12949 0.4637 0.234 0.62821 0.30748 0.0438 0.0196 0.30812-0.24028 0.34829-0.22291z"/><path d="m124.82 106.31c0.76718-0.91464 1.6286-2.0489 2.1608-3.3332 0.19998-0.48272 0.33657-0.94498 0.4241-1.3971 0.0888-0.45876 0.12339-0.88842 0.12957-1.288 0.0115-0.74735-0.0858-1.5678-0.12973-1.9052-0.0171-0.13146-0.0408-0.30936-0.0608-0.4714-0.0712-0.57633-0.16912-1.4432-0.0142-2.4005 0.18361-1.1004 0.22091-2.0683 0.17006-2.9836-0.0478-0.86126-0.17034-1.6184-0.27314-2.3201-0.11334-0.7736-0.19063-1.4124-0.17241-2.092 0.0242-0.90155 0.22087-1.6612 0.47567-2.3123-0.25543 0.65264-0.47518 1.3994-0.5404 2.3091-0.0492 0.68588-6e-3 1.3326 0.067 2.1156 0.0663 0.71179 0.14802 1.4608 0.15716 2.3093 0.01 0.89772-0.0631 1.837-0.27342 2.9032-0.20434 1.0179-0.13176 1.9332-0.0693 2.5254 0.0183 0.17375 0.0388 0.33984 0.0569 0.4794 0.0338 0.25956 0.19821 1.2264 0.2398 1.8521 0.0253 0.38117 0.0274 0.79388-0.0222 1.2394-0.0489 0.43953-0.14642 0.89716-0.31051 1.382-0.43534 1.2862-1.2523 2.4787-2.0151 3.388z"/></g><g fill="#fff" fill-opacity=".5"><path d="m141.46 162.15c-0.15244-0.0945-0.30784-0.22447-0.44807-0.40614-0.11337-0.14687-0.21394-0.32356-0.29942-0.54041-0.0756-0.19191-0.13774-0.4107-0.18869-0.66482-0.0471-0.23495-0.0836-0.4942-0.1138-0.78598-0.0586-0.56516-0.0865-1.161-0.1372-1.9231-0.0472-0.70962-0.11158-1.5035-0.23774-2.3642-0.0439-0.31718-0.13922-0.61329-0.26924-0.89253-0.13217-0.28388-0.29973-0.54933-0.48303-0.79923-0.37103-0.50585-0.87015-1.0237-1.243-1.4361-0.22269-0.24628-0.41695-0.47058-0.59151-0.69692-0.19574-0.25381-0.34806-0.48661-0.46721-0.71242-0.14616-0.27702-0.232-0.52452-0.28351-0.74807-2e-3 -7e-3 -3e-3 -0.015-5e-3 -0.0224-0.0434-0.19583-0.0873-0.47009-0.0646-0.81449 0.12857-1.5449 0.51657-5.1863 0.59031-7.4055 0.0425-1.2785 0.0142-2.3969-0.10175-3.3859-0.15606-1.3314-0.44338-2.1787-0.70416-2.7621 0.2594 0.58034 0.50508 1.4512 0.58847 2.7725 0.0621 0.98389 0.0281 2.095-0.0819 3.3575-0.22255 2.5538-0.71161 5.412-0.94248 7.3577-0.0554 0.4273-0.0173 0.77618 0.0391 1.0304 2e-3 9e-3 4e-3 0.019 6e-3 0.0285 0.0666 0.28685 0.18198 0.59263 0.36767 0.9177 0.15028 0.26307 0.33661 0.52181 0.5622 0.78841 0.20023 0.23663 0.4191 0.46528 0.65841 0.70411 0.41209 0.41126 0.90924 0.87236 1.2875 1.3272 0.18384 0.22104 0.34921 0.45052 0.48217 0.69332 0.13032 0.23796 0.22997 0.48956 0.28567 0.76082 0.16192 0.84097 0.26402 1.6211 0.34852 2.3257 0.09 0.75083 0.15415 1.3573 0.24763 1.919 0.0487 0.29271 0.10243 0.55301 0.1658 0.78855 0.0686 0.25488 0.14642 0.47311 0.23581 0.66343 0.10099 0.21501 0.21363 0.38764 0.3351 0.53011 0.14998 0.17591 0.30947 0.30092 0.46152 0.39523z"/><path d="m146.23 101.83c0.3774-0.74167 0.82854-1.6781 1.1188-2.718 0.21898-0.7846 0.32326-1.5389 0.3329-2.3532 9e-3 -0.79929-0.0737-1.6091-0.17558-2.4109-0.13224-1.0412-0.28129-2.0758-0.37959-2.7929-2.4e-4 -0.0018-8e-3 -0.05842-8e-3 -0.0602-0.11634-0.84555-0.19159-1.7063-0.13526-2.7191 0.0434-0.78029 0.1432-1.3882 0.24325-2.1892 0.0969-0.77611 0.15852-1.5098 0.11854-2.3852-0.0538-1.178-0.28069-2.2827-0.52273-3.2788 0.239 0.98367 0.41352 2.1288 0.37779 3.2799-0.0267 0.85991-0.16082 1.5735-0.33524 2.3195-0.17732 0.75838-0.35472 1.4001-0.46885 2.1947-0.14998 1.0443-0.1263 2.004-0.01 2.8774 3e-3 0.02082 6e-3 0.04127 8e-3 0.06136 0.11871 0.86599 0.28459 1.6516 0.52396 2.7913 0.16436 0.78264 0.32291 1.5615 0.39196 2.3263 0.0704 0.77964 0.0464 1.5193-0.10446 2.3053-0.19981 1.0414-0.59984 2.0128-0.9758 2.7517z"/><path d="m145.72 78.083c-0.57898-0.79001-1.3591-2.0582-2.113-3.6683-0.75099-1.604-1.2112-2.9606-1.5237-3.8175-0.1535-0.42087-0.3473-0.94957-0.57419-1.6174-1.1138-3.2785-1.974-7.0441-2.3548-9.0516 0.41226 2.1736 0.89021 5.6633 1.9314 9.186 0.19921 0.67401 0.38589 1.2335 0.53804 1.6506 0.30127 0.82602 0.91448 2.2432 1.7658 3.7617 0.90773 1.6192 1.7152 2.7169 2.3305 3.5565z"/><path d="m127.63 103.01c0.0721-0.11157 0.15598-0.2659 0.23353-0.48808 0.0596-0.17065 0.11274-0.37362 0.15574-0.61853 0.0755-0.42999 0.11153-0.94218 0.11493-1.5493 3e-3 -0.58181-0.0237-1.2083-0.0588-1.8213-0.0307-0.53687-0.1009-1.5739-0.12354-1.9227-0.0184-0.27724-0.0245-0.51957-0.0274-0.70714-5e-3 -0.34638-5e-3 -0.7332 0.0214-1.2505 0.028-0.54608 0.086-1.1489 0.12874-1.7339 0.0422-0.57712 0.0618-1.0906 0.0227-1.5934-0.0522-0.67163-0.19864-1.1503-0.34278-1.5265 0.1428 0.37277 0.25891 0.87027 0.26087 1.5298 1e-3 0.49624-0.0591 1.0004-0.14391 1.5675-0.0943 0.63024-0.18088 1.1209-0.24582 1.7311-0.0546 0.5127-0.0721 0.93616-0.0668 1.2814 3e-3 0.19475 0.0138 0.44286 0.0408 0.72986 0.0597 0.62319 0.12009 1.1129 0.20836 1.9167 0.0668 0.60842 0.12928 1.2276 0.16152 1.8032 0.0336 0.59955 0.0319 1.1082-0.0138 1.5362-0.026 0.24407-0.065 0.44834-0.11366 0.62074-0.0634 0.22457-0.13996 0.38318-0.21211 0.49483z"/></g></svg>
