<?xml version="1.0" encoding="UTF-8"?>
<svg cursor="default" version="1.1" viewBox="0 0 256 256" xmlns="http://www.w3.org/2000/svg" xmlns:xlink="http://www.w3.org/1999/xlink">
 <defs>
  <linearGradient id="linearGradient1192">
   <stop stop-color="#ffd42a" offset="0"/>
   <stop stop-color="#ffe680" offset="1"/>
  </linearGradient>
  <linearGradient id="linearGradient1013">
   <stop stop-color="#f55" offset="0"/>
   <stop stop-color="#ff8080" offset="1"/>
  </linearGradient>
  <linearGradient id="linearGradient5881" x1="131.78" x2="171.48" y1="114.15" y2="119.04" gradientTransform="matrix(1.1025,0,0,1.1025,-13.947,1.01)" gradientUnits="userSpaceOnUse" xlink:href="#linearGradient1013"/>
  <radialGradient id="radialGradient5961" cx="147.57" cy="182.81" r="3.517" gradientTransform="matrix(1.1025 0 0 1.1095 -13.947 -.28874)" gradientUnits="userSpaceOnUse" xlink:href="#linearGradient1192"/>
  <radialGradient id="radialGradient5969" cx="146.83" cy="152.71" r="3.517" gradientTransform="matrix(1.1025 0 0 1.1095 -13.947 -.051708)" gradientUnits="userSpaceOnUse" xlink:href="#linearGradient1192"/>
  <linearGradient id="linearGradient5881-9" x1="136.98" x2="167.19" y1="94.023" y2="97.791" gradientTransform="matrix(-1.1025 0 0 1.1025 270.88 .58995)" gradientUnits="userSpaceOnUse" xlink:href="#linearGradient1013"/>
  <linearGradient id="linearGradient1948" x1="80.016" x2="176.23" y1="87.743" y2="87.992" gradientUnits="userSpaceOnUse">
   <stop stop-color="#f95" offset="0"/>
   <stop stop-color="#ffb380" offset=".50505"/>
   <stop stop-color="#f95" offset="1"/>
  </linearGradient>
 </defs>
 <path d="m83.545 24.856c32.444-0.91838 66.948-0.19624 101.05 3.1487 1.6493 0.57992-8.2743 71.269-3.7595 129.16 3.2116 41.168 14.04 67.114 14.227 68.226-31.322 23.976-120.65 13.251-132-0.16359 0.11686-1.097 6.3381-22.748 11.636-63.146 7.8278-59.695 7.0814-136.57 8.8387-137.23z" fill="url(#linearGradient1948)" fill-rule="evenodd" stroke="#000" stroke-width="1.2767"/>
 <path d="m119.42 168.37a111.12 111.12 0 0 1-1.9746-11.147c-3.9392-21.38-2.1763-43.505-2.356-65.24-0.17971 21.639-2.3075 43.893 1.2932 65.427a112.64 112.64 0 0 0 3.0374 10.961z" fill="#ff7f2a" fill-rule="evenodd" stroke-width="1.1025"/>
 <path d="m99.572 14.609c4.9392-1.3065 16.008 1.7805 28.49 2.0617 10.771 0.24255 22.91-2.4696 29.298-1.6416 2.8224 0.99225 1.7133 8.1056 2.1631 10.78-3.41-0.77065-18.498 1.6725-32.074 1.8489-12.392 0.15986-25.612-3.6327-29.048-2.1466 0.28996-2.7177-1.775-9.8012 1.1709-10.903z" fill="#f55" fill-rule="evenodd" stroke="#000"/>
 <path d="m141.68 158.94c-0.69017-7.8663-1.0198-15.784-1.1224-23.724-0.78608-21.455 0.0783-43.119-0.0584-64.476-0.13781 21.323-1.2767 43.031-0.76403 64.502 0.37705 7.949 0.98122 15.858 1.9448 23.698z" fill="#ff7f2a" fill-rule="evenodd" stroke-width="1.1025"/>
 <path d="m120.55 36.204c4.6878 0.45533 11.94 0.24586 16.544-0.17199l-0.0695-4.9425c-4.6504 0.46856-11.849 0.76844-16.615 0.07828-0.0551 1.6538 0.0926 3.3736 0.14001 5.0362z" fill="#ccc" fill-rule="evenodd" stroke="#000" stroke-width=".55125"/>
 <path d="m115.25 158.52c0.96358-7.8399 1.5666-15.75 1.9448-23.698 0.51156-21.471-0.62732-43.178-0.76403-64.502-0.13781 21.358 0.72765 43.023-0.0595 64.476-0.10253 7.9391-0.43108 15.856-1.1224 23.724z" fill="#ff7f2a" fill-rule="evenodd" stroke-width="1.1025"/>
 <g transform="translate(3.1483)">
  <path d="m114.8 242.45c-3.8213 5.9822-59.469-8.1144-61.759-10.276-1.9062-1.7993 6.475-34.161 8.9093-44.519 2.4343-10.358 7.0582-27.344 7.2622-31.746 1.2194-26.24-0.38588-62.978 1.9823-72.045-1.656 2.205-10.168 59.405-13.523 63.278-3.6438 34.196-12.524 67.945-20.378 99.593-4.4078 2.0584-24.226 0.0794-31.745-3.6879 0.86987-6.4573 4.0781-13.602 7.4121-24.149 4.1156-13.018 11.206-49.682 18.621-86.679 3.7639-18.777 7.6117-37.639 11.196-53.542 2.4222-10.742 2.2932-24.065 3.2105-35.408 0.59314-7.3404 3.345-12.697 4.9712-13.991 4.1399-3.2888 15.25-7.5356 23.785-9.1386s9.8089-0.34398 24.831-5.5334c-3.7728 15.114 0.58102 38.471 4.5732 68.111 2.3924 17.752 10.863 52.575 15.241 78.702-1.2734 9.1618-1.3958 29.525-2.6317 44.674 0.15324 19.261-1.958 36.356-1.958 36.356z" fill="url(#linearGradient5881-9)" fill-rule="evenodd" stroke="#000"/>
  <path d="m104.14 188.25-1.5779 7.5776c-1.0309 3.3663-2.4844 3.8512-4.3984 3.6671l-28.348-3.7973c-4.303-0.51243-3.7738-3.2391-3.5359-5.2583l0.95509-5.9784c2.5933 0.63345 21.706 3.6079 36.905 3.7893z" fill="#f55" fill-rule="evenodd" stroke="#000" stroke-width=".66306"/>
  <path d="m112.65 117.43c2.7077 10.731 5.0649 29.293 6.3118 33.384 1.1025 3.614 0.42446 10.606 0.42446 10.606-3.2017-9.3889-3.7849-14.361-18.457-59.829-3.2127-6.5048-11.996-37.212-11.745-38.292 0.98233-0.64386 13.371-5.4574 11.759-4.7937-6.088-1.2965-6.3824-1.5854-9.4837-2.7188-2.947-14.685-4.743-25.087-2.4542-38.973 4.7628-1.7276 9.4087-4.3527 11.443-2.3704 1.0286 1.0364 0.73426-1.4796-1.1091 3.56-1.1301 3.0914 1.2524 14.288 1.6273 17.371 6.1983 26.819 5.647 37.433 11.683 82.057z" fill="#ff8080" fill-rule="evenodd" stroke="#000"/>
  <path d="m71.676 84.01c1.0143-11.323-0.90386-22.846-5.0261-33.278 3.7595 10.584 5.3692 22.087 3.9866 33.172 0.35107 0.3025 0.70216 0.36703 1.0395 0.10606z" fill-rule="evenodd" stroke-width="1.1025"/>
  <path d="m104.54 187.39-1.7375 6.981c-1.1025 3.0958-2.5688 3.5203-4.4828 3.3185l-28.325-3.9778c-4.3009-0.54464-3.7143-3.0572-3.4343-4.9205l1.0805-5.5125c2.5854 0.62842 21.674 3.6934 36.9 4.1112z" fill="#ff8080" fill-rule="evenodd" stroke="#000" stroke-width=".63835"/>
  <path d="m104.54 187.39 0.40793-0.29437c-1.9327-5.2788-4.3659-12.755-7.1508-19.952-2.8092-7.2666-5.9811-14.263-9.3712-18.494 3.2524 4.3185 6.2677 11.363 8.917 18.664 2.6328 7.25 4.8995 14.735 6.6944 20.102z" fill-rule="evenodd" stroke-width="1.1025"/>
  <path d="m111.55 168.32c-0.0882 0.42777 1.9106 0.76403 2.3351 0.84893 0.42336 0.0849 1.786 0.25909 1.8302-0.1764 0.0419-0.43659-1.2359-0.74639-1.6229-0.79931-0.38698-0.054-2.452-0.30209-2.5424 0.12678z" fill="#f55" stroke="#000" stroke-width=".441"/>
  <path d="m40.693 230.55c-2.8268 3.0198-5.6801 3.6261-9.3106 4.7011 3.5831-0.70229 6.7815-0.99225 10.048-3.9503zm-9.9038-97.196c0.35831 4.3913 2.4917 6.7914 4.625 9.756-1.9117-3.2689-3.5776-5.6635-3.5732-9.799zm13.028-65.107c0.35831 4.3913 2.4916 6.7914 4.625 9.756-1.9117-3.2689-3.5787-5.6635-3.5743-9.8001z" fill-rule="evenodd" stroke-width="1.1025"/>
  <path d="m109.44 205.08c-0.0882 0.42887 1.9095 0.76513 2.334 0.84893 0.42447 0.086 1.786 0.25908 1.8302-0.17641 0.043-0.43658-1.2348-0.74528-1.6218-0.79931-0.38698-0.0529-2.4531-0.30098-2.5424 0.12679z" fill="#f55" stroke="#000" stroke-width=".441"/>
 </g>
 <g transform="translate(-3.7002)">
  <path d="m142.13 242.87c3.8224 5.9822 59.469-8.1144 61.759-10.276 1.9073-1.7993-6.475-34.161-8.9082-44.519-2.4343-10.358-7.0582-27.344-7.2633-31.746-1.2183-26.24 0.38587-62.978-1.9812-72.045 1.6549 2.205 10.167 59.405 13.523 63.278 3.6427 34.196 12.523 67.945 20.378 99.593 4.4078 2.0584 24.226 0.0794 31.745-3.6879-0.87097-6.4574-4.0792-13.602-7.4121-24.149-4.1156-13.018-11.207-49.682-18.622-86.679-3.7639-18.777-7.6117-37.639-11.196-53.542-2.4211-10.742-2.2932-24.065-3.2094-35.408-0.59314-7.3404-3.345-12.697-4.9723-13.991-4.1399-3.2888-15.25-7.5356-23.785-9.1386-8.5344-1.603-9.8089-0.34398-24.829-5.5334 3.7716 15.114-0.58102 38.471-4.5743 68.111-2.3913 17.752-10.863 52.575-15.24 78.702 1.2734 9.1618 1.3947 29.525 2.6306 44.674-0.15214 19.261 1.958 36.356 1.958 36.356z" fill="url(#linearGradient5881)" fill-rule="evenodd" stroke="#000"/>
  <path d="m152.46 188.76 1.5779 7.5776c1.0309 3.3663 2.4844 3.8512 4.3984 3.6671l28.348-3.7973c4.303-0.51243 3.7738-3.2391 3.536-5.2583l-0.95509-5.9784c-2.5934 0.63345-21.706 3.6079-36.905 3.7893z" fill="#f55" fill-rule="evenodd" stroke="#000" stroke-width=".66306"/>
  <path d="m144.28 117.85c-2.7077 10.731-5.0638 29.293-6.3107 33.384-1.1025 3.614-0.42446 10.606-0.42446 10.606 3.2017-9.3889 3.7838-14.361 18.456-59.829 3.2138-6.5048 11.997-37.212 11.745-38.292-0.98122-0.64386-13.371-5.4574-11.759-4.7937 6.088-1.2965 6.3835-1.5854 9.4837-2.7188 2.947-14.685 4.7441-25.087 2.4553-38.973-4.7639-1.7276-9.4098-4.3527-11.444-2.3704-1.0275 1.0364-0.73316-1.4796 1.1091 3.56 1.1312 3.0914-1.2524 14.288-1.6273 17.371-6.1983 26.819-5.647 37.433-11.683 82.057z" fill="#ff8080" fill-rule="evenodd" stroke="#000"/>
  <path d="m186.29 84.324c-1.3825-11.085 0.22822-22.588 3.9866-33.172-4.1211 10.432-6.0282 21.953-5.0139 33.276 0.45637 0.14389 0.59992 0.0063 1.0272-0.10359z" fill-rule="evenodd" stroke-width="1.1025"/>
  <path d="m152.39 187.81 1.7364 6.981c1.1036 3.0958 2.5688 3.5203 4.4828 3.3185l28.325-3.9778c4.302-0.54464 3.7143-3.0572 3.4343-4.9205l-1.0804-5.5125c-2.5854 0.62843-21.673 3.6934-36.898 4.1112z" fill="#ff8080" fill-rule="evenodd" stroke="#000" stroke-width=".63835"/>
  <path d="m152.39 187.81 0.50274 0.0254c1.7938-5.367 4.0616-12.852 6.6933-20.102 2.6504-7.3008 5.6646-14.346 8.9181-18.665-3.3913 4.2336-6.5621 11.229-9.3724 18.496-2.7838 7.1971-5.217 14.673-7.1508 19.952 0.13561 0.0992 0.27232 0.19624 0.40792 0.29436z" fill-rule="evenodd" stroke-width="1.1025"/>
  <ellipse cx="144.13" cy="168.02" rx="3.4343" ry="3.4585" fill="url(#radialGradient5969)" stroke="#000" stroke-width=".88751"/>
  <ellipse cx="146.51" cy="205.36" rx="3.4343" ry="3.4585" fill="url(#radialGradient5961)" stroke="#000" stroke-width=".88751"/>
  <path d="m214.48 228.75c3.2667 2.9569 6.4651 3.2469 10.048 3.9492-3.6305-1.0749-6.4838-1.6813-9.3117-4.7011zm10.013-97.45c3e-3 4.1377-1.6626 6.5323-3.5743 9.8012 2.1322-2.9657 4.2667-5.3648 4.6239-9.7571zm-12.168-59.933c4e-3 4.1366-1.6626 6.5312-3.5743 9.799 2.1333-2.9635 4.2667-5.3637 4.625-9.7549z" fill-rule="evenodd" stroke-width="1.1025"/>
 </g>
</svg>
