<?xml version="1.0" encoding="UTF-8"?>
<svg cursor="default" version="1.1" viewBox="0 0 256 256" xml:space="preserve" xmlns="http://www.w3.org/2000/svg" xmlns:xlink="http://www.w3.org/1999/xlink"><defs><linearGradient id="linearGradient1406" x1="-110.43" x2="-100.46" y1="176.98" y2="-40.631" gradientTransform="translate(209.57 -1.9319)" gradientUnits="userSpaceOnUse"><stop stop-color="#ff8080" offset="0"/><stop stop-color="#faa" offset="1"/></linearGradient><linearGradient id="linearGradient1509" x1="-83.942" x2="-84.004" y1="19.63" y2="7.5404" gradientTransform="translate(209.57 -1.9319)" gradientUnits="userSpaceOnUse"><stop stop-color="#f55" offset="0"/><stop stop-color="#faa" offset="1"/></linearGradient><linearGradient id="linearGradient1517" x1="-125.85" x2="-136.59" y1="30.405" y2="24.707" gradientTransform="translate(209.57 -1.9319)" gradientUnits="userSpaceOnUse"><stop stop-color="#ff8080" offset="0"/><stop stop-color="#faa" offset="1"/></linearGradient><linearGradient id="linearGradient1525" x1="-35.781" x2="-27.07" y1="29.259" y2="24.785" gradientTransform="translate(209.57 -1.9319)" gradientUnits="userSpaceOnUse"><stop stop-color="#ff8080" offset="0"/><stop stop-color="#ff8080" stop-opacity="0" offset="1"/></linearGradient></defs><g stroke="#000"><path d="m76.443 4.7618c-0.0277-0.39773 25.485 0.62094 51.259 0.37319 25.906-0.24901 52.075-1.7612 52.132-0.86638 0.0821 1.2933-7.356 8.5875-52.019 14.489-20.792-2.1327-50.742-4.946-51.372-13.996z" fill="url(#linearGradient1509)" stroke-width=".5"/><path d="m121.53 7.7365-0.0679 4.6379 12.47-0.16926 0.16989-4.604z" fill="#ffe680" stroke-width=".19242"/><path d="m78.272 5.6708c16.582 0.56306 33.144 0.72511 49.413 0.40585 16.952-0.33266 33.62-1.1559 51.292-0.9667" fill="none" stroke-dasharray="0.4, 0.4" stroke-width=".4"/><g stroke-width=".5"><path d="m76.234 13.667c-0.26439 4.9582-3.9718 25.136-4.0798 36.989-0.44142 48.452 1.7285 151.13 1.3194 199.74-9e-3 1.0557 0.49389 1.5518 1.1217 1.5579 12.777 0.12435 25.01-0.22672 37.515-0.37391 0.92691-0.0109 1.1209-0.76571 1.1217-1.3087 0.0132-8.7718 1.638-66.332 4.3349-99.381 2.2091-27.071 9.4721-79.565 9.6943-80.903 0.20916-1.2597 3.8726-1.1828 3.9917-0.32136 4.6693 33.783 6.54 62.566 9.0516 93.916 2.3566 29.416 0.80278 58.333 1.095 87.5 7e-3 0.69281 0.22658 0.93823 0.74781 0.93477l37.515-0.24927c0.93065-6e-3 1.1812-0.83603 1.184-1.6826 0 0-0.37598-61.993 0.31159-92.978 0.49442-22.281 2.6688-44.518 2.742-66.804 0.0841-25.611-0.70753-58.153-3.8481-78.271-33.664 6.7312-68.869 3.9062-103.82 1.6399z" fill="url(#linearGradient1406)"/><path d="m77.586 14.707-2.9289 36.767c3.2274-13.684 7.5363-25.904 13.585-35.77z" fill="url(#linearGradient1517)"/><path d="m76.818 4.7549c-1.2428-0.23373-0.81337 2.1-1.0465 4.8582-0.0659 0.77975-0.10066 4.7824 0.48471 4.8692 17.597 2.6089 35.125 6.6963 52.504 6.3674l-0.17626-9.2096c-18.408 0.71-34.932-3.7194-51.765-6.8852z" fill="#ff8080"/><path d="m169.13 15.704c4.928 9.5953 9.3369 20.137 11.466 34.835l-1.4956-37.141z" fill="url(#linearGradient1525)"/><path d="m127.7 20.916c-0.5389 0.03606-0.67051-9.3774-0.24236-9.3859 16.938-0.33436 34.003-1.575 52.234-7.2925 0.64361-0.20185 0.58436 2.496 0.60759 4.4245 0.0211 1.7478 0.86875 4.556 0.0156 4.7984-17.083 4.8542-34.823 6.2649-52.615 7.4553z" fill="#ff8080"/><path d="m132.15 16.686 4.2964-0.35252v-0.46268l-4.1862-0.19829z" fill="#ff2a2a"/><ellipse cx="131.87" cy="16.19" rx="2.2033" ry="2.1482" fill="#ffb380"/></g></g><g fill="none" stroke="#000" stroke-width=".5"><g stroke-dasharray="0.5, 0.5"><path d="m131.57 15.564c-0.95265 0.64698-0.0966 1.7685 0.82571 1.1996 0.90044-0.55533-0.0207-1.7463-0.82571-1.1996z"/><path d="m73.785 248.96 39.507 0.0166"/><path d="m141.45 248.97 39.396-0.0166"/><path d="m137.35 20.128c-0.5987 13.857 4.8708 35.01-8.5375 33.464l-0.62318 15.517"/></g><g><path d="m128.86 53.743-0.98639-33.054"/><path d="m74.657 51.163s0.10522 77.882 0.51035 116.82c0.29075 27.946 1.5773 83.839 1.5773 83.839"/><path d="m178.2 251.57c0.45791-38.778 0.34567-77.305 1.2886-116.11 0.69034-28.411 3.0503-57.135 1.0909-85.399"/></g></g><g stroke="#000" stroke-width=".5"><path d="m104.16 24.584 3.6144 0.28043c0.30953-4.7227 0.81609-9.4017 1.8695-13.959l-3.5521-0.59202c-1.3317 4.7569-1.5564 9.5138-1.9318 14.271z" fill="#ff8080"/><path d="m104.35 23.317 3.5252 0.30846" fill="none" stroke-dasharray="0.5, 0.5"/><path d="m153.92 24.042-3.9102 0.10499c-0.0804-4.7322-0.40371-9.0116-1.2351-13.615l3.5766-0.41923c1.0997 4.8158 1.4242 9.1594 1.5687 13.929z" fill="#ff8080"/></g><g fill="none" stroke="#000"><g stroke-dasharray="0.5, 0.5" stroke-width=".5"><path d="m150.17 23.053 3.7896-0.17626"/><path d="m149.03 11.288 3.5252-0.35252"/><path d="m105.85 11.067 3.5693 0.61691"/></g><path d="m132.65 8.8699s0.28863 1.0168 0.0416 1.1501c-0.26235 0.14154-0.23264-0.96483-0.51239-0.96851-0.20689-0.00269-0.53118 0.48893-0.38775 0.7062 0.16704 0.25304 0.68959-0.31162 0.58163-0.62549-0.20743-0.60299-0.98869 1.0417-1.3294 0.58514-0.16327-0.21876 0.29824-0.72412 0.13848-0.94833-0.39428-0.5534-1.53-0.20731-1.5925 0.58514-0.038 0.48113 0.67396 1.0385 0.88628 0.66585 0.20172-0.35401-0.27469-0.98139-0.58162-1.0896-0.35128-0.12381-0.8821 0.1603-0.98323 0.66585-0.0552 0.27585 0.45801 0.52329 0.31851 0.72638-0.19384 0.28221-0.64415-0.25265-0.69241-0.64567-0.0418-0.3403 0.4293-0.82727 0.4293-0.82727" stroke-width=".094836"/><path d="m122.38 10.265s-0.32739-1.0136-0.0471-1.1465c0.29759-0.1411 0.26388 0.96177 0.58119 0.96544 0.23467 0.0027 0.6025-0.48738 0.43981-0.70397-0.18947-0.25224-0.78219 0.31063-0.65972 0.62351 0.23528 0.60108 1.1214-1.0384 1.5079-0.58329 0.18519 0.21807-0.33827 0.72182-0.15707 0.94533 0.44722 0.55165 1.7354 0.20665 1.8064-0.58329 0.0431-0.4796-0.76445-1.0352-1.0053-0.66374-0.2288 0.35288 0.31158 0.97828 0.65972 1.0861 0.39845 0.12342 1.0006-0.15979 1.1152-0.66374 0.0626-0.27497-0.5195-0.52163-0.36127-0.72408 0.21986-0.28131 0.73064 0.25185 0.78538 0.64363 0.0474 0.33922-0.48694 0.82465-0.48694 0.82465" stroke-width=".10084"/></g></svg>
