<?xml version="1.0" encoding="UTF-8"?>
<svg version="1.1" viewBox="0 0 64 64" xmlns="http://www.w3.org/2000/svg">
 <path d="m3.765 24.601c-7.767-11.848 9.29-18.456 15.593-9.197-1.836-11.114 14.063-17.335 17.045-3.024 2.287 10.978-9.463 15.22-7.203 31.974-8.645-14.216-19.385-10.523-25.435-19.753z" fill="#ff24d3" fill-rule="evenodd" stroke="#000" stroke-width=".4"/>
 <path d="m35.086 17.137c-0.075-6.54-5.497-12.76-13.819-6.199 5.935-9.854 16.185-2.966 13.819 6.2z" fill="#fff" fill-opacity=".785" fill-rule="evenodd"/>
 <path d="m37.97 34.94c1.45-8.584 11.777-4.05 10.748 2.76 3.784-5.677 13.434-1.477 8.836 6.102-3.528 5.814-10.513 2.554-16.444 10.89 2.04-10.005-4.27-13.065-3.14-19.752z" fill="#d42aff" fill-rule="evenodd" stroke="#000" stroke-width=".4"/>
 <path d="m56.349 43.607c1.271-4.48-0.61-6.593-4.662-6.916 4.205-1.468 8.103 1.751 4.662 6.916z" fill="#fff" fill-opacity=".785" fill-rule="evenodd"/>
 <path d="m6.763 52.98c-4.68-5.42 3.721-9.196 7.499-4.969-1.585-5.275 6.242-8.824 8.6-2.053 1.81 5.194-3.995 7.646-1.867 15.617-5.269-6.526-10.586-4.373-14.232-8.595z" fill="#f06" fill-rule="evenodd" stroke="#000" stroke-width=".4"/>
 <path d="m21.596 47.782c-0.783-3.522-2.984-4.123-6.097-2.61 2.538-2.77 6.652-2.291 6.097 2.61z" fill="#fff" fill-opacity=".785" fill-rule="evenodd"/>
</svg>
