<?xml version="1.0" encoding="UTF-8"?>
<svg version="1.1" viewBox="0 0 64 64" xmlns="http://www.w3.org/2000/svg" xmlns:xlink="http://www.w3.org/1999/xlink">
 <defs>
  <linearGradient id="linearGradient10806">
   <stop stop-color="#fc5" offset="0"/>
   <stop stop-color="#ffd86a" offset=".54029"/>
   <stop stop-color="#ffe1a0" offset="1"/>
  </linearGradient>
  <linearGradient id="linearGradient4016" x1="30.568" x2="14.826" y1="47.637" y2="6.3206" gradientUnits="userSpaceOnUse" xlink:href="#linearGradient10806"/>
  <linearGradient id="linearGradient4026" x1="40.385" x2="51.98" y1="56.8" y2="30.876" gradientUnits="userSpaceOnUse" xlink:href="#linearGradient10806"/>
  <linearGradient id="linearGradient4042" x1="21.893" x2="11.243" y1="62.936" y2="41.686" gradientUnits="userSpaceOnUse" xlink:href="#linearGradient10806"/>
 </defs>
 <path d="m3.765 24.601c-7.767-11.848 9.29-18.456 15.593-9.197-1.836-11.114 14.063-17.335 17.045-3.024 2.287 10.978-9.463 15.22-7.203 31.974-8.645-14.216-19.385-10.523-25.435-19.753z" fill="none" stroke="url(#linearGradient4016)" stroke-linejoin="round" stroke-width="3"/>
 <path d="m37.97 34.94c1.45-8.584 11.777-4.05 10.748 2.76 3.784-5.677 13.434-1.477 8.836 6.102-3.528 5.814-10.513 2.554-16.444 10.89 2.04-10.005-4.27-13.065-3.14-19.752z" fill="none" stroke="url(#linearGradient4026)" stroke-linejoin="round" stroke-width="3"/>
 <path d="m6.763 52.98c-4.68-5.42 3.721-9.196 7.499-4.969-1.585-5.275 6.242-8.824 8.6-2.053 1.81 5.194-3.995 7.646-1.867 15.617-5.269-6.526-10.586-4.373-14.232-8.595z" fill="none" stroke="url(#linearGradient4042)" stroke-linejoin="round" stroke-width="3"/>
 <path d="m3.765 24.601c-7.767-11.848 9.29-18.456 15.593-9.197-1.836-11.114 14.063-17.335 17.045-3.024 2.287 10.978-9.463 15.22-7.203 31.974-8.645-14.216-19.385-10.523-25.435-19.753z" fill="#ff24d3" fill-rule="evenodd" stroke="#000" stroke-width=".4"/>
 <path d="m35.086 17.137c-0.075-6.54-5.497-12.76-13.819-6.199 5.935-9.854 16.185-2.966 13.819 6.2z" fill="#fff" fill-opacity=".785" fill-rule="evenodd"/>
 <path d="m37.97 34.94c1.45-8.584 11.777-4.05 10.748 2.76 3.784-5.677 13.434-1.477 8.836 6.102-3.528 5.814-10.513 2.554-16.444 10.89 2.04-10.005-4.27-13.065-3.14-19.752z" fill="#d42aff" fill-rule="evenodd" stroke="#000" stroke-width=".4"/>
 <path d="m56.349 43.607c1.271-4.48-0.61-6.593-4.662-6.916 4.205-1.468 8.103 1.751 4.662 6.916z" fill="#fff" fill-opacity=".785" fill-rule="evenodd"/>
 <path d="m6.763 52.98c-4.68-5.42 3.721-9.196 7.499-4.969-1.585-5.275 6.242-8.824 8.6-2.053 1.81 5.194-3.995 7.646-1.867 15.617-5.269-6.526-10.586-4.373-14.232-8.595z" fill="#f06" fill-rule="evenodd" stroke="#000" stroke-width=".4"/>
 <path d="m21.596 47.782c-0.783-3.522-2.984-4.123-6.097-2.61 2.538-2.77 6.652-2.291 6.097 2.61z" fill="#fff" fill-opacity=".785" fill-rule="evenodd"/>
 <path transform="matrix(.8141 0 0 1 8.4017 -1.0594)" d="m45.866 24.802-4.1864 0.37109-1.1106 4.0534-0.37109-4.1864-4.0534-1.1106 4.1864-0.37109 1.1106-4.0534 0.37109 4.1864z" fill="#ffe9fe"/>
 <path transform="matrix(.6032 -.29239 .29807 .68762 -24.269 33.934)" d="m45.866 24.802-4.1864 0.37109-1.1106 4.0534-0.37109-4.1864-4.0534-1.1106 4.1864-0.37109 1.1106-4.0534 0.37109 4.1864z" fill="#ffe9fe"/>
 <path transform="matrix(-.96825 -.14606 -.10838 1.1514 74.998 32.836)" d="m45.866 24.802-4.1864 0.37109-1.1106 4.0534-0.37109-4.1864-4.0534-1.1106 4.1864-0.37109 1.1106-4.0534 0.37109 4.1864z" fill="#ffe9fe"/>
 <path transform="matrix(.36381 -.16636 .17978 .39123 -9.5123 .66542)" d="m45.866 24.802-4.1864 0.37109-1.1106 4.0534-0.37109-4.1864-4.0534-1.1106 4.1864-0.37109 1.1106-4.0534 0.37109 4.1864z" fill="#ffe9fe"/>
 <path transform="matrix(.55128 0 0 .6859 -7.3998 -11.26)" d="m45.866 24.802-4.1864 0.37109-1.1106 4.0534-0.37109-4.1864-4.0534-1.1106 4.1864-0.37109 1.1106-4.0534 0.37109 4.1864z" fill="#ffe9fe"/>
 <path transform="matrix(-.6032 -.29239 -.29807 .68762 88.082 48.766)" d="m45.866 24.802-4.1864 0.37109-1.1106 4.0534-0.37109-4.1864-4.0534-1.1106 4.1864-0.37109 1.1106-4.0534 0.37109 4.1864z" fill="#ffe9fe"/>
 <path transform="matrix(.36381 -.16636 .17978 .39123 8.1859 55.879)" d="m45.866 24.802-4.1864 0.37109-1.1106 4.0534-0.37109-4.1864-4.0534-1.1106 4.1864-0.37109 1.1106-4.0534 0.37109 4.1864z" fill="#ffe9fe"/>
</svg>
