<?xml version="1.0" encoding="UTF-8"?>
<svg cursor="default" version="1.1" viewBox="0 0 256 256" xml:space="preserve" xmlns="http://www.w3.org/2000/svg" xmlns:xlink="http://www.w3.org/1999/xlink"><defs><linearGradient id="linearGradient4952"><stop stop-color="#ff8080" offset="0"/><stop stop-color="#faa" offset="1"/></linearGradient><linearGradient id="linearGradient4954" x1="-104.44" x2="-107.44" y1="246.78" y2="-14.956" gradientTransform="matrix(1.05 0 0 1.05 238.28 -7.8583)" gradientUnits="userSpaceOnUse" xlink:href="#linearGradient4952"/><linearGradient id="linearGradient5043" x1="-106.81" x2="-106.2" y1="84.341" y2="32.079" gradientTransform="matrix(1.05 0 0 1.05 238.28 -7.8583)" gradientUnits="userSpaceOnUse" xlink:href="#linearGradient4952"/><linearGradient id="linearGradient5045" x1="-124.09" x2="-125.59" y1="53.583" gradientTransform="matrix(1.05 0 0 1.05 238.28 -7.8583)" gradientUnits="userSpaceOnUse" xlink:href="#linearGradient4952"/><linearGradient id="linearGradient5047" x1="-88.042" x2="-85.751" y1="54.288" y2="10.84" gradientTransform="matrix(1.05 0 0 1.05 238.28 -7.8583)" gradientUnits="userSpaceOnUse" xlink:href="#linearGradient4952"/><linearGradient id="linearGradient5049" x1="-105.05" x2="-104.87" y1="42.655" y2="29.612" gradientTransform="matrix(1.05 0 0 1.05 238.28 -7.8583)" gradientUnits="userSpaceOnUse"><stop stop-color="#ff2a2a" offset="0"/><stop stop-color="#f55" offset="1"/></linearGradient><linearGradient id="linearGradient5063" x1="-104.87" x2="-104.35" y1="32.344" y2="18.684" gradientTransform="matrix(1.05 0 0 1.05 238.28 -7.8583)" gradientUnits="userSpaceOnUse"><stop stop-color="#f55" offset="0"/><stop stop-color="#ff8080" offset="1"/></linearGradient></defs><g stroke="#000"><g stroke-width="1.05"><path d="m188.88 105.03 0.1225 4.0727c3.5486 2.7577 25.181-1.8172 30.477-4.6292l-1.0314-4.5663c2.9444-1.0043 0.62266-4.2789 0.32104-5.3339-6.0344-18.802-12.069-47.213-18.56-54.546-10.149-9.5522-33.333-9.0968-45.58-20.492l-49.97-1.8507h4e-5c-9.801 10.19-40.736 14.199-48.489 21.839-6.7919 6.6922-12.288 35.61-18.322 54.412-0.68938 2.5922-2.1457 3.0947-0.55522 5.1821l-1.106 5.2943c11.101 1.4825 22.283 7.8453 31.735 4.8409l0.2778-4.8606 0.0462-8.4671-1.7119 142.09c-0.0378 3.2258 3.8625 5.8542 18.437 7.3466 23.213 2.3769 63.85 2.2746 85.81 0.15551 13.896-1.3409 18.646-4.479 18.641-7.2245l-0.66277-142.29z" fill="url(#linearGradient4954)"/><path d="m116.55 10.286c7.1193 0.65889 15.863 0.87672 23.795 0.13182 4.0905-0.38412 7.5737-1.9365 8.058-0.80513 4.0904 12.204 8.6599 19.264-21.761 25.018-12.099-8.0322-27.734-7.1502-19.167-25.182 0.71399-1.5508 5.4698 0.50318 9.0754 0.83689z" fill="url(#linearGradient5063)"/><path d="m104.84 19.162c2.1358 5.2246 39.664 6.7724 45.158-0.09254 3.5056 22.076-46.46 19.699-45.158 0.09254z" fill="url(#linearGradient5049)"/></g><path d="m120.17 32.71 15.966 0.06544v37.69l-16.162 0.1963z" fill="url(#linearGradient5043)" stroke-width=".75"/><path d="m108 41.086c6.8266-2.0696 12.482-5.1641 17.929-8.4409-4.251 1.15-20.168-11.748-18.387-23.36-1.4394 3.1192-3.0471 6.07-5.6927 7.9829-6.5072 9.1461-0.7239 16.559 6.1507 23.818z" fill="url(#linearGradient5045)" stroke-width="1.05"/><path d="m147.78 41.151c-6.8266-2.0696-12.482-5.1641-17.929-8.4409 4.251 1.15 20.168-11.748 18.387-23.36 1.4394 3.1192 3.0471 6.07 5.6927 7.9829 6.5072 9.1461 0.7239 16.559-6.1507 23.818z" fill="url(#linearGradient5047)" stroke-width="1.05"/></g><g fill="none" stroke="#000" stroke-width=".525"><path d="m127.65 38.733 4.7112-0.1963-4.6458-0.5889z"/><path d="m128.15 51.772 4.7112-0.1963-4.6458-0.5889z"/><path d="m120.29 65.431 15.546-0.09254"/></g><g transform="matrix(.061057 0 0 .061057 177.93 72.288)" fill="#ffe6d5" stroke="#ffe6d5"><path d="m-138.71 186.05c-0.06-6.215-2.182-6.367-2.182-6.367-4.012-10.83-6.727-27.914-9.511-36.82-4.491-9.816-6.913-19.203-8.073-29.854m-18.405-2.917-0.17 30.493c-1.12 8.796-1.803 28.626-2.15 35.588-0.625 5.49-1.697 1.536-2.01 8.278" stroke-width="7.665"/><path d="m-175.07 65.732c-8.798 0.203-11.34 11.314-10.948 13.69 0.46 2.791 9.166 9.552 9.274 17.45m19.825-31.431c11.248 0.135 14.407 10.281 14.267 14.495-0.073 2.21-13.25 6.51-15.188 18.184" stroke-width="6.373"/><g transform="matrix(1.0552 0 0 1.0693 -302.38 -43.842)"><path d="m115.46 148.48 24.584-1.246c-1.17-8.243-0.285-15.855-5.083-24.936-3.602-6.819 7.163-7.261 4.725-21.506-0.339-1.98-18.295-1.398-19.142 0.232-7.482 14.4 8.92 15.195 1.735 21.363-5.024 4.314-8.075 15.927-6.819 26.093z" fill-rule="evenodd" stroke-width="3.608"/><ellipse transform="rotate(1.158)" cx="131.01" cy="83.903" rx="7.206" ry="8.121" stroke-linecap="round" stroke-linejoin="round" stroke-width="3.608"/><g fill-rule="evenodd"><path d="m134.94 113.7c-23-17.732-41.612-30.086-46.25-54.488-25.442 6.497-40.937 20.01-50.364 37.8l26.686-3.398 13.85 12.448 26.921-2.551z" stroke-width="3.608"/><path d="m128.2 109.72c23.698-16.789 42.794-28.38 48.415-52.575 25.158 7.52 40.094 21.647 48.794 39.804l-26.526-4.473-14.341 11.877-26.797-3.636z" stroke-width="3.608"/><path d="m121.52 101.02c1.303-4.837-0.66-8.596-0.723-13.638l16.934-0.937c-0.193 4.982-0.78 11.265-0.184 14.558z"/><path d="m124.11 83.587c-8.513-7.05-8.095-13.589-8.571-20.179 1.964 6.216 2.308 12.684 11.518 17.768zm9.877-0.268c6.995-7.05 6.652-13.589 7.043-20.179-1.613 6.216-1.897 12.685-9.464 17.768z"/></g></g></g><path d="m120.61 22.797-0.19629-5.0056c5.1688 0.3284 10.406 0.45258 15.835 0l-0.13087 4.9402c-5.6876 0.48838-10.685 0.35562-15.508 0.06544z" fill="#cdde87" stroke="#000" stroke-width=".525"/><g fill="none" stroke="#000" stroke-width=".525"><path d="m37.243 99.022c10.766 3.0483 23.68 6.2297 30.954 5.0895"/><path d="m218.73 99.498c-10.766 3.0483-22.764 5.6408-30.037 4.5006"/><path d="m68.234 96.246c-0.79863-10.255-4.2342-23.798-6.9568-36.703-1.9181-9.0921-3.1359-19.918-4.833-20.115"/><path d="m188.69 96.366c0.79863-10.255 3.9234-23.798 6.646-36.703 1.9181-9.0921 3.1359-19.918 4.833-20.115"/></g><ellipse cx="127.84" cy="38.312" rx="1.6528" ry="1.5884" fill="#ffe680" stroke="#000" stroke-width=".5"/><ellipse cx="128.09" cy="51.369" rx="1.6528" ry="1.5884" fill="#ffe680" stroke="#000" stroke-width=".5"/><g fill="none" stroke="#000"><path d="m127.83 38.718c-0.42591-0.0051-0.44343-0.8789 0.0122-0.88986 0.58256-0.01402 0.52499 0.89635-0.0122 0.88986z" stroke-dasharray="0.2625, 0.2625" stroke-width=".2625"/><path d="m128.03 51.914c-0.42591-0.0051-0.44342-0.8789 0.0122-0.88986 0.58256-0.01402 0.52499 0.89635-0.0122 0.88986z" stroke-dasharray="0.2625, 0.2625" stroke-width=".2625"/><g stroke-width=".525"><path d="m122.63 21.902v-3.0768c1.9618 0.02254 2.4808 1.8405 3e-5 1.7582"/><path d="m126.32 21.781c1.518 0.0083 1.4583-2.7169 0.0658-2.7331-1.2332-0.01441-1.315 2.7263-0.0658 2.7331z"/><path d="m132.84 21.775c1.518 0.0083 1.4583-2.7169 0.0658-2.7331-1.2333-0.01441-1.315 2.7263-0.0658 2.7331z"/><path d="m131.09 21.819-1.9923-0.0056-8e-3 -2.9285"/></g></g></svg>
