<?xml version="1.0" encoding="UTF-8"?>
<svg version="1.1" viewBox="0 0 64 64" xmlns="http://www.w3.org/2000/svg">
 <g fill-rule="evenodd">
  <path d="m63.091 35.294-62.09-0.31 0.177-6.805 62.005 0.442z" fill="#333" stroke="#000"/>
  <g transform="translate(-1.336 -.6578)">
   <g transform="matrix(-1 0 0 1 66.672 0)">
    <path d="m33.75 29.853c-0.40175 2.305 1.1103 3.5264 0.176 3.845l-21 11.415c-1.89 0.977-2.2234-15.269-2.8274-22.458-0.29-3.447 16.109 4.7382 23.651 7.1982z" fill="#333" stroke="#000"/>
    <path d="m31.23 29.234c-5.521-3.591-10.488-7.57-18.296-9.06-1.293-0.246-3.075 22.603-1.768 22.805 9.662 1.49 15.678-7.454 22.097-7.867 0.10258-3.2984-0.14504-4.1899 0.663-4.154z" fill="#4d4d4d" stroke="#000"/>
    <path d="m30.086 31.916c-4.395 0.126-8.0746 1.7395-11.811 4.6287 3.2643-1.9953 7.3814-3.8357 11.801-3.6287z"/>
   </g>
   <g>
    <path d="m33.75 29.853c-0.40175 2.305 1.1103 3.5264 0.176 3.845l-21 11.415c-1.89 0.977-2.2234-15.269-2.8274-22.458-0.29-3.447 16.109 4.7382 23.651 7.1982z" fill="#333" stroke="#000"/>
    <path d="m31.23 29.234c-5.521-3.591-10.488-7.57-18.296-9.06-1.293-0.246-3.075 22.603-1.768 22.805 9.662 1.49 15.678-7.454 22.097-7.867 0.10258-3.2984-0.14504-4.1899 0.663-4.154z" fill="#4d4d4d" stroke="#000"/>
    <path d="m30.8 30.696c-4.3321-0.75159-8.742-1.9088-13.193-1.8998 4.4101 0.32253 8.6937 1.7949 12.984 2.8778z"/>
   </g>
   <path d="m29.844 27.919c-0.20674 2.605 0.07859 5.713-0.45318 8.5878 2.2983 0.37208 5.5902 0.27012 8.0374-0.29301 0.71184-2.8833-0.26198-6.3614-0.71761-7.942-3.8096-1.517-5.2895-0.44203-6.8666-0.3528z" fill="#808080" stroke="#000"/>
   <path d="m37.266 30.722 0.07099 0.42064c0.47682-0.08047 1.1647-0.23903 1.8476-0.45715 0.5256-0.16788 1.0276-0.36325 1.5208-0.59869 0.49316-0.23542 0.93764-0.49166 1.3676-0.76579 0.56092-0.35762 1.0696-0.72876 1.4248-0.96708-0.35515 0.23832-0.9041 0.5524-1.5045 0.8187-0.46086 0.20441-0.93108 0.37364-1.4382 0.51496-0.50564 0.1409-1.012 0.24416-1.5334 0.33283-0.56334 0.09581-1.2633 0.18513-1.8267 0.28094l0.07099 0.42064z" fill-rule="nonzero"/>
   <path d="m29.904 32.265-0.07099-0.42064c-0.47682 0.08047-1.1647 0.23903-1.8476 0.45715-0.5256 0.16788-1.0276 0.36325-1.5208 0.59869-0.49316 0.23542-0.93764 0.49166-1.3676 0.76579-0.56092 0.35762-1.0696 0.72876-1.4248 0.96708 0.35515-0.23832 0.9041-0.5524 1.5045-0.8187 0.46086-0.20441 0.93108-0.37364 1.4382-0.51496 0.50564-0.1409 1.012-0.24416 1.5334-0.33283 0.56334-0.09581 1.2633-0.18513 1.8267-0.28094l-0.07099-0.42064z" fill-rule="nonzero"/>
  </g>
 </g>
</svg>
