<?xml version="1.0" encoding="UTF-8"?>
<svg version="1.1" viewBox="0 0 64 64" xmlns="http://www.w3.org/2000/svg">
 <g fill="none" stroke="#000">
  <path d="m57.29 12.631-0.0174 35.886" stroke-width="3"/>
  <path d="m6.0134 13.66 52.287-0.044m-52.199 8.11 51.933-0.045m-52.154 8.928 52.287-0.045m-52.287 8.574 52.287-0.044m-52.242 8.485 52.286-0.044" stroke-width="2"/>
 </g>
 <path d="m57.305 13.13-0.044 34.87" fill="#808080" stroke="#808080" stroke-width="2"/>
 <path d="m6.5042 13.66 51.796-0.044m-51.708 8.11 51.442-0.045m-51.663 8.928 51.796-0.045m-51.796 8.574 51.796-0.044m-51.751 8.485 51.795-0.044" fill="#808080" stroke="#808080"/>
 <g fill="#808080" fill-rule="evenodd" stroke="#000" stroke-width=".5">
  <path d="m13.663 58.517c1.779 3.508 7.847 1.497 7.204-2.298l-6.585-38.845c-2.08-12.276 2.477-15.27 4.154-15.247 5.271 0.071 4.4727 17.538-1.5643 22.871l-0.95468-5.2378c11.797-14.88-3.474-16.877-0.663-3.138 2.688 13.139 4.538 26.281 6.806 39.421 0.782 4.525-8.32 9.787-11.711 1.37-1.347-3.341 3.71-6.404 5.718-3.458 1.737 2.546-0.032 4.688-2.404 4.563z"/>
  <path d="m14.808 20.578c-4.157 4.697-8.5794 9.4171-8.6124 15.136-0.041 7.032 3.78 13.304 13.744 11.712 5.08-0.812 6.648-5.754 6.187-9.59-0.46-3.832-3.124-6.832-7.424-6.983-7.63-0.27-8.926 11.408-2.122 12.816-4.2-5.98-0.887-9.637 2.52-9.016 2.46 0.45 3.217 1.748 4.021 3.978 0.467 1.295 1.199 6.63-3.447 7.513-6.469 1.229-11.848-2.002-11.27-9.634 0.33-4.338 4.636-6.945 7.38-10.21z"/>
 </g>
</svg>
