<?xml version="1.0" encoding="UTF-8"?>
<svg version="1.1" viewBox="0 0 100 100" xmlns="http://www.w3.org/2000/svg" xmlns:xlink="http://www.w3.org/1999/xlink">
 <defs>
  <linearGradient id="linearGradient684">
   <stop offset="0"/>
   <stop stop-opacity="0" offset=".10103"/>
   <stop stop-opacity="0" offset=".89898"/>
   <stop offset="1"/>
  </linearGradient>
  <linearGradient id="linearGradient566">
   <stop stop-color="#ff8080" offset="0"/>
   <stop stop-color="#faa" offset="1"/>
  </linearGradient>
  <linearGradient id="linearGradient473" x1="48.199" x2="48.199" y1="23.077" y2="17.527" gradientUnits="userSpaceOnUse" xlink:href="#linearGradient566"/>
  <linearGradient id="linearGradient568" x1="30.574" x2="49.951" y1="88.608" y2="10.321" gradientUnits="userSpaceOnUse" xlink:href="#linearGradient566"/>
  <linearGradient id="linearGradient678" x1="21.811" x2="78.676" y1="20.448" y2="20.351" gradientUnits="userSpaceOnUse" xlink:href="#linearGradient684"/>
 </defs>
 <g transform="matrix(.83429 -.1976 .1976 .83429 -14.915 5.0827)" stroke-width=".75813">
  <g>
   <rect x="19.28" y="16.408" width="61.293" height="7.8445" rx=".97635" ry=".79581" fill="url(#linearGradient473)" stroke="#000" stroke-width=".75813"/>
   <rect x="19.28" y="16.408" width="61.293" height="7.8445" rx=".97635" ry=".79581" fill="url(#linearGradient678)" opacity=".29386"/>
   <path d="m20.443 15.504c-2.7358 0-4.9395 2.1805-4.9395 4.8887v59.215c0 2.7082 2.2036 4.8887 4.9395 4.8887h59.113c2.7358 0 4.9395-2.1805 4.9395-4.8887v-59.215c0-2.7082-2.2036-4.8887-4.9395-4.8887h-2.9355v55.979c0 2.8467-1.6993 5.1387-3.8105 5.1387h-45.621c-2.1113 0-3.8105-2.292-3.8105-5.1387v-55.979z" fill="url(#linearGradient568)" stroke="#000" stroke-width=".75813"/>
  </g>
  <g fill="#fff">
   <path d="m27.256 77.88c6.6392 7e-3 26.556 0.3383 33.196 0.34533 2.5526 0.0027 10.211-0.29935 12.764-0.29665-2.5526-0.0027-10.21-0.32098-12.763-0.32369-6.6392-7e-3 -26.557 0.28204-33.196 0.27501z"/>
   <path d="m30.322 17.53c6.0008 7e-3 24.003 0.3456 30.004 0.35264 2.296 0.0027 9.1842-0.30666 11.48-0.30396-2.296-0.0027-9.1835-0.32821-11.479-0.3309-6.0008-7e-3 -24.003 0.28926-30.004 0.28222z"/>
   <path d="m78.335 16.811c0.28287 0.01879 0.73412-0.01401 1.2304 4.68e-4 0.38172 0.01114 0.78827 0.05665 1.1951 0.21555 0.45078 0.17608 0.83183 0.46512 1.1461 0.83955 0.19652 0.23417 0.34596 0.47783 0.44515 0.68041 0.1157 0.23628 0.24836 0.57213 0.37784 1.0344 0.17837 0.63673 0.34538 1.4915 0.47798 2.6869 0.11771 1.0611 0.20285 2.3392 0.25406 3.8916 0.13348 4.0469 0.0062 8.6914-0.06325 12.511 0.06648-3.6552-0.0013-8.6348-0.35719-12.485-0.14232-1.5395-0.31787-2.7901-0.51674-3.8142-0.22397-1.1534-0.46245-1.9412-0.67436-2.5046-0.15236-0.40514-0.29038-0.69162-0.38552-0.88593-0.0853-0.17421-0.17933-0.37526-0.2996-0.58666-0.18487-0.32496-0.39894-0.6154-0.69208-0.85388-0.27486-0.22362-0.5914-0.3788-0.94733-0.49415-0.43416-0.1407-0.92742-0.21822-1.1905-0.2357z"/>
  </g>
 </g>
 <g transform="matrix(.84549 .14229 -.14229 .84549 29.191 15.55)">
  <g>
   <rect x="19.28" y="16.408" width="61.293" height="7.8445" rx=".97635" ry=".79581" fill="url(#linearGradient473)" stroke="#000" stroke-width=".75813"/>
   <rect x="19.28" y="16.408" width="61.293" height="7.8445" rx=".97635" ry=".79581" fill="url(#linearGradient678)" opacity=".29386"/>
   <path d="m20.443 15.504c-2.7358 0-4.9395 2.1805-4.9395 4.8887v59.215c0 2.7082 2.2036 4.8887 4.9395 4.8887h59.113c2.7358 0 4.9395-2.1805 4.9395-4.8887v-59.215c0-2.7082-2.2036-4.8887-4.9395-4.8887h-2.9355v55.979c0 2.8467-1.6993 5.1387-3.8105 5.1387h-45.621c-2.1113 0-3.8105-2.292-3.8105-5.1387v-55.979z" fill="url(#linearGradient568)" stroke="#000" stroke-width=".75813"/>
  </g>
  <g fill="#fff">
   <path d="m27.256 77.88c6.6765 0.0071 26.706 0.37074 33.382 0.37781 2.5153 0.0027 10.062-0.33179 12.577-0.32913-2.5153-0.0027-10.061-0.35311-12.576-0.35577-6.6765-0.0071-26.706 0.31416-33.383 0.30709z"/>
   <path d="m30.322 17.53c5.6191 0.0066 22.476 0.36012 28.095 0.36671 2.6776 0.0031 10.711-0.32117 13.389-0.31803-2.6776-0.0031-10.71-0.34631-13.388-0.34945-5.6191-0.0066-22.477 0.30737-28.096 0.30077z"/>
   <path d="m78.335 16.811c0.28536 0.01895 0.73474-0.0014 1.2257 0.0284 0.37517 0.02275 0.77303 0.08065 1.1665 0.247 0.42267 0.17867 0.78654 0.46021 1.0976 0.83835 0.25888 0.3147 0.44858 0.65836 0.56917 0.93679 0.08014 0.18506 0.17052 0.42964 0.26231 0.74362 0.1777 0.60785 0.35448 1.452 0.4981 2.6711 0.12369 1.0499 0.21668 2.3232 0.27545 3.8855 0.15137 4.024 0.03762 8.7052-0.03156 12.509 0.0666-3.6617 0.0126-8.6325-0.3255-12.487-0.13609-1.5514-0.30494-2.8012-0.49535-3.8203-0.22096-1.1827-0.45544-1.9703-0.65423-2.5204-0.10218-0.28273-0.19453-0.50118-0.26479-0.66342-0.10906-0.25183-0.2382-0.55023-0.41184-0.84354-0.20243-0.34195-0.43676-0.62817-0.74052-0.85509-0.29134-0.21764-0.61973-0.36053-0.97584-0.4627-0.4355-0.12495-0.93286-0.19034-1.1952-0.20776z"/>
  </g>
 </g>
</svg>
