<?xml version="1.0" encoding="UTF-8"?>
<svg version="1.1" viewBox="0 0 64 64" xmlns="http://www.w3.org/2000/svg">
 <path d="m44.805 2.4629c-5.3193-0.021277-10.37 2.2173-12.658 6.9199-5.9057-13.492-45.986-7.1037-23.586 25.02 6.6734 9.57 15.74 18.141 23.99 27.135 8.8977-9.3838 18.567-18.509 24.684-28.334 12.271-19.713-0.72733-30.693-12.43-30.74zm-1.1914 2.7461c10.614 0.042457 22.406 10.001 11.275 27.881-5.5476 8.9118-14.318 17.19-22.389 25.701-7.4836-8.1578-15.709-15.931-21.762-24.611-20.318-29.137 16.038-34.933 21.395-22.695 2.0752-4.2655 6.6557-6.2947 11.48-6.2754z" fill="#ffd5e5" opacity=".5"/>
 <path d="m43.061 6.4863c-4.595-0.01838-8.9572 1.9142-10.934 5.9766-5.1016-11.655-39.725-6.136-20.375 21.613 5.7647 8.2669 13.597 15.67 20.725 23.439 7.6861-8.1061 16.039-15.989 21.322-24.477 10.6-17.029-0.62934-26.512-10.738-26.553zm-1.0781 2.4863c9.1233 0.036493 19.258 8.5964 9.6914 23.965-4.7683 7.6599-12.307 14.774-19.244 22.09-6.4324-7.0118-13.5-13.693-18.703-21.154-17.463-25.044 13.783-30.024 18.387-19.506 1.7837-3.6663 5.7222-5.4111 9.8691-5.3945z" fill="#ff80b2" opacity=".5"/>
 <g transform="matrix(3.7539 -1.5329 1.5329 3.7539 -507.07 151.6)" fill-rule="evenodd" stroke-width=".12331">
  <path d="m130.38 18.543c1.14-2.88 5.153-1.331 5.363 0.762 1.417-1.422 5.547 0.33 4.28 3.485-0.91 2.265-4.215 3.409-7.642 4.942-1.394-3.542-2.934-6.83-2.001-9.19z" fill="#ff2a7f" stroke="#000"/>
  <path d="m137.7 19.473c0.15794 3e-3 0.38016 0.04065 0.61739 0.15304 0.17825 0.08444 0.34506 0.20136 0.49527 0.34809 0.34132 0.33342 0.4963 0.71506 0.59135 0.95038 0.0107 0.02646 0.0227 0.05611 0.0353 0.08847 0.11281 0.28872 0.25006 0.73056 0.20637 1.2824-0.0471 0.59443-0.28951 1.0591-0.52254 1.339 0.23394-0.28101 0.53652-0.69608 0.67144-1.3168 0.12404-0.57066 0.05-1.0789-0.061-1.4108-0.0124-0.03705-0.0249-0.07065-0.0369-0.1005-0.10658-0.26387-0.35724-0.66537-0.77871-0.96005-0.18655-0.13044-0.38131-0.22239-0.57689-0.28168-0.26054-0.07899-0.48296-0.08855-0.64102-0.09159z" fill="#fffefe" fill-rule="nonzero"/>
 </g>
 <g transform="matrix(.85738 0 0 .85738 49.461 2.5462)" fill="#ffd5e5" stroke="#000" stroke-width=".58317">
  <path d="m-23.282 38.225c0.19673 1.8507 5.9807 1.6531 6.1556 0l2.0519-19.4c0.24381-2.3051-10.481-1.99-10.259 0.097z"/>
  <ellipse cx="-20.238" cy="47.385" rx="4.5085" ry="4.3729" stroke-linecap="round" stroke-linejoin="round"/>
 </g>
</svg>
