<?xml version="1.0" encoding="UTF-8"?>
<svg version="1.1" viewBox="0 0 64 64" xmlns="http://www.w3.org/2000/svg" xmlns:xlink="http://www.w3.org/1999/xlink">
 <defs>
  <linearGradient id="linearGradient592" x1="31.346" x2="31.907" y1="44.557" y2="11.342" gradientTransform="translate(0 -10.594)" gradientUnits="userSpaceOnUse">
   <stop stop-color="#ff8080" offset="0"/>
   <stop stop-color="#faa" offset="1"/>
  </linearGradient>
 </defs>
 <g stroke="#000" stroke-linecap="round" stroke-linejoin="round">
  <path d="m35.994 9.7849-8.0182-0.00592c-3.5444-0.00253-4.0573 8.1927-0.09941 8.2247l8.0846 0.06593c4.2681 0.03444 3.6439-8.2821 0.0331-8.2847zm-0.90173 1.5708c2.794 0.0041 3.2845 4.9673-0.01801 4.9438l-6.2553-0.04438c-3.0625-0.02184-2.6731-4.9125 0.06952-4.9085z" fill="#999" stroke-width=".2663"/>
  <path d="m53.269 4.2832-7.1022 3.219c-3.1395 1.423 0.57209 8.9331 4.0926 7.37l7.1915-3.1921c3.7964-1.6856-0.98355-8.8465-4.1818-7.3968zm3.8e-5 1.7625c2.4758-1.1198 5.433 3.1063 2.4969 4.4133l-5.5609 2.4758c-2.7226 1.212-4.8637-3.3033-2.4334-4.4026z" fill="#999" stroke-width=".26543"/>
  <path d="m36.344 13.202 10.69-2.7255c0.97871-0.24951 1.7476 1.4042 0.5649 1.713l-10.753 2.8075c-0.79566 0.20774-1.3421-1.5806-0.5015-1.795z" fill="#808080" stroke-width=".31483"/>
  <path d="m62.151 4.9041-5.1296 3.0901c-0.84364 0.50818-2.1496-0.85104-1.1327-1.472l5.1309-3.1333z" fill="#808080" stroke-width=".31483"/>
  <path d="m11.097 4.1086 7.1022 3.219c3.1395 1.423-0.57209 8.9331-4.0926 7.37l-7.1915-3.1921c-3.7964-1.6856 0.98355-8.8465 4.1818-7.3968zm-3.7e-5 1.7625c-2.4758-1.1198-5.433 3.1063-2.4969 4.4133l5.5609 2.4758c2.7226 1.212 4.8637-3.3033 2.4334-4.4026z" fill="#999" stroke-width=".26543"/>
  <path d="m28.023 13.028-10.69-2.7255c-0.97871-0.24951-1.7476 1.4042-0.5649 1.713l10.753 2.8075c0.79566 0.20774 1.3421-1.5806 0.5015-1.795z" fill="#808080" stroke-width=".31483"/>
  <path d="m2.2161 4.7295 5.1296 3.0901c0.84364 0.50818 2.1496-0.85104 1.1327-1.472l-5.1309-3.1333z" fill="#808080" stroke-width=".31483"/>
 </g>
 <g transform="translate(-5e-8 11.84)" stroke="#000" stroke-width=".45">
  <path d="m3.3574 17.326c-0.46375 0-0.83789 0.30365-0.83789 0.68164v27.984c0 0.37799 0.37414 0.68164 0.83789 0.68164h57.285c0.46375 0 0.83789-0.30365 0.83789-0.68164v-27.984c0-0.37799-0.37414-0.68164-0.83789-0.68164zm28.643 4.5898a10.084 10.084 0 0 1 10.084 10.084 10.084 10.084 0 0 1-10.084 10.084 10.084 10.084 0 0 1-10.084-10.084 10.084 10.084 0 0 1 10.084-10.084zm-19.898 5.166a4.9176 4.9176 0 0 1 4.918 4.918 4.9176 4.9176 0 0 1-4.918 4.918 4.9176 4.9176 0 0 1-4.918-4.918 4.9176 4.9176 0 0 1 4.918-4.918zm39.797 0a4.9176 4.9176 0 0 1 4.918 4.918 4.9176 4.9176 0 0 1-4.918 4.918 4.9176 4.9176 0 0 1-4.918-4.918 4.9176 4.9176 0 0 1 4.918-4.918z" fill="url(#linearGradient592)"/>
  <g fill="none">
   <path d="m2.5117 32.044 4.737-0.0071"/>
   <path d="m56.844 31.963 4.5828-0.0069"/>
   <path d="m42.104 31.985 4.8912-0.0073"/>
   <path d="m17.009 32.022 4.9132-0.0073"/>
  </g>
 </g>
</svg>
