<?xml version="1.0" encoding="UTF-8"?>
<svg version="1.1" viewBox="0 0 256 256" xml:space="preserve" xmlns="http://www.w3.org/2000/svg" xmlns:xlink="http://www.w3.org/1999/xlink"><defs><linearGradient id="linearGradient9541"><stop stop-color="#3e3748" offset="0"/><stop stop-color="#7c6f91" offset="1"/></linearGradient><linearGradient id="linearGradient9170"><stop stop-color="#333" offset="0"/><stop stop-color="#1a1a1a" offset="1"/></linearGradient><radialGradient id="radialGradient9172" cx="108.22" cy="87.734" r="13.631" gradientTransform="matrix(1 0 0 1.0291 -5.7337 -4.488)" gradientUnits="userSpaceOnUse" xlink:href="#linearGradient9170"/><radialGradient id="radialGradient9180" cx="154.58" cy="88.13" r="13.631" gradientTransform="matrix(1 0 0 1.0291 -5.7337 -4.4995)" gradientUnits="userSpaceOnUse" xlink:href="#linearGradient9170"/><linearGradient id="linearGradient9224" x1="127.88" x2="127.88" y1="165.52" y2="204.4" gradientTransform="translate(-5.7337 -1.9355)" gradientUnits="userSpaceOnUse"><stop stop-color="#3e3748" offset="0"/><stop stop-color="#7c6f91" offset="1"/></linearGradient><linearGradient id="linearGradient9535" x1="129.37" x2="130.37" y1="215.87" y2="96.717" gradientTransform="translate(-5.7337 -1.9355)" gradientUnits="userSpaceOnUse"><stop stop-color="#9d93ac" offset="0"/><stop stop-color="#7c6f91" offset="1"/></linearGradient><linearGradient id="linearGradient9543" x1="82.758" x2="79.268" y1="101.7" y2="38.138" gradientTransform="translate(-5.7337 -1.9355)" gradientUnits="userSpaceOnUse" xlink:href="#linearGradient9541"/><linearGradient id="linearGradient9545" x1="171.75" x2="190.94" y1="86.497" y2="56.584" gradientTransform="translate(-5.7337 -1.9355)" gradientUnits="userSpaceOnUse" xlink:href="#linearGradient9541"/><linearGradient id="linearGradient9547" x1="94.224" x2="60.074" y1="64.561" y2="36.643" gradientTransform="translate(-5.7337 -1.9355)" gradientUnits="userSpaceOnUse"><stop stop-color="#3e3748" offset="0"/><stop stop-color="#7c6f91" offset="1"/></linearGradient></defs><g stroke="#000"><g><path d="m146.15 85.75c5.0734 1.151 13.222-2.0728 19.612-8.4686 7.9088-7.9163 14.718-18.791 16.24-31.102 1.0876-8.7953 3.9668-15.91 12.42-19.274 6.6373-2.6412 7.9978 2.5533 11.567 4.438-2.969-0.28185-4.0373-2.7177-9.1663-0.13131-7.4802 3.772-3.797 20.966-8.2154 32.032-4.671 11.699-7.5967 18.985-16.609 27.755-9.7476 9.4848-19.567 13.673-26.985 14.498-4.0494-7.1641-5.1177-13.937 1.137-19.747z" fill="url(#linearGradient9545)"/><path d="m84.003 76.834c-1.7287-17.606-10.412-22.855-16.203-29.663-7.5074-8.8262-11.688-8.277-16.701-10.345-9.4075-3.8805-7.664-9.2534-8.8491-14.084 1.8174 3.3071 2.7078 8.1216 7.7274 8.1013 4.8302-0.01953 9.7338-0.66528 13.71 1.9942 12.249 8.1931 25.302 19.715 26.298 34.648z" fill="url(#linearGradient9547)"/><path d="m86.803 183.67c-15.215 14.821-16.51 24.394-15.863 31.551 1.7467 19.321 13.232 29.632 29.558 30.336 12.031 0.51918 24.896-8.4267 25.652-21.035 0.86551-14.436-12.891-21.889-21.979-20.788-7.2411 0.87713-11.72 7.2172-11.468 11.932 0.42344 7.9213 12.845 6.9923 9.9631 0.0837-0.75552 1.3586-0.8777 3.7922-3.7228 3.016-2.6212-0.71509-2.4971-3.3671-0.5074-5.4836 5.8663-6.2402 11.664-2.6196 15.511 2.4676 5.6588 7.4831-5.2404 18.696-14.281 17.015-11.544-2.1458-15.3-9.0218-14.097-18.778 2.0415-16.555 23.218-23.988 30.317-40.716 4.9781-11.73 6.9182-24.786 7.5792-38.777 0.55144-1.3427 1.0006-1.995 1.0576 0 0.0703 14.642-0.66646 29.795 7.5792 43.36 7.3531 12.097 15.856 13.436 14.784 28.907-0.6857 9.8978-8.1256 15.907-20.476 15.085 0.56677 4.8216-1.3154 9.1534-4.054 13.314 10.026 1.7047 20.713 1.2107 29.487-6.0142 17.232-14.189 9.9763-29.648 6.6979-44.065l-34.018-84.781z" fill="url(#linearGradient9224)"/></g><g fill="#3e3748"><path d="m26.522 92.981c0.24126 10.237 14.308 28.335 33.666 29.171 26.833 1.1596 33.864-7.2088 46.18-19.036-28.672 1.2174-58.08 13.155-79.846-10.135z"/><path d="m219.17 103.82c-1.2249 12.19-22.456 30.405-48.472 19.389 1.4613 6.1104 10.409 12.221 18.155 18.331-25.786 0.23843-37.602-21.245-46.18-40.54 23.698 3.2468 44.901 16.859 76.497 2.8202z"/><path d="m61.421 190.54c30.1-0.0412 52.026-15.598 61.515-65.04 1.086-5.6585 3.1704-3.2471 3.568 0 3.4012 27.78 13.457 50.568 33.14 64.269 22.103 15.387 51.449 19.088 61.884-6.9028-2.2449-2.4237-4.076-0.36756-6.4264 0.52966-23.494 8.9683-40.962 3.6189-57.09-6.0756l-29.435-65.393-11.633-0.8813c1.6792 31.228-24.79 67.164-50.164 70.686-8.1213 1.1272-2.9759 8.1079-5.3584 8.8075z"/><path d="m50.317 183.31c-4.9529-4.164-11.642-2.8914-12.867-18.155-0.62773-7.8233 4.8983-17.8 20.799-18.684 12.754-0.70887 22.599 4.5246 41.597-11.457-0.1537 7.046 0.16637 12.588 0.88131 18.331l16.745-48.824-58.695 32.961c-16.244 1.2648-26.987 8.0299-29.612 22.914-3.2946 31.776 11.286 21.843 21.151 22.914z"/><path d="m137.04 111.93c1.7984 16.713 8.6961 36.028 12.338 45.828l-0.17626-20.622c20.486 19.123 28.139 12.262 40.716 15.158 21.021 4.841 19.459 17.199 21.328 28.907 25.618-24.273-38.782-40.318-64.692-67.48-4.0731-4.2699-5.6119 1.4728-9.5137-1.7899z"/></g><g><path d="m83.629 91.167c-4.4149-2.752-7.9365-10.776-7.9766-19.817-0.049642-11.19 2.7643-23.708 10.345-33.527 5.4159-7.0149 8.3758-14.096 4.7361-22.434-2.8578-6.547-7.4796-3.8132-11.342-4.9854 2.308 1.8888 4.781 0.90968 6.6056 6.3564 2.6611 7.9436-12.054 17.569-16.701 28.541-4.9128 11.6-7.9608 18.836-7.7274 31.408 0.25246 13.598 4.2833 23.484 8.9737 29.289 7.9183-2.2412 13.443-6.3019 13.087-14.832z" fill="url(#linearGradient9543)"/><path d="m221.82 182.08c5.6614-19.621-5.364-37.583-21.328-44.064-5.9056-2.3977-9.997-2.4681-14.453-3.3496-17.472-3.4564-24.175-17.231-31.904-26.262 13.731 6.3545 27.364 14.249 46.357 9.3418 19.57-5.0555 20.673-12.579 20.27-19.213-0.6875-11.317-8.3225-12.628-7.0508-19.918 0.99833-5.7226 6.7623-7.2663 12.34-4.2305 3.3042 1.7985 7.5889 7.919 1.7617 9.6953-1.4231 0.43382-3.2558-2.5602-4.0547-4.4062-0.84741 2.8389 0.27919 7.1727 4.584 6.5215 6.9468-1.0508 7.234-12.849-1.0586-15.863-4.9822-1.8113-16.35-6.3078-20.455 7.9316-1.274 4.4193-0.95796 9.1451 1.9492 15.686 0.96075 7.076-4.0394 12.571-12.881 12.1-18.042-0.96107-27.871-10.316-26.529-18.465 4.273-25.961-11.775-50.464-43.838-50.398-37.031 0.07523-45.033 31.197-43.66 45.484 0.53443 5.5614-0.39371 11.402-4.7598 15.334-12.708 11.445-40.891 8.6828-42.303-13.572-0.15142-2.3867 3.3252-15.702 11.986-7.2266 6.152 6.0202-3.4825 6.942-3.7012 3.8789 0.10854 3.2404 2.2951 5.2276 6.5215 3.5234 2.7696-1.1168 5.3414-7.1698-1.2344-12.16-5.9681-4.5291-20.446-1.1774-22.561 12.865-3.7361 24.807 29.364 39.446 69.9 23.225-28.01 25.933-33.536 18.285-46.09 22.533-11.664 3.9473-23.579 12.677-25.354 30.525-1.4278 14.358 7.3205 30.938 23.576 32.471 12.734 1.2008 23.758-5.0045 26.503-12.755 8.1954-23.137-11.004-32.934-19.63-29.548l0.0029-9.8e-4c-15.082 5.9202-7.4952 17.923-2.952 19.344 5.6834 1.7783 10.229-6.25 4.7157-8.0632 2.6479 2.1592-0.49934 6.9186-3.7031 3.877-3.204-3.0419-2.6114-9.2968 4.9355-8.8125 8.8565 0.56831 9.2339 10.727 7.748 16.684-3.1101 12.469-27.483 7.2512-29.84-3.6504-2.2636-10.468-1.1935-19.551 10.896-25.299 8.0146-3.8106 21.859-3.8823 39.221-10.119 10.881-3.9089 15.201-14.294 22.738-21.504-6.3247 39.617-19.435 54.193-32.136 58.74-0.69978 5.9083-2.3743 10.83-4.6283 12.983 36.312-4.9297 46.055-40.361 51.217-68.022 0.88051-4.7183 2.9217-2.2803 3.5254 0.17578 4.528 18.421 8.2845 47.936 35.957 69.094 7.1638 5.4772 24.086 11.341 33.957 9.7177-4.2623-0.33924-11.028-3.1147-15.541-14.227-34.305-18.865-37.128-59.713-39.743-68.64 7.8588 8.9893 13.052 16.473 25.205 26.969 7.4485 6.433 24.102 3.5296 36.662 11.986 19.391 13.056 13.821 31.826-2.7235 31.702-7.3665-0.0553-12.341-3.9606-12.258-11.32 0.22268-19.635 23.317-11.085 18.32 0.80314 11.283-13.483-14.665-24.688-23.761-11.398-7.7326 13.189 0.41123 34.252 16.087 33.992 9.152-0.15188 20.699-5.1124 23.196-14.697z" fill="url(#linearGradient9535)"/><ellipse cx="102.49" cy="85.798" rx="13.131" ry="13.528" fill="url(#radialGradient9172)"/><ellipse cx="148.85" cy="86.195" rx="13.131" ry="13.528" fill="url(#radialGradient9180)"/></g></g><path d="m102.11 94.89c-1.8032-3.9697-7.0858-6.4717-8.6376-10.03-1.3078-2.9985 4.0387-9.5134 8.8503-1.8553 4.4002-8.053 10.193-1.1853 8.9247 2.0694-1.3607 3.4916-6.9434 5.876-9.1373 9.8155z" fill="#fae"/><ellipse transform="rotate(33.06)" cx="134.81" cy="7.9476" rx="3.7906" ry="1.1943" fill="#fff" stroke="#fff" stroke-width=".85383"/><path d="m148.41 95.202c-1.8032-3.9697-7.0858-6.4717-8.6376-10.03-1.3078-2.9985 4.0387-9.5134 8.8503-1.8553 4.4002-8.053 10.193-1.1853 8.9247 2.0694-1.3607 3.4916-6.9434 5.876-9.1373 9.8155z" fill="#fae"/><ellipse transform="rotate(33.06)" cx="174.34" cy="-17.86" rx="3.7906" ry="1.1943" fill="#fff" stroke="#fff" stroke-width=".85383"/></svg>
