<?xml version="1.0" encoding="UTF-8"?>
<svg cursor="default" version="1.1" viewBox="0 0 256 256" xmlns="http://www.w3.org/2000/svg" xmlns:xlink="http://www.w3.org/1999/xlink">
 <g transform="matrix(-.99496 -.10024 -.10024 .99496 730.98 -749.79)">
  <g transform="translate(388.11 31.657)">
   <path d="m73.603 879.52-3.9181 34.589c1.0452 3.1356 4.58 1.4163 4.332 0.29l4.5911-34.301z" fill="#ff8080" fill-rule="evenodd" stroke="#000" stroke-width="1.089"/>
   <ellipse cx="77.213" cy="871.53" rx="9.507" ry="9.94" fill="#faa" stroke="#000" stroke-linecap="round" stroke-linejoin="round" stroke-width="1.038"/>
   <path d="m57.437 884.53c5.445-28.768 5.764-87.94 18.785-84.534 10.565 2.764 9.407 38.815 3.811 63.298-1.995 1.992-2.873 0.633-3.811-0.544 4.61-14.838 9.24-54.29-0.68-57.99-6.99-2.606-8.511 53.85-14.294 81.13-1.368 6.457-5.355 6.796-3.811-1.36z" fill="#ff8080" fill-rule="evenodd" stroke="#000" stroke-width="1.089"/>
   <path d="m74.069 802.15c0.63533 0.0331 1.5854 0.33247 2.4349 0.91571 0.74433 0.51102 1.1549 1.0303 1.5046 1.3727 0.08925 0.0874 0.18541 0.18509 0.28678 0.29425 0.4642 0.49984 1.0386 1.2391 1.6116 2.3871 0.4561 0.9138 0.89559 2.0541 1.2886 3.498 0.745 2.7374 1.2287 6.2204 1.4724 10.485 0.308 5.39 0.18192 11.337 9.72e-4 15.322 0.18218-4.0125 0.45557-9.8958 0.34267-15.335-0.08869-4.2733-0.40361-7.8224-1.0104-10.666-0.32116-1.5053-0.70683-2.7318-1.1385-3.7436-0.54526-1.2779-1.1384-2.1506-1.6734-2.7552-0.11569-0.13076-0.2274-0.24747-0.3333-0.35113-0.39187-0.3836-1.1356-0.84528-2.0689-1.1174-1.1412-0.33273-2.0521-0.27067-2.7179-0.3054z" fill="#fff"/>
   <path d="m81.297 864.96c0.24666 0.24864 0.48241 0.87656 0.63008 1.506 0.14491 0.61775 0.18813 1.1927 0.31095 1.4132 0.15784 0.28343 0.34712 0.62406 0.53507 1.0247 0.42213 0.8998 0.76912 1.9637 0.8368 3.2131 0.06013 1.1102-0.11204 2.2016-0.47445 3.2061-0.47067 1.3046-1.1813 2.2374-1.7138 2.7235 0.52702-0.48118 1.4057-1.2518 2.188-2.4897 0.60154-0.95189 1.0805-2.0829 1.2919-3.3579 0.23936-1.4441 0.09196-2.8186-0.29328-4.0056-0.1697-0.52289-0.37287-0.96928-0.56719-1.3182-0.30364-0.54524-2.2777-1.4451-2.7441-1.9152z" fill="#fff"/>
  </g>
 </g>
 <g transform="rotate(-5.7528 -7966.2 4321.3)">
  <g transform="translate(388.11 31.657)">
   <path d="m73.603 879.52-3.9181 34.589c1.0452 3.1356 4.58 1.4163 4.332 0.29l4.5911-34.301z" fill="#ff8080" fill-rule="evenodd" stroke="#000" stroke-width="1.089"/>
   <ellipse cx="77.213" cy="871.53" rx="9.507" ry="9.94" fill="#faa" stroke="#000" stroke-linecap="round" stroke-linejoin="round" stroke-width="1.038"/>
   <path d="m60.736 884.11c5.445-28.768 5.143-86.75 18.164-83.344 10.565 2.764 6.7288 38.044 1.1328 62.527-1.995 1.992-2.873 0.633-3.811-0.544 4.61-14.838 11.918-53.519 1.9982-57.219-6.99-2.606-8.9686 52.175-14.752 79.455-1.368 6.457-4.2764 7.2805-2.7324-0.87554z" fill="#ff8080" fill-rule="evenodd" stroke="#000" stroke-width="1.089"/>
   <path d="m76.078 802.1c0.63533 0.0331 1.5854 0.33247 2.4349 0.91571 0.74433 0.51102 1.1549 1.0303 1.5046 1.3727 0.08925 0.0874 0.18541 0.18509 0.28678 0.29425 0.4642 0.49984 1.0386 1.2391 1.6116 2.3871 0.4561 0.9138 0.89559 2.0541 1.2886 3.498 0.745 2.7374 1.2287 6.2204 1.4724 10.485 0.308 5.39 0.18192 11.337 9.72e-4 15.322 0.18218-4.0125 0.45557-9.8958 0.34267-15.335-0.08869-4.2733-0.40361-7.8224-1.0104-10.666-0.32116-1.5053-0.70683-2.7318-1.1385-3.7436-0.54526-1.2779-1.1384-2.1506-1.6734-2.7552-0.11569-0.13076-0.2274-0.24747-0.3333-0.35113-0.39187-0.3836-1.1356-0.84528-2.0689-1.1174-1.1412-0.33273-2.0521-0.27067-2.7179-0.3054z" fill="#fff"/>
   <path d="m81.297 864.96c0.24666 0.24864 0.48241 0.87656 0.63008 1.506 0.14491 0.61775 0.18813 1.1927 0.31095 1.4132 0.15784 0.28343 0.34712 0.62406 0.53507 1.0247 0.42213 0.8998 0.76912 1.9637 0.8368 3.2131 0.06013 1.1102-0.11204 2.2016-0.47445 3.2061-0.47067 1.3046-1.1813 2.2374-1.7138 2.7235 0.52702-0.48118 1.4057-1.2518 2.188-2.4897 0.60154-0.95189 1.0805-2.0829 1.2919-3.3579 0.23936-1.4441 0.09196-2.8186-0.29328-4.0056-0.1697-0.52289-0.37287-0.96928-0.56719-1.3182-0.30364-0.54524-2.2777-1.4451-2.7441-1.9152z" fill="#fff"/>
  </g>
 </g>
</svg>
