<?xml version="1.0" encoding="UTF-8"?>
<svg version="1.1" viewBox="0 0 64 64" xmlns="http://www.w3.org/2000/svg" xmlns:cc="http://creativecommons.org/ns#" xmlns:dc="http://purl.org/dc/elements/1.1/" xmlns:rdf="http://www.w3.org/1999/02/22-rdf-syntax-ns#">
 <metadata>
  <rdf:RDF>
   <cc:Work rdf:about="">
    <dc:format>image/svg+xml</dc:format>
    <dc:type rdf:resource="http://purl.org/dc/dcmitype/StillImage"/>
   </cc:Work>
  </rdf:RDF>
 </metadata>
 <g stroke="#000" stroke-width=".75">
  <path d="m5.9714 32.833c-1.0764 6.7892 11.46 20.159 20.601 20.439-3.4185-4.7721-3.7565-8.2379-0.9598-16.739z" fill="#c6e9af" fill-rule="evenodd"/>
  <ellipse transform="matrix(.84886 -.52862 -.52862 -.84886 0 0)" cx="-3.572" cy="-36.303" rx="10.519" ry="10.125" fill="#71c837" stroke-linecap="round" stroke-linejoin="round"/>
  <path d="m46.043 54.929c6.3531-2.6241 11.222-20.293 6.6923-28.238-2.2882 5.406-5.0702 7.5024-13.781 9.5508z" fill="#d5f6ff" fill-rule="evenodd"/>
  <ellipse transform="matrix(-.8938 -.44847 -.44847 .8938 0 0)" cx="-57.064" cy="23.168" rx="10.519" ry="10.125" fill="#5df" stroke-linecap="round" stroke-linejoin="round"/>
  <path d="m43.979 8.5357c-5.4245-4.2221-23.187 0.29356-27.848 8.1631 5.8296-0.68786 9.0275 0.69082 15.12 7.247z" fill="#ffd5b5" fill-rule="evenodd"/>
  <ellipse transform="matrix(.052758 .99861 .99861 -.052758 0 0)" cx="19.556" cy="38.195" rx="10.519" ry="10.125" fill="#e96a30" stroke-linecap="round" stroke-linejoin="round"/>
 </g>
 <g transform="translate(-2.7119 -6.4407)" fill-rule="evenodd">
  <path d="m19.05 47.969c-3.7397-3.5569-6.5255-8.1763-6.4809-13.96 0.89332-0.01299 4.0961-1.5542 6.458-3.3242 2.5054 1.7279 5.5265 3.1751 6.3716 3.2479 0.0113 5.8231-2.6136 10.217-6.3487 14.036z" fill="#c0f" stroke="#000" stroke-width=".675"/>
  <path d="m19.049 31.635c2.7119 1.5771 3.2101 2.1776 5.8873 3.0474-2.6173-0.2731-4.0286-1.0966-5.8873-3.0474z" fill="#fff" fill-opacity=".785" stroke-width=".28243"/>
  <path d="m12.632 34.082c1.0462-0.26803 4.5751-2.0719 6.3806-3.3343-0.01497 3.0367 0.16522 11.528 0.05874 17.313-5.8107-6.0965-6.4549-11.002-6.4394-13.979z" fill-opacity=".15" stroke-width=".28243"/>
 </g>
 <g transform="translate(21.695 7.322)" fill-rule="evenodd">
  <path d="m19.05 47.969c-3.7397-3.5569-6.5255-8.1763-6.4809-13.96 0.89332-0.01299 4.0961-1.5542 6.458-3.3242 2.5054 1.7279 5.5265 3.1751 6.3716 3.2479 0.0113 5.8231-2.6136 10.217-6.3487 14.036z" fill="#c0f" stroke="#000" stroke-width=".675"/>
  <path d="m19.049 31.635c2.7119 1.5771 3.2101 2.1776 5.8873 3.0474-2.6173-0.2731-4.0286-1.0966-5.8873-3.0474z" fill="#fff" fill-opacity=".785" stroke-width=".28243"/>
  <path d="m12.632 34.082c1.0462-0.26803 4.5751-2.0719 6.3806-3.3343-0.01497 3.0367 0.16522 11.528 0.05874 17.313-5.8107-6.0965-6.4549-11.002-6.4394-13.979z" fill-opacity=".15" stroke-width=".28243"/>
 </g>
 <g transform="translate(20.407 -21.966)" fill-rule="evenodd">
  <path d="m19.05 47.969c-3.7397-3.5569-6.5255-8.1763-6.4809-13.96 0.89332-0.01299 4.0961-1.5542 6.458-3.3242 2.5054 1.7279 5.5265 3.1751 6.3716 3.2479 0.0113 5.8231-2.6136 10.217-6.3487 14.036z" fill="#c0f" stroke="#000" stroke-width=".675"/>
  <path d="m19.049 31.635c2.7119 1.5771 3.2101 2.1776 5.8873 3.0474-2.6173-0.2731-4.0286-1.0966-5.8873-3.0474z" fill="#fff" fill-opacity=".785" stroke-width=".28243"/>
  <path d="m12.632 34.082c1.0462-0.26803 4.5751-2.0719 6.3806-3.3343-0.01497 3.0367 0.16522 11.528 0.05874 17.313-5.8107-6.0965-6.4549-11.002-6.4394-13.979z" fill-opacity=".15" stroke-width=".28243"/>
 </g>
</svg>
