<?xml version="1.0" encoding="UTF-8"?>
<svg version="1.1" viewBox="0 0 256 256" xmlns="http://www.w3.org/2000/svg">
 <g transform="matrix(1.7716 0 0 1.7716 -134.57 -160.82)" stroke-linecap="round" stroke-linejoin="round" stroke-width="1.2">
  <path d="m134.89 139.37-45.9-27.757 29.591 45.151-41.246 10.634 43.856 8.755-14.763 22.055 28.197-8.7701-12.233 41.866 27.324-34.885 23.913 36.427-5.7026-43.53 50.096 22.172-36.41-33.019 22.433-2.8463-21.715-12.684 36.486-42.115-44.387 24.99 9.2618-51.45-32.214 42.46c0.14703 0.11276-21.213-39.135-21.213-39.135z" fill="#fca"/>
  <path d="m140.89 150.87-30.115-18.211 19.415 29.624-28.15 4.5137 29.863 8.2076-9.6858 14.471 18.5-5.754-8.0258 27.468 17.927-22.888 15.689 23.9-3.7415-28.56 32.868 14.547-23.889-21.664 14.718-1.8674-14.247-8.3218 30.075-32.201-35.258 20.966 6.0766-33.757-21.135 27.858-12.288-26.926z" fill="#f95" fill-opacity=".76863"/>
  <path d="m146.86 159.59-16.004-9.6782 10.318 15.743-23.526 2.5045 24.436 4.2561-5.1475 7.6902 9.8317-3.0579-4.2653 14.598 9.5273-12.164 8.3379 12.701-1.9883-15.178 17.468 7.7308-12.695-11.513 7.822-0.99242-7.5717-4.4226 15.983-17.113-18.738 11.142 3.2294-17.94-11.232 14.805-6.5304-14.31z" fill="#ff7f2a" fill-opacity=".76863"/>
 </g>
 <g transform="matrix(.6561 0 0 .6561 42.803 46.811)" fill-rule="evenodd" stroke="#000" stroke-width="1.327">
  <path d="m148.58 1.6875c-13.17 1.2692-19.994 14.756-23.682 25.941-3.5759 8.0528 1.4596 17.349 9.084 20.748 28.08 24.274 43.736 61.839 40.414 98.703-1.925 15.516-13.737 31.406-30.533 31.584-22.683 0.81384-40.944-16.333-53.687-33.408-15.446-20.984-23.064-47.15-22.512-73.158-2.4423-11.04-15.22-14.405-24.801-16.43-8.7828-2.181-20.453 0.89107-22.654 10.812-10.832 57.672 12.634 120.91 59.397 156.85 28.326 23.382 70.501 30.439 103.69 13.46 31.723-14.845 53.152-48.297 54.334-83.194 3.8016-51.803-20.353-104.33-60.57-136.79-8.5453-6.5139-18.065-12.372-28.484-15.113zm37.162 56.576c7.631 0.86088 6.4933 14.654-1.6719 13.104-6.179-0.69444-8.5599-9.9484-2.2988-12.355 1.2172-0.66798 2.6136-0.76076 3.9707-0.74805zm19.836 59.924c7.6484 0.79443 6.515 14.789-1.7051 13.088-6.1598-0.71171-8.4692-9.9562-2.25-12.342 1.2112-0.66805 2.6038-0.75909 3.9551-0.74609zm-154.6 4.832c7.7117 0.5896 6.7749 14.575-1.4297 13.1-6.7322-0.64384-8.5252-10.795-1.6797-12.686 0.9886-0.41221 2.0602-0.3983 3.1094-0.41406zm33.33 53.295c7.5822 0.52364 6.9289 14.296-1.1934 13.125-6.1772-0.39916-8.9872-9.6284-2.8613-12.26 1.2278-0.75105 2.6512-0.88546 4.0547-0.86524zm111 5.4805c7.4025 0.79186 6.6959 14.3-1.3535 13.137-6.1116-0.3862-9.0516-9.6025-2.9004-12.238 1.2805-0.78335 2.7893-0.92177 4.2539-0.89844zm-55.645 27.514c7.2726 0.71858 6.8372 13.96-1.0371 13.156-6.4934-0.0971-9.3807-9.9038-2.9062-12.408 1.2105-0.66284 2.5948-0.75365 3.9434-0.74805z" fill="#ffd5d5"/>
  <path d="m180.25 229.24c87.336-42.704 49.037-183.81-29.86-219.15-9.408-4.214-22.274 24.104-17.537 27.322 48.173 32.726 70.667 123.67 26.443 145.31-44.298 21.668-103.36-46.599-99.173-109.45 0.376-5.644-29.607-16.232-31.83-5.559-19.598 94.138 67.559 202.8 151.96 161.53zm-35.406-0.34a14.477 14.56 64.439 0 1-19.382-6.778 14.477 14.56 64.439 0 1 6.889-19.343 14.477 14.56 64.439 0 1 19.381 6.778 14.477 14.56 64.439 0 1-6.888 19.342zm55.614-27.517a14.477 14.56 64.439 0 1-19.381-6.778 14.477 14.56 64.439 0 1 6.888-19.342 14.477 14.56 64.439 0 1 19.382 6.777 14.477 14.56 64.439 0 1-6.889 19.343zm-110.83-5.495a14.477 14.56 64.439 0 1-19.381-6.777 14.477 14.56 64.439 0 1 6.888-19.343 14.477 14.56 64.439 0 1 19.382 6.778 14.477 14.56 64.439 0 1-6.889 19.342zm121.12-58.115a14.477 14.56 64.439 0 1-19.382-6.777 14.477 14.56 64.439 0 1 6.889-19.343 14.477 14.56 64.439 0 1 19.381 6.778 14.477 14.56 64.439 0 1-6.888 19.342zm-154.48 4.818a14.477 14.56 64.439 0 1-19.381-6.778 14.477 14.56 64.439 0 1 6.889-19.342 14.477 14.56 64.439 0 1 19.38 6.778 14.477 14.56 64.439 0 1-6.888 19.342zm134.62-64.739a14.477 14.56 64.439 0 1-19.38-6.777 14.477 14.56 64.439 0 1 6.888-19.342 14.477 14.56 64.439 0 1 19.38 6.778 14.477 14.56 64.439 0 1-6.887 19.341z" fill="#ff8080"/>
 </g>
</svg>
