<svg xmlns="http://www.w3.org/2000/svg" xmlns:xlink="http://www.w3.org/1999/xlink" cursor="default" viewBox="0 0 256 256">
    <defs>
        <linearGradient id="innoGrad4">
            <stop offset="0" stop-color="#ff2a2a"/>
            <stop offset=".67" stop-color="#faa"/>
            <stop offset="1" stop-color="#f55"/>
        </linearGradient>
        <linearGradient id="innoGrad3">
            <stop offset="0" stop-color="#f55"/>
            <stop offset=".67" stop-color="#ffd5d5"/>
            <stop offset="1" stop-color="#ff8080"/>
        </linearGradient>
        <linearGradient id="innoGrad2">
            <stop offset="0"/>
            <stop offset=".67" stop-opacity=".05"/>
            <stop offset="1" stop-opacity=".5"/>
        </linearGradient>
        <linearGradient id="innoGrad1">
            <stop offset="0" stop-color="#f95"/>
            <stop offset=".67" stop-color="#ffe6d5"/>
            <stop offset="1" stop-color="#ffb380"/>
        </linearGradient>
        <linearGradient id="innoGrad5" x1="102.479" x2="153.521" y1="38.83" y2="38.83" gradientTransform="translate(0 -2.164)" gradientUnits="userSpaceOnUse" xlink:href="#innoGrad2"/>
        <linearGradient id="innoGrad6" x1="101.479" x2="154.521" y1="50.425" y2="50.425" gradientTransform="translate(0 -2)" gradientUnits="userSpaceOnUse" xlink:href="#innoGrad1"/>
        <linearGradient id="innoGrad7" x1="45.02" x2="210.98" y1="151.254" y2="151.254" gradientUnits="userSpaceOnUse" xlink:href="#innoGrad3"/>
        <linearGradient id="innoGrad8" x1="86.233" x2="169.772" y1="214.474" y2="214.474" gradientTransform="translate(0 -2)" gradientUnits="userSpaceOnUse" xlink:href="#innoGrad4"/>
        <linearGradient id="innoGrad9" x1="111.378" x2="144.622" y1="71.616" y2="71.616" gradientTransform="translate(0 -2)" gradientUnits="userSpaceOnUse" xlink:href="#innoGrad4"/>
    </defs>
    <g>
        <path fill="url(#innoGrad9)" stroke="#000" stroke-width="2" d="M112.412 49.387h31.176v40.457h-31.176z"/>
        <path fill="url(#innoGrad8)" stroke="#000" stroke-width="2" d="M87.098 197.22l17.464 30.012h47.331l17.01-30.013"/>
        <path fill="url(#innoGrad7)" stroke="#000" stroke-width="2" d="M128 228.936l-81.805-59.434 31.247-96.167h101.116l31.247 96.167z" transform="translate(0 -2)"/>
        <path fill="url(#innoGrad6)" stroke="#000" stroke-width="2" d="M107.66 31.102l-5.181 5.181v29.465h51.042V36.283l-5.181-5.181z"/>
        <path fill="none" stroke="url(#innoGrad5)" stroke-width=".67" d="M102.479 36.666h51.042"/>
    </g>
    <g>
        <path fill="#ffb380" d="M65.008 161.44c20.997 15.26 41.995 30.518 62.992 45.777l62.992-45.777-24.058-74.058H89.066L65.008 161.44z"/>
        <path fill="#f95" d="M89.066 87.334l-4.205 12.945 9.672 29.772-25.32 18.398-4.205 12.944 11.008 8h31.298l9.674 29.775L128 207.17l11.012-8.002 9.674-29.775h31.298l11.008-8-4.205-12.944-25.32-18.398 9.672-29.772-4.205-12.945h-13.61L128 105.734l-25.324-18.4zm15.22 20.947l10.103 7.342-6.244 4.54zm47.429 0l-3.86 11.881-6.244-4.539zM128 125.514l14.656 10.648-5.597 17.23H118.94l-5.597-17.23zm-28.268 20.539l2.385 7.34H89.63zm56.536 0l10.103 7.34h-12.488zm-32.13 23.34h7.723L128 181.275z"/>
        <path fill="none" stroke="#000" stroke-width="2" d="M65.008 161.393L128 207.17c20.997-15.26 41.995-30.518 62.992-45.777l-24.058-74.059H89.066l-24.058 74.059z"/>
    </g>
    <g>
        <g fill="#ffe680">
            <path d="M89.813 135.537v.002c-.71 0-1.35.133-1.924.342-.592.215-1.1.538-1.526.91-.431.378-.787.84-1.013 1.373a3.833 3.833 0 00-.358 1.643c0 .797.192 1.519.627 2.1a5.4 5.4 0 001.508 1.372l.002.002c.557.377 1.171.698 1.8.989.613.282 1.17.56 1.696.88.491.313.907.665 1.227 1.05.281.337.435.76.435 1.31 0 .358-.079.717-.24 1.06l-.002.004-.002.006c-.164.369-.386.67-.686.97a3.634 3.634 0 01-1.107.712c-.41.164-.898.254-1.47.254a5.376 5.376 0 01-1.63-.243 4.517 4.517 0 01-1.535-.798l-.228-.186-.69.275-.054 1.04.21.16c.561.427 1.2.717 1.913.922h.002l.003.001c.687.203 1.36.307 2.034.307.697 0 1.362-.103 1.982-.346l.002-.002.004-.001a5.482 5.482 0 001.559-.952l.005-.004.004-.005c.431-.404.784-.89 1.028-1.432a4.261 4.261 0 00.379-1.742c0-.81-.22-1.543-.645-2.137l-.004-.006-.004-.004a6.156 6.156 0 00-1.46-1.384l-.012-.008-.01-.008A17.771 17.771 0 0089.83 143c-.62-.286-1.2-.566-1.693-.879l-.012-.008-.012-.006c-.511-.289-.914-.61-1.228-.988l-.006-.008-.004-.006c-.27-.305-.402-.694-.402-1.228 0-.32.056-.63.199-.98a2.97 2.97 0 01.639-.922l.005-.008.006-.006c.262-.282.578-.5.996-.668.43-.172.886-.275 1.446-.275.293 0 .703.064 1.174.158.432.086.87.239 1.314.46l.14.07.665-.095.19-.845-.509-.022.002-.01c-.065-.03-.125-.05-.19-.078l.714.031.052-.24-.367-.17c-.598-.274-1.163-.48-1.724-.588h-.004c-.547-.099-1.004-.152-1.409-.152zm77.496 3.147c-1.34 0-2.411.44-3.329 1.086l.645.029-.012.006-.642-.028c-.32.227-.693.386-.953.688-1.018 1.178-1.465 2.846-1.465 4.91 0 2.06.421 3.7 1.385 4.877.964 1.178 2.396 1.742 4.154 1.742.651 0 1.33-.105 2.006-.338a6.862 6.862 0 001.931-.976l.184-.131.115-1.082-.78-.258-.21.162c-.492.38-.991.662-1.56.86l-.01.001-.008.004a4.627 4.627 0 01-1.692.303c-1.354 0-2.3-.415-2.97-1.252-.67-.836-1.041-2.133-1.041-3.912 0-1.775.368-3.062 1.08-3.924l.002-.002c.718-.844 1.719-1.287 3.17-1.287.52 0 1.012.087 1.515.262.495.18.952.4 1.356.697l.132.098h.668l.375-1.127-.986-.041-.004-.002.99.043-.304-.215a6.602 6.602 0 00-1.766-.883h-.004l-.002-.002a6.654 6.654 0 00-1.97-.308zm-56.883.046l-3.018.03v13.072l.43.063c.389.055.79.052 1.197.052h1.08c1.519 0 2.74-.239 3.635-.826.907-.595 1.402-1.615 1.402-2.842 0-1.008-.309-1.861-.914-2.466l-.01-.008-.007-.008c-.392-.356-.971-.49-1.504-.68.305-.222.671-.366.887-.69.403-.604.587-1.357.587-2.22 0-1.017-.343-1.904-1.025-2.53-.678-.62-1.613-.947-2.738-.947h-.002zm22.847 0l-3.353.03v13.138h1.48v-4.607h1.848c.504.78 1.008 1.533 1.488 2.23.551.802 1.221 1.57 1.985 2.31l.066.064.465.199.207-.104c.048-.024.168-.082.275-.19-.01.012-.002.005.092-.058l.293-.195-.142-.568-.094-.096c-.712-.736-1.345-1.44-1.852-2.131l-.006-.008-.005-.008c-.43-.54-.845-1.19-1.264-1.851.722-.335 1.363-.779 1.793-1.424.53-.795.828-1.718.828-2.727 0-1.176-.356-2.193-1.084-2.922-.733-.732-1.775-1.082-3.018-1.082h-.002zm-38.548.024l4.306 8.28v4.864h1.48v-4.834l4.65-8.31h-1.774l-.366.8-3.234 5.66-2.969-5.644-.334-.816h-1.76zm26.695 0l-5.377 13.144h1.658l.389-1.171.004-.008.924-2.229h5.705l.83 2.2.336 1.208h1.648l-1.568-4.25-3.364-8.894h-1.185zm19.684 0v.02l1.48.064v-.084h-1.48zm4.257 0l-.037.203 6.352.277h-.467c-2.22-.096-3.296-.138-5.889-.25l-.142.805.353.473 2.313-.028h1.276v11.664h1.48v-11.664h1.322l2.408.03.166-.889-.517-.021-.006-.02.527.023.006-.033-.227-.57h-8.918zm11.703 0v.715l.48.021v.014l-.48-.02v12.414h1.48v-12.351a205.14 205.14 0 00-.48-.022v-.011l.48.02v-.78h-1.48zm-15.96.05v13.094h1.48v-13.03l-1.48-.063zm25.15 1.065l2.816.123.004.002-2.844-.12.024-.005zm-32.9.319c.855.044 1.455.31 1.884.736.412.455.633 1.023.633 1.834 0 .768-.208 1.422-.601 1.984-.405.544-.954.898-1.706 1.092l-2.164-.02v-5.609l1.954-.018zm-24.465.023h1.611c.718 0 1.21.194 1.59.574.391.392.574.837.574 1.445 0 .685-.167 1.214-.475 1.618-.3.394-.714.63-1.324.736l-1.976-.035v-4.338zm13.082 1.057l2.203 5.767h-4.555l2.352-5.767zm-10.914 4.775c.912.09 1.541.328 1.964.691.427.39.627.84.627 1.545 0 .78-.263 1.27-.82 1.616h-.002l-.002.001c-.602.382-1.514.594-2.78.594-.402 0-.778-.027-1.155-.05v-4.377l2.168-.02zM93.457 157.777l-1.242.186-.01 4.475-3.203-4.569h-.998l-.014 4.772v1.22l-.963.018-.166-.166h-2.574v-1.688h2.248l.137-.779-.236-.473h-2.149v-1.662l2.71.012.192-.773-.287-.48h-3.855v7.071h3.986l.094-.379.117-.466-.162-.162.908-.018v1.025h1.24v-1.048l2.432-.047.77 1.095h.996l.008-1.129 1.61-.029v1.158h3.987l.094-.379.117-.466-.383-.383h-.132l1.261-.024v1.252h1.24v-1.275l1.211-.023.002.002c.287.417.632.812 1.024 1.19l.066.065.381.164.21-.103a.796.796 0 00.2-.143c-.035.035-.05.042.008.004l.293-.195-.129-.522-.094-.095c-.135-.14-.224-.265-.345-.399l1.468-.027c.085.146.13.322.239.45v.001c.535.637 1.349.942 2.287.942.168 0 .347.002.539-.012h.004c.181-.014.35-.04.506-.065.145-.022.328-.05.53-.101l.015-.004c.174-.038.391-.089.628-.168l.342-.113v-1.026l1.352-.025v1.478h1.24v-1.502l1.223-.023-.471.678v.427l-.133.192h.133v.258l.879-.03h4.26l.076-.408.084-.451-.383-.385-.893.016h-2.242l.227-.326 4.304-.082v1.636h1.24v-1.66l1.604-.03v1.69h1.24v-1.712l1.97-.038 1.23 1.75h.996l.013-1.793 1.305-.023c.124.331.262.652.483.908v.002c.535.637 1.349.942 2.287.942.168 0 .347.002.539-.012h.004c.181-.014.35-.04.506-.065.145-.022.328-.05.53-.101l.014-.004c.175-.038.392-.089.63-.168l.341-.113v-1.49l3.512-.067v1.984h1.24V162.934l4.004-.077v2.084h1.24v-2.107l2.985-.057v2.164h1.238v-2.187l1.594-.03v2.217h1.238v-2.24l1.594-.031v2.271h3.638l.149-.8-.112-.168-.173-.26h-2.264v-1.067l4.316-.08v2.375h1.24v-2.398l2.733-.053v2.451h3.986l.094-.379.117-.466-.383-.383h-2.574v-1.246l3.703-.07-3.703.068v-.44h2.246l.139-.779-.236-.473h-2.149v-1.662l2.71.012.193-.773-.288-.48h-3.855v4.616l-2.732.051v-3.428h.408l1.414.018.14-.748-.205-.51h-4.838l-.146.83.318.426 1.282-.016h.386v3.45l-4.316.08v-4.77h-1.238v4.791l-1.594.03v-4.82h-1.238v4.843l-1.594.03v-4.874h-1.238v2.916h-2.985v-2.916h-1.24v4.97l-4.004.075v-.277h.363c.756 0 1.434-.198 1.92-.668.47-.454.705-1.116.705-1.883 0-.646-.203-1.229-.623-1.633-.42-.404-1.011-.596-1.677-.596h-.002l-1.926.016v5.063l-3.512.064v-1.643l-1.24.123v1.543l-2.707.05c-.253-.362-.434-.839-.434-1.596 0-.852.202-1.429.553-1.819.35-.377.845-.584 1.611-.584a2.4 2.4 0 01.664.112c.237.072.48.178.743.32l.11.058h.548l.314-.94-.35-.206a4.74 4.74 0 00-1.005-.43l-.008-.004-.01-.002a3.859 3.859 0 00-1.006-.148c-1.045 0-1.925.322-2.533.959l-.002.002-.002.002c-.614.658-.879 1.58-.879 2.668 0 .617.11 1.15.285 1.633l-1.29.023.001-.37.014-4.974-1.24.186-.01 4.475-3.203-4.569h-.998l-.014 4.772v.58l-1.603.029v-5.38h-1.24v5.401l-4.28.079 3.203-4.608v-.443l.131-.19h-.13v-.267l-.882.027h-2.974l-1.088-.02-.14.854.316.424.84-.018h2.146l-2.959 4.27-1.248.021v-5.53h-1.24v5.554l-1.352.025v-2.092l-1.24.123v1.99l-1.959.036c-.234-.09-.55-.094-.707-.283-.298-.362-.475-.918-.475-1.746 0-.852.203-1.429.553-1.819.35-.377.845-.584 1.611-.584a2.4 2.4 0 01.665.112c.236.072.479.178.742.32l.111.058h.547l.314-.94-.351-.206a4.727 4.727 0 00-1.004-.43l-.008-.004-.012-.002a3.859 3.859 0 00-1.006-.148c-1.045 0-1.925.322-2.533.959l-.002.002-.002.002c-.613.658-.879 1.58-.879 2.668 0 .825.197 1.5.52 2.076l-1.484.027c-.18-.2-.38-.407-.52-.597l-.006-.008-.006-.008c-.175-.22-.35-.498-.523-.766.286-.174.614-.298.8-.578.29-.434.456-.95.456-1.502 0-.636-.2-1.22-.615-1.636-.421-.421-1.02-.616-1.686-.616h-.002l-1.926.016v5.77l-3.703.066v-1.684h2.248l.137-.779-.236-.473h-2.149v-1.662l2.71.012.192-.773-.287-.48h-3.855v5.862l-1.611.03.007-1.01.016-4.975zm74.861 4.62v2.544h1.24V162.637h.542c.227.349.455.693.671 1.008.287.417.632.812 1.024 1.19l.066.065.381.164.21-.103a.796.796 0 00.2-.143c-.035.035-.05.042.008.004l.293-.195-.129-.522-.094-.095a10.364 10.364 0 01-.904-1.04l-.006-.007-.006-.008c-.175-.22-.349-.498-.523-.766.285-.174.612-.298.799-.578.29-.434.457-.95.457-1.502 0-.636-.2-1.22-.615-1.636-.421-.421-1.02-.616-1.686-.616h-.002l-1.926.016v4.523zm-66.37-3.311c.374.02.603.13.769.293.16.179.25.388.25.742 0 .336-.09.608-.256.846-.164.22-.38.356-.697.441l-.784-.006v-2.31l.717-.006zm38.724 0c.385.02.614.124.775.283.153.162.244.372.244.729 0 .433-.112.718-.289.93-.19.212-.43.343-.826.382h-.62v-2.318l.716-.006zm29.603 0c.375.02.604.13.77.293.16.179.25.388.25.742 0 .336-.09.608-.256.846-.164.22-.38.356-.697.441l-.783-.006v-2.31l.716-.006zm-81.039 1.309l2.389 3.4-2.395.043v-1.291l.006-2.152zm35.125.001l1.944 2.766-1.95.035v-.65l.006-2.15zm20.838 1.63h2.985v.738l-2.985.054v-.793zm-43.969.61h.541c.217.334.434.66.641.962l-1.182.021v-.982zm32.733.41v.556c-.045.011-.104.03-.145.039h-.002l-.005.002c-.152.032-.288.053-.422.078-.118.019-.22.029-.319.029h-.02l-.02.002c-.117.01-.247.01-.391.01-.65 0-1.046-.18-1.342-.54-.021-.025-.013-.097-.033-.124l2.699-.051zm-24.588.466v.09c-.045.011-.104.03-.145.039h-.001l-.006.002c-.152.032-.287.053-.422.078-.118.019-.22.029-.319.029h-.02l-.02.002c-.117.01-.247.01-.391.01-.26 0-.347-.158-.535-.215l1.859-.035zm-.879 1.236h.027l-.04.002.013-.002zm24.588 0h.027l-.04.002.013-.002z" color="#000" style="-inkscape-stroke:none"/>
            <path d="M129.219 97.84c-2.677 1.745-5.197 4.137-6.002 7.337-.537 2.187-.631 4.524-.123 6.724.571 2.375 2.333 4.161 3.945 5.886 1.074 1.202.971 3.337-.494 4.185-1.294.733-3.116.346-3.85-.998-1.305-2.154-1.404-4.803-1.504-7.217-.034-1.512.042-3.023.073-4.534-1.245 1.942-2.487 3.973-2.821 6.3-1.034 5.822 2.487 12.056 7.956 14.257 2.967 1.22 6.592.375 8.738-2 1.833-1.91 2.565-5.027 1.191-7.397-1.44-2.643-3.981-4.376-6.116-6.403-2.154-2.108-3.255-5.339-2.43-8.289.106-.75.339.349.543.627.768 1.726 2.095 3.131 3.67 4.152 2.253 1.506 2.894 4.31 3.575 6.757 1.214-1.839 2.509-3.96 2.08-6.263-.414-2.438-2.461-4.075-4.29-5.516-1.727-1.374-3.196-3.286-3.331-5.566-.089-.864-.01-1.733-.003-2.599l-.807.557z"/>
            <path d="M104.074 172.457v1h8v-1zm9 0v1h8v-1zm9 0v1h5v-1zm6 0v1h2v-1zm3 0v1h7v-1zm8 0v1h6v-1zm7 0v1h5.852v-1zM106.36 178.098v1h2v-1zm3 0v1h8v-1zm9 0v1h8v-1zm9 0v1h5v-1zm6 0v1h2v-1zm3 0v1h7v-1zm8 0v1h2v-1zm3 0v1h2.28v-1zM101.371 175.277v1h8v-1zm9 0v1h6v-1zm7 0v1h3v-1zm4 0v1h8v-1zm9 0v1h2v-1zm3 0v1h1v-1zm2 0v1h8v-1zm9 0v1h6v-1zm7 0v1h3v-1z" color="#000" style="-inkscape-stroke:none"/>
        </g>
        <path fill="#fff6d5" d="M130.012 97.793l-6.63 15.02c.45 1.16 1.187 2.17 1.997 3.123l2.525-5.723c-.459-1.458-.54-3.025-.123-4.522.106-.75.34.35.545.627.203.456.45.885.725 1.295l2.039-4.62c-.595-.932-.993-1.976-1.06-3.11-.072-.695-.039-1.393-.018-2.09zm-4.44 3.111c-1.09 1.23-1.946 2.647-2.355 4.274-.146.592-.251 1.197-.328 1.806zm10.198 6.655l-2.075 4.699c.952 1.475 1.411 3.3 1.875 4.969 1.214-1.839 2.51-3.96 2.08-6.262-.229-1.349-.965-2.446-1.88-3.406zm-14.506 1.664c-1.245 1.942-2.487 3.974-2.82 6.3a11.745 11.745 0 00-.17 1.918l2.949-6.683c.014-.512.03-1.024.04-1.535zm10.9 6.506l-6.129 13.884c.122.054.24.116.363.166 2.967 1.22 6.593.376 8.739-2 .187-.195.356-.412.52-.63l1.279-2.895v-.002c.24-1.314.079-2.685-.608-3.87-1.016-1.864-2.582-3.272-4.164-4.654zm-10.705 1.445l-2.27 5.142a13.852 13.852 0 001.893 3.354l1.895-4.293a2.46 2.46 0 01-.284-.402c-.702-1.161-1.043-2.467-1.234-3.801zM92.797 136.21l-.197.445.664.028.052-.24-.367-.17c-.052-.024-.1-.04-.152-.063zm-.203.46l-.412.933c.023.01.046.017.07.029l.14.07.665-.094.19-.845c-.025 0-.432-.019-.509-.022l.002-.011c-.05-.024-.098-.04-.146-.06zm74.715 2.013c-1.339 0-2.411.44-3.329 1.086l.645.029a.42.42 0 00-.012.006l-.642-.027c-.32.226-.693.385-.953.687-1.018 1.178-1.465 2.846-1.465 4.91 0 2.06.421 3.7 1.385 4.877.964 1.178 2.396 1.742 4.154 1.742.651 0 1.33-.104 2.006-.338.273-.084.535-.203.797-.326l.9-2.039-.246-.082-.211.162c-.492.38-.991.663-1.56.86l-.01.002-.009.004a4.627 4.627 0 01-1.691.302c-1.355 0-2.301-.415-2.97-1.252-.67-.836-1.042-2.133-1.042-3.912 0-1.775.368-3.062 1.08-3.923l.002-.002c.719-.844 1.72-1.288 3.17-1.288.52 0 1.013.087 1.516.262.495.18.952.4 1.355.697l.133.098h.668l.375-1.127-.986-.04-.004-.003.99.043-.305-.215a6.602 6.602 0 00-1.765-.883h-.004l-.002-.002a6.654 6.654 0 00-1.971-.308zm-34.036.046l-.136.002-.647 1.463.864-.008c.855.045 1.455.311 1.884.737.412.455.633 1.023.633 1.834 0 .768-.208 1.422-.601 1.984-.405.544-.954.897-1.706 1.092l-2.164-.02v-3.148l-1.48 3.355v5.877h1.48v-4.607h1.848c.504.78 1.008 1.532 1.488 2.23.551.802 1.221 1.57 1.985 2.309l.066.064.465.2.207-.104c.048-.024.168-.082.275-.19-.01.012-.002.005.092-.058l.293-.195-.142-.569-.094-.095c-.712-.736-1.345-1.44-1.852-2.131l-.006-.008-.006-.008c-.429-.541-.845-1.19-1.263-1.852.722-.334 1.362-.778 1.793-1.424.53-.794.828-1.718.828-2.726 0-1.176-.356-2.194-1.084-2.922-.733-.733-1.776-1.082-3.018-1.082zm-24.402.016l-1.463.014v3.299zm-14.146.008l4.306 8.28v4.865h1.48v-4.834l4.65-8.31h-1.774l-.366.8-3.234 5.66-2.969-5.645-.334-.816zm27.277 0l-5.803 13.145h1.502l.389-1.172.004-.008.924-2.229h5.705l.699 1.85.838-1.9-.291-.792-3.363-8.894zm8.533 0l-.615.006v1.389zm10.569 0v.02l1.48.064v-.084h-.5zm4.257 0l-.037.203 4.303.188.172-.39zm-4.257.05V151.9h1.48v-13.032c-.684-.03-.782-.032-1.48-.062zm-29.252.14l-.604 1.367c.335.092.613.245.842.474.391.392.574.837.574 1.446 0 .684-.167 1.213-.475 1.617-.3.394-.714.63-1.324.736l-1.492-.027-1.965 4.453v2.822l.43.063c.389.055.79.052 1.197.052h.45l.644-1.46c-.03 0-.054.004-.084.004-.403 0-.779-.027-1.156-.051v-4.377l2.168-.02a5.1 5.1 0 01.953.186l2.11-4.783c-.133-.697-.45-1.305-.954-1.768a3.452 3.452 0 00-1.314-.734zm33.468.04l-.142.805.353.473 2.313-.027h1.276v.058l.497-1.127c-1.31-.055-2.405-.1-4.297-.181zm13.225.288l-.113.257.113.004zm-.12.27l-1.36 3.085v9.272h1.48v-12.352c-.032 0-.079-.004-.12-.006zm7.829.327l2.816.123.004.002-2.843-.12a.181.181 0 00.023-.005zm-44.283 1.399l2.203 5.767h-4.555zm-32.164 1.72l-.621 1.405c.51.241.99.484 1.439.758.491.313.907.665 1.227 1.048.281.339.435.762.435 1.311 0 .358-.079.717-.24 1.06l-.002.004-.002.006c-.164.37-.386.67-.686.971a3.634 3.634 0 01-1.107.711c-.41.164-.898.254-1.47.254a5.376 5.376 0 01-1.63-.242c-.166-.051-.318-.126-.474-.192l-.596 1.348c.224.09.444.187.686.256h.002l.003.002c.687.203 1.36.307 2.034.307.697 0 1.362-.104 1.982-.346l.002-.002.004-.002a5.482 5.482 0 001.559-.951l.005-.004.004-.006c.431-.404.784-.89 1.028-1.432a4.261 4.261 0 00.379-1.742c0-.809-.22-1.542-.645-2.137l-.004-.006-.004-.004a6.156 6.156 0 00-1.46-1.385l-.012-.008-.01-.008A18.082 18.082 0 0089.83 143l-.023-.012zm37.634 8.65l-.115.26h.211zm-33.984 6.14l-1.242.185-.01 4.475-3.203-4.569h-.998l-.014 4.772v1.22l-.963.018-.166-.166h-2.574v-1.687h2.248l.137-.78-.236-.472h-2.149v-1.662l2.71.011.192-.773-.287-.48h-3.664l-.191.433v6.639h3.986l.094-.38.117-.466-.162-.162.908-.018v1.026h1.24v-1.05l2.432-.046.77 1.096h.996l.008-1.13 1.61-.029v1.159h2.263l.556-1.262-1.584.03v-1.684h2.248l.137-.78-.236-.472H96.28v-1.663l2.71.012.193-.773-.288-.48h-3.855v5.863l-1.611.029.007-1.01zm35.123 0l-1.24.185-.01 4.475-2.858-4.075-1.353 3.069-.004 1.209v.58l-.793.014-.014.033.807-.016v1.69h1.24v-1.713l1.969-.037 1.23 1.75h.996l.014-1.793 1.305-.024c.124.331.262.652.482.908v.002c.536.637 1.35.942 2.287.942.168 0 .348.002.54-.012h.003c.182-.014.35-.04.506-.064.145-.023.329-.05.532-.102l.013-.004c.174-.037.392-.089.63-.168l.34-.113v-1.49l3.513-.067v.91l1.24-2.81v-1.965l.717-.006c.057.003.09.02.14.027l.518-1.17a2.96 2.96 0 00-.688-.086h-.002l-1.925.016v5.063l-3.512.064v-1.643l-1.24.123v1.543l-2.707.05c-.253-.362-.434-.839-.434-1.596 0-.853.202-1.43.553-1.819.35-.377.845-.584 1.611-.584a2.4 2.4 0 01.664.112c.237.072.48.177.743.32l.11.058h.548l.314-.941-.35-.205a4.74 4.74 0 00-1.005-.43l-.008-.004-.01-.002a3.859 3.859 0 00-1.006-.148c-1.045 0-1.925.322-2.533.959l-.002.002-.002.002c-.614.657-.88 1.58-.88 2.668 0 .617.11 1.15.286 1.633l-1.291.023.002-.37zm-9.385.064l-.88.027h-2.975l-1.088-.02-.14.854.316.424.84-.017h2.146l-2.959 4.27-1.248.02v-4.72l-1.24 2.808v1.936l-.862.016-.017.039.879-.016v1.479h1.24v-1.502l1.223-.024-.471.678v.428l-.133.191h.133v.258l.879-.03h4.139l.209-.472.072-.387-.383-.384-.893.015h-2.242l.227-.326 3.728-.07.014-.036-3.717.069 3.203-4.608v-.443l.131-.19h-.13zm-18.765.027l-.446.004v1.006zm19.841 0v4.139l1.24-2.809v-1.33h-.5zm30.745 0v4.844l-1.594.03v-2.8l-1.238 2.805v.016h-.006l-.006.014h.011v2.164h1.239v-2.188l1.593-.03v2.218h1.239v-2.24l1.593-.032v2.272h3.639l.148-.801-.11-.168-.175-.26h-2.263v-1.066l4.316-.08v2.375h1.24v-2.399l2.733-.053v2.452h.513l.727-1.649v-.826l.367-.008-.367.006v-.44h.56l.551-1.251h-1.111v-1.662l1.842.008.552-1.25h-3.634v4.617l-2.732.05v-3.427h.408l1.414.017.14-.748-.205-.51h-4.838l-.146.83.318.426 1.282-.015h.386v3.45l-4.316.08v-4.77h-1.238v4.79l-1.594.03v-4.82h-.5zm-44.287.325a2.874 2.874 0 00-.866.6l-.002.001-.002.002c-.614.658-.879 1.58-.879 2.668 0 .21.013.412.037.604zm-3.403.064l-.543 1.23c.11.16.184.343.184.633 0 .337-.09.608-.256.846-.164.22-.38.356-.697.441h-.078l-.541 1.229h.377c.216.333.433.66.64.96l-1.182.022v-.613l-.853 1.936h.853v-1.276l1.211-.023.002.002c.287.417.632.812 1.024 1.191l.066.065.198.085.511-1.16a7.475 7.475 0 00-.185-.215l.283-.006.02-.043-.344.006c-.18-.2-.38-.407-.52-.597l-.01-.008-.006-.008c-.175-.221-.35-.498-.523-.766.285-.174.614-.298.8-.578.29-.435.456-.95.456-1.502 0-.636-.2-1.22-.616-1.637a1.864 1.864 0 00-.271-.214zm-14.09 2.137l2.389 3.4-2.395.043v-1.291zm35.125.002l1.944 2.765-1.95.035v-.65zm9.602 2.65v.555c-.045.011-.104.03-.145.039h-.002l-.006.002c-.151.032-.287.053-.422.078-.118.02-.219.03-.318.03h-.02l-.02.001c-.117.01-.248.01-.392.01-.65 0-1.045-.18-1.341-.539-.022-.026-.013-.097-.033-.125zm-.879 1.701h.027l-.04.002.013-.002zm-25.957 7.71l-.441 1h5.388v-1zm5.947 0v1h2.145l.441-1zm5.178 0l-.441 1h3.263v-1zm3.822 0v1h5v-1zm6 0v1h2v-1zm3 0v1h3.408l.442-1zm12.824 0l-.441 1h1.617v-1zm2.176 0v1h5.852v-1zm-40.193 2.82l-.442 1h3.932v-1zm4.49 0v1h3.604l.441-1zm7 0v1h3v-1zm4 0v1h8v-1zm9 0v1h2v-1zm3 0v.697l.309-.697zm9.283 0l-.441 1h1.158v-1zm1.717 0v1h6v-1zm7 0v1h3v-1zm-45.012 2.82v1h2v-1zm3 0v1h3.37l.44-1zm6.405 0l-.442 1h2.037v-1zm2.595 0v1h8v-1zm9 0v1h4.633l.367-.83v-.17zm14.051 0l-.441 1h2.39v-1zm2.95 0v1h2v-1zm3 0v1h2.28v-1z" color="#000" style="-inkscape-stroke:none"/>
    </g>
</svg>
