<?xml version="1.0" encoding="UTF-8"?>
<svg cursor="default" version="1.1" viewBox="0 0 256 256" xml:space="preserve" xmlns="http://www.w3.org/2000/svg"><defs><linearGradient id="linearGradient4534" x1="401.72" x2="400.62" y1="293.37" y2="96.743" gradientTransform="matrix(.6561 0 0 .6561 -126.61 32.628)" gradientUnits="userSpaceOnUse"><stop stop-color="#f55" offset="0"/><stop stop-color="#ff8080" offset="1"/></linearGradient><linearGradient id="linearGradient4683" x1="391.3" x2="389.18" y1="-15.775" y2="-20.27" gradientTransform="matrix(.6561 0 0 .6561 -126.61 32.628)" gradientUnits="userSpaceOnUse"><stop stop-color="#ffb380" offset="0"/><stop stop-color="#fca" offset="1"/></linearGradient><linearGradient id="linearGradient6331" x1="407.95" x2="406.09" y1="138.82" y2="-20.476" gradientTransform="matrix(.6561 0 0 .6561 -126.61 32.628)" gradientUnits="userSpaceOnUse"><stop stop-color="#f95" offset="0"/><stop stop-color="#ffb380" offset=".24285"/><stop stop-color="#fca" offset="1"/></linearGradient></defs><g stroke-width=".6561"><path d="m126.1 67.06c0.19061-8.431-4.9556-16.616-8.0137-24.941-1.889-5.1422-1.3316-11.731-2.0034-17.663-0.11536-1.0186-0.79966-1.839-0.57242-2.9847 1.9888-10.027 10.979-10.778 20.034-11.407 4.1933-0.29122 6.8707 0.56922 9.6421 1.9895 0.30119 0.15435 0.27101 0.43741 0.56321 0.60283 0.29761 0.16849 0.91741 0.21953 1.2047 0.39735 3.4645 2.1441 6.1457 4.8881 7.1932 6.3324 5.1393-0.28368 5.3006 3.4259 3.1546 5.4218-1.7807 1.6561-2.2658 3.2577-3.3591 5.2905-0.37249 7.8196-2.1826 14.605-1.8159 22.479 1.0292 22.103 1.3969 48.519 4.8006 56.493 13.406 17.604-43.989 20.12-32.198 4.516 0.41568-15.455 1.0116-30.689 1.3697-46.529z" fill="url(#linearGradient6331)"/><path d="m156.93 109.07c3.4777 0.95046 5.9951 4.8879 3.5571 9.9559-0.89541 14.982-3.465 28.636 0.22177 46.481 0.58926 0.87721 0.67135 2.363 0.49149 4.1632 0.27661 1.4727 0.22509 1.7888 0.42194 3.3155 1.2902 0.1112 2.1667 1.2854 0.93691 4.0279 0.08 1.5446 0.0855 2.0446 0.11565 2.8911 0.5488 0.33741 0.67192 0.75996 0.67983 1.2056-0.0271 3.0432-0.41237 5.7281-0.0479 9.1628 0.9009 8.4898 4.3435 16.568 7.6366 24.267 2.5003 5.8459 7.4791 11.039 5.4931 14.513h-4e-5c-3.8907 6.8056-15.853 8.6713-23.245 8.442-4.8816-0.15141-7.1643 0.59208-9.5985 1.619-18.868 7.9602-40.472 9.0204-50.768 3.1224-4.063 0.0498-8.3973-2.2293-10.581-5.2618-7.8315-10.874 1.0506-25.427 4.6836-29.085 5.1665-5.2008 15.772-6.7071 22.84-10.871 7.4562-4.3923 8.8431-19.221 8.3842-28.795-0.0391-0.81589 1.6078-2.4092 3.1761-3.9376 4e-3 -8.9123 2.4167-11.836 2.0332-21.678-0.23021-5.9069-0.79684-11.01-1.3002-17.34-2.0072-3.0142-0.28811-10.135 2.671-11.682-0.0511 0.84281-2.1381 2.3266-0.25304 3.1435 5.4049 2.3423 23.948 2.4878 32.509-3.4652 1.8603-1.2936 0.78603-2.7764-0.0577-4.1943z" fill="url(#linearGradient4534)"/><path d="m125.23 24.913c-0.78237-4.666 3.4061-8.6337 7.4012-7.6904 2.6572 0.99756 0.55012 5.6025-7.4012 7.6904z" fill="url(#linearGradient4683)"/></g></svg>
