<?xml version="1.0" encoding="UTF-8"?>
<svg cursor="default" version="1.1" viewBox="0 0 256 256" xmlns="http://www.w3.org/2000/svg" xmlns:xlink="http://www.w3.org/1999/xlink">
 <defs>
  <linearGradient id="linearGradient1191">
   <stop stop-color="#ff7f2a" offset="0"/>
   <stop stop-color="#f95" offset="1"/>
  </linearGradient>
  <linearGradient id="linearGradient599">
   <stop stop-color="#f95" offset="0"/>
   <stop stop-color="#ffb380" offset="1"/>
  </linearGradient>
  <linearGradient id="linearGradient402" x1="59.223" x2="123.38" y1="169.21" y2="171.15" gradientTransform="matrix(.99 0 0 .99 .68653 -5.4836)" gradientUnits="userSpaceOnUse">
   <stop stop-color="#f55" offset="0"/>
   <stop stop-color="#ff8080" offset="1"/>
  </linearGradient>
  <linearGradient id="linearGradient601" x1="125.67" x2="138.72" y1="186.84" y2="184.9" gradientTransform="matrix(.99 0 0 .99 .68653 -5.4836)" gradientUnits="userSpaceOnUse" xlink:href="#linearGradient599"/>
  <linearGradient id="linearGradient615" x1="163.39" x2="175.38" y1="183.84" y2="179.26" gradientTransform="matrix(.99 0 0 .99 .68653 -5.4836)" gradientUnits="userSpaceOnUse" xlink:href="#linearGradient599"/>
  <linearGradient id="linearGradient1177" x1="199" x2="212.57" y1="170.44" y2="167.62" gradientTransform="matrix(.99 0 0 .99 .68653 -5.4836)" gradientUnits="userSpaceOnUse" xlink:href="#linearGradient599"/>
  <linearGradient id="linearGradient1185" x1="228.26" x2="238.48" y1="150.88" y2="146.82" gradientTransform="matrix(.99 0 0 .99 .68653 -5.4836)" gradientUnits="userSpaceOnUse" xlink:href="#linearGradient599"/>
  <linearGradient id="linearGradient1193" x1="48.472" x2="54.288" y1="172.38" y2="174.67" gradientTransform="matrix(.99 0 0 .99 .68653 -5.4836)" gradientUnits="userSpaceOnUse" xlink:href="#linearGradient1191"/>
  <linearGradient id="linearGradient1201" x1="21.68" x2="26.263" y1="153.17" y2="155.64" gradientTransform="matrix(.99 0 0 .99 .68653 -5.4836)" gradientUnits="userSpaceOnUse" xlink:href="#linearGradient1191"/>
  <linearGradient id="linearGradient1209" x1="63.277" x2="110.34" y1="218.21" y2="185.6" gradientTransform="matrix(.99 0 0 .99 .68653 -5.4836)" gradientUnits="userSpaceOnUse">
   <stop stop-color="#f95" offset="0"/>
   <stop stop-color="#ffb380" offset="1"/>
  </linearGradient>
  <linearGradient id="linearGradient1217" x1="67.508" x2="108.93" y1="192.83" y2="177.32" gradientTransform="matrix(.99 0 0 .99 .68653 -5.4836)" gradientUnits="userSpaceOnUse" xlink:href="#linearGradient1191"/>
 </defs>
 <g fill-rule="evenodd" stroke="#000">
  <path d="m18.326 108.11s2.2117-0.67221 2.9324-0.0119c2.9789 2.7265 1.0256 6.2707 1.0138 12.071-5e-3 2.3691-2.5096 2.7354-2.5096 2.7354l-17.464-6.5538zm7.3597-27.403s2.2117-0.67221 2.9324-0.01188c2.9779 2.7265 1.0246 6.2707 1.0138 12.071-5e-3 2.3691-2.5096 2.7354-2.5096 2.7354l-17.464-6.5528zm18.105-16.013s1.7711 0.30393 2.182 0.98802c1.9909 3.3125-0.72567 5.7717-0.73656 11.571-0.0049 2.3691-2.5096 2.7354-2.5096 2.7354l-17.714-11.803zm20.502-12.903s1.7721 0.30294 2.183 0.98802c1.9899 3.3125-0.72567 5.7707-0.73755 11.571-4e-3 2.3691-2.5087 2.7354-2.5087 2.7354l-17.716-11.803z" fill="#f95" stroke-width="1.0365"/>
  <path d="m236.94 85.586s-1.7394-1.8454-2.6908-1.4702c-2.7205 1.0712-2.6928 5.4024-2.7621 8.3259-0.0465 2.0097 1.6266 5.8064 1.6266 5.8064l15.606-10.052zm-14.599-17.593s-1.7404-1.8454-2.6908-1.4711c-2.7205 1.0722-2.6928 5.4034-2.7621 8.3259-0.0465 2.0097 1.6266 5.8073 1.6266 5.8073l13.856-14.053zm21.196 40.116s-3.0561-1.6751-4.2382-0.8514c-2.1344 1.485-1.3662 5.1104-1.2147 7.7072 0.11682 2.0057 1.6256 5.8064 1.6256 5.8064l14.046-6.6607z" fill="#ffb380" stroke-width="1.1484"/>
  <g stroke-width=".93753">
   <path d="m150.62 69.974c27.744 0.94149 73.31 17.178 79.248 46.596 0.25245 1.2514 8.2665-27.982 8.2665-27.982-7.9665-19.12-31.92-46.982-86.688-51.458z" fill="#f55"/>
   <path d="m18.489 98.884 2.572 42.586c36.236 77.931 196.16 64.449 218.26-7.1141l1.4998-39.013c-36.038 86.017-189.35 82.183-222.33 3.5412z" fill="url(#linearGradient402)"/>
   <path d="m29.565 124.16c12.771-50.757 93.965-58.529 134.4-52.882l0.23562-6.1647-10.906-1.1167-0.0832-16.501 11.226 0.78111 0.23661-9.4852c-56.678-6.04-124.51 10.612-139.36 45.292-4.4085 15.901-1.5404 28.627 4.2511 40.075z" fill="#ff8080"/>
   <path d="m74.09 158.31c-1.1009 0.4752-0.98208 29.286 0.23562 29.286 10.643 4.9035 22.643 6.2667 34.841 7.1141 1.5048-9.998 0.96327-19.527 0.61083-29.836z" fill="url(#linearGradient1217)"/>
   <path d="m164.2 39.502c-32.239-5.3005-131.28 3.6986-139.29 52.812-4.752 29.114 38.281 52.814 67.152 58.323 48.751 9.303 128.46-4.3461 141.35-49.243 8.5734-29.851-32.909-55.706-68.442-61.774l1.3583-1.8968c31.381 4.8906 82.384 33.874 73.571 65.012-14.33 50.631-98.964 62.957-150.54 53.495-31.747-5.8252-78.309-33.026-69.953-64.321 13.751-51.509 109.1-59.003 145.98-54.304z" fill="#ffd5d5"/>
   <path d="m77.337 146.57c-1.6276 1.68-2.0315 3.7155-2.1255 5.6925 2.3819 2.8641 5.8262 4.5441 7.1448 8.5952l12.225 2.0156c2.2404-3.1403 9.1318-3.2026 13.7-4.8015 0.55044-1.5424 1.0246-3.3492 2.1849-5.2173 0.10296-0.7425-9.601-2.1028-17.636-3.6531-8.1002-1.5622-14.83-3.5442-15.493-2.6314z" fill="#ffb380"/>
  </g>
 </g>
 <path d="m87.445 161.72a27.489 28.938 0 0 0-27.491 28.939 27.489 28.938 0 0 0 27.491 28.938 27.489 28.938 0 0 0 27.488-28.938 27.489 28.938 0 0 0-27.488-28.939zm0 6.5469a21.27 22.392 0 0 1 21.27 22.392 21.27 22.392 0 0 1-21.27 22.391 21.27 22.392 0 0 1-21.271-22.391 21.27 22.392 0 0 1 21.271-22.392z" fill="url(#linearGradient1209)" stroke="#000" stroke-linecap="round" stroke-linejoin="round" stroke-width=".9108"/>
 <path d="m82.475 160.68c-1.3731 2.3562-2.2433 5.646 0.47817 7.5676 2.8294 1.0098 7.2706 1.1187 11.491 1.4028-1.5147-2.6294-0.68508-5.0213 0.37224-7.43z" fill="#fca" fill-rule="evenodd" stroke="#000" stroke-width=".93753"/>
 <g fill-rule="evenodd" stroke="#000">
  <path d="m140.53 182.84s0.62964-10.949-3.2036-13.539c-3.5145-2.374-9.7515-1.2424-12.555 1.9444-2.4364 2.768-0.32373 11.077-0.32373 11.077l8.7971 17.837z" fill="url(#linearGradient601)" stroke-width="1.0365"/>
  <path d="m210.8 158.81s-4.9144-6.037-8.3714-5.7786c-4.0036 0.29898-7.6963 4.354-8.4378 8.0477-0.57222 2.8492 3.658 7.9962 3.658 7.9962l29.982 8.0111z" fill="url(#linearGradient1177)" stroke-width="1.1068"/>
  <path d="m236.31 136.44s-4.954-4.8431-7.8576-4.2105c-3.858 0.84051-7.5468 5.4994-7.1676 9.4298 0.3168 3.2888 7.3953 6.6013 7.3953 6.6013l19.421 1.6008z" fill="url(#linearGradient1185)" stroke-width="1.1484"/>
 </g>
 <g transform="matrix(.99 0 0 .99 .68653 -5.4836)" fill-rule="evenodd" stroke="#000">
  <path d="m32.408 101.74c-2.287-4.112-0.835-13.098 2.84-13.826 2.229-0.442 3.559 1.867 4.168 3.598 1.348 3.836 1.323 9.984-2.21 11.996-1.481 0.844-3.97-0.278-4.798-1.768zm18.972-15.674c-2.033-4.103-1.016-11.929 3.346-13.321 1.976-0.632 4.094 2.067 4.735 4.04 1.224 3.767 0.762 9.778-2.778 11.554-1.72 0.862-4.45-0.55-5.303-2.273zm22.263-11.996c-1.808-4.091-0.262-11.388 3.977-12.816 2.23-0.751 5.014 1.867 5.745 4.104 1.254 3.833-0.085 9.893-3.788 11.49-2.005 0.865-5.052-0.78-5.934-2.778zm25.211-6.494c-1.074-3.924 1.581-10.128 5.585-10.852 2.784-0.503 5.69 2.944 6.28 5.71 0.751 3.518-0.886 8.827-4.323 9.884-2.838 0.874-6.758-1.878-7.542-4.742zm29.53-1.791c-1.074-3.924 1.581-10.129 5.585-10.852 2.784-0.503 5.69 2.943 6.28 5.71 0.751 3.517-0.886 8.826-4.323 9.884-2.839 0.874-6.758-1.878-7.542-4.742z" fill="#f95"/>
  <path d="m165.78 67.346c-1.074-3.924 1.58-10.129 5.584-10.852 2.785-0.504 5.69 2.943 6.281 5.71 0.75 3.517-0.887 8.826-4.324 9.884-2.838 0.873-6.758-1.878-7.541-4.742zm24.707-0.571c0.743-1.904 3.13-4.314 5.017-3.528 4.798 1.998 5.777 11.243 2.619 15.37-1.008 1.318-3.615 1.455-4.955 0.477-3.395-2.477-4.207-8.404-2.68-12.319zm18.288 12.104c0.743-1.905 3.13-4.314 5.016-3.529 4.799 1.998 5.778 11.243 2.62 15.371-1.009 1.318-3.615 1.454-4.956 0.476-3.394-2.477-4.206-8.403-2.68-12.318zm15.847 13.953c1.13-1.43 3.981-2.414 5.332-1.193 3.733 3.376 2.644 12.63-1.8 14.992-1.118 0.594-2.71-0.658-3.377-1.734-2.119-3.419-2.65-8.91-0.155-12.065z" fill="#ffb380"/>
 </g>
 <g fill-rule="evenodd" stroke="#000" stroke-width="1.0365">
  <path d="m25.491 138.98s5.6569-5.64 8.1477-3.46c4.0342 3.5323 5.7974 7.7735 5.7866 13.574-5e-3 2.3691-5.8677 5.0342-5.8677 5.0342l-22.062 2.9047z" fill="url(#linearGradient1201)"/>
  <path d="m50.477 157.46s5.6578-5.64 8.1477-3.46c4.0352 3.5323 5.6311 6.2647 5.6202 12.065-5e-3 2.3691-4.8658 5.5361-4.8658 5.5361l-18.721 8.6071z" fill="url(#linearGradient1193)"/>
  <path d="m177.69 171.78s-3.3363-7.9408-6.6874-8.32c0 0-8.9872-0.2178-10.312 5.5836-0.52668 2.3087 1.8226 9.6594 1.8226 9.6594l16.688 13.909z" fill="url(#linearGradient615)"/>
 </g>
 <path class="UnoptimicedTransforms" transform="matrix(.99 0 0 .99 .68653 -5.4836)" d="m173.44 173.97c0.504 4.8145 4.2657 16.532 4.8912 21.327z" fill="#f95"/>
 <g fill="#fff">
  <path class="UnoptimicedTransforms" transform="matrix(.99 0 0 .99 .68653 -5.4836)" d="m173.44 173.97c0.0382 0.36539 0.022 1.1613 0.0795 2.1501 0.0537 0.92307 0.15613 1.9355 0.28269 2.6623 0.0268 0.15417 0.0542 0.29152 0.0816 0.40655 0.29287 1.2301 0.82466 3.077 1.567 5.5536 0.60776 2.0278 1.2356 4.0824 1.759 5.916 0.28097 0.98421 0.5103 1.8296 0.69085 2.5557 0.24054 0.96739 0.37192 1.634 0.43051 2.0832-0.0621-0.47639-0.13827-1.0954-0.3077-2.1086-0.12471-0.74584-0.28227-1.5977-0.48551-2.6098-0.37594-1.8721-0.84552-3.9781-1.3088-6.0402-0.42231-1.8798-1.1282-5.0292-1.2657-5.6069-0.0271-0.114-0.0639-0.24761-0.10793-0.39615-0.19516-0.65822-0.55962-1.6871-0.8367-2.5119-0.32062-0.95435-0.53935-1.6763-0.57888-2.0539z"/>
  <path class="UnoptimicedTransforms" transform="matrix(.96645 .21465 -.21465 .96645 3.5612 -34.352)" d="m173.44 173.97c0.0382 0.36539 0.022 1.1613 0.0795 2.1501 0.0537 0.92307 0.15613 1.9355 0.28269 2.6623 0.0268 0.15417 0.0542 0.29152 0.0816 0.40655 0.29287 1.2301 0.82466 3.077 1.567 5.5536 0.60776 2.0278 1.2356 4.0824 1.759 5.916 0.28097 0.98421 0.5103 1.8296 0.69085 2.5557 0.24054 0.96739 0.37192 1.634 0.43051 2.0832-0.0621-0.47639-0.13827-1.0954-0.3077-2.1086-0.12471-0.74584-0.28227-1.5977-0.48551-2.6098-0.37594-1.8721-0.84552-3.9781-1.3088-6.0402-0.42231-1.8798-1.1282-5.0292-1.2657-5.6069-0.0271-0.114-0.0639-0.24761-0.10793-0.39615-0.19516-0.65822-0.55962-1.6871-0.8367-2.5119-0.32062-0.95435-0.53935-1.6763-0.57888-2.0539z"/>
  <path class="UnoptimicedTransforms" transform="matrix(-.041392 -.98913 -.98913 .041392 286.8 318.22)" d="m173.44 173.97c-1.3e-4 -1e-5 -2.7e-4 -1e-5 -4.1e-4 0-6e-3 6e-3 -7e-3 9e-3 -8e-3 0.0116-1e-3 3e-3 -2e-3 6e-3 -4e-3 0.01-2e-3 7e-3 -5e-3 0.016-7e-3 0.0274-2e-3 0.0105-4e-3 0.0231-6e-3 0.0379-4e-3 0.0273-7e-3 0.0621-9e-3 0.10596-2e-3 0.0405-3e-3 0.0883-3e-3 0.14459 7.1e-4 0.20709 0.0191 0.5106 0.0645 0.93254 0.0968 0.90021 0.30912 2.2299 0.53061 3.2661 0.0467 0.21853 0.0926 0.41722 0.13588 0.58566 0.41209 1.6036 1.3524 4.9762 2.5132 9.0743 1.1326 3.9983 2.2616 7.9288 3.0536 10.613 0.80083 2.7144 1.0356 3.3866 1.0356 3.3866s-0.12792-0.70043-0.76566-3.4576c-0.63261-2.735-1.576-6.696-2.545-10.745-0.96055-4.014-1.8379-7.6727-2.2168-9.1472-0.0432-0.16829-0.0987-0.36426-0.16281-0.57806-0.30247-1.0087-0.75479-2.2856-1.0848-3.1192-0.15584-0.3936-0.27606-0.66946-0.36465-0.85475-0.024-0.0502-0.045-0.0924-0.0634-0.12787-0.0199-0.0384-0.0362-0.0683-0.0495-0.0916-7e-3 -0.0126-0.0134-0.0232-0.0188-0.032-6e-3 -0.01-0.0104-0.017-0.0141-0.0228-2e-3 -3e-3 -3e-3 -5e-3 -5e-3 -8e-3 -1e-3 -2e-3 -3e-3 -4e-3 -4e-3 -6e-3z"/>
  <path class="UnoptimicedTransforms" transform="matrix(.96645 .21465 -.21465 .96645 -23.888 -43.077)" d="m165.22 178.41c1.2712 0.29013 3.1896 0.94192 5.2599 2.0455 2.0994 1.1191 3.6916 2.3333 4.917 3.331 0.23295 0.18966 0.38342 0.31441 0.61637 0.50407 1.8475 1.5008 4.4184 3.8934 6.7641 7.5715 1.9422 3.0453 3.364 6.4098 4.1711 9.8436 1.0311 4.3869 0.83497 7.9067 0.46326 10.078 0.37236-2.1753 0.71858-5.6649-0.13295-10.148-0.66514-3.5021-1.9518-6.9912-3.8142-10.192-2.2454-3.8591-4.8351-6.4576-6.7516-8.0144-0.18154-0.14747-0.40286-0.31721-0.65832-0.50152-1.3139-0.94797-3.1486-2.0166-5.3744-2.9042-2.2773-0.90815-4.1298-1.3097-5.4602-1.6133z"/>
  <path class="UnoptimicedTransforms" transform="matrix(.84672 -.513 .513 .84672 -30.11 98.073)" d="m173.44 173.97c0.0382 0.36539 0.022 1.1613 0.0795 2.1501 0.0537 0.92307 0.15613 1.9355 0.28269 2.6623 0.0268 0.15417 0.0542 0.29152 0.0816 0.40655 0.29287 1.2301 0.82466 3.077 1.567 5.5536 0.60776 2.0278 1.2356 4.0824 1.759 5.916 0.28097 0.98421 0.5103 1.8296 0.69085 2.5557 0.24054 0.96739 0.37192 1.634 0.43051 2.0832-0.0621-0.47639-0.13827-1.0954-0.3077-2.1086-0.12471-0.74584-0.28227-1.5977-0.48551-2.6098-0.37594-1.8721-0.84552-3.9781-1.3088-6.0402-0.42231-1.8798-1.1282-5.0292-1.2657-5.6069-0.0271-0.114-0.0639-0.24761-0.10793-0.39615-0.19516-0.65822-0.55962-1.6871-0.8367-2.5119-0.32062-0.95435-0.53935-1.6763-0.57888-2.0539z"/>
  <path class="UnoptimicedTransforms" transform="matrix(.84672 -.513 .513 .84672 -10.121 74.012)" d="m177.72 180.17c0.0729 0.69611 0.0117 2.8502 0.1468 4.0456 0.0192 0.17031 0.0408 0.31868 0.0645 0.43637 0.18069 0.89624 0.52247 2.2154 0.98626 3.9097 0.39431 1.4404 0.80823 2.9094 1.1706 4.3044 0.46696 1.7977 0.74252 3.0803 0.85056 3.9086-0.14634-1.1219-0.20705-1.8378-0.54137-3.9728-0.2231-1.4248-0.48782-2.9389-0.7474-4.4049-0.2626-1.4831-0.58574-3.3058-0.71508-3.9473-0.0235-0.11648-0.0603-0.2599-0.10653-0.42293-0.32437-1.1438-1.0355-3.1606-1.1084-3.8567z"/>
  <path class="UnoptimicedTransforms" transform="matrix(.84672 -.513 .513 .84672 -3.8938 43.757)" d="m177.92 183.93c0.0524 0.14227 0.0782 0.48935 0.17082 0.94021 0.0845 0.41113 0.20949 0.87187 0.34643 1.2177 0.04 0.10111 0.0799 0.18878 0.11782 0.25637 0.28055 0.5001 0.8069 1.296 1.5277 2.3552 0.62145 0.91322 1.2885 1.8788 1.9199 2.8231 0.8049 1.2038 1.3744 2.1113 1.6642 2.6747-0.27652-0.53751-0.76445-1.5794-1.3912-2.8333-0.50236-1.0051-1.0519-2.0788-1.5472-3.0473-0.53315-1.0425-1.0588-2.078-1.2806-2.4732-0.0372-0.0663-0.09-0.14449-0.15332-0.23009-0.21158-0.28603-0.53215-0.64481-0.79792-0.94449-0.30327-0.34199-0.52355-0.59465-0.57669-0.7388z"/>
 </g>
</svg>
