<?xml version="1.0" encoding="UTF-8"?>
<svg cursor="default" version="1.1" viewBox="0 0 256 256" xml:space="preserve" xmlns="http://www.w3.org/2000/svg" xmlns:xlink="http://www.w3.org/1999/xlink"><defs><linearGradient id="linearGradient21961" x1="106.46" x2="58.342" y1="102.76" y2="107.52" gradientTransform="translate(310.92 31.022)" gradientUnits="userSpaceOnUse"><stop offset="0"/><stop stop-opacity="0" offset="1"/></linearGradient><linearGradient id="linearGradient23153" x1="48.857" x2="79.019" y1="142.08" y2="95.72" gradientUnits="userSpaceOnUse"><stop stop-color="#ff7f2a" offset="0"/><stop stop-color="#f95" offset="1"/></linearGradient></defs><g transform="translate(5.2463 -3.3212)"><path d="m56.139 114.22c-0.22538-2.3138 0.51458-2.9213 0.26842-5.0183-1.4757-12.572 1.9348-25.976 13.568-29.705 7.2839-2.3351 17.691 1.1129 26.764 5.7329 7.4399 3.7885 13.839 8.5692 18.094 9.8662-1.0843 2.7881-1.9152 5.4556-2.2914 7.4029-5.568 28.825-31.686 37.05-45.49 22.639-3.5473-3.7033-7.0431-8.3386-10.913-10.917z" fill="url(#linearGradient23153)" stroke="#000" stroke-linecap="square" stroke-linejoin="round" stroke-width=".5"/><path d="m58.765 110.18c-3.452-12.877 0.74427-26.475 14.582-26.859 15.168-0.42102 27.23 7.4827 34.586 14.582 0.7671 11.727-7.2737 27.774-22.434 29.663-11.489 1.4314-19.102-8.1787-26.734-17.387z" fill="#ff2a2a" stroke="#000" stroke-linecap="square" stroke-linejoin="round" stroke-width=".5"/><path d="m58.765 110.18c-3.452-12.877 0.74427-26.475 14.582-26.859 15.168-0.42102 27.23 7.4827 34.586 14.582 0.7671 11.727-7.2737 27.774-22.434 29.663-11.489 1.4314-19.102-8.1787-26.734-17.387z" fill="url(#linearGradient21961)" opacity=".25"/><path d="m70.68 81.52c6.808-1.1073 21.228-1.9202 41.597 14.806-1.2663 1.9307-1.587 4.0979-1.9389 6.2572l0.17626-5.5522c-7.1149-6.706-23.71-17.981-39.835-15.511z" fill="#fff"/></g></svg>
