<?xml version="1.0" encoding="UTF-8"?>
<svg cursor="default" version="1.1" viewBox="0 0 256 256" xml:space="preserve" xmlns="http://www.w3.org/2000/svg" xmlns:xlink="http://www.w3.org/1999/xlink"><defs><linearGradient id="linearGradient21641" x1="73.535" x2="57.606" y1="167.63" y2="170.24" gradientUnits="userSpaceOnUse"><stop offset="0"/><stop stop-opacity="0" offset="1"/></linearGradient><linearGradient id="linearGradient23155" x1="51.474" x2="70.419" y1="180.85" y2="157.29" gradientUnits="userSpaceOnUse"><stop stop-color="#ff7f2a" offset="0"/><stop stop-color="#f95" offset="1"/></linearGradient></defs><g transform="translate(5.2463 -3.3212)"><path d="m50.212 156.01c-0.43553-0.49501 5.5972-2.0807 12.156 0.12914 6.5996 2.2235 18.141 4.4378 18.675 8.8689 0.45917 3.8088-16.556 25.935-22.04 14.908-0.56931-7.8972-1.3005-15.074-8.7909-23.906z" fill="#ff2a2a" fill-opacity=".99722" stroke="#000" stroke-linecap="square" stroke-linejoin="round" stroke-width=".5"/><path d="m50.212 156.01c-0.43553-0.49501 5.5972-2.0807 12.156 0.12914 6.5996 2.2235 18.141 4.4378 18.675 8.8689 0.45917 3.8088-16.556 25.935-22.04 14.908-0.56931-7.8972-1.3005-15.074-8.7909-23.906z" fill="url(#linearGradient21641)" opacity=".25"/><path d="m51.407 152.13c-1.0859 1.465-1.1821 2.7248-1.2416 3.8476 0.6173-0.0627 1.0658 0.60607 1.5107 1.2904 0.22401-0.56704 0.32043-1.5843 1.6675-1.3527 5.5483 0.95365 14.727 5.0296 21.936 8.2882 2.4663 1.1148 1.3543 2.511 0.87244 3.4898-6.371 12.942-11.913 12.719-17.2 12.214l-0.24927 4.3622c3.1197 0.74413 6.1942 0.20437 9.036-0.99708 6.784-2.8681 10.026-8.1477 12.9-14.769 1.4155-3.2621 2.9564-4.8812 4.2999-6.9796-2.4529-0.15611-3.6156-0.0724-6.2941-0.99708-8.7166-3.0092-13.601-5.8886-22.497-8.5375-1.5938-0.47457-2.7981-0.78583-3.5666-0.39593-0.61285 0.31094-0.81106 0.9068-0.97283 1.4854z" fill="url(#linearGradient23155)" stroke="#000" stroke-linecap="square" stroke-linejoin="round" stroke-width=".5"/><path d="m80.265 162.15c-6.9327-2.0025-16.406-6.2277-24.615-9.3476l18.944 8.3505z" fill="#fff"/></g></svg>
