<?xml version="1.0" encoding="UTF-8"?>
<svg cursor="default" version="1.1" viewBox="0 0 256 256" xml:space="preserve" xmlns="http://www.w3.org/2000/svg" xmlns:xlink="http://www.w3.org/1999/xlink"><defs><linearGradient id="linearGradient23649" x1="179.47" x2="199.79" y1="43.248" y2="23.182" gradientUnits="userSpaceOnUse"><stop stop-color="#ff2a2a" offset="0"/><stop stop-color="#f55" offset="1"/></linearGradient><linearGradient id="linearGradient24106" x1="198.29" x2="224.91" y1="152.47" y2="153.35" gradientUnits="userSpaceOnUse"><stop stop-color="#fd5" offset="0"/><stop stop-color="#ffe680" offset="1"/></linearGradient></defs><g transform="translate(5.2878 -2.4676)"><path d="m205.34 16.04c8.3601-3.7025 24.698 5.9022 31.903 41.245 3.7759 18.522 4.8853 29.131-3.8777 53.054-10.567 28.848-7.8001 40.637-8.9893 61.515-1.9504 34.241 4.418 50.708-3.7015 71.914-1.0282 2.6854-3.3551 5.6186-8.6408 6.434 0.0186 1.4477-8.9362 3.9209-9.4375 2.3995-0.64037 0.60864-8.6133 0.93125-9.5455-0.10585-1.2924 0.68215-6.7583 1.1742-9.8415 1.0422-4.6965 0.4711-6.6334 0.11725-8.0753-0.56407-2.6874 0.10009-5.3166 0.17562-7.147-1.6617-1.1879-0.48317-2.1574-1.0332-2.8595-1.6492-2.9106-2.5541 27.168-18.419 31.047-51.722 1.3846-11.889-3.4056-20.927-1.5864-39.482 2.8217-28.78 14.571-38.249 23.266-72.267 2.5297-14.071 5.3467-28.127-0.35252-42.655-1.2321-4.9372-3.0504-9.223-8.4605-9.5181z" fill="url(#linearGradient24106)" stroke="#000" stroke-linecap="square" stroke-linejoin="round" stroke-width=".5"/><g transform="rotate(2.7319 81.68 69.722)" fill="#ffd42a"><path d="m174.49 249.77c5.1954-5.5286 11.907-12.969 17.558-20.802 4.3324-6.0059 7.4146-11.366 9.5349-16.355 2.4162-5.6852 3.326-10.32 3.7241-13.722 0.11258-0.96219 0.18241-1.821 0.22561-2.539 0.1643-2.7305 0.13102-5.8354-0.22373-10.173-0.31351-3.8334-0.8715-8.2475-1.2612-13.316-0.36136-4.6999-0.54576-9.8522-0.15233-15.718 0.4196-6.256 1.4632-12.803 3.2807-19.907 2.4465-9.5621 5.9027-18.555 9.067-25.814-3.1702 7.272-6.671 16.213-9.2164 25.775-1.8885 7.0946-3.0181 13.64-3.5332 19.916-0.48298 5.8853-0.38811 11.064-0.11067 15.793 0.29898 5.0958 0.77317 9.5234 1.022 13.337 0.28276 4.3343 0.27413 7.3459 0.1117 10.045-0.0423 0.70318-0.10314 1.5485-0.1992 2.4918-0.33898 3.3287-1.1046 7.9091-3.3519 13.577-1.9763 4.9847-4.9174 10.382-9.1416 16.449-5.4898 7.8855-12.16 15.455-17.333 20.961z"/><path d="m182.84 253.01c5.6188-5.9792 12.116-13.283 17.543-20.812 4.078-5.6577 7.2809-11.058 9.5389-16.348 2.0595-4.8257 3.2216-9.2924 3.7837-13.713 0.55813-4.3889 0.5049-8.5865 0.27069-12.741-0.25917-4.5968-0.67969-8.739-0.93886-13.336-0.33696-6.1225-0.2509-10.933 0.0971-15.603 0 0 3.7e-4 -5e-3 3.7e-4 -5e-3 0.27685-3.7158 0.68632-10.461 2.8453-19.855 2.24-9.7466 5.6604-19.16 8.6126-25.932-3.0712 7.0448-6.7571 15.693-9.6708 25.656-2.7058 9.2528-3.69 16.235-3.9686 19.968 0 2e-5 -3.8e-4 5e-3 -3.8e-4 5e-3 -0.35191 4.7217-0.35384 9.756 0.13955 15.898 0.35174 4.3782 0.93726 8.84 1.3443 13.317 0.37226 4.0946 0.57503 8.2047 0.18131 12.508-0.39658 4.335-1.3876 8.7617-3.2922 13.587-2.0912 5.2978-5.155 10.739-9.1376 16.455-5.2917 7.5949-11.736 14.978-17.348 20.95z"/><path d="m201.15 249.97c3.4161-2.5921 7.9033-6.3138 11.608-11.501 2.968-4.1552 4.8642-8.4455 6.0858-12.82 1.0249-3.6704 1.4758-7.0829 1.6658-9.2911 0.12773-1.4851 0.22669-3.2265 0.27085-5.2908 0.0999-4.6686-0.0911-9.5086-0.46209-16.56-0.58323-11.085-1.4666-24.992-0.0363-41.003 0.89082-9.972 2.5799-19.772 5.1217-29.648 2.5235-9.8045 5.5614-18.393 8.2936-25.217-2.7375 6.8367-5.8265 15.374-8.4607 25.173-2.651 9.8612-4.4805 19.643-5.5385 29.635-1.6978 16.035-1.1029 30.027-0.74465 41.118 0.22925 7.0977 0.32143 11.812 0.16154 16.456-0.0701 2.0353-0.18122 3.7362-0.30634 5.1909-0.18517 2.1529-0.49296 5.4995-1.3013 9.1005-0.9631 4.2903-2.5444 8.5866-5.2412 12.825-3.3635 5.2867-7.7128 9.2498-11.116 11.832z"/><path d="m215.37 29.912c3.0622 3.435 6.7691 8.0245 9.7241 13.444 2.2114 4.0557 3.8375 8.2655 4.766 12.735 0.86967 4.1862 1.0727 8.3332 0.77662 12.512-0.31262 4.4123-1.1723 8.6934-2.2076 12.66-1.3248 5.0762-3.1121 10.218-4.1978 13.229-1.0452 2.8991-3.0446 7.8976-5.2952 13.89-2.0936 5.5745-4.1095 11.344-5.8115 17.499-1.7023 6.155-2.6936 11.294-3.2386 15.08 0.55806-3.8761 1.3611-8.8584 2.865-15.176 1.4838-6.2333 3.2531-12.095 5.1259-17.776 1.7108-5.1894 4.1481-12.081 4.86-14.056 1.0545-2.9247 2.9705-8.1574 4.3807-13.051 1.1202-3.8867 2.0896-8.0698 2.5321-12.386 0.41895-4.0862 0.35491-8.1663-0.37478-12.315-0.77987-4.4336-2.2699-8.6517-4.3812-12.741-2.8202-5.4622-6.4627-10.117-9.5238-13.55z"/><path d="m215.24 21.063c2.0007 1.0494 4.7018 2.7697 7.5243 5.8302 2.111 2.2889 4.1471 5.1726 5.981 8.7663 3.6488 7.15 5.8147 15.766 6.7862 24.601 0.66011 6.0028 0.68831 11.378 0.54647 15.177-0.12647 3.387-0.59584 8.8358-1.7854 15.506-2.4575 13.78-6.3915 24.505-9.5805 32.569 3.0589-7.7352 6.4246-19.419 8.1005-32.794 0.84213-6.7208 1.035-11.962 1.1618-15.36 0.14003-3.7501 0.23271-9.0017-0.23165-14.93-0.68169-8.703-2.444-17.24-5.7059-24.428-1.6394-3.6128-3.5094-6.5536-5.4971-8.9098-2.66-3.1531-5.2953-4.9766-7.3-6.0281z"/></g><g fill="#fff6d5"><path d="m174.49 249.77c5.1954-5.5286 11.907-12.969 17.558-20.802 4.3324-6.0059 7.4146-11.366 9.5349-16.355 2.4162-5.6852 3.326-10.32 3.7241-13.722 0.11258-0.96219 0.18241-1.821 0.22561-2.539 0.1643-2.7305 0.13102-5.8354-0.22373-10.173-0.31351-3.8334-0.8715-8.2475-1.2612-13.316-0.36136-4.6999-0.54576-9.8522-0.15233-15.718 0.4196-6.256 1.4632-12.803 3.2807-19.907 2.4465-9.5621 5.9027-18.555 9.067-25.814-3.1702 7.272-6.671 16.213-9.2164 25.775-1.8885 7.0946-3.0181 13.64-3.5332 19.916-0.48298 5.8853-0.38811 11.064-0.11067 15.793 0.29898 5.0958 0.77317 9.5234 1.022 13.337 0.28276 4.3343 0.27413 7.3459 0.1117 10.045-0.0423 0.70318-0.10314 1.5485-0.1992 2.4918-0.33898 3.3287-1.1046 7.9091-3.3519 13.577-1.9763 4.9847-4.9174 10.382-9.1416 16.449-5.4898 7.8855-12.16 15.455-17.333 20.961z"/><path d="m182.84 253.01c5.6188-5.9792 12.116-13.283 17.543-20.812 4.078-5.6577 7.2809-11.058 9.5389-16.348 2.0595-4.8257 3.2216-9.2924 3.7837-13.713 0.55813-4.3889 0.5049-8.5865 0.27069-12.741-0.25917-4.5968-0.67969-8.739-0.93886-13.336-0.33696-6.1225-0.2509-10.933 0.0971-15.603 0 0 3.7e-4 -5e-3 3.7e-4 -5e-3 0.27685-3.7158 0.68632-10.461 2.8453-19.855 2.24-9.7466 5.6604-19.16 8.6126-25.932-3.0712 7.0448-6.7571 15.693-9.6708 25.656-2.7058 9.2528-3.69 16.235-3.9686 19.968 0 2e-5 -3.8e-4 5e-3 -3.8e-4 5e-3 -0.35191 4.7217-0.35384 9.756 0.13955 15.898 0.35174 4.3782 0.93726 8.84 1.3443 13.317 0.37226 4.0946 0.57503 8.2047 0.18131 12.508-0.39658 4.335-1.3876 8.7617-3.2922 13.587-2.0912 5.2978-5.155 10.739-9.1376 16.455-5.2917 7.5949-11.736 14.978-17.348 20.95z"/><path d="m201.15 249.97c3.4161-2.5921 7.9033-6.3138 11.608-11.501 2.968-4.1552 4.8642-8.4455 6.0858-12.82 1.0249-3.6704 1.4758-7.0829 1.6658-9.2911 0.12773-1.4851 0.22669-3.2265 0.27085-5.2908 0.0999-4.6686-0.0911-9.5086-0.46209-16.56-0.58323-11.085-1.4666-24.992-0.0363-41.003 0.89082-9.972 2.5799-19.772 5.1217-29.648 2.5235-9.8045 5.5614-18.393 8.2936-25.217-2.7375 6.8367-5.8265 15.374-8.4607 25.173-2.651 9.8612-4.4805 19.643-5.5385 29.635-1.6978 16.035-1.1029 30.027-0.74465 41.118 0.22925 7.0977 0.32143 11.812 0.16154 16.456-0.0701 2.0353-0.18122 3.7362-0.30634 5.1909-0.18517 2.1529-0.49296 5.4995-1.3013 9.1005-0.9631 4.2903-2.5444 8.5866-5.2412 12.825-3.3635 5.2867-7.7128 9.2498-11.116 11.832z"/><path d="m215.37 29.912c3.0622 3.435 6.7691 8.0245 9.7241 13.444 2.2114 4.0557 3.8375 8.2655 4.766 12.735 0.86967 4.1862 1.0727 8.3332 0.77662 12.512-0.31262 4.4123-1.1723 8.6934-2.2076 12.66-1.3248 5.0762-3.1121 10.218-4.1978 13.229-1.0452 2.8991-3.0446 7.8976-5.2952 13.89-2.0936 5.5745-4.1095 11.344-5.8115 17.499-1.7023 6.155-2.6936 11.294-3.2386 15.08 0.55806-3.8761 1.3611-8.8584 2.865-15.176 1.4838-6.2333 3.2531-12.095 5.1259-17.776 1.7108-5.1894 4.1481-12.081 4.86-14.056 1.0545-2.9247 2.9705-8.1574 4.3807-13.051 1.1202-3.8867 2.0896-8.0698 2.5321-12.386 0.41895-4.0862 0.35491-8.1663-0.37478-12.315-0.77987-4.4336-2.2699-8.6517-4.3812-12.741-2.8202-5.4622-6.4627-10.117-9.5238-13.55z"/><path d="m215.24 21.063c2.0007 1.0494 4.7018 2.7697 7.5243 5.8302 2.111 2.2889 4.1471 5.1726 5.981 8.7663 3.6488 7.15 5.8147 15.766 6.7862 24.601 0.66011 6.0028 0.68831 11.378 0.54647 15.177-0.12647 3.387-0.59584 8.8358-1.7854 15.506-2.4575 13.78-6.3915 24.505-9.5805 32.569 3.0589-7.7352 6.4246-19.419 8.1005-32.794 0.84213-6.7208 1.035-11.962 1.1618-15.36 0.14003-3.7501 0.23271-9.0017-0.23165-14.93-0.68169-8.703-2.444-17.24-5.7059-24.428-1.6394-3.6128-3.5094-6.5536-5.4971-8.9098-2.66-3.1531-5.2953-4.9766-7.3-6.0281z"/></g><path d="m210.84 19.57 0.0437-0.42981c18.258-3.9093 28.589 43.439 28.197 65.247 0.43399-20.473-10.254-69.247-28.241-64.817z"/><path d="m213.37 32.654 0.18695-0.38948c21.113 14.236 12.557 38.53 6.9172 61.834 5.4787-23.255 13.728-47.489-7.1042-61.445z"/><path d="m213.31 23.959 0.10329-0.4195c19.878 0.2721 21.498 37.172 20.747 61.137 0.60366-23.884-1.1285-60.486-20.85-60.718z"/><path d="m174.49 32.53 21.562-18.197c8.9609-6.6108 24.555 10.034 17.2 19.194l-19.318 16.327z" fill="url(#linearGradient23649)" stroke="#000" stroke-linecap="square" stroke-linejoin="round" stroke-width=".5"/><path d="m176.61 33.754 18.331-16.04c3.9841-3.4861 15.784 5.2573 12.426 7.7555l-22.385 16.657z" fill="#fff" fill-opacity=".1"/><path d="m178.11 35.869 18.684-14.806c4.1491-3.288 9.5165 1.4886 6.4335 4.3184l-20.182 15.952z" fill="#fff" fill-opacity=".2"/><path d="m183.93 36.75 17.979-13.22-17.274 14.013z" fill="#fff"/><path d="m167.98 251.09c47.696-43.397 28.876-55.722 33.309-90.516 4.0914-32.118 18.7-60.332 24.981-80.154-6.5203 20.517-20.246 47.187-24.642 80.212-4.4727 33.602 14.91 46.455-33.207 90.81z"/><path d="m174.71 252.83c47.696-43.397 26.882-67.437 31.314-102.23 4.0914-32.118 20.11-57.336 26.391-77.157-6.5203 20.517-21.656 44.19-26.052 77.216-4.4727 33.602 16.904 58.171-31.213 102.53z"/><path d="m182.81 253.46c37.914-36.435 23.941-44.97 28.373-79.764 4.0914-32.118 0.36854-32.307 6.6499-52.128-6.5203 20.517-1.9146 19.161-6.3106 52.187-4.4727 33.602 10.063 43.195-28.272 80.058z"/><path d="m192.78 252.33c34.485-40.655 19.03-68.061 23.462-102.85 4.0914-32.118 14.013-62.328 17.503-79.406-3.6537 18.149-12.768 46.439-17.164 79.464-4.4727 33.602 11.171 62.533-23.361 103.15z"/><path d="m202.37 252.33c17.203-19.249 11.779-39.506 16.211-74.3 4.0914-32.118 5.4801-54.868 11.761-74.69-6.5203 20.517-7.0262 41.723-11.422 74.748-4.4727 33.602 1.3383 54.123-16.11 74.594z"/><path d="m211.68 250.27c12.916-32.414 9.1792-82.822 13.612-117.62 4.0914-32.118 6.3614-28.077 12.643-47.898-6.5203 20.517-7.9074 14.931-12.303 47.957-4.4727 33.602-0.29214 84.043-13.334 117.47z"/><path d="m214.82 28.539 0.15149-0.4046c22.298 12.297 15.5 38.491 11.961 62.206 3.3841-23.651 9.8809-49.758-12.112-61.801z"/><path d="m212.42 34.115 0.20881-0.37822c20.269 15.414 10.344 39.182 3.3876 62.128 6.7931-22.906 16.408-46.631-3.5964-61.75z"/></g></svg>
