<?xml version="1.0" encoding="UTF-8"?>
<svg cursor="default" version="1.1" viewBox="0 0 256 256" xmlns="http://www.w3.org/2000/svg" xmlns:xlink="http://www.w3.org/1999/xlink">
 <defs>
  <linearGradient id="linearGradient3446" x1="69.705" x2="78.712" y1="87.28" y2="79.393" gradientUnits="userSpaceOnUse" xlink:href="#linearGradient22"/>
  <linearGradient id="linearGradient22" x1="33.651" x2="37.101" y1="39.343" y2="7.7571" gradientUnits="userSpaceOnUse">
   <stop stop-color="#ffb380" offset="0"/>
   <stop stop-color="#fca" offset="1"/>
  </linearGradient>
  <linearGradient id="linearGradient3512" x1="30.425" x2="50.576" y1="47.928" y2="12.244" gradientUnits="userSpaceOnUse" xlink:href="#linearGradient22"/>
  <linearGradient id="linearGradient1578" x1="51.673" x2="53.257" y1="52.809" y2="48.661" gradientTransform="matrix(3.937 -.54366 .54366 3.937 -166.43 -26.012)" gradientUnits="userSpaceOnUse">
   <stop stop-color="#ff8080" offset="0"/>
   <stop stop-color="#faa" offset=".54218"/>
   <stop stop-color="#ff8080" offset="1"/>
  </linearGradient>
  <linearGradient id="linearGradient3612" x1="33.651" x2="37.101" y1="39.343" y2="7.7571" gradientUnits="userSpaceOnUse" xlink:href="#innoGrad3"/>
  <linearGradient id="innoGrad3">
   <stop stop-color="#ffb380" offset="0"/>
   <stop stop-color="#fca" offset="1"/>
  </linearGradient>
  <linearGradient id="linearGradient3638" x1="32.233" x2="44.875" y1="30.656" y2="6.4253" gradientUnits="userSpaceOnUse">
   <stop stop-color="#f95" offset="0"/>
   <stop stop-color="#fca" offset="1"/>
  </linearGradient>
  <linearGradient id="linearGradient3618" x1="33.651" x2="37.101" y1="39.343" y2="7.7571" gradientTransform="translate(1.1235 -.022522)" gradientUnits="userSpaceOnUse" xlink:href="#innoGrad3"/>
  <linearGradient id="linearGradient1458" x1="51.673" x2="53.257" y1="52.809" y2="48.661" gradientTransform="matrix(3.937 -.54366 .54366 3.937 -156.96 -43.472)" gradientUnits="userSpaceOnUse" xlink:href="#linearGradient1578"/>
  <linearGradient id="linearGradient1464" x1="32.233" x2="44.875" y1="30.656" y2="6.4253" gradientUnits="userSpaceOnUse" xlink:href="#linearGradient3638"/>
  <linearGradient id="linearGradient1474" x1="51.673" x2="53.257" y1="52.809" y2="48.661" gradientTransform="matrix(3.937 -.54366 .54366 3.937 -57.728 -16.761)" gradientUnits="userSpaceOnUse" xlink:href="#linearGradient1578"/>
 </defs>
 <g transform="matrix(2.986 0 0 2.986 41.327 -35.032)">
  <g transform="matrix(.64995 .06395 .018855 .67576 24.643 53.93)" stroke="#000" stroke-width=".40222">
   <g transform="translate(2.8915,-5.933)" fill="url(#linearGradient3612)" fill-rule="evenodd">
    <path d="m28.511 45.746 0.014 4.8-6.637 0.027-0.99181 0.72594 7.5078 3.8321 0.03 7.095 4.625 0.79569 0.81773-0.81984-0.10976-7.0169 5.8225 0.72439 0.79951-0.77839-0.013-4.612h-6.61l0.017-4.766" fill="url(#linearGradient3612)" stroke-linejoin="bevel" stroke-width=".40222"/>
   </g>
   <path d="m34.361 9.3894a15.353 15.353 0 0 0-15.354 15.354 15.353 15.353 0 0 0 15.354 15.354 15.353 15.353 0 0 0 15.354-15.354 15.353 15.353 0 0 0-15.354-15.354zm0 4.6328a10.721 10.721 0 0 1 10.721 10.721 10.721 10.721 0 0 1-10.721 10.721 10.721 10.721 0 0 1-10.721-10.721 10.721 10.721 0 0 1 10.721-10.721z" fill="url(#linearGradient1464)" stroke-linecap="round" stroke-linejoin="round"/>
   <path d="m33.123 10.325a15.353 15.353 0 0 0-15.354 15.354 15.353 15.353 0 0 0 15.354 15.354 15.353 15.353 0 0 0 15.354-15.354 15.353 15.353 0 0 0-15.354-15.354zm0 4.6328a10.721 10.721 0 0 1 10.721 10.721 10.721 10.721 0 0 1-10.721 10.721 10.721 10.721 0 0 1-10.721-10.721 10.721 10.721 0 0 1 10.721-10.721z" fill="url(#linearGradient3618)" stroke-linecap="round" stroke-linejoin="round"/>
   <g transform="translate(1.9827,-5.1756)" fill="url(#linearGradient3612)" fill-rule="evenodd">
    <path d="m28.511 45.746 0.014 4.8-6.637 0.027v4.558h6.516l0.03 7.095h5.39l-0.057-7.041 6.622-0.054-0.013-4.612h-6.61l0.017-4.766" fill="url(#linearGradient3612)" stroke-width=".40222"/>
   </g>
  </g>
 </g>
 <path d="m183.43 163.37c-0.44799 9.4908-6.6392 0.97937-4.2653-0.88536z" fill="#ff2a2a" stroke="#000" stroke-linecap="round" stroke-linejoin="bevel" stroke-width=".33"/>
 <path d="m184.41 151.76c2.7113-9.1063-5.9433-3.1169-4.3184-0.57285z" fill="#ff2a2a" stroke="#000" stroke-linecap="round" stroke-linejoin="bevel" stroke-width=".33"/>
 <path d="m180.53 168.84c1.0399 0.32172 4.1351-1.8668 4.5394-5.0878l-1.9082-0.58803c-1.778 4.6628-3.9703-0.97981-3.498-6.0505 0.5294-5.6835 3.6798-13.643 4.5535-5.5487 0 0 2.1252 0.41441 2.1077 0.38922-0.0596-3.7817-1.4258-7.3888-2.5267-7.4598-12.807-0.42958-13.164 17.172-3.2678 24.346z" fill="#ff8080" stroke="#000" stroke-linecap="round" stroke-linejoin="round" stroke-width=".99359"/>
 <path d="m177.36 144.17c-6.3423-0.5007-9.8237 19.742-2.7545 24.291 1.899 0.71189 3.8558 1.2714 6.3188 0.4947-5.5822-4.8786-3.2937-21.548 2.8515-24.482z" fill="url(#linearGradient1474)" stroke="#000" stroke-linecap="round" stroke-linejoin="round" stroke-width=".99359"/>
 <path d="m178.41 148.84c-0.61591 0.70124-1.3575 1.5256-1.9734 2.7094-0.37962 0.72976-0.58488 1.3724-0.66465 1.7616-0.0516 0.25255-0.0995 0.58937-0.12282 0.99231-0.0491 0.84334 0.0193 1.7294 0.1756 2.7238 0.13122 0.84503 0.36774 1.8621 0.50056 2.7069-0.0802-0.50756-0.22325-1.6898-0.27162-2.7302-0.0462-1.0038-8e-3 -1.848 0.10665-2.6497 0.0552-0.38305 0.11788-0.68893 0.16737-0.92944 0.0764-0.3728 0.17484-0.97864 0.43936-1.732 0.40797-1.1616 1.0585-2.1872 1.6433-2.853z" fill="#fff" stroke-width="2.986"/>
 <g transform="matrix(2.986 0 0 2.986 -13.261 -79.101)" fill="url(#linearGradient3446)">
  <g transform="matrix(.6264 .21205 -.12051 .64784 53.497 57.525)" stroke-width=".405">
   <g transform="translate(.38452 -.55915)" fill="url(#linearGradient3446)" stroke-width=".405">
    <g transform="translate(-5.732,5.6267)" fill="url(#linearGradient3446)" stroke="#000" stroke-linejoin="round" stroke-width=".405">
     <path d="m44.646 23.653 8.7359-9.6751 0.23026 5.5509 2.8752 4.2452 1.1129-0.71162-0.81729-16.827-17.22 0.82118-1.1113 0.66604 5.0402 2.8125 6.1532-0.31542-9.1268 10.023" fill="url(#linearGradient3446)" stroke-width=".405"/>
    </g>
   </g>
  </g>
  <g transform="matrix(.6264 .21205 -.12051 .64784 52.573 57.42)" stroke-width=".405">
   <g transform="translate(.38452 -.55915)" fill="url(#linearGradient3446)" stroke-width=".405">
    <g transform="translate(-5.732,5.6267)" fill="url(#linearGradient3446)" stroke="#000" stroke-linejoin="round" stroke-width=".405">
     <path d="m44.746 24.144 8.9336-9.7586 0.23026 5.5509 3.9881 3.5336-0.81729-16.827-17.22 0.82118 3.9289 3.4785 6.1532-0.31542-9.1268 10.023" fill="url(#linearGradient3512)" stroke-width=".405"/>
    </g>
   </g>
  </g>
  <path d="m84.263 75.82-0.6816 0.16431" stroke="#000" stroke-linecap="round" stroke-linejoin="bevel" stroke-width=".2"/>
  <path d="m73.516 72.851c1.7904 0.51275 7.1885 1.9567 8.9788 2.4694 0.24956 0.07147 0.97121 0.38024 1.2208 0.45172-0.24956-0.07147-1.0253-0.19154-1.2748-0.26301-1.7904-0.51275-7.1344-2.1454-8.9248-2.6581z"/>
 </g>
 <g transform="matrix(2.986 0 0 2.986 -57.902 -61.742)">
  <g transform="matrix(.64995 .06395 .018855 .67576 24.643 53.93)" stroke="#000" stroke-width=".40222">
   <g transform="translate(2.8915,-5.933)" fill="url(#linearGradient3612)" fill-rule="evenodd">
    <path d="m28.511 45.746 0.014 4.8-6.637 0.027-0.99181 0.72594 7.5078 3.8321 0.03 7.095 4.625 0.79569 0.81773-0.81984-0.10976-7.0169 5.8225 0.72439 0.79951-0.77839-0.013-4.612h-6.61l0.017-4.766" fill="url(#linearGradient3612)" stroke-linejoin="bevel" stroke-width=".40222"/>
   </g>
   <path d="m34.361 9.3894a15.353 15.353 0 0 0-15.354 15.354 15.353 15.353 0 0 0 15.354 15.354 15.353 15.353 0 0 0 15.354-15.354 15.353 15.353 0 0 0-15.354-15.354zm0 4.6328a10.721 10.721 0 0 1 10.721 10.721 10.721 10.721 0 0 1-10.721 10.721 10.721 10.721 0 0 1-10.721-10.721 10.721 10.721 0 0 1 10.721-10.721z" fill="url(#linearGradient1464)" stroke-linecap="round" stroke-linejoin="round"/>
   <path d="m33.123 10.325a15.353 15.353 0 0 0-15.354 15.354 15.353 15.353 0 0 0 15.354 15.354 15.353 15.353 0 0 0 15.354-15.354 15.353 15.353 0 0 0-15.354-15.354zm0 4.6328a10.721 10.721 0 0 1 10.721 10.721 10.721 10.721 0 0 1-10.721 10.721 10.721 10.721 0 0 1-10.721-10.721 10.721 10.721 0 0 1 10.721-10.721z" fill="url(#linearGradient3618)" stroke-linecap="round" stroke-linejoin="round"/>
   <g transform="translate(1.9827,-5.1756)" fill="url(#linearGradient3612)" fill-rule="evenodd">
    <path d="m28.511 45.746 0.014 4.8-6.637 0.027v4.558h6.516l0.03 7.095h5.39l-0.057-7.041 6.622-0.054-0.013-4.612h-6.61l0.017-4.766" fill="url(#linearGradient3612)" stroke-width=".40222"/>
   </g>
  </g>
 </g>
 <path d="m84.199 136.66c-0.44799 9.4908-6.6392 0.97937-4.2653-0.88536z" fill="#ff2a2a" stroke="#000" stroke-linecap="round" stroke-linejoin="bevel" stroke-width=".33"/>
 <path d="m85.181 125.05c2.7113-9.1063-5.9433-3.1169-4.3184-0.57285z" fill="#ff2a2a" stroke="#000" stroke-linecap="round" stroke-linejoin="bevel" stroke-width=".33"/>
 <path d="m81.305 142.13c1.0399 0.32172 4.1351-1.8668 4.5394-5.0878l-1.9082-0.58803c-1.778 4.6628-3.9703-0.97981-3.498-6.0505 0.5294-5.6835 3.6798-13.643 4.5535-5.5487 0 0 2.1252 0.41441 2.1077 0.38922-0.0596-3.7817-1.4258-7.3888-2.5267-7.4598-12.807-0.42958-13.164 17.172-3.2678 24.346z" fill="#ff8080" stroke="#000" stroke-linecap="round" stroke-linejoin="round" stroke-width=".99359"/>
 <path d="m78.13 117.46c-6.3423-0.5007-9.8237 19.742-2.7545 24.291 1.899 0.71189 3.8558 1.2714 6.3188 0.4947-5.5822-4.8786-3.2937-21.548 2.8515-24.482z" fill="url(#linearGradient1458)" stroke="#000" stroke-linecap="round" stroke-linejoin="round" stroke-width=".99359"/>
 <path d="m79.182 122.13c-0.61591 0.70124-1.3575 1.5256-1.9734 2.7094-0.37962 0.72976-0.58488 1.3724-0.66465 1.7616-0.0516 0.25255-0.0995 0.58937-0.12282 0.99231-0.0491 0.84334 0.0193 1.7294 0.1756 2.7238 0.13123 0.84503 0.36774 1.8621 0.50056 2.7069-0.0802-0.50756-0.22325-1.6898-0.27162-2.7302-0.0462-1.0038-8e-3 -1.848 0.10665-2.6497 0.0552-0.38305 0.11788-0.68893 0.16737-0.92944 0.0764-0.3728 0.17484-0.97864 0.43936-1.732 0.40797-1.1616 1.0585-2.1872 1.6433-2.853z" fill="#fff" stroke-width="2.986"/>
 <g transform="matrix(2.986 0 0 2.986 -112.49 -105.81)" fill="url(#linearGradient3446)">
  <g transform="matrix(.6264 .21205 -.12051 .64784 53.497 57.525)" stroke-width=".405">
   <g transform="translate(.38452 -.55915)" fill="url(#linearGradient3446)" stroke-width=".405">
    <g transform="translate(-5.732,5.6267)" fill="url(#linearGradient3446)" stroke="#000" stroke-linejoin="round" stroke-width=".405">
     <path d="m44.646 23.653 8.7359-9.6751 0.23026 5.5509 2.8752 4.2452 1.1129-0.71162-0.81729-16.827-17.22 0.82118-1.1113 0.66604 5.0402 2.8125 6.1532-0.31542-9.1268 10.023" fill="url(#linearGradient3446)" stroke-width=".405"/>
    </g>
   </g>
  </g>
  <g transform="matrix(.6264 .21205 -.12051 .64784 52.573 57.42)" stroke-width=".405">
   <g transform="translate(.38452 -.55915)" fill="url(#linearGradient3446)" stroke-width=".405">
    <g transform="translate(-5.732,5.6267)" fill="url(#linearGradient3446)" stroke="#000" stroke-linejoin="round" stroke-width=".405">
     <path d="m44.746 24.144 8.9336-9.7586 0.23026 5.5509 3.9881 3.5336-0.81729-16.827-17.22 0.82118 3.9289 3.4785 6.1532-0.31542-9.1268 10.023" fill="url(#linearGradient3512)" stroke-width=".405"/>
    </g>
   </g>
  </g>
  <path d="m84.263 75.82-0.6816 0.16431" stroke="#000" stroke-linecap="round" stroke-linejoin="bevel" stroke-width=".2"/>
  <path d="m73.516 72.851c1.7904 0.51275 7.1885 1.9567 8.9788 2.4694 0.24956 0.07147 0.97121 0.38024 1.2208 0.45172-0.24956-0.07147-1.0253-0.19154-1.2748-0.26301-1.7904-0.51275-7.1344-2.1454-8.9248-2.6581z"/>
 </g>
</svg>
