<?xml version="1.0" encoding="UTF-8"?>
<svg version="1.1" viewBox="0 0 64 64" xmlns="http://www.w3.org/2000/svg">
 <ellipse cx="31.861" cy="32.81" rx="23.947" ry="23.608" fill="#ff8080" stroke="#000" stroke-linecap="round" stroke-linejoin="round"/>
 <g fill-rule="evenodd">
  <path d="m33.183 12.326c8.462 1.116 16.427 3.742 20.246 18.98-11.69-16.704-13.196-13.754-20.246-18.98z" fill="#f9f9f9"/>
  <path d="m42.087 53.714c-21.988 9.273-40.585-11.535-31.666-30.378 0.168 16.137 12.616 31.992 31.666 30.378z" fill-opacity=".449"/>
 </g>
 <path d="m28.957 38.114c1.3129-0.39498 2.6903 0.15638 3.2266 1.883 0.73961 2.382-2.8564 7.0548-2.6845 9.2941-1.1266-1.9671-6.6026-3.322-7.3274-5.6106-1.0088-3.1867 2.0848-5.0557 4.4705-3.4994 0.54821-1.0835 1.4162-1.7969 2.3145-2.0671z" fill="#faa" fill-rule="evenodd" stroke="#000" stroke-width=".75"/>
 <path d="m44.624 32.152c1.6576 0.62615 2.6378 2.274 1.8316 4.4672-1.1124 3.0254-8.4735 4.9952-10.056 7.4281 0.38936-2.9036-4.1654-8.596-3.1113-11.514 1.4684-4.0626 6.1112-3.55 7.3366-0.07873 1.4138-0.68117 2.8649-0.73125 3.999-0.30286z" fill="#f55" fill-rule="evenodd" stroke="#000" stroke-width=".75"/>
 <path d="m29.372 16.691c2.2047-0.5521 4.4427 0.46783 5.1966 3.3686 1.0398 4.0017-5.2776 11.46-5.1668 15.181-1.7127-3.3448-10.675-6.0135-11.698-9.8593-1.423-5.3552 3.8447-8.2097 7.6743-5.4474 0.99189-1.7516 2.4846-2.8654 3.993-3.2432z" fill="#ff2a2a" fill-rule="evenodd" stroke="#000" stroke-width=".75"/>
</svg>
