<?xml version="1.0" encoding="UTF-8"?>
<svg version="1.1" viewBox="0 0 100 100" xmlns="http://www.w3.org/2000/svg" xmlns:xlink="http://www.w3.org/1999/xlink">
 <defs>
  <linearGradient id="linearGradient1578" x1="51.673" x2="53.257" y1="52.809" y2="48.661" gradientTransform="matrix(1.331 0 0 1.331 -24.023 -4.3695)" gradientUnits="userSpaceOnUse">
   <stop stop-color="#ff8080" offset="0"/>
   <stop stop-color="#faa" offset=".54218"/>
   <stop stop-color="#ff8080" offset="1"/>
  </linearGradient>
  <linearGradient id="linearGradient3612" x1="33.651" x2="37.101" y1="39.343" y2="7.7571" gradientUnits="userSpaceOnUse" xlink:href="#innoGrad3"/>
  <linearGradient id="innoGrad3">
   <stop stop-color="#ffb380" offset="0"/>
   <stop stop-color="#fca" offset="1"/>
  </linearGradient>
  <linearGradient id="linearGradient3638" x1="32.233" x2="44.875" y1="30.656" y2="6.4253" gradientUnits="userSpaceOnUse">
   <stop stop-color="#f95" offset="0"/>
   <stop stop-color="#fca" offset="1"/>
  </linearGradient>
  <linearGradient id="linearGradient3618" x1="33.651" x2="37.101" y1="39.343" y2="7.7571" gradientTransform="translate(1.1235 -.022522)" gradientUnits="userSpaceOnUse" xlink:href="#innoGrad3"/>
 </defs>
 <g transform="translate(-.10955 -.028383)">
  <g transform="matrix(.64995 .06395 .018855 .67576 24.643 53.93)" stroke="#000" stroke-width=".40222">
   <g transform="translate(2.8915,-5.933)" fill="url(#linearGradient3612)" fill-rule="evenodd">
    <path d="m28.511 45.746 0.014 4.8-6.637 0.027-0.99181 0.72594 7.5078 3.8321 0.03 7.095 4.625 0.79569 0.81773-0.81984-0.10976-7.0169 5.8225 0.72439 0.79951-0.77839-0.013-4.612h-6.61l0.017-4.766" fill="url(#linearGradient3612)" stroke-linejoin="bevel" stroke-width=".40222"/>
   </g>
   <path d="m34.361 9.3894a15.353 15.353 0 0 0-15.354 15.354 15.353 15.353 0 0 0 15.354 15.354 15.353 15.353 0 0 0 15.354-15.354 15.353 15.353 0 0 0-15.354-15.354zm0 4.6328a10.721 10.721 0 0 1 10.721 10.721 10.721 10.721 0 0 1-10.721 10.721 10.721 10.721 0 0 1-10.721-10.721 10.721 10.721 0 0 1 10.721-10.721z" fill="url(#linearGradient3638)" stroke-linecap="round" stroke-linejoin="round"/>
   <path d="m33.123 10.325a15.353 15.353 0 0 0-15.354 15.354 15.353 15.353 0 0 0 15.354 15.354 15.353 15.353 0 0 0 15.354-15.354 15.353 15.353 0 0 0-15.354-15.354zm0 4.6328a10.721 10.721 0 0 1 10.721 10.721 10.721 10.721 0 0 1-10.721 10.721 10.721 10.721 0 0 1-10.721-10.721 10.721 10.721 0 0 1 10.721-10.721z" fill="url(#linearGradient3618)" stroke-linecap="round" stroke-linejoin="round"/>
   <g transform="translate(1.9827,-5.1756)" fill="url(#linearGradient3612)" fill-rule="evenodd">
    <path d="m28.511 45.746 0.014 4.8-6.637 0.027v4.558h6.516l0.03 7.095h5.39l-0.057-7.041 6.622-0.054-0.013-4.612h-6.61l0.017-4.766" fill="url(#linearGradient3612)" stroke-width=".40222"/>
   </g>
  </g>
  <path d="m49.574 63.313c0.55156 0.1904 1.4536 0.62346 2.4917 1.4405 1.0172 0.80065 1.7215 1.6129 2.1929 2.1811 0.02993 0.03608 0.06199 0.07483 0.09576 0.11595 0.50655 0.61676 1.2425 1.5815 1.8201 2.869 0.61054 1.3609 0.80115 2.5533 0.82598 3.3731-0.02517-0.83087-0.13677-2.0063-0.68279-3.4326-0.50928-1.3303-1.2095-2.3752-1.7164-3.0096-0.03406-0.04263-0.06658-0.08253-0.09728-0.11954-0.47015-0.56673-1.277-1.379-2.3411-2.1097-1.1181-0.76779-2.0241-1.1134-2.5888-1.3084z" fill="#fff"/>
 </g>
 <path d="m48.202 62.544c1.019-1.7766 0.07826-3.0303-1.1222-0.1771z" fill="#ff2a2a" stroke="#000" stroke-linecap="round" stroke-linejoin="round" stroke-width=".33275"/>
 <path d="m46.518 68.119c0.33024 0.15438 1.5032-0.43844 1.7849-1.4885-0.26078-0.12668-0.55675-0.21818-0.92523-0.23717-1.2801 0.73875 0.79579-6.4367 0.83567-3.7911 0.43636 0.0592 0.73076 0.18397 0.96847 0.25041 0.15348-1.2573-0.10249-2.5866-0.46446-2.6606-4.2291-0.72922-5.1537 5.0938-2.1994 7.927z" fill="#ff8080" stroke="#000" stroke-linecap="round" stroke-linejoin="round" stroke-width=".33275"/>
 <path d="m46.558 59.947c-2.0811-0.45665-4.1266 5.9407-1.9898 7.7737 0.5974 0.32317 1.2209 0.59844 2.0736 0.4536-1.6284-1.8742-0.09948-7.3433 2.0736-8.0352z" fill="url(#linearGradient1578)" stroke="#000" stroke-linecap="round" stroke-linejoin="round" stroke-width=".33275"/>
 <path d="m46.73 61.386c-0.23645 0.20442-0.52025 0.44391-0.7788 0.80845-0.15938 0.22471-0.25691 0.4285-0.30121 0.55398-0.02872 0.08137-0.05998 0.19096-0.08622 0.32356-0.0549 0.27754-0.07285 0.57463-0.06654 0.91168 0.0054 0.28636 0.03671 0.6346 0.04208 0.92095-0.0034-0.17206 0.0031-0.5708 0.03489-0.91818 0.03069-0.33514 0.0818-0.61345 0.15677-0.87414 0.03582-0.12456 0.07069-0.22315 0.09805-0.30067 0.04243-0.12018 0.10284-0.31666 0.22511-0.55445 0.18855-0.36668 0.45136-0.67712 0.67585-0.8712z" fill="#fff"/>
</svg>
