<?xml version="1.0" encoding="UTF-8"?>
<svg version="1.1" viewBox="0 0 100 100" xmlns="http://www.w3.org/2000/svg" xmlns:xlink="http://www.w3.org/1999/xlink">
 <defs>
  <linearGradient id="linearGradient1578" x1="51.673" x2="53.257" y1="52.809" y2="48.661" gradientTransform="matrix(1.331 0 0 1.331 -24.023 -4.3695)" gradientUnits="userSpaceOnUse">
   <stop stop-color="#ff8080" offset="0"/>
   <stop stop-color="#faa" offset=".54218"/>
   <stop stop-color="#ff8080" offset="1"/>
  </linearGradient>
  <linearGradient id="linearGradient22" x1="33.651" x2="37.101" y1="39.343" y2="7.7571" gradientUnits="userSpaceOnUse">
   <stop stop-color="#ffb380" offset="0"/>
   <stop stop-color="#fca" offset="1"/>
  </linearGradient>
  <linearGradient id="linearGradient3638" x1="32.233" x2="44.875" y1="30.656" y2="6.4253" gradientUnits="userSpaceOnUse">
   <stop stop-color="#f95" offset="0"/>
   <stop stop-color="#fca" offset="1"/>
  </linearGradient>
  <linearGradient id="linearGradient3618" x1="33.651" x2="37.101" y1="39.343" y2="7.7571" gradientTransform="translate(1.1235 -.022522)" gradientUnits="userSpaceOnUse">
   <stop stop-color="#ffb380" offset="0"/>
   <stop stop-color="#fca" offset="1"/>
  </linearGradient>
  <linearGradient id="linearGradient3446" x1="69.705" x2="78.712" y1="87.28" y2="79.393" gradientUnits="userSpaceOnUse" xlink:href="#linearGradient22"/>
  <linearGradient id="linearGradient3512" x1="30.425" x2="50.576" y1="47.928" y2="12.244" gradientUnits="userSpaceOnUse" xlink:href="#linearGradient22"/>
 </defs>
 <g transform="translate(-.10955 -.028383)">
  <g transform="matrix(.64995 .06395 .018855 .67576 24.643 53.93)" stroke="#000" stroke-linecap="round" stroke-linejoin="round" stroke-width=".40222">
   <path d="m34.361 9.3894a15.353 15.353 0 0 0-15.354 15.354 15.353 15.353 0 0 0 15.354 15.354 15.353 15.353 0 0 0 15.354-15.354 15.353 15.353 0 0 0-15.354-15.354zm0 4.6328a10.721 10.721 0 0 1 10.721 10.721 10.721 10.721 0 0 1-10.721 10.721 10.721 10.721 0 0 1-10.721-10.721 10.721 10.721 0 0 1 10.721-10.721z" fill="url(#linearGradient3638)"/>
   <path d="m33.123 10.325a15.353 15.353 0 0 0-15.354 15.354 15.353 15.353 0 0 0 15.354 15.354 15.353 15.353 0 0 0 15.354-15.354 15.353 15.353 0 0 0-15.354-15.354zm0 4.6328a10.721 10.721 0 0 1 10.721 10.721 10.721 10.721 0 0 1-10.721 10.721 10.721 10.721 0 0 1-10.721-10.721 10.721 10.721 0 0 1 10.721-10.721z" fill="url(#linearGradient3618)"/>
  </g>
 </g>
 <path d="m48.202 62.544c1.019-1.7766 0.07826-3.0303-1.1222-0.1771z" fill="#ff2a2a" stroke="#000" stroke-linecap="round" stroke-linejoin="round" stroke-width=".33275"/>
 <path d="m46.518 68.119c0.33024 0.15438 1.5032-0.43844 1.7849-1.4885-0.26078-0.12668-0.55675-0.21818-0.92523-0.23717-1.2801 0.73875 0.79579-6.4367 0.83567-3.7911 0.43636 0.0592 0.73076 0.18397 0.96847 0.25041 0.15348-1.2573-0.10249-2.5866-0.46446-2.6606-4.2291-0.72922-5.1537 5.0938-2.1994 7.927z" fill="#ff8080" stroke="#000" stroke-linecap="round" stroke-linejoin="round" stroke-width=".33275"/>
 <path d="m46.558 59.947c-2.0811-0.45665-4.1266 5.9407-1.9898 7.7737 0.5974 0.32317 1.2209 0.59844 2.0736 0.4536-1.6284-1.8742-0.09948-7.3433 2.0736-8.0352z" fill="url(#linearGradient1578)" stroke="#000" stroke-linecap="round" stroke-linejoin="round" stroke-width=".33275"/>
 <path d="m46.73 61.386c-0.23645 0.20442-0.52025 0.44391-0.7788 0.80845-0.15938 0.22471-0.25691 0.4285-0.30121 0.55398-0.02872 0.08137-0.05998 0.19096-0.08622 0.32356-0.0549 0.27754-0.07285 0.57463-0.06654 0.91168 0.0054 0.28636 0.03671 0.6346 0.04208 0.92095-0.0034-0.17206 0.0031-0.5708 0.03489-0.91818 0.03069-0.33514 0.0818-0.61345 0.15677-0.87414 0.03582-0.12456 0.07069-0.22315 0.09805-0.30067 0.04243-0.12018 0.10284-0.31666 0.22511-0.55445 0.18855-0.36668 0.45136-0.67712 0.67585-0.8712z" fill="#fff"/>
 <g transform="translate(-18.391 -14.787)" fill="url(#linearGradient3446)">
  <g transform="matrix(.6264 .21205 -.12051 .64784 53.497 57.525)" stroke-width=".405">
   <g transform="translate(.38452 -.55915)" fill="url(#linearGradient3446)" stroke-width=".405">
    <g transform="translate(-5.732,5.6267)" fill="url(#linearGradient3446)" stroke="#000" stroke-linejoin="round" stroke-width=".405">
     <path d="m44.646 23.653 8.7359-9.6751 0.23026 5.5509 2.8752 4.2452 1.1129-0.71162-0.81729-16.827-17.22 0.82118-1.1113 0.66604 5.0402 2.8125 6.1532-0.31542-9.1268 10.023" fill="url(#linearGradient3446)" stroke-width=".405"/>
    </g>
   </g>
  </g>
  <g transform="matrix(.6264 .21205 -.12051 .64784 52.573 57.42)" stroke-width=".405">
   <g transform="translate(.38452 -.55915)" fill="url(#linearGradient3446)" stroke-width=".405">
    <g transform="translate(-5.732,5.6267)" fill="url(#linearGradient3446)" stroke="#000" stroke-linejoin="round" stroke-width=".405">
     <path d="m44.746 24.144 8.9336-9.7586 0.23026 5.5509 3.9881 3.5336-0.81729-16.827-17.22 0.82118 3.9289 3.4785 6.1532-0.31542-9.1268 10.023" fill="url(#linearGradient3512)" stroke-width=".405"/>
    </g>
   </g>
  </g>
  <path d="m84.263 75.82-0.6816 0.16431" stroke="#000" stroke-linecap="round" stroke-linejoin="bevel" stroke-width=".2"/>
  <path d="m73.516 72.851c1.7904 0.51275 7.1885 1.9567 8.9788 2.4694 0.24956 0.07147 0.97121 0.38024 1.2208 0.45172-0.24956-0.07147-1.0253-0.19154-1.2748-0.26301-1.7904-0.51275-7.1344-2.1454-8.9248-2.6581z"/>
 </g>
</svg>
