<?xml version="1.0" encoding="UTF-8"?>
<svg version="1.1" viewBox="0 0 100 100" xmlns="http://www.w3.org/2000/svg" xmlns:xlink="http://www.w3.org/1999/xlink">
 <defs>
  <linearGradient id="innoGrad2">
   <stop stop-color="#ff8080" offset="0"/>
   <stop stop-color="#faa" offset=".54218"/>
   <stop stop-color="#ff8080" offset="1"/>
  </linearGradient>
  <linearGradient id="innoGrad1">
   <stop stop-color="#ff8080" offset="0"/>
   <stop stop-color="#faa" offset="1"/>
  </linearGradient>
  <linearGradient id="linearGradient1374" x1="53.704" x2="57.422" y1="45.718" y2="41.931" gradientTransform="matrix(1.331 0 0 1.331 -24.756 -4.4612)" gradientUnits="userSpaceOnUse" xlink:href="#innoGrad1"/>
  <linearGradient id="linearGradient1446" x1="55.71" x2="64.426" y1="43.583" y2="15.979" gradientTransform="matrix(1.331 0 0 1.331 -24.756 -4.4612)" gradientUnits="userSpaceOnUse" xlink:href="#innoGrad2"/>
  <linearGradient id="linearGradient1456" x1="57.87" x2="63.826" y1="15.01" y2="9.0196" gradientTransform="matrix(1.331 0 0 1.331 -24.756 -4.4612)" gradientUnits="userSpaceOnUse" xlink:href="#innoGrad1"/>
  <linearGradient id="linearGradient1578" x1="51.673" x2="53.257" y1="52.809" y2="48.661" gradientTransform="matrix(1.331 0 0 1.331 -24.023 -4.3695)" gradientUnits="userSpaceOnUse" xlink:href="#innoGrad2"/>
  <linearGradient x1="33.651" x2="37.101" y1="39.343" y2="7.7571" gradientUnits="userSpaceOnUse">
   <stop stop-color="#ffb380" offset="0"/>
   <stop stop-color="#fca" offset="1"/>
  </linearGradient>
 </defs>
 <path d="m48.565 51.17c6.3915-12.301 9.0241-23.662 6.7068-33.599l4.0824-1.5552c2.5858 14.311-0.79143 25.274-6.804 36.936z" fill="url(#linearGradient1446)" stroke="#000" stroke-linecap="round" stroke-linejoin="round" stroke-width=".33275"/>
 <path d="m48.202 62.544c1.019-1.7766 0.07826-3.0303-1.1222-0.1771z" fill="#ff2a2a" stroke="#000" stroke-linecap="round" stroke-linejoin="round" stroke-width=".33275"/>
 <path d="m46.518 68.119c0.33024 0.15438 1.5032-0.43844 1.7849-1.4885-0.26078-0.12668-0.55675-0.21818-0.92523-0.23717-1.2801 0.73875 0.79579-6.4367 0.83567-3.7911 0.43636 0.0592 0.73076 0.18397 0.96847 0.25041 0.15348-1.2573-0.10249-2.5866-0.46446-2.6606-4.2291-0.72922-5.1537 5.0938-2.1994 7.927z" fill="#ff8080" stroke="#000" stroke-linecap="round" stroke-linejoin="round" stroke-width=".33275"/>
 <path d="m46.558 59.947c-2.0811-0.45665-4.1266 5.9407-1.9898 7.7737 0.5974 0.32317 1.2209 0.59844 2.0736 0.4536-1.6284-1.8742-0.09948-7.3433 2.0736-8.0352z" fill="url(#linearGradient1578)" stroke="#000" stroke-linecap="round" stroke-linejoin="round" stroke-width=".33275"/>
 <circle cx="56.216" cy="12.103" r="7.0101" fill="url(#linearGradient1456)" stroke="#000" stroke-linecap="round" stroke-linejoin="round" stroke-width=".33275"/>
 <circle cx="49.022" cy="55.403" r="5.7098" fill="url(#linearGradient1374)" stroke="#000" stroke-linecap="round" stroke-linejoin="round" stroke-width=".33275"/>
 <path d="m48.019 50.52c0.8108-0.07262 1.8686 0.098 2.8013 0.66211 0.68537 0.41454 1.097 0.90601 1.3453 1.1687 0.10112 0.10701 0.22633 0.23735 0.36792 0.40073 0.42441 0.48971 0.82806 1.0915 1.1153 1.8144 0.13068 0.32894 0.21829 0.63786 0.26945 0.91067 0.06826 0.36394 0.06687 0.63724 0.03813 0.8053 0.02886-0.16878 0.08122-0.43269 0.08841-0.81568 0.0054-0.28625-0.01524-0.6192-0.08038-0.9888-0.14106-0.80031-0.45293-1.5574-0.86143-2.1599-0.13676-0.20171-0.27075-0.36567-0.38608-0.48772-0.28848-0.30527-0.88015-0.75718-1.7079-1.0507-1.1477-0.40699-2.1664-0.3329-2.9899-0.25914z" fill="#fff"/>
 <path d="m54.835 6.2333c0.78654-0.20982 1.8579-0.22207 2.8732 0.17473 0.74602 0.29159 1.2355 0.70567 1.5249 0.92218 0.11789 0.088196 0.26349 0.19528 0.43086 0.33212 0.5017 0.41016 1.0021 0.93431 1.4083 1.5976 0.18486 0.30184 0.32386 0.5913 0.42079 0.85138 0.12932 0.34697 0.17455 0.6165 0.1749 0.78701-3.46e-4 -0.17122 0.0062-0.44021-0.05198-0.81881-0.043515-0.28297-0.1206-0.60753-0.24781-0.96061-0.27546-0.76453-0.71187-1.4573-1.2171-1.9813-0.16915-0.17543-0.32914-0.31415-0.46359-0.41474-0.33631-0.2516-0.99638-0.596-1.8621-0.74409-1.2003-0.20532-2.1914 0.041392-2.9903 0.25451z" fill="#fff"/>
 <path d="m58.449 21.443c0.17231 1.5648 0.35787 3.7122 0.29151 6.2334-0.06376 2.4225-0.34307 4.3358-0.54657 5.4417-0.06684 0.3632-0.15743 0.8152-0.27563 1.3344-0.92207 4.0505-2.4607 7.5331-3.5288 10.039 1.0494-2.4622 2.4938-6.0891 3.3508-10.079 0.1115-0.51904 0.19762-0.96764 0.26428-1.3299 0.20483-1.1131 0.52536-2.982 0.63969-5.4104 0.11715-2.4883-0.0257-4.6894-0.19534-6.2299z" fill="#fff"/>
 <path d="m46.73 61.386c-0.23645 0.20442-0.52025 0.44391-0.7788 0.80845-0.15938 0.22471-0.25691 0.4285-0.30121 0.55398-0.02872 0.08137-0.05998 0.19096-0.08622 0.32356-0.0549 0.27754-0.07285 0.57463-0.06654 0.91168 0.0054 0.28636 0.03671 0.6346 0.04208 0.92095-0.0034-0.17206 0.0031-0.5708 0.03489-0.91818 0.03069-0.33514 0.0818-0.61345 0.15677-0.87414 0.03582-0.12456 0.07069-0.22315 0.09805-0.30067 0.04243-0.12018 0.10284-0.31666 0.22511-0.55445 0.18855-0.36668 0.45136-0.67712 0.67585-0.8712z" fill="#fff"/>
</svg>
