<?xml version="1.0" encoding="UTF-8"?>
<svg version="1.1" viewBox="0 0 256 256" xml:space="preserve" xmlns="http://www.w3.org/2000/svg"><g transform="matrix(1.7189 0 0 1.7189 -75.288 -173.19)" fill="#dbdce2"><path d="m91.182 231.6 97.097-58.81-1.8162-1.7284-1.0758 0.88068-5.6429-5.3395 0.99816-0.9852-3.9547-3.7635-0.76352 0.83617-5.1296-5.0992 0.65577-0.72106-4.2156-4.0118-0.92683 1.0303-5.111-5.1872 0.84677-0.78309-3.9136-3.7244-0.82298 0.76603-5.5691-5.2017 0.78703-0.89839-4.083-3.8641-0.67947 0.87112-5.4634-5.0177 0.83872-0.92251-4.2931-4.0854-0.7678 0.90897-5.0016-4.9139 0.75284-0.76902-2.4212-2.3042-83.342 38.917 3.8665 6.645 1.1998-0.76625 2.539 4.589-1.1834 0.56904 3.9977 6.8705 1.1739-0.94212 2.5637 4.5231-1.1216 0.91501 3.8382 6.5963 1.0981-0.70706 2.6904 4.5524-1.1356 0.71393 3.9146 6.7278 1.2333-0.58313 2.5075 4.3864-1.0338 0.84903 3.8461 6.61 1.121-0.65061 2.5905 4.6123-0.97563 0.74018 3.8092 6.5466 1.1303-0.7773 2.7059 4.9013-0.97758 0.78867z" fill-rule="evenodd" stroke="#000" stroke-width=".75"/><g transform="matrix(.9013 -.52492 .53444 .88787 268.74 -31.188)" stroke="#3a3d54" stroke-linecap="square" stroke-linejoin="round" stroke-width=".5"><path d="m-274.91 68.93 18.86-16.82" opacity=".9"/><path d="m-220.84 55.278-54.615 49.525" opacity=".9"/><path d="m-186.66 58.965-81.37 73.842" opacity=".9"/><path d="m-179.04 91.221-45.055 40.738" opacity=".9"/><path d="m-169.91 120.72-11.607 10.63" opacity=".9"/><path d="m-273.67 85.189 36.713-31.521" opacity=".9"/><path d="m-202.71 56.99-71.694 64.64" opacity=".9"/><path d="m-183.53 75.284-62.736 57.049" opacity=".9"/><path d="m-174.05 105.59-28.781 26.137" opacity=".9"/></g><g transform="matrix(-.93814 .45826 .46677 .92405 -55.904 142.57)" stroke="#3a3d54" stroke-linecap="square" stroke-linejoin="round" stroke-width=".5"><path d="m-142.79 58.421-40.583 36.403" opacity=".9"/><path d="m-100.81 57.512-80.51 73.707" opacity=".9"/><path d="m-85.484 81.285-57.166 53.382" opacity=".9"/><path d="m-86.473 120.25-19.121 17.766" opacity=".9"/><path d="m-165.22 58.594-5.9235 5.3267" opacity=".9"/><path d="m-121.48 57.837-69.828 62.83" opacity=".9"/><path d="m-82.514 59.735-78.893 73.355" opacity=".9"/><path d="m-85.017 99.424-40.451 36.806" opacity=".9"/></g></g><ellipse cx="122.7" cy="118.08" rx="64.098" ry="58.552" fill="#cacbcf" stroke="#000" stroke-linecap="square" stroke-linejoin="round" stroke-width="1.2892"/><path d="m67.245 105.02c8.66-63.352 109.43-54.577 110.94-0.42623 0.0723 2.588 0.29455 7.6081 0.0756 10.171-4.9418 57.906-110.82 64.034-111.13-3.9737-0.01562-3.4044-0.24004-3.1924 0.11266-5.7715z" fill="#ff8080" stroke="#000" stroke-linecap="square" stroke-linejoin="round" stroke-width="1.2892"/><path d="m68.571 108.1c0.38146 5.2194 3.0229 12.346 8.3833 18.311 4.5045 5.0125 9.7257 8.0105 14.3 10.161 2.1842 1.0269 4.0877 1.8047 5.4325 2.4818 2.642 1.3302 6.1574 2.971 10.664 4.4111 5.1538 1.647 11.338 2.9393 18.326 3.2462 6.1073 0.26819 12.49-0.23836 18.687-1.7246 6.0947-1.4616 11.731-3.8056 16.544-7.0045 5.252-3.491 9.2354-7.8058 11.928-12.68 3.6308-6.5718 4.4726-13.354 4.1231-18.799 0.34578 5.3866 0.16046 12.232-2.6996 19.467-2.1387 5.4105-5.6261 10.642-10.747 15.32-4.6902 4.2846-10.449 7.8206-16.954 10.452-6.6006 2.6704-13.645 4.279-20.603 4.9133-7.9527 0.72506-15.354 0.14485-21.726-1.2114-5.5868-1.1889-10.109-2.9119-13.476-4.6068-1.7074-0.85963-3.9058-2.3205-6.2138-4.3298-4.9133-4.2776-9.3507-10.148-12.189-17.317-3.3958-8.5763-3.3937-15.821-3.7789-21.091z" fill="#f55"/><path d="m176.66 107.37c-0.90909-4.1039-4.1322-9.6651-9.559-14.417-4.613-4.039-9.6399-6.5799-14.079-8.5435-2.1076-0.93229-3.9178-1.6682-5.1933-2.3264-2.5006-1.2905-5.7888-2.9275-9.9321-4.4897-4.7374-1.7861-10.358-3.3807-16.678-4.2391-5.5273-0.75072-11.303-0.89427-16.978-0.21252-5.5819 0.67057-10.824 2.1117-15.449 4.3477-5.0464 2.4394-9.093 5.6946-12.113 9.556-4.0674 5.2005-5.7927 10.89-6.2854 15.558 0.48701-4.614 1.5783-10.47 4.9779-16.432 2.5458-4.4645 6.216-8.6765 11.253-12.292 4.6161-3.3136 10.084-5.9083 16.155-7.6893 6.1587-1.8068 12.634-2.6872 18.998-2.769 7.2664-0.09348 14.008 0.85371 19.806 2.3542 5.0782 1.3143 9.2203 2.9961 12.296 4.5836 1.5642 0.80728 3.5712 2.1737 5.7036 4.0126 4.5249 3.9022 8.7747 9.1652 11.823 15.357 3.7018 7.52 4.3077 13.368 5.2543 17.641z" fill="#faa"/><path d="m95.583 132.86c8.4959 3.5316 20.528 7.495 35.163 6.7014 13.182-0.71478 23.122-5.0729 29.236-9.3068 0.96998-0.67169 1.8043-1.3127 2.5014-1.893 2.0407-1.6992 4.7261-4.4319 7.0498-8.0877 2.2233-3.4979 3.9241-7.5381 4.6549-11.964 0.71404-4.3248 0.42385-8.5332-0.66391-12.521-1.4459-5.3013-4.0772-9.4339-6.124-12.357 2.0556 2.936 4.2775 7.3295 5.0272 12.585 0.56244 3.9434 0.22933 7.8685-0.97333 11.646-1.2279 3.8571-3.2425 7.1953-5.5428 10.018-2.4169 2.9661-4.9631 5.1402-6.7807 6.6536-0.61798 0.51456-1.345 1.109-2.1816 1.7522-5.2396 4.0274-13.854 9.1444-26.449 11.037-6.5382 0.98236-13.133 0.91945-19.499-0.034-6.3192-0.94643-11.636-2.6575-15.418-4.2296z" fill="#fff"/><g transform="matrix(1.7186 -.036779 .036779 1.7186 -119.35 -121.46)" fill-rule="evenodd" stroke-width=".5"><path d="m100.54 141.59c0.6328-10.067-1.5942-22.069 12.14-30.344 18.476-11.131 36.882-11.281 52.258 0.47667 12.356 9.448 9.775 20.444 10.163 29.137 0.83445 18.677-14.23 34.855-35.263 35.331-26.735 0.60457-40.247-19.525-39.3-34.6z" fill="#d7e3f4" fill-opacity=".15" stroke="#000"/><path d="m139.35 107.31c6.0426 1.4647 12.81 3.5042 18.436 7.8133 0.40411 0.3101 0.80204 0.63125 1.1908 0.96287 5.7039 2.9862 11.181 8.4223 14.294 18.319-1.5897-10.208-5.8442-17.212-11.654-22.158a32.51 32.51 0 0 0-1.5632-0.82512c-7.0694-3.4917-14.717-4.112-20.704-4.1133z" fill="#fff" fill-opacity=".9"/></g></svg>
