<?xml version="1.0" encoding="UTF-8"?>
<svg version="1.1" viewBox="0 0 256 256" xmlns="http://www.w3.org/2000/svg" xmlns:xlink="http://www.w3.org/1999/xlink">
 <defs>
  <linearGradient id="linearGradient1198">
   <stop stop-color="#f55" offset="0"/>
   <stop stop-color="#faa" offset="1"/>
  </linearGradient>
  <linearGradient id="linearGradient1105" x1="172.1" x2="164.12" y1="128.91" y2="103.98" gradientTransform="rotate(-1.226 -145.19 310.32)" gradientUnits="userSpaceOnUse">
   <stop stop-color="#999" offset="0"/>
   <stop stop-color="#fff" offset="1"/>
  </linearGradient>
  <linearGradient id="linearGradient1200" x1="100.31" x2="91.835" y1="153.09" y2="120.18" gradientTransform="rotate(-1.226 -145.19 310.32)" gradientUnits="userSpaceOnUse" xlink:href="#linearGradient1198"/>
  <linearGradient id="linearGradient7150" x1="169.56" x2="160.04" y1="121.62" y2="88.483" gradientUnits="userSpaceOnUse" xlink:href="#linearGradient1198"/>
 </defs>
 <path d="m28.09 202s144.3-52.21 221.82-81.027l-1.2994-2.1442-1.2691 0.56772-4.0451-6.6325 1.2216-0.68894-2.8293-4.6689-0.95609 0.60667-3.6128-6.266 0.82191-0.52384-3.0159-4.9769-1.1646 0.75119-3.5717-6.346 1.0225-0.53361-2.7999-4.6204-0.99507 0.52338-4.01-6.4802 0.99509-0.66054-2.9267-4.7996-0.88414 0.66244-3.9562-6.2749 1.0513-0.67026-3.0714-5.0683-0.97931 0.67579-3.5378-6.0536 0.92817-0.54467-1.7322-2.8585-203.33 65.437 1.9885 7.4264 1.3588-0.42476 1.2466 5.0942-1.2912 0.23877 2.0559 7.6784 1.3799-0.60128 1.2878 5.0371-1.3223 0.58884 1.9739 7.372 1.2451-0.39432 1.4023 5.0986-1.2831 0.39112 2.0132 7.519 1.3431-0.23927 1.2694 4.8905-1.2203 0.54818 1.978 7.3873 1.2524-0.33385 1.2902 5.1302-1.1356 0.45841 1.959 7.3165 1.2946-0.45366 1.3258 5.4394-1.1502 0.50469z" fill="#dbdce2" fill-rule="evenodd" stroke="#000" stroke-width=".75"/>
 <g transform="rotate(-19.943 55.679 -745.65)" fill="#dbdce2" stroke="#3a3d54" stroke-linecap="square" stroke-linejoin="round" stroke-width=".5">
  <path d="m-288.89 81.432 33.313-29.788" opacity=".9"/>
  <path d="m-218.39 53.054-73.765 66.891" opacity=".9"/>
  <path d="m-181.9 54.641-89.54 81.256" opacity=".9"/>
  <path d="m-139.95 55.875-88.306 79.846" opacity=".9"/>
  <path d="m-100.64 57.285-85.839 78.612" opacity=".9"/>
  <path d="m-71.914 68.565-71.65 66.891" opacity=".9"/>
  <path d="m-65.569 100.82-36.398 34.635" opacity=".9"/>
  <path d="m-285.12 59.325 9.2434-8.1781" opacity=".9"/>
  <path d="m-288.89 98.258 53.386-45.836" opacity=".9"/>
  <path d="m-199.11 53.744-90.941 81.993" opacity=".9"/>
  <path d="m-161.39 55.154-88.483 80.463" opacity=".9"/>
  <path d="m-120.13 56.622-87.081 79.083" opacity=".9"/>
  <path d="m-80.952 58.282-83.079 77.159" opacity=".9"/>
  <path d="m-67.677 83.646-56.52 52.059" opacity=".9"/>
  <path d="m-62.079 117.65-18.575 17.648" opacity=".9"/>
 </g>
 <g transform="matrix(-.96256 .27109 .27109 .96256 -78.161 82.544)" fill="#dbdce2" stroke="#3a3d54" stroke-linecap="square" stroke-linejoin="round" stroke-width=".5">
  <path d="m-292.87 85.115 37.296-33.471" opacity=".9"/>
  <path d="m-218.39 53.054-81.553 73.141" opacity=".9"/>
  <path d="m-181.9 54.641-83.472 74.457" opacity=".9"/>
  <path d="m-139.95 55.875-85.228 76.45" opacity=".9"/>
  <path d="m-100.64 57.285-84.895 77.798" opacity=".9"/>
  <path d="m-72.393 69.06-73.739 68.858" opacity=".9"/>
  <path d="m-71.807 106.62-36.808 34.2" opacity=".9"/>
  <path d="m-285.12 59.325 9.2434-8.1781" opacity=".9"/>
  <path d="m-299.41 107.91 63.906-55.488" opacity=".9"/>
  <path d="m-199.11 53.744-82.108 74.03" opacity=".9"/>
  <path d="m-161.39 55.154-84.109 75.635" opacity=".9"/>
  <path d="m-120.13 56.622-85.677 77.091" opacity=".9"/>
  <path d="m-80.952 58.282-84.224 78.312" opacity=".9"/>
  <path d="m-70.762 86.454-58.12 52.883" opacity=".9"/>
  <path d="m-70.246 125.12-18.681 17.095" opacity=".9"/>
 </g>
 <path d="m47.431 120.8c-36.329 13.596-16.231 65.751 24.82 50.788l126.9-45.991c41.684-15.194 12.134-65.866-18.572-54.374z" fill="#cacbcf" fill-rule="evenodd" stroke="#000" stroke-width=".75"/>
 <path d="m167.84 65.495-54.909 18.734 19.489 55.336 54.484-19.404c27.229-9.6983 20.621-47.547-1.4811-55.049-5.1087-1.7341-11.045-1.847-17.583 0.3838z" fill="url(#linearGradient1105)" fill-rule="evenodd" stroke="#000" stroke-width=".72"/>
 <path d="m77.971 158.78 56.024-19.113-19.886-56.459-55.591 19.798c-34.202 12.182-16.078 67.898 19.453 55.776z" fill="url(#linearGradient1200)" fill-rule="evenodd" stroke="#000" stroke-width=".735"/>
 <path d="m182.92 82.581-16.736 5.9897c-2.3748-7.1362-4.2764-11.04-7.1546-16.23l-13.782 4.7839c2.2056 3.8457 5.2399 8.968 7.682 16.187l-16.644 6.0844c2.3382 4.7756 4.034 9.7263 5.351 14.757l16.78-6.0067c2.234 7.1145 3.2757 11.94 3.6467 16.883l13.67-4.6125c-0.96838-5.5672-1.5716-10.26-4.2617-17.01l16.887-6.1138c-0.60688-4.0833-1.558-8.3638-5.4391-14.711z" fill="url(#linearGradient7150)" stroke="#000" stroke-width=".75"/>
 <g transform="rotate(-1.226 19.368 292.08)" fill-rule="evenodd" stroke-width=".5">
  <path d="m31.436 148.25c1.6051-18.547 0.78176-39.399 25.931-47.319l115.33-36.32c38.704-12.189 49.285 24.691 51.055 38.179 1.0144 12.736-8.2256 21.921-19.596 26.104l-132.88 44.805c-18.17 5.1258-37.702-4.9082-39.846-25.45z" fill="#d7e3f4" fill-opacity=".15" stroke="#000"/>
  <path d="m176.94 65.851c6.21 0.308 13.239 1.045 19.573 4.225 0.455 0.229 0.906 0.47 1.35 0.723 6.162 1.866 12.56 6.181 17.47 15.32-3.472-9.73-8.962-15.814-15.595-19.585a32.51 32.51 0 0 0-1.69-0.518c-7.598-2.107-15.227-1.285-21.108-0.166z" fill="#fff" fill-opacity=".9"/>
 </g>
</svg>
