<?xml version="1.0" encoding="UTF-8"?>
<svg cursor="default" version="1.1" viewBox="0 0 256 256" xmlns="http://www.w3.org/2000/svg" xmlns:xlink="http://www.w3.org/1999/xlink">
 <defs>
  <linearGradient id="linearGradient3950" x1="155.92" x2="154.05" y1="186.95" y2="140.71" gradientTransform="translate(.031549 .099055)" gradientUnits="userSpaceOnUse">
   <stop stop-color="#ff8080" offset="0"/>
   <stop stop-color="#faa" offset="1"/>
  </linearGradient>
  <linearGradient id="linearGradient3847" x1="73.161" x2="77.523" y1="179.85" y2="135.85" gradientTransform="translate(.031549 .099055)" gradientUnits="userSpaceOnUse">
   <stop stop-color="#ff8080" offset="0"/>
   <stop stop-color="#faa" offset="1"/>
  </linearGradient>
  <linearGradient id="linearGradient3942" x1="123.39" x2="123.51" y1="188.7" y2="142.46" gradientTransform="translate(.031549 .099055)" gradientUnits="userSpaceOnUse">
   <stop stop-color="#ff8080" offset="0"/>
   <stop stop-color="#faa" offset="1"/>
  </linearGradient>
  <linearGradient id="linearGradient3958" x1="191.69" x2="192.44" y1="181.22" y2="134.48" gradientTransform="translate(.031549 .099055)" gradientUnits="userSpaceOnUse">
   <stop stop-color="#ff8080" offset="0"/>
   <stop stop-color="#faa" offset="1"/>
  </linearGradient>
 </defs>
 <g fill="#fff">
  <path d="m39.779 81.411c0.03049-0.59112 0.22008-1.7062 0.09202-2.5895-0.0632-0.4359-0.19654-0.78084-0.39472-1.0425-0.0884-0.11674-0.18083-0.20446-0.2638-0.2652-0.16145-0.1182-0.40532-0.23845-0.73986-0.28769-0.17923-0.03226-0.40778-0.05988-0.68487-0.08339-0.261-0.02215-0.56932-0.04099-0.92471-0.05615-0.66807-0.02851-1.5013-0.04395-2.4754-0.04347-1.8621 9.2e-4 -4.1613 0.06019-6.5248 0.18387-2.5046 0.13107-4.8353 0.32123-6.7641 0.55534-1.1098 0.13471-2.0239 0.27617-2.7679 0.4188-0.96654 0.18528-1.5792 0.35962-1.9839 0.50374 0.40328-0.14363 1.0239-0.30258 1.9919-0.45802 0.74528-0.11967 1.6641-0.232 2.7739-0.33123 1.9239-0.17202 4.2685-0.29028 6.7626-0.34058 2.3626-0.04765 4.6504-0.02976 6.5012 0.04172 0.96831 0.0374 1.7877 0.08827 2.4406 0.14871 0.34687 0.03211 0.64212 0.0665 0.88736 0.10236 0.2625 0.03838 0.46126 0.07753 0.60264 0.11544 0.1975 0.06576 0.32455 0.15767 0.40361 0.21556 0.04196 0.03073 0.10255 0.07143 0.16647 0.12334 0.14615 0.11866 0.32126 0.30445 0.48313 0.64673 0.34067 0.72036 0.44984 1.8329 0.41841 2.4422z"/>
  <path d="m91.587 54.327c-0.02346-1.0272 0.03305-2.0705-0.27161-3.1884-0.12665-0.46474-0.29011-0.81006-0.45963-1.0475-0.07097-0.09942-0.14009-0.17558-0.20151-0.22856-0.13213-0.11399-0.33576-0.23846-0.58516-0.29919-0.20118-0.06653-0.42912-0.10087-0.67802-0.11167-0.23506-0.0102-0.49775 2.7e-4 -0.78701 0.02913-0.54486 0.05437-1.1955 0.17525-1.9438 0.3543-1.4355 0.34346-3.184 0.89005-5.0577 1.526-1.909 0.64792-4.0019 1.4085-5.6825 2.0147-2.443 0.8812-3.9543 1.4121-5.1011 1.7605 1.0387-0.31558 2.8196-0.86509 5.1556-1.599 1.7063-0.53611 3.8268-1.2008 5.7602-1.7531 1.9023-0.54345 3.6524-0.98791 5.0732-1.2334 0.74061-0.12794 1.3566-0.19561 1.8492-0.20446 0.26038-0.0047 0.47741 0.0073 0.65479 0.03247 0.19 0.02697 0.32212 0.06743 0.40861 0.10966 0.07331 0.06075 0.15197 0.13748 0.22262 0.19844 0.03364 0.02902 0.07917 0.0602 0.1418 0.107 0.1455 0.1087 0.36453 0.28944 0.60412 0.62953 0.54009 0.76663 0.87631 1.9519 0.89804 2.9036z"/>
  <path d="m29.549 99.054c0.23686-0.2097 0.58413-0.43841 0.94604-0.52668 0.27488-0.06704 0.50569-0.04165 0.69527 0.04214 0.2019 0.08924 0.34976 0.2411 0.46397 0.38691 0.06572 0.0839 0.12059 0.1664 0.16448 0.22904 0.06346 0.09057 0.14776 0.21296 0.24272 0.38413 0.23996 0.43254 0.45698 1.0199 0.59586 1.7303 0.06403 0.32748 0.10192 0.63538 0.1188 0.90107 0.02259 0.35556 0.0064 0.6112-0.02179 0.7644 0.02886-0.15688 0.07765-0.39945 0.107-0.76363 0.02175-0.26985 0.03063-0.58398 0.01524-0.9278-0.03267-0.72999-0.16555-1.4046-0.37511-1.9139-0.0849-0.20632-0.1733-0.36354-0.2522-0.47616-0.05466-0.07801-0.13619-0.17437-0.24141-0.26793-0.18625-0.16562-0.43556-0.31271-0.736-0.35511-0.27563-0.0389-0.54864 0.01621-0.82055 0.1444-0.35733 0.16845-0.66652 0.44009-0.90233 0.64887z"/>
  <path d="m54.057 81.52c0.48481-0.11809 1.141-0.0394 1.6848 0.33387 0.42847 0.29408 0.65761 0.66634 0.81605 0.86321 0.05857 0.07278 0.11704 0.14116 0.17561 0.21394 0.26362 0.32782 0.56269 0.77562 0.75986 1.3955 0.21589 0.67871 0.21202 1.2832 0.11964 1.6274 0.09569-0.3565 0.26983-0.89634 0.2395-1.6881-0.02664-0.69541-0.21014-1.3158-0.4653-1.7688-0.06677-0.11853-0.13349-0.2164-0.1938-0.29134-0.20682-0.257-0.65846-0.6095-1.265-0.77282-0.77214-0.2079-1.395-0.02887-1.8713 0.08715z"/>
 </g>
 <path d="m181.03 183.81 2.3992 1.9318 27.451-12.9-1.7137-0.71664-19.381 4.3934 0.0623-7.852 15.953-6.5433-1.4645-0.56086-14.613 2.8666 0.0623-6.1694-10.885-5.2057 0.0231 2.0253 3.6015 2.3391-0.12464 26.111z" fill="#f55" stroke="#000" stroke-linecap="round" stroke-linejoin="round" stroke-width=".75"/>
 <path d="m63.783 181.38 2.9912-1.8695-1.3924-0.38906 2.2649-14.816-2.0565-0.0623c-3.1629 9.1269-8.6597 11.998-1.8072 17.137z" fill="#f55" stroke="#000" stroke-linecap="round" stroke-linejoin="round" stroke-width=".75"/>
 <path d="m74.722 184.03 2.9524-2.4236 9.6503-12.646-10.972 6.3894z" fill="#f55" stroke="#000" stroke-linecap="round" stroke-linejoin="round" stroke-width=".75"/>
 <path d="m64.496 155.59c2.145-4.8682 4.5521-3.3648 9.4887-4.12l-0.04406 1.4276-3.9109 3.1114 7.1514 15.573c1.0883 0.47175 13.649-16.994 18.864-16.366l-0.0441 1.6341-1.9425 2.3894 5.7911 25.506 1.356 0.13277-1.9641 3.0228-11.466-22.664-13.211 9.9708z" fill="#f55" stroke="#000" stroke-linecap="round" stroke-linejoin="round" stroke-width=".75"/>
 <path d="m149.02 156.34-2e-3 1.973 2.0276 2.8703-0.20886 25.35-1.1614-0.11112 1.9562 3.0501 2.2234-31.784z" fill="#f55" stroke="#000" stroke-linecap="round" stroke-linejoin="round" stroke-width=".74236"/>
 <path d="m177.77 180.1-1.8297-0.87667-20.04 2.1619c2.213 6.9551 16.857 2.2959 21.87-1.2852z" fill="#f55" stroke="#000" stroke-linecap="round" stroke-linejoin="round" stroke-width=".74236"/>
 <path d="m151.82 159.2-0.23005 30.22 26.023-2.5133 0.29564-6.7282-19.691 2.1394 0.25437-23.004z" fill="url(#linearGradient3950)" stroke="#000" stroke-linecap="round" stroke-linejoin="round" stroke-width=".74236"/>
 <path d="m151.81 159.71-2.6724-3.481 6.2727-0.33755 2.975 3.3802z" fill="#faa" stroke="#000" stroke-linecap="round" stroke-linejoin="round" stroke-width=".74236"/>
 <path d="m55.156 179.45 5.4386-26.197 7.8244 1.4453 7.4541 16.213 9.782-13.024 7.0419 0.68549 6.5509 29.531-10.352-1.2388-3.1133-17.247-11.385 14.562-8.1857-18.066-2.5065 15.406z" fill="url(#linearGradient3847)" stroke="#000" stroke-linecap="round" stroke-linejoin="round" stroke-width=".75"/>
 <path d="m60.786 153.41 5.3671-3.5359 7.8493 1.4661-5.5478 4.0389z" fill="#faa" stroke="#000" stroke-linecap="round" stroke-linejoin="round" stroke-width=".75"/>
 <path d="m85.64 157.78 3.0757-3.3596 7.2765 0.67296-3.0361 3.5101z" fill="#faa" stroke="#000" stroke-linecap="round" stroke-linejoin="round" stroke-width=".75"/>
 <path d="m116.57 156.58-0.0183 1.84-2.328 3.0484c0.49909 11.333 1.4368 21.086 9.1457 21.322 8.8653 0.27124 10.272-8.6811 11.104-20.663l-0.26428-3.0953-0.0441-2.044 3.8322 4.0014c4.0015 19.169-4.4778 23.17-14.976 24.717-13.674-7.1783-20.777-25.579-6.4507-29.126z" fill="#f55" stroke="#000" stroke-linecap="round" stroke-linejoin="round" stroke-width=".76213"/>
 <path d="m113.41 159.55c0.1126 17.082 2.8335 23.787 9.887 24.059 6.2468 0.24077 11.279-2.1504 11.781-23.539l7.5412 0.0513c-0.76018 21.997-3.9368 30.233-19.316 29.75-15.108-0.47452-17.109-14.453-16.799-30.227 3.5925-1.8518 4.5639-0.46415 6.9064-0.0941z" fill="url(#linearGradient3942)" stroke="#000" stroke-linecap="round" stroke-linejoin="round" stroke-width=".71252"/>
 <path d="m106.49 159.66 3.4503-3.3612 6.5666 0.17091-3.0597 3.5594z" fill="#faa" stroke="#000" stroke-linecap="round" stroke-linejoin="round" stroke-width=".75"/>
 <path d="m183.55 155.64-0.12463 30.162 27.482-6.3252v-6.5122l-19.755 4.6115 0.12464-7.7274 14.582-3.1159-1e-5 -4.6115-14.208 2.8666-0.12463-5.3593 18.9-4.0475 0.16871-5.3593z" fill="url(#linearGradient3958)" stroke="#000" stroke-linecap="round" stroke-linejoin="round" stroke-width=".75"/>
 <path d="m210.53 150.14-6.3454-1.7626-25.244 4.6055 4.5774 2.7975z" fill="#faa" stroke="#000" stroke-linecap="round" stroke-linejoin="round" stroke-width=".75"/>
 <path d="m182.31 153.59c1e-3 1.1e-4 3e-3 1.8e-4 5e-3 2e-4s4e-3 -1e-5 7e-3 -9e-5c5e-3 -1.6e-4 0.0111-5.2e-4 0.0189-1e-3 0.0145-1e-3 0.0343-3e-3 0.0605-6e-3 0.0471-5e-3 0.11452-0.0142 0.20842-0.0278 0.16307-0.0236 0.40023-0.0606 0.73792-0.11683 0.58299-0.097 1.4092-0.2416 2.537-0.44579 2.0655-0.37399 4.7694-0.88042 7.5499-1.4067 3.9392-0.74564 7.1179-1.3518 8.4403-1.6234 0.4476-0.0919 1.2546-0.33511 1.7454-0.5134 0.5287-0.19205 0.62636-0.28355 0.62636-0.28355s-0.12586-0.0454-0.6874-0.0132c-0.52127 0.0299-1.3587 0.12469-1.8063 0.21662-1.3223 0.27158-4.4822 0.96762-8.3986 1.8231-1.7923 0.39148-5.7098 1.2464-7.502 1.6379 1.2403-0.27079-3.7563 0.8194-2.516 0.54861-0.33248 0.0722-0.57014 0.12328-0.72998 0.15674-0.0926 0.0194-0.15941 0.0329-0.20582 0.0416-0.0259 5e-3 -0.0455 8e-3 -0.0598 0.0104-8e-3 1e-3 -0.0139 2e-3 -0.0187 2e-3 -3e-3 2.4e-4 -5e-3 3.8e-4 -7e-3 4.4e-4 -2e-3 5e-5 -3e-3 2e-5 -5e-3 -9e-5z" fill="#fff"/>
 <path d="m88.79 155.37c1.71e-4 -2.3e-4 4.36e-4 -4.3e-4 7.92e-4 -6.1e-4 0.0023-6.7e-4 0.0036-8.1e-4 0.0053-8.6e-4 0.0016-4e-5 0.0035-1e-5 0.0058 1.2e-4 0.0022 1.2e-4 0.0048 3.2e-4 0.0077 6e-4 0.0055 5.3e-4 0.01233 1e-3 0.02067 2e-3 0.0078 1e-3 0.01699 2e-3 0.02763 4e-3 0.03709 6e-3 0.0957 0.0151 0.17554 0.028 0.14928 0.0241 0.33023 0.0531 0.61407 0.0973 0.51334 0.0799 1.1536 0.17653 1.8463 0.28065 0.96614 0.1452 1.7473 0.26664 2.0751 0.29819 0.22186 0.0214 0.63246-0.2431 0.63246-0.2431s-0.3523-0.33863-0.57439-0.36001c-0.32807-0.0316-1.1188-0.0617-2.0963-0.0953-0.69027-0.0237-1.3597-0.0423-1.8698-0.0457-0.27852-2e-3 -0.48134 1e-3 -0.62384 7e-3 -0.08246 4e-3 -0.13982 8e-3 -0.17876 0.0126-0.01083 1e-3 -0.02014 3e-3 -0.02808 4e-3 -0.0085 1e-3 -0.01537 3e-3 -0.02091 4e-3 -0.0029 6.4e-4 -0.0055 1e-3 -0.0077 2e-3 -0.0023 6.4e-4 -0.0042 1e-3 -0.0058 2e-3z" fill="#fff"/>
 <path d="m67.11 151.06c1.71e-4 -2.3e-4 4.24e-4 -4.2e-4 7.55e-4 -5.9e-4 0.0061-5.8e-4 0.0078-4.4e-4 0.0097-1.8e-4 0.0019 2.4e-4 0.0041 5.9e-4 0.0065 1e-3 0.0047 8.5e-4 0.01045 2e-3 0.01748 4e-3 0.0066 2e-3 0.0143 3e-3 0.02324 6e-3 0.01653 4e-3 0.03743 0.01 0.06311 0.0165 0.02354 6e-3 0.05186 0.0138 0.08405 0.0225 0.12738 0.0341 0.27424 0.0735 0.5144 0.13653 0.43155 0.11328 0.96535 0.2507 1.5475 0.4002 0.80991 0.20799 1.4643 0.38034 1.7409 0.43338 0.18724 0.0359 0.56642-0.19946 0.56642-0.19946s-0.26477-0.35963-0.4523-0.3956c-0.27701-0.0531-0.94957-0.13546-1.7814-0.23344-0.58732-0.0692-1.1575-0.13178-1.5931-0.16848-0.23778-0.02-0.41146-0.0303-0.53383-0.0334-0.03386-8.3e-4 -0.06295-1e-3 -0.08786-8.8e-4 -0.02696 2.2e-4 -0.04873 9.8e-4 -0.06614 2e-3 -0.0094 5.9e-4 -0.01745 1e-3 -0.02435 2e-3 -0.0074 8.1e-4 -0.01337 2e-3 -0.01821 3e-3 -0.0026 4.8e-4 -0.0048 9.6e-4 -0.0067 1e-3 -2e-3 5e-4 -0.0037 1e-3 -0.0051 1e-3z" fill="#fff"/>
 <path d="m110.07 157.4c0.64729 0.046 2.5677 0.48608 3.215 0.53206 0.17058 0.0121 0.70379-0.25374 0.87437-0.24162-0.17058-0.0121-0.66086-0.35065-0.83144-0.36277-0.64729-0.046-2.6106 0.1183-3.2579 0.0723z" fill="#fff"/>
 <path d="m135 160.18-0.83724-3.2608 6.5657 0.0441 1.9162 3.2168z" fill="#faa" stroke="#000" stroke-linecap="round" stroke-linejoin="round" stroke-width=".75"/>
 <path d="m135.58 157.8c0.70309 4e-3 2.8106 0.31941 3.5137 0.32352 0.18528 1e-3 0.74291-0.2986 0.9282-0.29752-0.18529-1e-3 -0.73937-0.30729-0.92465-0.30837-0.7031-4e-3 -2.8142 0.28649-3.5172 0.28237z" fill="#fff"/>
 <path d="m150.26 156.87c0.70309 4e-3 2.8106 0.31941 3.5137 0.32352 0.18528 1e-3 0.74291-0.2986 0.9282-0.29752-0.18529-1e-3 -0.73937-0.30729-0.92465-0.30837-0.7031-4e-3 -2.8142 0.28649-3.5172 0.28237z" fill="#fff"/>
</svg>
