<?xml version="1.0" encoding="UTF-8"?>
<svg version="1.1" viewBox="0 0 64 64" xmlns="http://www.w3.org/2000/svg">
 <path d="m10.92 24.91 30.656-13.347c0.5497-0.23933 0.9687-0.30219 1.5424-0.30283l8.9154-0.0099c0.87436-9.73e-4 1.042 0.31656 1.0324 1.005l-0.0716 5.1595-18.68 13.973z" fill="#ffb380"/>
 <path d="m7.9115 52.714 4.6592-20.407 20.857 0.05853c1.1568 0.0032 1.0952-0.17738 1.6416-0.60643l1.1415-0.89639 4.0862 20.232-1.6791 1.6202-5.9068 0.03543-4.3331-17.184-5.1057-2.7186-3.8862 2.2275-3.8093 15.47-2.5375 2.1142z" fill="#ffb380"/>
 <rect x="10.495" y="24.818" width="24.087" height="6.7552" rx=".84894" ry=".71642" fill="#ffb380"/>
 <path d="m50.478 19.959 1.9576-1.5355 3.6533 17.38-1.4396 1.3891-5.0644 0.03038-2.9677-14.31z" fill="#ffb380"/>
</svg>
